<?xml version="1.0" standalone="no"?>
<!DOCTYPE svg PUBLIC "-//W3C//DTD SVG 1.1//EN" "http://www.w3.org/Graphics/SVG/1.1/DTD/svg11.dtd" >
<svg>
<metadata>
Created by FontForge 20090914 at Mon Sep 14 11:43:17 2020
 By www-data
Copyright &#194;&#169; 2017 by Deni Anggara. All rights reserved.
</metadata>
<defs>
<font id="Gelion-Bold" horiz-adv-x="0" >
  <font-face 
    font-family="Gelion Bold"
    font-weight="700"
    font-stretch="normal"
    units-per-em="2048"
    panose-1="0 0 8 0 0 0 0 0 0 0"
    ascent="1638"
    descent="-410"
    x-height="924"
    cap-height="1313"
    bbox="-1194 -547 3963 1966"
    underline-thickness="0"
    underline-position="0"
    unicode-range="U+000D-U+FB02"
  />
<missing-glyph horiz-adv-x="950" 
d="M475 586l-379 549h758zM455 563l-383 -547v1094zM496 563l383 547v-1094zM475 541l379 -549h-758z" />
    <glyph glyph-name="uniFB01" unicode="fi" horiz-adv-x="1220" 
d="M1157 0l-285.002 -0.000976562v688h-436v-688h-282l-2 688h-127v236h127v45c0 142 44.333 255.333 133 340s212.667 127 372 127c144.667 0 260.834 -36.167 348.501 -108.5s136.834 -170.166 147.501 -293.499h-285c-9.33301 48 -32.5 85 -69.5 111s-82.5 39 -136.5 39
c-66.667 0 -121 -19.5 -163 -58.5s-63 -91.167 -63 -156.5v-45h721v-924z" />
    <glyph glyph-name="uniFB02" unicode="fl" horiz-adv-x="1284" 
d="M1039.5 1310c89.667 -84 134.501 -197.667 134.501 -341v-969h-285l-2 969c0 65.333 -20.5 117.5 -61.5 156.5s-95.5 58.5 -163.5 58.5s-122.667 -19.833 -164 -59.5s-62 -91.5 -62 -155.5v-45h342v-236h-342v-688h-282l-2 688h-127v236h127v45
c0 143.333 44.667 257 134 341s214.666 126 375.999 126c162 0 287.833 -42 377.5 -126z" />
    <glyph glyph-name="f_f.liga" unicode="ff" horiz-adv-x="1398" 
d="M1168.5 1128.5c-18.333 -31.667 -27.5 -70.5 -27.5 -116.5v-88h223v-236h-223v-688h-283v688h-381v-688h-282v688h-170v236h170v133c0 124 33 215 99 273s159 87 279 87c50.667 0 93 -4 127 -12v-236c-12 4 -34.333 6.33301 -67 7c-68 0 -111 -15.5 -129 -46.5
s-27 -70.167 -27 -117.5v-88h381v133c0 124 33.167 215 99.5 273s159.5 87 279.5 87c50.667 0 93 -4 127 -12v-236c-12 4 -34 6.33301 -66 7c-68 0 -111.167 -15.833 -129.5 -47.5z" />
    <glyph glyph-name="f_f_i.liga" unicode="ffi" horiz-adv-x="1859" 
d="M1110 924l684.001 -0.00292969v-924h-285v688h-399v-688h-285v688h-391v-688h-280l-2 688h-127v236h127v73c0 86 19.667 162.167 59 228.5s94.5 118 165.5 155s153.167 55.5 246.5 55.5c74 0 140.5 -12.333 199.5 -37s107.833 -59 146.5 -103
c80.667 92.667 197.334 139.334 350.001 140.001c134 0 243.667 -35.167 329 -105.5s134.666 -169.166 147.999 -296.499h-283c-8 46.667 -30 83.334 -66 110.001s-79.333 40 -130 40c-62.667 0 -112.834 -17.833 -150.501 -53.5s-56.5 -83.5 -56.5 -143.5v-63z
M825.001 992.997c0 62.667 -17.333 110.168 -52 142.501s-82 48.5 -142 48.5c-61.333 0 -109.5 -16.833 -144.5 -50.5s-52.5 -77.834 -52.5 -132.501v-77h391v69z" />
    <glyph glyph-name="f_f_l.liga" unicode="ffl" horiz-adv-x="1957" 
d="M1711 1311c90.667 -83.333 136 -199.998 136 -349.998v-961h-284l-2 961c0 69.333 -19.833 123.833 -59.5 163.5s-95.167 59.5 -166.5 59.5c-68 0 -122.5 -19.833 -163.5 -59.5s-61.5 -91.5 -61.5 -155.5v-45h342v-236h-342v-688h-283l-2 688h-391v-688h-280l-2 688h-127
v236h127v73c0 86 19.333 162.167 58 228.5s93.167 118 163.5 155s149.833 55.5 238.5 55.5c75.333 0 143 -13.333 203 -40s108.667 -63.334 146 -110.001c44 49.333 99 86.666 165 111.999s140 38 222 38c151.333 0 272.333 -41.667 363 -125zM825 993.002
c0 62.667 -17.333 110.168 -52 142.501s-82 48.5 -142 48.5c-61.333 0 -109.5 -16.833 -144.5 -50.5s-52.5 -77.834 -52.5 -132.501v-77h391v69z" />
    <glyph glyph-name="f_f_t.liga" unicode="fft" horiz-adv-x="2041" 
d="M2015 688l-168 0.00195312v-688h-284l-2 688h-150v236h150v37c0 69.333 -19.833 123.833 -59.5 163.5s-95.167 59.5 -166.5 59.5c-68 0 -122.5 -19.833 -163.5 -59.5s-61.5 -91.5 -61.5 -155.5v-45h215v-236h-215v-688h-283l-2 688h-391v-688h-280l-2 688h-127v236h127
v73c0 86 19.333 162.167 58 228.5s93.167 118 163.5 155s149.833 55.5 238.5 55.5c75.333 0 143 -13.333 203 -40s108.667 -63.334 146 -110.001c44 49.333 99 86.666 165 111.999s140 38 222 38c151.333 0 272.333 -41.667 363 -125s136 -200 136 -350v-37h168v-236z
M825 993.002c0 62.667 -17.333 110.168 -52 142.501s-82 48.5 -142 48.5c-61.333 0 -109.5 -16.833 -144.5 -50.5s-52.5 -77.834 -52.5 -132.501v-77h391v69z" />
    <glyph glyph-name="f_t.liga" unicode="ft" horiz-adv-x="1361" 
d="M1335 688h-160.999v-688h-285l-2 688h-158v236h158v45c0 65.333 -20.5 117.5 -61.5 156.5s-95.5 58.5 -163.5 58.5s-122.667 -19.833 -164 -59.5s-62 -91.5 -62 -155.5v-45h209v-236h-209v-688h-282l-2 688h-127v236h127v45c0 143.333 44.667 257 134 341
s214.666 126 375.999 126c162.667 0 288.667 -42 378 -126s134 -197.667 134 -341v-45h161v-236z" />
    <glyph glyph-name="f_y.liga" unicode="fy" horiz-adv-x="1679" 
d="M1657 924l-428 -1074c-23.333 -56 -49 -104.667 -77 -146s-69.333 -78 -124 -110c-54.667 -31.333 -123.667 -47 -207 -47c-56 0 -118.667 7.66699 -188 23l4 233c50.667 -9.33301 95 -14 133 -14c46.667 0 83.667 6.66699 111 20c27.333 12.667 47.333 28.667 60 48
s24.667 43.666 36 72.999l16 41l-395 953h309l217 -605l230 605h303zM504 1129c-18 -30.667 -27 -69.666 -27 -116.999v-88h223v-236h-223v-688h-282v688h-170v236h170v133c0 124 33 215 99 273s159 87 279 87c50.667 0 93 -4 127 -12v-236c-12 4 -34.333 6.33301 -67 7
c-68 -0.666992 -111 -16.334 -129 -47.001z" />
    <glyph glyph-name="i_j.liga" unicode="ij" horiz-adv-x="1011" 
d="M118.5 1112c-37 35.333 -55.5 78.333 -55.5 129c0 52 18.167 95.333 54.5 130s81.833 52 136.5 52s100 -17.333 136 -52s54 -78 54 -130c0 -49.333 -18.333 -92 -55 -128s-81.667 -54 -135 -54s-98.5 17.667 -135.5 53zM624.5 1112c-37 35.333 -55.5 78.333 -55.5 129
c0 52 18.167 95.333 54.5 130s81.833 52 136.5 52s100 -17.333 136 -52s54 -78 54 -130c0 -49.333 -18.333 -92 -55 -128s-81.667 -54 -135 -54s-98.5 17.667 -135.5 53zM903 -436h-285l-2 1124h-219v-688h-286v924h792v-1360z" />
    <glyph glyph-name="i_t_i.liga" unicode="iti" horiz-adv-x="1695" 
d="M1305.5 1122.5c-36.333 35.667 -54.5 78.5 -54.5 128.5c0 52 18.167 95.5 54.5 130.5s81.833 52.5 136.5 52.5c53.333 0 98.333 -17.5 135 -52.5s55 -78.5 55 -130.5c0 -50.667 -18.333 -93.667 -55 -129s-81.667 -53 -135 -53c-54.667 0 -100.167 17.833 -136.5 53.5z
M118.5 1112c-37 35.333 -55.5 78.333 -55.5 129c0 52 18.167 95.333 54.5 130s81.833 52 136.5 52s100 -17.333 136 -52s54 -78 54 -130c0 -49.333 -18.333 -92 -55 -128s-81.667 -54 -135 -54s-98.5 17.667 -135.5 53zM991 924h594v-924h-287v688h-307v-688h-286v688h-308
v-688h-286v924h594v239h286v-239z" />
    <glyph glyph-name="i_t_y.liga" unicode="ity" horiz-adv-x="2134" 
d="M118.5 1112c-37 35.333 -55.5 78.333 -55.5 129c0 52 18.167 95.333 54.5 130s81.833 52 136.5 52s100 -17.333 136 -52s54 -78 54 -130c0 -49.333 -18.333 -92 -55 -128s-81.667 -54 -135 -54s-98.5 17.667 -135.5 53zM2111 924l-428 -1074
c-22 -54.667 -47.167 -103 -75.5 -145s-69.833 -78.833 -124.5 -110.5s-123.667 -47.5 -207 -47.5c-58.667 0 -120.667 7.66699 -186 23l2 233c50.667 -9.33301 95.667 -14 135 -14c46.667 0 83.167 6.5 109.5 19.5s46 28.667 59 47s25.833 43.166 38.5 74.499l14 41
l-297 717h-199v-688h-286v688h-269v-688h-286v924h555v239h286v-239h410l219 -605l227 605h303z" />
    <glyph glyph-name="t_i.liga" unicode="ti" horiz-adv-x="1187" 
d="M799.5 1122.5c-36.333 35.667 -54.5 78.5 -54.5 128.5c0 52 18.167 95.5 54.5 130.5s81.833 52.5 136.5 52.5c53.333 0 98.333 -17.5 135 -52.5s55 -78.5 55 -130.5c0 -50.667 -18.333 -93.667 -55 -129s-81.667 -53 -135 -53c-54.667 0 -100.167 17.833 -136.5 53.5z
M485 924h594v-924h-286v688h-308v-688h-286v688h-172v236h172v239h286v-239z" />
    <glyph glyph-name="t_t.liga" unicode="tt" horiz-adv-x="1353" 
d="M1327 688h-170v-688h-285v688h-387v-688h-286v688h-172v236h172v239h286v-239h387v239h285v-239h170v-236z" />
    <glyph glyph-name="t_u.liga" unicode="tu" horiz-adv-x="1783" 
d="M1683 924v-924.001h-237l-19 104c-64 -87.333 -158 -131 -282 -131c-110.667 0 -196 32.833 -256 98.5s-90 155.167 -90 268.5v348h-316v-688h-286v688h-170v236h170v239h286v-239h602v-541c0 -57.333 13.333 -98.666 40 -123.999s65.334 -38 116.001 -38
c49.333 0 87.666 15.333 114.999 46s41 72 41 124v533h286z" />
    <glyph glyph-name="t_y.liga" unicode="ty" horiz-adv-x="1667" 
d="M1645 924l-428 -1074c-23.333 -56 -49 -104.667 -77 -146s-69.333 -77.833 -124 -109.5s-123.667 -47.5 -207 -47.5c-56 0 -118.667 7.66699 -188 23l4 233c50.667 -9.33301 95 -14 133 -14c46.667 0 83.5 6.5 110.5 19.5s47 29 60 48s25.167 43.5 36.5 73.5l16 41
l-297 717h-199v-688h-286v688h-172v236h172v239h286v-239h410l217 -605l229 605h304z" />
    <glyph glyph-name=".notdef" horiz-adv-x="950" 
d="M475 586l-379 549h758zM455 563l-383 -547v1094zM496 563l383 547v-1094zM475 541l379 -549h-758z" />
    <glyph glyph-name="uni000D" unicode="&#xd;" horiz-adv-x="401" 
 />
    <glyph glyph-name="space" unicode=" " horiz-adv-x="487" 
 />
    <glyph glyph-name="exclam" unicode="!" horiz-adv-x="645" 
d="M227 496l-61 817h313l-57 -817h-195zM179.5 22.5c-39 35.667 -58.5 82.834 -58.5 141.501c0 60 19.5 107.333 58.5 142s87.833 52 146.5 52c56 0 103.333 -17.333 142 -52s58 -82 58 -142c0 -58.667 -19 -105.834 -57 -141.501s-85.667 -53.5 -143 -53.5
c-58.667 0 -107.5 17.833 -146.5 53.5z" />
    <glyph glyph-name="quotedbl" unicode="&#x22;" horiz-adv-x="806" 
d="M104 1282c27.333 28.667 62.333 43.001 105 43.001c42 0 76.667 -14.333 104 -43s41 -65.667 41 -111c0 -10.667 -2 -24.334 -6 -41.001l-100 -473h-80l-98 469c-4 24.667 -6.33301 39.667 -7 45c0 45.333 13.667 82.333 41 111zM494 1282
c27.333 28.667 62.667 43.001 106 43.001c40.667 0 74.667 -14.333 102 -43s41 -65.667 41 -111c0 -10.667 -2 -24.334 -6 -41.001l-100 -473h-80l-98 469c-4 24.667 -6 39.667 -6 45c0 45.333 13.667 82.333 41 111z" />
    <glyph glyph-name="numbersign" unicode="#" horiz-adv-x="1376" 
d="M1067 727l-29 -141h209l-53 -275h-211l-63 -311h-285l63 311h-182l-63 -311h-281l64 311h-168l55 275h168l28 141h-186l55 277h187l63 309h283l-64 -309h183l63 309h283l-64 -309h189l-56 -277h-188zM784 727h-182l-31 -141h183z" />
    <glyph glyph-name="dollar" unicode="$" horiz-adv-x="1210" 
d="M968.5 159.5c-73.667 -65.667 -169.169 -104.498 -286.502 -116.498v-195h-152v195c-117.333 13.333 -211.833 54.5 -283.5 123.5s-110.167 157.5 -115.5 265.5h277c2.66699 -49.333 21.334 -88.666 56.001 -117.999s84 -44 148 -44c58.667 0 103.5 12 134.5 36
s46.5 55.667 46.5 95c0 28.667 -7.5 51.667 -22.5 69s-33.5 30.666 -55.5 39.999s-55 21 -99 35l-129 41c-56 18 -107.167 38.5 -153.5 61.5s-88.5 59 -126.5 108s-57 112.5 -57 190.5c0 105.333 34 192.166 102 260.499s160.667 107.833 278 118.5v197h152v-199
c110.667 -15.333 198.334 -57 263.001 -125s97.667 -154 99 -258h-274c-1.33301 49.333 -18 88.333 -50 117s-76 43 -132 43c-53.333 0 -94 -11.667 -122 -35s-42 -54.666 -42 -93.999s17 -69.333 51 -90s80.333 -39.334 139 -56.001l164 -49
c104 -30 180.167 -76 228.5 -138s72.5 -135.333 72.5 -220c0 -106.667 -36.833 -192.834 -110.5 -258.501z" />
    <glyph glyph-name="percent" unicode="%" horiz-adv-x="1579" 
d="M122 1238c26.667 47.333 63.832 85.002 111.499 113.002s102.167 42 163.5 42c62.667 0 118.334 -14 167.001 -42s86 -65.333 112 -112s39 -97.334 39 -152.001c0 -53.333 -12.667 -102.833 -38 -148.5s-61.833 -82.5 -109.5 -110.5s-102.5 -42 -164.5 -42
c-62.667 0 -118.5 14 -167.5 42s-86.833 65.333 -113.5 112s-40 95.667 -40 147c0 53.333 13.333 103.666 40 150.999zM177.998 0.00195312l1039 1368h202l-1038 -1368h-203zM307.998 1000.5c24 -23.667 54.999 -35.5 92.999 -35.5c36.667 0 66.334 11.833 89.001 35.5
s34 52.5 34 86.5c0 35.333 -11.167 65.333 -33.5 90s-52.833 37 -91.5 37c-38 0 -69 -11.833 -93 -35.5s-35.333 -53.167 -34 -88.5c0 -36 12 -65.833 36 -89.5zM902.997 419.502c26 46.333 63.166 83.5 111.499 111.5s103.5 42 165.5 42c62.667 0 117.834 -14 165.501 -42
s84.834 -65.167 111.501 -111.5s40 -96.166 40 -149.499s-13 -103.166 -39 -149.499s-62.833 -83.166 -110.5 -110.499s-102.834 -41 -165.501 -41s-118 13.667 -166 41s-85.333 64.166 -112 110.499s-40 96.166 -40 149.499s13 103.166 39 149.499zM1088.5 182.002
c23.667 -23.333 54.167 -35.001 91.5 -35.001c38 0 68.333 12 91 36s34 53 34 87s-11.333 63.333 -34 88s-53.667 37 -93 37c-38 0 -68.333 -11.833 -91 -35.5s-34 -53.5 -34 -89.5c0 -35.333 11.833 -64.666 35.5 -87.999z" />
    <glyph glyph-name="ampersand" unicode="&#x26;" horiz-adv-x="1519" 
d="M1044 -2l-75.0039 83.9971c-48 -34 -105.167 -59.5 -171.5 -76.5s-136.166 -25.5 -209.499 -25.5c-131.333 0 -237.666 31.333 -318.999 94s-122 147.334 -122 254.001c0 60 12.667 112.833 38 158.5s50.333 80.167 75 103.5s55.334 49.333 92.001 78l49 34l-45 50
c-30 32.667 -57.167 69.5 -81.5 110.5s-36.5 92.167 -36.5 153.5s16.667 116.833 50 166.5s80.333 88.5 141 116.5s130 42 208 42c116 0 210.5 -29 283.5 -87s109.5 -134 109.5 -228c0 -61.333 -16 -116.333 -48 -165s-77.333 -94.667 -136 -138l-55 -43l170 -184
c10.667 32.667 17.667 65.667 21 99s5 74 5 122h399v-219h-159c-4 -39.333 -12.167 -78.166 -24.5 -116.499s-28.166 -71.166 -47.499 -98.499l260 -285h-371zM553.996 1090.5c-20 -19.667 -30 -43.834 -30 -72.501c0 -24.667 6.16699 -46.167 18.5 -64.5
s24.666 -33 36.999 -44s19.833 -18.5 22.5 -22.5l27 -29l35 31c22 20.667 40.333 40.167 55 58.5s22 41.833 22 70.5s-9.16699 52.834 -27.5 72.501s-45.166 29.5 -80.499 29.5c-32.667 0 -59 -9.83301 -79 -29.5zM794.996 271.997l-233.999 254l-31 -22
c-48 -39.333 -71.667 -85 -71 -137c0 -42 15.667 -75.833 47 -101.5s73.666 -38.5 126.999 -38.5c62.667 0 116.667 15 162 45z" />
    <glyph glyph-name="quotesingle" unicode="'" horiz-adv-x="419" 
d="M104 1282c27.333 28.667 63 43.001 107 43.001c42 0 76.667 -14.333 104 -43s41 -65.667 41 -111c0 -10.667 -2 -24.334 -6 -41.001l-100 -473h-80l-100 469c-4 24.667 -6.33301 39.667 -7 45c0 45.333 13.667 82.333 41 111z" />
    <glyph glyph-name="parenleft" unicode="(" horiz-adv-x="630" 
d="M412 -383c-104 104 -186.333 234.502 -247 391.502s-91 324.833 -91 503.5c0 169.333 29 333.833 87 493.5s141.667 294.167 251 403.5h219c-82 -105.333 -147.333 -236.833 -196 -394.5s-73 -325.167 -73 -502.5c0 -162.667 22.667 -323.834 68 -483.501
s112.333 -296.834 201 -411.501h-219z" />
    <glyph glyph-name="parenright" unicode=")" horiz-adv-x="624" 
d="M199.5 29.5c45.667 159 68.5 319.833 68.5 482.5c0 174.667 -24.167 341.167 -72.5 499.5s-113.5 290.833 -195.5 397.5h217c109.333 -109.333 193 -243.833 251 -403.5s87 -324.167 87 -493.5c0 -178.667 -30.333 -346.5 -91 -503.5s-143 -287.5 -247 -391.5h-217
c87.333 116 153.833 253.5 199.5 412.5z" />
    <glyph glyph-name="asterisk" unicode="*" horiz-adv-x="780" 
d="M625 969l114 -66.001l-67 -117l-113 68c-45.333 26 -85 54.667 -119 86c10.667 -52 16.334 -100.333 17.001 -145v-133h-133v133c0 42 5.33301 90.333 16 145c-40.667 -35.333 -80.334 -64 -119.001 -86l-115 -68l-65 117l115 66c24.667 15.333 69 35 133 59
c-48 13.333 -92.333 31.666 -133 54.999l-115 68l65 115l115 -66c48 -27.333 87.667 -56.666 119 -87.999c-10.667 54.667 -16 104 -16 148v133h133v-133c0 -44 -5.66699 -93.333 -17 -148c27.333 28.667 67 58 119 88l113 66l67 -115l-114 -68
c-40.667 -23.333 -85 -41.666 -133 -54.999c64 -24 108.333 -43.667 133 -59z" />
    <glyph glyph-name="plus" unicode="+" horiz-adv-x="1222" 
d="M1049 514h-318v-336h-235v336h-322v215h322v338h235v-338h318v-215z" />
    <glyph glyph-name="comma" unicode="," horiz-adv-x="503" 
d="M369.5 258c36.333 -36.667 54.499 -85 54.499 -145c0 -66.667 -15.333 -126.667 -46 -180s-73 -95.833 -127 -127.5s-114.333 -49.5 -181 -53.5v78c64 8 113 28.5 147 61.5s51 71.167 51 114.5c-13.333 -6.66699 -31 -10 -53 -10c-45.333 0 -82.666 14 -111.999 42
s-44 64.333 -44 109c0 48 16.167 87.667 48.5 119s73.5 47 123.5 47c56 0 102.167 -18.333 138.5 -55z" />
    <glyph glyph-name="hyphen" unicode="-" horiz-adv-x="1200" 
d="M1055 621v-252h-910v252h910z" />
    <glyph glyph-name="period" unicode="." horiz-adv-x="466" 
d="M107.5 22.5c-32.333 33 -48.5 72.499 -48.5 118.499c0 48 16.167 88.333 48.5 121s74.166 49 125.499 49c50.667 0 92.5 -16.667 125.5 -50s49.5 -73.333 49.5 -120c0 -45.333 -16.5 -84.666 -49.5 -117.999s-74.833 -50 -125.5 -50
c-51.333 0 -93.166 16.5 -125.499 49.5z" />
    <glyph glyph-name="slash" unicode="/" horiz-adv-x="917" 
d="M573 1313h283l-512 -1313h-283z" />
    <glyph glyph-name="zero" unicode="0" horiz-adv-x="1187" 
d="M311.5 59c-79 54.667 -139.332 133.333 -180.999 236s-62.5 222.667 -62.5 360c0 139.333 20.833 260.666 62.5 363.999s101.667 182.5 180 237.5s172.166 82.5 281.499 82.5c108 0 201.833 -27.5 281.5 -82.5s141 -134.167 184 -237.5s64.5 -224.666 64.5 -363.999
c0 -138 -21.5 -258.167 -64.5 -360.5s-104.333 -180.833 -184 -235.5s-173.5 -82 -281.5 -82s-201.5 27.333 -280.5 82zM767.001 344.499c38.667 72.333 58 175.833 58 310.5c0 135.333 -19.333 239.5 -58 312.5s-96.334 109.5 -173.001 109.5
c-75.333 0 -132.833 -36.167 -172.5 -108.5s-59.5 -176.833 -59.5 -313.5c0 -134 19.833 -237.333 59.5 -310s97.167 -109 172.5 -109c76.667 0 134.334 36.167 173.001 108.5z" />
    <glyph glyph-name="one" unicode="1" horiz-adv-x="837" 
d="M66 1079c121.333 0 210.667 19.5 268 58.5s94 97.5 110 175.5h261v-1313h-293v858h-346v221z" />
    <glyph glyph-name="two" unicode="2" horiz-adv-x="1073" 
d="M559 260h431.998v-260h-864v207l469 489c34 36.667 60.667 71.5 80 104.5s29 70.5 29 112.5c0 50.667 -15.167 90.334 -45.5 119.001s-71.166 43 -122.499 43c-57.333 0 -101.833 -17.333 -133.5 -52s-45.5 -80 -41.5 -136h-284c-5.33301 88.667 12 167.5 52 236.5
s97 122.167 171 159.5s158 56 252 56c87.333 0 164.833 -16.667 232.5 -50s119.834 -80.333 156.501 -141s55 -131.334 55 -212.001c0 -84.667 -17 -157 -51 -217s-77.667 -119.333 -131 -178z" />
    <glyph glyph-name="three" unicode="3" horiz-adv-x="1118" 
d="M958.5 681.5c61.667 -71 92.5 -158.168 92.5 -261.501c0 -86 -21.167 -162.167 -63.5 -228.5s-101.166 -118.166 -176.499 -155.499s-160.666 -56 -255.999 -56c-94 0 -178.333 18.333 -253 55s-132.334 89.167 -173.001 157.5s-60.334 147.5 -59.001 237.5h286
c0 -57.333 18.833 -104 56.5 -140s86.5 -54 146.5 -54c58.667 0 106.5 17 143.5 51s55.5 80.333 55.5 139c0 56 -18.167 100 -54.5 132s-84.5 49.333 -144.5 52c-16.667 1.33301 -63 2 -139 2h-78v191l266 260h-465v250h836v-236l-268 -266
c103.333 -15.333 185.833 -58.5 247.5 -129.5z" />
    <glyph glyph-name="four" unicode="4" horiz-adv-x="1144" 
d="M1096 502v-242h-168v-260h-283v260h-596v217l526 836h353v-811h168zM645 502v454l-285 -454h285z" />
    <glyph glyph-name="five" unicode="5" horiz-adv-x="1165" 
d="M863.5 825.5c69 -38.333 122.832 -91.3301 161.499 -158.997s58 -143.834 58 -228.501c0 -88.667 -22.5 -167.834 -67.5 -237.501s-106 -123.5 -183 -161.5s-163.5 -57 -259.5 -57c-94 0 -178.167 18.667 -252.5 56s-132.666 90.166 -174.999 158.499
s-63.5 146.833 -63.5 235.5h287c0 -57.333 19 -104 57 -140s86.333 -54 145 -54c61.333 0 112.833 19 154.5 57s62.5 87 62.5 147c0 58.667 -19.667 106.834 -59 144.501s-91.333 56.5 -156 56.5c-39.333 0 -76 -7.83301 -110 -23.5s-61.333 -35.834 -82 -60.501l-279 29
l170 725h723v-250h-501l-58 -217c49.333 24.667 113 37 191 37c88.667 0 167.5 -19.167 236.5 -57.5z" />
    <glyph glyph-name="six" unicode="6" horiz-adv-x="1181" 
d="M874.5 833.5c72.333 -37 129.333 -88.834 171 -155.501s62.5 -144 62.5 -232c0 -88.667 -22.167 -168.5 -66.5 -239.5s-106.5 -126.5 -186.5 -166.5s-171 -60 -273 -60c-102.667 0 -192.167 20 -268.5 60s-134.666 94.833 -174.999 164.5s-60.5 146.834 -60.5 231.501
c0 83.333 17 160.5 51 231.5s81 149.5 141 235.5l289 410h318l-308 -428c27.333 2.66699 48.666 4 63.999 4c88.667 0 169.167 -18.5 241.5 -55.5zM748.5 292.999c43 36.667 64.501 85.667 64.501 147s-21.167 110.166 -63.5 146.499s-93.5 54.5 -153.5 54.5
c-62.667 0 -115.5 -18.167 -158.5 -54.5s-64.5 -85.166 -64.5 -146.499c0 -62.667 21.167 -112 63.5 -148s94.166 -54 155.499 -54s113.5 18.333 156.5 55z" />
    <glyph glyph-name="seven" unicode="7" horiz-adv-x="960" 
d="M932 1313v-226l-500 -1087h-311l489 1063h-581v250h903z" />
    <glyph glyph-name="eight" unicode="8" horiz-adv-x="1120" 
d="M1002.5 579c33.667 -55.333 50.499 -118.668 50.499 -190.001c0 -83.333 -21.167 -156 -63.5 -218s-101.166 -109 -176.499 -141s-159.333 -48 -252 -48c-95.333 0 -180.166 16.333 -254.499 49s-132.666 79.667 -174.999 141s-63.5 133.666 -63.5 216.999
c0 72.667 16.667 136.334 50 191.001s78.666 95.334 135.999 122.001c-42 28.667 -76.333 67.667 -103 117s-40 101.333 -40 156c0 69.333 19 131.666 57 186.999s91.167 98.666 159.5 129.999s146.166 47 233.499 47s165.5 -16 234.5 -48s122.667 -75.667 161 -131
s57.5 -117.666 57.5 -186.999c0 -58.667 -14 -112 -42 -160s-64.667 -85.667 -110 -113c60 -25.333 106.833 -65.666 140.5 -120.999zM441.999 1046.5c-30 -25.667 -45 -58.501 -45 -98.501c0 -42 16.167 -76 48.5 -102s70.833 -39 115.5 -39c44 0 82.333 13.333 115 40
s49 60.334 49 101.001c0 39.333 -15.333 72 -46 98s-70.667 39 -120 39c-48 0 -87 -12.833 -117 -38.5zM701.499 283.997c36.333 30.667 54.499 70.333 54.499 119c0 49.333 -18.167 88.666 -54.5 117.999s-83.166 44 -140.499 44c-58.667 0 -106.5 -15 -143.5 -45
s-55.5 -69 -55.5 -117c0 -49.333 18.5 -89.166 55.5 -119.499s84.167 -45.5 141.5 -45.5c58.667 0 106.167 15.333 142.5 46z" />
    <glyph glyph-name="nine" unicode="9" horiz-adv-x="1185" 
d="M869.5 1275.5c77 -41 136.001 -96.501 177.001 -166.501s61.5 -147.333 61.5 -232s-17 -161.167 -51 -229.5s-82 -146.166 -144 -233.499l-286 -414h-320l309 426c-30 -2.66699 -51 -4 -63 -4c-88.667 0 -169.167 18.833 -241.5 56.5s-129.333 89.834 -171 156.501
s-62.5 143.667 -62.5 231c0 91.333 22.5 172.666 67.5 243.999s107.167 127 186.5 167s168.666 60 267.999 60c102.667 0 192.5 -20.5 269.5 -61.5zM434.501 727.999c42.333 -36 94.166 -54 155.499 -54c62.667 0 115.167 17.667 157.5 53s63.5 83.666 63.5 144.999
c0 62.667 -21.167 111.834 -63.5 147.501s-94.166 53.5 -155.499 53.5s-113.5 -17.667 -156.5 -53s-64.5 -84 -64.5 -146c0 -61.333 21.167 -110 63.5 -146z" />
    <glyph glyph-name="colon" unicode=":" horiz-adv-x="636" 
d="M201 649c-34 32.667 -51 71.667 -51 117s16.667 84.666 50 117.999s73 50 119 50c45.333 0 84.666 -16.667 117.999 -50s50 -72.666 50 -117.999s-16.667 -84.333 -50 -117s-72.666 -49 -117.999 -49c-44.667 0 -84 16.333 -118 49zM200 39
c-33.333 32.667 -50 71.667 -50 117s16.667 84.666 50 117.999s73 50 119 50c45.333 0 84.666 -17.167 117.999 -51.5s50 -73.166 50 -116.499c0 -45.333 -16.667 -84.333 -50 -117s-72.666 -49 -117.999 -49c-46 0 -85.667 16.333 -119 49z" />
    <glyph glyph-name="semicolon" unicode=";" horiz-adv-x="612" 
d="M193.5 648c-33.667 32 -50.5 71.333 -50.5 118s16.833 86.334 50.5 119.001s74.167 49 121.5 49c46.667 0 86.334 -16.333 119.001 -49s49 -72.334 49 -119.001s-16.333 -86 -49 -118s-72.334 -48 -119.001 -48c-47.333 0 -87.833 16 -121.5 48zM442.5 260
c35.667 -36.667 53.498 -85.666 53.498 -146.999c0 -66.667 -15.5 -126.667 -46.5 -180s-73.333 -95.833 -127 -127.5s-114.167 -49.5 -181.5 -53.5v78c64 8 113.167 28.5 147.5 61.5s51.5 71.167 51.5 114.5c-18 -6.66699 -35.667 -10 -53 -10
c-45.333 0 -82.666 14 -111.999 42s-44 64.333 -44 109c0 49.333 16.333 89.666 49 120.999s74.334 47 125.001 47c56 0 101.833 -18.333 137.5 -55z" />
    <glyph glyph-name="less" unicode="&#x3c;" horiz-adv-x="808" 
d="M66 616l669 324v-317l-354 -156l354 -160v-315l-669 323v301z" />
    <glyph glyph-name="equal" unicode="=" horiz-adv-x="1130" 
d="M928 958v-235h-725v235h725zM928 500v-238h-725v238h725z" />
    <glyph glyph-name="greater" unicode="&#x3e;" horiz-adv-x="823" 
d="M72 307l356 160l-356 156v317l671 -324v-301l-671 -323v315z" />
    <glyph glyph-name="question" unicode="?" horiz-adv-x="1021" 
d="M740.5 1296c65 -28.667 115.834 -68.833 152.501 -120.5s55 -111.834 55 -180.501c0 -70.667 -17.333 -130.334 -52 -179.001s-85 -101.667 -151 -159c-46.667 -40.667 -81.167 -74.667 -103.5 -102s-35.5 -56.666 -39.5 -87.999v-18h-266v18c0 66.667 17 123.667 51 171
s81.667 96.666 143 147.999c46.667 40.667 81 74.834 103 102.501s33 57.834 33 90.501c0 36.667 -14.333 66.667 -43 90s-65 35 -109 35c-53.333 0 -95.666 -15.667 -126.999 -47s-45.666 -71 -42.999 -119h-268c-2.66699 72.667 13.666 139.667 48.999 201
s87.166 110 155.499 146s148.166 54 239.499 54c82 0 155.5 -14.333 220.5 -43zM607.501 284.001c36.333 -32 54.502 -75.333 54.502 -130s-17.833 -97.834 -53.5 -129.501s-80.834 -47.5 -135.501 -47.5s-99.667 15.833 -135 47.5s-53 74.834 -53 129.501s17.667 98 53 130
s80.333 48 135 48c53.333 0 98.166 -16 134.499 -48z" />
    <glyph glyph-name="at" unicode="@" horiz-adv-x="1964" 
d="M1341 846v-518.003c0 -36.667 10.333 -66 31 -88s46.667 -33 78 -33c58.667 0 103 26.667 133 80s45 126.333 45 219c0 124 -27 234.167 -81 330.5s-129.667 170.833 -227 223.5s-209.666 79 -336.999 79c-125.333 0 -237.166 -27.333 -335.499 -82
s-175.166 -131.5 -230.499 -230.5s-83 -212.167 -83 -339.5c0 -128.667 27.667 -242.667 83 -342s132.166 -176.333 230.499 -231s210.166 -82 335.499 -82c136.667 0 257.667 32.667 363 98l96 -180c-136.667 -78 -289.667 -117 -459 -117
c-164 0 -311.833 35.833 -443.5 107.5s-235.334 172.167 -311.001 301.5s-113.5 277.666 -113.5 444.999c0 166.667 38.167 314.834 114.5 444.501s180.333 230 312 301s278.834 106.5 441.501 106.5c160 0 306.167 -35.167 438.5 -105.5s236.666 -168.166 312.999 -293.499
s114.5 -266.666 114.5 -423.999c0 -96.667 -17 -182.667 -51 -258s-82 -133.833 -144 -175.5s-134 -62.5 -216 -62.5c-87.333 0 -155.333 22 -204 66s-79 95.333 -91 154c-24.667 -32.667 -57.5 -58.667 -98.5 -78s-87.5 -29 -139.5 -29
c-102.667 0 -185.667 33.5 -249 100.5s-95 154.5 -95 262.5c0 70.667 15 134.334 45 191.001s72 100.667 126 132s116.667 47 188 47c50.667 0 97 -9.16699 139 -27.5s75.333 -44.5 100 -78.5l10 86h172zM1084.5 355.497c35 36.333 52.501 83.832 52.501 142.499
s-17.5 106.334 -52.5 143.001s-79.167 55 -132.5 55c-58.667 0 -105.334 -18.333 -140.001 -55s-52 -83.667 -52 -141c0 -58.667 17.667 -106.5 53 -143.5s81 -55.5 137 -55.5c54.667 0 99.5 18.167 134.5 54.5z" />
    <glyph glyph-name="A" unicode="A" horiz-adv-x="1298" 
d="M506 1313h289l487 -1313h-317l-97 270h-442l-98 -270h-312zM782 520l-51 142l-53 165l-27 82c-4 -18 -14.5 -51.167 -31.5 -99.5s-35.167 -97.5 -54.5 -147.5l-53 -142h270z" />
    <glyph glyph-name="B" unicode="B" horiz-adv-x="1228" 
d="M1100.5 540.5c41.667 -50.333 62.5 -115.167 62.5 -194.5c0 -112 -41.667 -197.667 -125 -257s-197.333 -89 -342 -89h-555v1313h557c140.667 0 251 -33.167 331 -99.5s120 -154.166 120 -263.499c0 -76.667 -19.167 -139.834 -57.5 -189.501
s-90.833 -85.5 -157.5 -107.5c69.333 -24.667 124.833 -62.167 166.5 -112.5zM436 1061l-0.000976562 -299h248c54.667 0 96.334 15 125.001 45s43 64 43 102s-14 72.833 -42 104.5s-70 47.5 -126 47.5h-248zM821.999 290.999c30.667 26 45.999 60.667 45.999 104
c0 42 -16 77.5 -48 106.5s-72 43.5 -120 43.5h-264v-293h264c50.667 0 91.334 13 122.001 39z" />
    <glyph glyph-name="C" unicode="C" horiz-adv-x="1480" 
d="M399.5 58c-105 56.667 -186.831 137 -245.498 241s-88 224 -88 360c0 134 29 252.833 87 356.5s139.167 183.834 243.5 240.501s224.833 85 361.5 85c113.333 0 217.333 -20 312 -60s172.5 -97.333 233.5 -172s98.167 -161.667 111.5 -261h-332
c-15.333 64 -52.833 115.833 -112.5 155.5s-131.834 59.5 -216.501 59.5c-114.667 0 -205.5 -36.833 -272.5 -110.5s-100.5 -172.834 -100.5 -297.501c0 -125.333 34.167 -224.166 102.5 -296.499s158.5 -108.5 270.5 -108.5c82 0 153 20.167 213 60.5
s98.667 93.166 116 158.499h332c-12 -96.667 -47.333 -182.667 -106 -258s-135.834 -133.833 -231.501 -175.5s-202.167 -62.5 -319.5 -62.5c-134 0 -253.5 28.333 -358.5 85z" />
    <glyph glyph-name="D" unicode="D" horiz-adv-x="1402" 
d="M1016.5 1228c100.333 -56.667 178.833 -135.168 235.5 -235.501s85 -214.166 85 -341.499c0 -125.333 -28 -237.5 -84 -336.5s-134.167 -176.167 -234.5 -231.5s-214.5 -83 -342.5 -83h-535v1313h535c126.667 0 240.167 -28.333 340.5 -85zM920.5 375.499
c67.667 70.333 101.5 162.167 101.5 275.5c0 117.333 -33.833 211.833 -101.5 283.5s-158.834 107.5 -273.501 107.5h-207v-772h207c114.667 0 205.834 35.167 273.501 105.5z" />
    <glyph glyph-name="E" unicode="E" horiz-adv-x="1112" 
d="M440 1042v-249h506v-261h-506v-262h568v-270h-867v1313h867v-271h-568z" />
    <glyph glyph-name="F" unicode="F" horiz-adv-x="1073" 
d="M440 1042v-270h484l-2 -260h-482v-512h-299v1313h873v-271h-574z" />
    <glyph glyph-name="G" unicode="G" horiz-adv-x="1478" 
d="M1413 727v-141.002c0 -121.333 -28.333 -228.166 -85 -320.499s-135.834 -164.166 -237.501 -215.499s-217.5 -77 -347.5 -77c-135.333 0 -254.166 28 -356.499 84s-181.333 134.833 -237 236.5s-83.5 219.5 -83.5 353.5c0 135.333 29 255.5 87 360.5
s139.167 186.833 243.5 245.5s224.166 88 359.499 88c112 0 213 -19.667 303 -59s163.667 -94.5 221 -165.5s94.333 -153.167 111 -246.5h-320c-22 60 -61.667 107.167 -119 141.5s-124.666 51.5 -201.999 51.5c-116 0 -207.5 -37.167 -274.5 -111.5
s-100.5 -174.5 -100.5 -300.5c0 -125.333 33.833 -223.5 101.5 -294.5s158.167 -106.5 271.5 -106.5c87.333 0 162 19.833 224 59.5s102 94.167 120 163.5h-353v254h674z" />
    <glyph glyph-name="H" unicode="H" horiz-adv-x="1374" 
d="M141 1313h299v-522h510v522h301v-1313h-301v530h-510v-530h-299v1313z" />
    <glyph glyph-name="I" unicode="I" horiz-adv-x="563" 
d="M141 0v1313h299v-1313h-299z" />
    <glyph glyph-name="J" unicode="J" horiz-adv-x="1071" 
d="M940 389c0 -83.333 -18.832 -156.333 -56.499 -219s-90.834 -111.167 -159.501 -145.5s-147.667 -51.5 -237 -51.5c-88.667 0 -167 17.5 -235 52.5s-120.5 83.833 -157.5 146.5s-55.5 135 -55.5 217v76h289v-66c0 -49.333 14 -87.5 42 -114.5s65.667 -40.5 113 -40.5
c50.667 0 89.667 14 117 42s41 65.667 41 113v643h-375v271h674v-924z" />
    <glyph glyph-name="K" unicode="K" horiz-adv-x="1306" 
d="M635 489l-195 -243v-252h-299v1319h299v-602l475 602h373l-450 -565l452 -748h-358z" />
    <glyph glyph-name="L" unicode="L" horiz-adv-x="1028" 
d="M981 270v-270h-840v1313h303v-1043h537z" />
    <glyph glyph-name="M" unicode="M" horiz-adv-x="1607" 
d="M1468 1313v-1313h-290v164c0 181.333 7.33301 343 22 485l-278 -612h-265l-256 596c16.667 -174.667 25 -331 25 -469v-164h-285v1313h262l396 -946l405 946h264z" />
    <glyph glyph-name="N" unicode="N" horiz-adv-x="1392" 
d="M1253 1313v-1313h-278l-539 795v-795h-295v1313h279l536 -797v797h297z" />
    <glyph glyph-name="O" unicode="O" horiz-adv-x="1544" 
d="M1387.5 301c-61 -104 -145 -184.665 -252 -241.998s-228.833 -86 -365.5 -86c-135.333 0 -256.5 28.667 -363.5 86s-190.5 137.666 -250.5 240.999s-90 221.666 -90 354.999c0 134 30 252.833 90 356.5s143.5 184.5 250.5 242.5s228.833 87 365.5 87
c135.333 0 256.5 -28.667 363.5 -86s191 -137.833 252 -241.5s91.5 -222.5 91.5 -356.5c0 -133.333 -30.5 -252 -91.5 -356zM1112 868.502c-32.667 61.667 -78.333 109.498 -137 143.498s-125.667 51 -201 51c-76.667 0 -144.667 -17 -204 -51
s-105.666 -81.833 -138.999 -143.5s-50 -132.834 -50 -213.501c0 -79.333 16.333 -149.666 49 -210.999s78.667 -108.666 138 -141.999s127.333 -50 204 -50c75.333 0 142.666 17 201.999 51s105.333 81.833 138 143.5s49 131.834 49 210.501
c0 79.333 -16.333 149.833 -49 211.5z" />
    <glyph glyph-name="P" unicode="P" horiz-adv-x="1206" 
d="M1036 1194c82 -79.333 122.999 -186.667 122.999 -322c0 -86 -18.333 -162 -55 -228s-90.167 -117.5 -160.5 -154.5s-154.166 -55.5 -251.499 -55.5h-252v-434h-299v1313h557c143.333 0 256 -39.667 338 -119zM793.499 745.499c33.667 37 50.499 81.501 50.499 133.501
c0 45.333 -16.833 85.666 -50.5 120.999s-85.167 53 -154.5 53h-199v-363h197c70.667 0 122.834 18.5 156.501 55.5z" />
    <glyph glyph-name="Q" unicode="Q" horiz-adv-x="1544" 
d="M1407 339c-48 -94.667 -114.666 -172.834 -199.999 -234.501s-184 -101.167 -296 -118.5v-60c0 -44 9 -77.833 27 -101.5s57 -35.5 117 -35.5c30 0 56 2 78 6v-235c-52 -12 -104 -18.333 -156 -19c-233.333 0 -350 111.333 -350 334v111
c-110.667 18 -208.334 57.333 -293.001 118s-150.5 138.334 -197.5 233.001s-70.5 200.667 -70.5 318c0 134 30 252.833 90 356.5s143.5 184.5 250.5 242.5s228.833 87 365.5 87c135.333 0 256.5 -28.667 363.5 -86s191 -137.833 252 -241.5s91.5 -222.5 91.5 -356.5
c0 -117.333 -24 -223.333 -72 -318zM430.001 444.5c32.667 -61.667 78.668 -109.166 138.001 -142.499s127.333 -50 204 -50c75.333 0 142.666 17 201.999 51s105.333 81.833 138 143.5s49 131.834 49 210.501c0 79.333 -16.333 149.833 -49 211.5
s-78.334 109.5 -137.001 143.5s-125.667 51 -201 51c-76.667 0 -144.667 -17 -204 -51s-105.666 -81.833 -138.999 -143.5s-50 -132.834 -50 -213.501c0 -78.667 16.333 -148.834 49 -210.501z" />
    <glyph glyph-name="R" unicode="R" horiz-adv-x="1269" 
d="M141 1313l528.999 -0.000976562c173.333 0 303.333 -36.167 390 -108.5s130 -178.166 130 -317.499c0 -90 -19.167 -166.833 -57.5 -230.5s-94.166 -112.5 -167.499 -146.5l239 -510h-336l-202 459h-226v-459h-299v1313zM667.999 714.999c69.333 0 121.001 16 155.001 48
s51 72.667 51 122c0 48 -16.333 88 -49 120s-84.334 48 -155.001 48h-230v-338h228z" />
    <glyph glyph-name="S" unicode="S" horiz-adv-x="1189" 
d="M163.5 1145c41 62.667 98.3291 110.999 171.996 144.999s159.834 51 258.501 51c95.333 0 180.333 -16.667 255 -50s132.667 -80.666 174 -141.999s62.666 -131.666 63.999 -210.999h-309c-1.33301 45.333 -20.666 82 -57.999 110s-84.666 42 -141.999 42
c-50.667 0 -91.334 -11.667 -122.001 -35s-46 -54.666 -46 -93.999c0 -36.667 13.167 -64.334 39.5 -83.001s65.5 -34.334 117.5 -47.001l207 -47c116 -27.333 203 -74.333 261 -141s87 -148 87 -244c0 -86 -21.5 -161 -64.5 -225s-103.667 -113.5 -182 -148.5
s-169.5 -52.5 -273.5 -52.5c-155.333 0 -281.166 37.667 -377.499 113s-149.166 177.666 -158.499 306.999h307c4 -53.333 26.833 -94.666 68.5 -123.999s96.5 -44 164.5 -44c62.667 0 111.834 12.667 147.501 38s53.5 60 53.5 104c0 35.333 -11.667 62.833 -35 82.5
s-56 34.5 -98 44.5l-217 51c-122.667 28.667 -212.5 75.667 -269.5 141s-85.5 144.666 -85.5 237.999c0 84.667 20.5 158.334 61.5 221.001z" />
    <glyph glyph-name="T" unicode="T" horiz-adv-x="1150" 
d="M1118 1042h-391v-1042h-299v1042h-395v271h1085v-271z" />
    <glyph glyph-name="U" unicode="U" horiz-adv-x="1409" 
d="M131 1313l299.001 0.000976562v-811c1.33301 -87.333 26.666 -152.5 75.999 -195.5s114.666 -64.5 195.999 -64.5c88.667 0 157 22.833 205 68.5s72 109.5 72 191.5v811h299v-824c0 -164 -52.167 -291 -156.5 -381s-244.166 -135 -419.499 -135
c-176 0 -315.167 46.167 -417.5 138.5s-153.5 218.166 -153.5 377.499v824z" />
    <glyph glyph-name="V" unicode="V" horiz-adv-x="1376" 
d="M346 1313l164 -418l98.5 -287l81.5 -243l84.5 243.5l102.5 288.5l161 416h320l-512 -1313h-307l-521 1313h328z" />
    <glyph glyph-name="W" unicode="W" horiz-adv-x="1959" 
d="M344 1313l125.001 -412c35.333 -114.667 63 -213.334 83 -296.001s30 -126.667 30 -132c18 54.667 66.333 220.667 145 498l90 307h328l180 -614l55 -191c0 5.33301 10 49.333 30 132s47.667 181.334 83 296.001l127 412h319l-417 -1313h-291l-78 258l-99.5 334.5
c-37.667 129 -61.834 214.833 -72.501 257.5l-70.5 -256c-36.333 -130 -69.5 -242 -99.5 -336l-80 -258h-291l-417 1313h321z" />
    <glyph glyph-name="X" unicode="X" horiz-adv-x="1382" 
d="M422 1313l110.001 -164c22 -30 52.5 -77.833 91.5 -143.5s64.5 -109.5 76.5 -131.5l271 439h379l-465 -658l463 -657h-385l-86 127c-36.667 56 -72.834 114.667 -108.501 176l-68.5 119l-292 -420h-375l471 655l-471 658h389z" />
    <glyph glyph-name="Y" unicode="Y" horiz-adv-x="1284" 
d="M365 1313l131 -228c38 -66.667 71 -127 99 -181l52 -101c6.66699 15.333 24 49.833 52 103.5s61.333 113.167 100 178.5l133 228h336l-475 -801v-512h-301v512l-474 801h347z" />
    <glyph glyph-name="Z" unicode="Z" horiz-adv-x="1132" 
d="M1059 1083l-594 -813h588v-270h-981v242l596 800h-584v271h975v-230z" />
    <glyph glyph-name="bracketleft" unicode="[" horiz-adv-x="606" 
d="M596 -207h-455v1759h455v-215h-215v-1331h215v-213z" />
    <glyph glyph-name="backslash" unicode="\" horiz-adv-x="815" 
d="M532 0l-532 1313h285l530 -1313h-283z" />
    <glyph glyph-name="bracketright" unicode="]" horiz-adv-x="604" 
d="M223 6v1331h-213v215h453v-1759h-453v213h213z" />
    <glyph glyph-name="asciicircum" unicode="^" horiz-adv-x="991" 
d="M604 887l-106 200l-107 -200h-244l230 426h239l228 -426h-240z" />
    <glyph glyph-name="underscore" unicode="_" horiz-adv-x="806" 
d="M811 -31v-200h-815v200h815z" />
    <glyph glyph-name="grave" unicode="`" horiz-adv-x="743" 
d="M139 1702l135 139l330 -348l-84 -88z" />
    <glyph glyph-name="a" unicode="a" horiz-adv-x="1198" 
d="M1090 924v-923.999h-275v106c-31.333 -40.667 -75 -73 -131 -97s-116.667 -36 -182 -36c-86 0 -162.167 20.167 -228.5 60.5s-117.5 96.666 -153.5 168.999s-54 156.5 -54 252.5c0 100 19.333 187.667 58 263s93.167 133.833 163.5 175.5s150.5 62.5 240.5 62.5
c132.667 0 233.667 -40.667 303 -122l19 90h240zM740.5 295.501c41.667 43 62.5 100.167 62.5 171.5c0 69.333 -20.833 125.166 -62.5 167.499s-95.834 63.5 -162.501 63.5s-120 -21.5 -160 -64.5s-60 -99.167 -60 -168.5s20.167 -125.666 60.5 -168.999s93.5 -65 159.5 -65
c66.667 0 120.834 21.5 162.501 64.5z" />
    <glyph glyph-name="b" unicode="b" horiz-adv-x="1200" 
d="M914.5 895c69 -40.667 122.999 -98.667 161.999 -174s58.5 -161.333 58.5 -258s-19.5 -182 -58.5 -256s-93 -131.5 -162 -172.5s-147.833 -61.5 -236.5 -61.5c-66.667 0 -127.667 12 -183 36s-98.666 58 -129.999 102l-17 -111h-237v1405h286v-549
c31.333 31.333 71 55.833 119 73.5s102 26.5 162 26.5c88.667 0 167.5 -20.333 236.5 -61zM781.499 295.5c40.333 43 60.502 99.499 60.502 169.499c0 69.333 -19.833 125.5 -59.5 168.5s-92.834 64.5 -159.501 64.5s-120.667 -21.167 -162 -63.5s-62 -98.166 -62 -167.499
c0 -70.667 20.5 -127.667 61.5 -171s95.167 -65 162.5 -65c65.333 0 118.166 21.5 158.499 64.5z" />
    <glyph glyph-name="c" unicode="c" horiz-adv-x="1107" 
d="M128 722c41.333 74.667 100 132.332 176 172.999s163 61 261 61c88.667 0 167.834 -16.333 237.501 -49s125.334 -79 167.001 -139s65.167 -129 70.5 -207h-290c-10.667 46.667 -33.167 81.834 -67.5 105.501s-74.833 35.5 -121.5 35.5
c-61.333 0 -110.833 -21.5 -148.5 -64.5s-56.5 -101.167 -56.5 -174.5c0 -72.667 18.5 -130.5 55.5 -173.5s86.833 -64.5 149.5 -64.5c49.333 0 91 13 125 39s55.333 59.667 64 101h290c-6.66699 -76.667 -30.834 -144.667 -72.501 -204s-97.334 -105.5 -167.001 -138.5
s-148.167 -49.5 -235.5 -49.5c-98 0 -185 20.5 -261 61.5s-134.667 98.333 -176 172s-62 159.167 -62 256.5c0 98 20.667 184.333 62 259z" />
    <glyph glyph-name="d" unicode="d" horiz-adv-x="1189" 
d="M1090 1405l-0.00195312 -1405h-238l-16 111c-31.333 -44 -74.666 -78 -129.999 -102s-116.666 -36 -183.999 -36c-88.667 0 -167.5 20.5 -236.5 61.5s-122.833 98.333 -161.5 172s-58 159.167 -58 256.5c0 96.667 19.333 182.667 58 258s92.5 133.333 161.5 174
s147.833 61 236.5 61c61.333 0 116 -8.5 164 -25.5s87.667 -41.833 119 -74.5v549h285zM740.498 295.5c41.667 43 62.5 100.167 62.5 171.5c0 69.333 -20.833 125.166 -62.5 167.499s-95.834 63.5 -162.501 63.5s-120 -21.5 -160 -64.5s-60 -99.167 -60 -168.5
s20.167 -125.666 60.5 -168.999s93.5 -65 159.5 -65c66.667 0 120.834 21.5 162.501 64.5z" />
    <glyph glyph-name="e" unicode="e" horiz-adv-x="1069" 
d="M861 62.5c-85.333 -59.667 -187.335 -89.4971 -306.002 -89.4971c-96.667 0 -182 20.5 -256 61.5s-131.333 98.667 -172 173s-61 160.166 -61 257.499c0 98 20.333 184.333 61 259s98 132 172 172s157.333 60 250 60c91.333 0 172.5 -19 243.5 -57
s126 -90.833 165 -158.5s58.5 -144.5 58.5 -230.5c0 -48 -4 -89.667 -12 -125h-656c2.66699 -54.667 22.834 -98.334 60.501 -131.001s86.5 -49 146.5 -49c45.333 0 84.333 8.5 117 25.5s55 39.167 67 66.5h279c-19.333 -96.667 -71.666 -174.834 -156.999 -234.501z
M722.998 571.003c-1.33301 46.667 -19.168 83.667 -53.501 111s-77.833 41 -130.5 41c-53.333 0 -97.166 -13.667 -131.499 -41s-52.833 -64.333 -55.5 -111h371z" />
    <glyph glyph-name="f" unicode="f" horiz-adv-x="735" 
d="M503.5 1129.5c-17.667 -31 -26.499 -70.167 -26.499 -117.5v-88h223v-236h-223v-688h-282v688h-170v236h170v133c0 124 33 215 99 273s159 87 279 87c50.667 0 93 -4 127 -12v-236c-12 4 -34.333 6.33301 -67 7c-68.667 0 -111.834 -15.5 -129.501 -46.5z" />
    <glyph glyph-name="g" unicode="g" horiz-adv-x="1181" 
d="M1079 924l-0.000976562 -925.999c0 -142 -45.333 -255 -136 -339s-216 -126 -376 -126c-91.333 0 -173.5 16.667 -246.5 50s-131 80.5 -174 141.5s-67.833 131.833 -74.5 212.5h282c8 -50.667 31.5 -88.667 70.5 -114s86.5 -38 142.5 -38c70.667 0 126 18.167 166 54.5
s60 85.166 60 146.499v139c-27.333 -34 -66.333 -61.667 -117 -83s-106.667 -32 -168 -32c-84.667 0 -160.5 19.5 -227.5 58.5s-119.5 94 -157.5 165s-57 152.167 -57 243.5c0 94 19.333 177.333 58 250s91.834 129 159.501 169s143.167 60 226.5 60
c62.667 0 120 -11.167 172 -33.5s91.667 -52.833 119 -91.5l12 93h266zM722.499 321.501c42.333 42.333 63.499 96.168 63.499 161.501c0 66.667 -21.167 121 -63.5 163s-94.166 63 -155.499 63s-111.5 -21.167 -150.5 -63.5s-58.5 -96.5 -58.5 -162.5
c0 -66.667 19.833 -120.834 59.5 -162.501s90.167 -62.5 151.5 -62.5c60 0 111.167 21.167 153.5 63.5z" />
    <glyph glyph-name="h" unicode="h" horiz-adv-x="1112" 
d="M111 1405h286v-571c27.333 38 65 67.833 113 89.5s100.667 32.5 158 32.5c110.667 0 195.667 -34.333 255 -103s89 -162 89 -280v-573h-285v506c0 76.667 -17 127.5 -51 152.5s-69 37.5 -105 37.5c-40.667 0 -80.167 -11.5 -118.5 -34.5s-57.5 -72.167 -57.5 -147.5v-514
h-284v1405z" />
    <glyph glyph-name="i" unicode="i" horiz-adv-x="505" 
d="M118.5 1112c-37 35.333 -55.5 78.333 -55.5 129c0 52 18.167 95.333 54.5 130s81.833 52 136.5 52s100 -17.333 136 -52s54 -78 54 -130c0 -49.333 -18.333 -92 -55 -128s-81.667 -54 -135 -54s-98.5 17.667 -135.5 53zM111 924h286v-924h-286v924z" />
    <glyph glyph-name="j" unicode="j" horiz-adv-x="505" 
d="M118.5 1112c-37 35.333 -55.5 78.333 -55.5 129c0 52 18.167 95.333 54.5 130s81.833 52 136.5 52s100 -17.333 136 -52s54 -78 54 -130c0 -49.333 -18.333 -92 -55 -128s-81.667 -54 -135 -54s-98.5 17.667 -135.5 53zM111 924h286v-1360h-284z" />
    <glyph glyph-name="k" unicode="k" horiz-adv-x="1077" 
d="M731 582l309 -582h-323l-191 369l-129 -133v-236h-286v1405h286v-819l310 338h354z" />
    <glyph glyph-name="l" unicode="l" horiz-adv-x="507" 
d="M111 1405h286v-1405h-286v1405z" />
    <glyph glyph-name="m" unicode="m" horiz-adv-x="1681" 
d="M1487 860c62.667 -64 94 -148.667 94 -254v-606h-285v537c0 54.667 -13.667 97 -41 127s-62 45 -104 45c-52 0 -92.333 -17.167 -121 -51.5s-43 -79.5 -43 -135.5v-522h-280v537c0 53.333 -13.667 95 -41 125s-64.333 45 -111 45c-49.333 0 -88 -17.167 -116 -51.5
s-42 -78.833 -42 -133.5v-522h-286v924h264l12 -86c28.667 36.667 66.167 65.5 112.5 86.5s95.5 31.5 147.5 31.5c65.333 0 124.333 -14.667 177 -44s92 -69 118 -119c28.667 52 69 92.167 121 120.5s112 42.5 180 42.5c100 0 181.333 -32 244 -96z" />
    <glyph glyph-name="n" unicode="n" horiz-adv-x="1103" 
d="M911.5 852c61.667 -69.333 92.499 -162.333 92.499 -279v-573h-287v506c0 126.667 -52 190 -156 190c-54.667 0 -96 -16 -124 -48s-42 -76.667 -42 -134v-514h-284v924h237l19 -101c28.667 40.667 68.5 73 119.5 97s106.5 36 166.5 36
c110.667 0 196.834 -34.667 258.501 -104z" />
    <glyph glyph-name="o" unicode="o" horiz-adv-x="1157" 
d="M130.5 718.5c43 75 103.333 133.333 181 175s167.167 62.5 268.5 62.5s190.5 -20.833 267.5 -62.5s137 -100 180 -175s64.5 -160.167 64.5 -255.5c0 -94 -21.5 -178.333 -64.5 -253s-103.5 -132.834 -181.5 -174.501s-166.667 -62.5 -266 -62.5
c-101.333 0 -190.833 20.833 -268.5 62.5s-138 99.834 -181 174.501s-64.5 159 -64.5 253c0 95.333 21.5 180.5 64.5 255.5zM419.5 293.5c41 -44.333 94.501 -66.5 160.501 -66.5c65.333 0 118.5 22.167 159.5 66.5s61.5 101.5 61.5 171.5
c0 69.333 -20.167 125.833 -60.5 169.5s-93.833 65.5 -160.5 65.5s-120.334 -21.833 -161.001 -65.5s-61 -100.167 -61 -169.5c0 -70 20.5 -127.167 61.5 -171.5z" />
    <glyph glyph-name="p" unicode="p" horiz-adv-x="1200" 
d="M914.5 895c69 -40.667 123.001 -98.3301 162.001 -172.997s58.5 -160.334 58.5 -257.001s-19.5 -182.334 -58.5 -257.001s-93 -132.5 -162 -173.5s-147.833 -61.5 -236.5 -61.5c-60 0 -114 8.66699 -162 26s-87.667 41.666 -119 72.999v-508h-286v1360h237l17 -107
c31.333 44 74.666 78.167 129.999 102.5s116.333 36.5 183 36.5c88.667 0 167.5 -20.333 236.5 -61zM781.501 293.504c40.333 43 60.502 99.501 60.502 169.501c0 69.333 -19.833 125.5 -59.5 168.5s-92.834 64.5 -159.501 64.5s-120.667 -21.167 -162 -63.5
s-62 -98.833 -62 -169.5s20.5 -127.334 61.5 -170.001s95.167 -64 162.5 -64c65.333 0 118.166 21.5 158.499 64.5z" />
    <glyph glyph-name="q" unicode="q" horiz-adv-x="1189" 
d="M1090 924l-0.000976562 -1360h-285v516c-34 -34 -75.667 -60.333 -125 -79s-102.666 -28 -159.999 -28c-88.667 0 -167.5 20.5 -236.5 61.5s-122.5 98.667 -160.5 173s-57 160.166 -57 257.499c0 96.667 19.333 182.334 58 257.001s92.5 132.334 161.5 173.001
s147.833 61 236.5 61c65.333 0 126 -12.167 182 -36.5s100 -58.5 132 -102.5l16 107h238zM740.499 293.499c41.667 43 62.5 99.499 62.5 169.499c0 69.333 -20.833 125.5 -62.5 168.5s-95.834 64.5 -162.501 64.5s-120 -21.5 -160 -64.5s-60 -99.167 -60 -168.5
s20.167 -125.666 60.5 -168.999s93.5 -65 159.5 -65c66.667 0 120.834 21.5 162.501 64.5z" />
    <glyph glyph-name="r" unicode="r" horiz-adv-x="727" 
d="M696 924l-0.000976562 -248c-9.33301 1.33301 -23.666 2 -42.999 2c-82 0 -145.167 -21.5 -189.5 -64.5s-66.5 -103.5 -66.5 -181.5v-432h-286v924h262l18 -125c15.333 44 42.333 77.167 81 99.5s84.667 33.5 138 33.5c30 0 58.667 -2.66699 86 -8z" />
    <glyph glyph-name="s" unicode="s" horiz-adv-x="944" 
d="M189.5 56c-74.333 55.333 -115.501 131 -123.501 227h282c1.33301 -31.333 14 -55.666 38 -72.999s54.333 -26 91 -26c32.667 0 58.667 6.16699 78 18.5s29 30.833 29 55.5c0 22 -7.5 38.167 -22.5 48.5s-35.5 18.166 -61.5 23.499l-148 37
c-176 42 -264 134.667 -264 278c0 92.667 35.5 167.667 106.5 225s163.833 86 278.5 86c113.333 0 205.166 -28 275.499 -84s106.833 -129.667 109.5 -221h-278c-1.33301 27.333 -12.333 49.166 -33 65.499s-47.334 24.5 -80.001 24.5c-28.667 0 -51.167 -6 -67.5 -18
s-24.5 -29 -24.5 -51s6.83301 -37.167 20.5 -45.5s36.834 -16.5 69.501 -24.5l172 -41c83.333 -19.333 144.5 -53.166 183.5 -101.499s58.5 -105.833 58.5 -172.5c0 -95.333 -36.167 -171.5 -108.5 -228.5s-170.166 -85.5 -293.499 -85.5
c-117.333 0 -213.166 27.667 -287.499 83z" />
    <glyph glyph-name="t" unicode="t" horiz-adv-x="684" 
d="M657 688h-174v-688h-286v688h-170v236h170v239h286v-239h174v-236z" />
    <glyph glyph-name="u" unicode="u" horiz-adv-x="1085" 
d="M985 924l-0.00195312 -924.001h-237l-19 104c-32.667 -44 -73.167 -76.833 -121.5 -98.5s-102.166 -32.5 -161.499 -32.5c-110.667 0 -196 32.833 -256 98.5s-90 155.167 -90 268.5v584h287v-541c0 -57.333 13.333 -98.666 40 -123.999s65.334 -38 116.001 -38
c49.333 0 87.5 15.333 114.5 46s40.5 72 40.5 124v533h287z" />
    <glyph glyph-name="v" unicode="v" horiz-adv-x="1073" 
d="M330 924l94 -275c22 -62.667 43.5 -130.167 64.5 -202.5l41.5 -141.5l50 147.5c25.333 75 49 140.5 71 196.5l105 275h295l-387 -924h-281l-360 924h307z" />
    <glyph glyph-name="w" unicode="w" horiz-adv-x="1576" 
d="M342 924l59.001 -211c38 -136.667 66 -248 84 -334l138 471l16 55h303l61.5 -225c29 -108 56.167 -214.667 81.5 -320c20.667 90 51.667 205.667 93 347l63 217h303l-325 -924h-279c-66.667 224 -117.334 407.667 -152.001 551c-6.66699 -30 -24.667 -98.667 -54 -206
s-63 -222.333 -101 -345h-291l-309 924h309z" />
    <glyph glyph-name="x" unicode="x" horiz-adv-x="1019" 
d="M348 0h-311l295 449l-309 475h329l54 -86l116 -193l156 279h319l-305 -471l295 -453h-328c-70.667 116 -123 204.667 -157 266z" />
    <glyph glyph-name="y" unicode="y" horiz-adv-x="1101" 
d="M1081 924l-428 -1074c-23.333 -56 -48.833 -104.667 -76.5 -146s-68.834 -77.833 -123.501 -109.5s-123.667 -47.5 -207 -47.5c-56 0 -119 7.66699 -189 23l4 233c50.667 -9.33301 95.334 -14 134.001 -14c46.667 0 83.5 6.5 110.5 19.5s47 29 60 48
s24.833 43.5 35.5 73.5l17 41l-395 953h309l217 -605l229 605h303z" />
    <glyph glyph-name="z" unicode="z" horiz-adv-x="929" 
d="M78 252l414 422h-414v250h774v-254l-426 -416h426v-254h-774v252z" />
    <glyph glyph-name="braceleft" unicode="{" horiz-adv-x="696" 
d="M486.5 784.5c-21 -46.333 -56.835 -83.833 -107.502 -112.5c52 -30 88.167 -68.333 108.5 -115s30.5 -106 30.5 -178v-248c0 -70.667 13.667 -121.5 41 -152.5s66.333 -46.5 117 -46.5v-196c-135.333 -2.66699 -234.666 29.333 -297.999 96s-95 161.667 -95 285v209
c0 88.667 -13.667 152.334 -41 191.001s-73.333 58 -138 58v191c65.333 1.33301 111.5 21.5 138.5 60.5s40.5 102.833 40.5 191.5v209c0 134 34.333 231.667 103 293s165.334 90.666 290.001 87.999v-197c-57.333 -1.33301 -98 -19 -122 -53s-36 -83.333 -36 -148v-247
c0 -72.667 -10.5 -132.167 -31.5 -178.5z" />
    <glyph glyph-name="bar" unicode="|" horiz-adv-x="722" 
d="M471 1405v-1565h-219v1565h219z" />
    <glyph glyph-name="braceright" unicode="}" horiz-adv-x="698" 
d="M454 826.5c26.667 -39 72.6689 -59.166 138.002 -60.499v-191c-64 0 -109.667 -19.333 -137 -58s-41 -102.334 -41 -191.001v-209c0 -122.667 -31.833 -217.5 -95.5 -284.5s-163.834 -99.167 -300.501 -96.5v196c52 0 91.333 15.833 118 47.5s40 82.167 40 151.5v248
c0 72.667 10.667 132.167 32 178.5s57.666 84.5 108.999 114.5c-52 27.333 -88.5 64.5 -109.5 111.5s-31.5 106.833 -31.5 179.5v247c0 65.333 -12.333 114.833 -37 148.5s-65 51.167 -121 52.5v197c124 2.66699 221 -26.833 291 -88.5s105 -159.167 105 -292.5v-209
c0 -88.667 13.333 -152.5 40 -191.5z" />
    <glyph glyph-name="asciitilde" unicode="~" horiz-adv-x="884" 
d="M827 694c1.33301 -9.33301 2.00195 -23 2.00195 -41c0 -84.667 -22.5 -150.167 -67.5 -196.5s-100.167 -69.5 -165.5 -69.5c-38 0 -71.667 7.16699 -101 21.5s-63.333 35.833 -102 64.5c-27.333 20.667 -49.5 35.667 -66.5 45s-34.5 14 -52.5 14
c-20.667 0 -37 -7.16699 -49 -21.5s-18 -35.833 -18 -64.5c0 -12 0.666992 -21.333 2 -28h-152c-1.33301 8 -2 20.333 -2 37c0 82 22.167 146.833 66.5 194.5s99.5 71.5 165.5 71.5c39.333 0 73.666 -7.5 102.999 -22.5s61.666 -36.167 96.999 -63.5
c28.667 -22 51.667 -37.833 69 -47.5s35.333 -14.5 54 -14.5c46.667 0 70 30.333 70 91c0 13.333 -0.666992 23.333 -2 30h149z" />
    <glyph glyph-name="uni00A0" unicode="&#xa0;" horiz-adv-x="487" 
 />
    <glyph glyph-name="exclamdown" unicode="&#xa1;" horiz-adv-x="645" 
d="M469 1290c38 -35.333 57 -82.333 57 -141c0 -60 -19.333 -107.833 -58 -143.5s-86 -53.5 -142 -53.5c-58.667 0 -107.5 17.833 -146.5 53.5s-58.5 83.5 -58.5 143.5c0 58.667 19.5 105.667 58.5 141s87.833 53 146.5 53c57.333 0 105 -17.667 143 -53zM479 0h-313l51 815
h215z" />
    <glyph glyph-name="cent" unicode="&#xa2;" horiz-adv-x="1280" 
d="M772 485c34 26 55.3311 59.667 63.998 101h290c-9.33301 -105.333 -50.166 -192.833 -122.499 -262.5s-165.166 -111.167 -278.499 -124.5v-199h-170v203c-122.667 19.333 -220.5 71.833 -293.5 157.5s-109.5 193.5 -109.5 323.5c0 131.333 36.5 240.333 109.5 327
s170.833 139.334 293.5 158.001v199h170v-194c114.667 -13.333 208.5 -55.333 281.5 -126s112.833 -159.334 119.5 -266.001h-290c-10.667 46.667 -33.167 82 -67.5 106s-74.833 36 -121.5 36c-61.333 0 -110.833 -21.5 -148.5 -64.5s-56.5 -101.5 -56.5 -175.5
c0 -72.667 18.5 -130.5 55.5 -173.5s86.833 -64.5 149.5 -64.5c49.333 0 91 13 125 39z" />
    <glyph glyph-name="sterling" unicode="&#xa3;" horiz-adv-x="1363" 
d="M1233 453l-0.00292969 -453h-1083v246c58.667 1.33301 105.334 22.833 140.001 64.5s52 94.5 52 158.5c0 22 -2 41.667 -6 59h-186v209h114c-16.667 49.333 -24.667 98.666 -24 147.999c0 90 20.833 169.167 62.5 237.5s100.334 121.5 176.001 159.5
s161.834 57 258.501 57c95.333 0 179.333 -18 252 -54s129.5 -87.167 170.5 -153.5s61.5 -142.5 61.5 -228.5h-279c1.33301 56 -17.5 100.667 -56.5 134s-90.5 50 -154.5 50s-115.833 -18.667 -155.5 -56s-59.5 -87.333 -59.5 -150c0 -40.667 11.667 -88.667 35 -144h352
v-209h-287v-26c0 -54.667 -10.833 -104.167 -32.5 -148.5s-53.167 -80.166 -94.5 -107.499l496 -2v209h248z" />
    <glyph glyph-name="currency" unicode="&#xa4;" horiz-adv-x="1413" 
d="M1151 416l151.998 -133.002l-185 -185l-137 150c-83.333 -53.333 -174.666 -80 -273.999 -80c-101.333 0 -193.666 26.667 -276.999 80l-135 -150l-184 185l153 135c-49.333 80.667 -74 169.334 -74 266.001s24.667 186.667 74 270l-153 136l184 186l135 -152
c84.667 54.667 177 82 277 82c98 0 189.333 -27.333 274 -82l137 152l185 -186l-154 -136c52 -82 78 -172 78 -270c0 -95.333 -25.333 -184.666 -76 -267.999zM833.498 461.998c39.667 24 71.4971 55.667 95.4971 95s36 81.666 36 126.999c0 46.667 -11.667 90 -35 130
s-54.833 71.667 -94.5 95s-82.5 35 -128.5 35c-46.667 0 -90.167 -11.667 -130.5 -35s-72.166 -55 -95.499 -95s-35 -83.333 -35 -130c0 -45.333 12 -87.666 36 -126.999s55.833 -71 95.5 -95s82.834 -36 129.501 -36c44.667 0 86.834 12 126.501 36z" />
    <glyph glyph-name="yen" unicode="&#xa5;" horiz-adv-x="1562" 
d="M1047 766h186v-209h-311v-115h311v-206h-311v-236h-285v236h-313v206h313v115h-313v209h190l-367 547h340l293 -510v2l291 508h344z" />
    <glyph glyph-name="brokenbar" unicode="&#xa6;" horiz-adv-x="745" 
d="M494 1407v-588h-242v588h242zM494 481v-604h-242v604h242z" />
    <glyph glyph-name="section" unicode="&#xa7;" horiz-adv-x="1083" 
d="M248.5 -282.5c-75.667 64.333 -114.165 148.833 -115.498 253.5h268c-1.33301 -46.667 12.667 -82.5 42 -107.5s66 -37.5 110 -37.5c42 0 75.667 10.833 101 32.5s38 51.167 38 88.5c0 38 -13 64.833 -39 80.5s-51.5 26.334 -76.5 32.001s-41.167 9.16699 -48.5 10.5
l-118 30c-64 15.333 -124.833 45.166 -182.5 89.499s-86.5 111.5 -86.5 201.5c0 61.333 16.167 114.166 48.5 158.499s77.833 77.5 136.5 99.5c-68 24.667 -119.5 60.5 -154.5 107.5s-52.5 102.833 -52.5 167.5c0 101.333 38.167 181.833 114.5 241.5
s175.166 89.5 296.499 89.5c126.667 0 228 -32 304 -96s114 -148.667 114 -254h-268c0 48 -14.333 84.333 -43 109s-65.667 37 -111 37c-40.667 0 -73.334 -10.667 -98.001 -32s-37 -49.666 -37 -84.999c0 -30 8.16699 -53.5 24.5 -70.5s34.166 -28.667 53.499 -35
s47.333 -13.5 84 -21.5l121 -31c65.333 -13.333 126.333 -42.5 183 -87.5s85 -112.167 85 -201.5c0 -62.667 -16.333 -116.5 -49 -161.5s-77.667 -77.833 -135 -98.5c138 -50.667 207 -142.667 207 -276c0 -100 -38.667 -180 -116 -240s-176.666 -90 -297.999 -90
c-126 0 -226.833 32.167 -302.5 96.5zM653.002 363.5c24.667 18.333 37 43.832 37 76.499c0 34 -14 59.667 -42 77s-64.333 26 -109 26c-48 0 -84.667 -9.66699 -110 -29s-38 -44.666 -38 -75.999c0 -34 14 -59.5 42 -76.5s65.333 -25.5 112 -25.5
c47.333 0 83.333 9.16699 108 27.5z" />
    <glyph glyph-name="dieresis" unicode="&#xa8;" horiz-adv-x="862" 
d="M120 1444c-26.667 26 -40 58.667 -40 98c0 40.667 13.333 74 40 100s59.667 39 99 39s72 -12.833 98 -38.5s39 -59.167 39 -100.5c0 -38 -12.833 -70.333 -38.5 -97s-58.5 -40 -98.5 -40c-39.333 0 -72.333 13 -99 39zM529 1445c-26.667 26.667 -40 59 -40 97
c0 40.667 13.333 74 40 100s60 39 100 39c39.333 0 72 -12.833 98 -38.5s39 -59.167 39 -100.5c0 -38 -13 -70.333 -39 -97s-58.667 -40 -98 -40c-40 0 -73.333 13.333 -100 40z" />
    <glyph glyph-name="copyright" unicode="&#xa9;" horiz-adv-x="1351" 
d="M403.5 225.5c-81.667 46.333 -146.168 109.833 -193.501 190.5s-71 170 -71 268c0 100 23.667 190.167 71 270.5s111.833 143.666 193.5 189.999s173.167 69.5 274.5 69.5c100 0 190.5 -23.167 271.5 -69.5s145 -110.166 192 -191.499s70.5 -171 70.5 -269
s-23.5 -187.333 -70.5 -268s-111.167 -144.167 -192.5 -190.5s-171.666 -69.5 -270.999 -69.5c-101.333 0 -192.833 23.167 -274.5 69.5zM883.999 334c60.667 35.333 108.334 83.666 143.001 144.999s52 129.666 52 204.999c0 76.667 -17.333 145.667 -52 207
s-82.334 109.833 -143.001 145.5s-129.334 53.5 -206.001 53.5c-78 0 -147.667 -17.833 -209 -53.5s-109.5 -84.5 -144.5 -146.5s-52.5 -130.667 -52.5 -206s17.5 -143.666 52.5 -204.999s83.5 -109.666 145.5 -144.999s131.333 -53 208 -53s145.334 17.667 206.001 53z
M505.499 866.5c46.333 46.333 105.837 69.501 178.504 69.501c58.667 0 109.167 -16.333 151.5 -49s68.166 -75 77.499 -127h-129c-6.66699 20.667 -18.834 37 -36.501 49s-38.834 18 -63.501 18c-35.333 0 -64.333 -13.167 -87 -39.5s-34 -60.833 -34 -103.5
c0 -40.667 11.333 -73.667 34 -99s51.667 -38 87 -38c23.333 0 44.166 5.5 62.499 16.5s30.833 27.167 37.5 48.5h129c-9.33301 -52 -35.5 -94.333 -78.5 -127s-93.167 -49 -150.5 -49c-72.667 0 -132.167 22.833 -178.5 68.5s-69.5 105.5 -69.5 179.5
c0 75.333 23.167 136.166 69.5 182.499z" />
    <glyph glyph-name="guillemotleft" unicode="&#xab;" horiz-adv-x="1169" 
d="M444 463l220 -391h-314l-221 391l221 387h314zM907 463l217 -391h-313l-219 391l219 387h313z" />
    <glyph glyph-name="logicalnot" unicode="&#xac;" horiz-adv-x="1212" 
d="M807 227v217h-705v304h1008v-521h-303z" />
    <glyph glyph-name="registered" unicode="&#xae;" horiz-adv-x="1112" 
d="M807 1279c74 -40 132.5 -97 175.5 -171s64.5 -157.333 64.5 -250c0 -94 -21.5 -177.833 -64.5 -251.5s-101.5 -130.667 -175.5 -171s-156 -60.5 -246 -60.5c-92.667 0 -176.834 20.167 -252.501 60.5s-135.5 97 -179.5 170s-66 157.167 -66 252.5c0 94 22 177.667 66 251
s103.833 130 179.5 170s159.834 60 252.501 60c90 0 172 -20 246 -60zM747.5 531.5c55.667 31 99.667 74.835 132 131.502s48.5 121 48.5 193c0 72.667 -16.167 137 -48.5 193s-76.333 99.667 -132 131s-118.5 47 -188.5 47c-70.667 0 -134.334 -15.667 -191.001 -47
s-101.167 -75 -133.5 -131s-48.5 -120.333 -48.5 -193s16.167 -136.834 48.5 -192.501s76.833 -99.334 133.5 -131.001s120.334 -47.5 191.001 -47.5c70 0 132.833 15.5 188.5 46.5zM670 801.002l66.999 -146h-110l-58 129h-75v-129h-103v402h199
c48 0 85.5 -12.333 112.5 -37s40.5 -58 40.5 -100c0.666992 -57.333 -23.666 -97 -72.999 -119zM493.999 879.002h84c34 0 51 13.667 51 41c0 26 -17 38.667 -51 38h-84v-79z" />
    <glyph glyph-name="macron" unicode="&#xaf;" horiz-adv-x="880" 
d="M743 1610v-191h-581v191h581z" />
    <glyph glyph-name="degree" unicode="&#xb0;" horiz-adv-x="632" 
d="M130 892c-50 50 -75 111.667 -75 185c0 75.333 25 137.833 75 187.5s111.667 74.5 185 74.5c75.333 0 138 -24.833 188 -74.5s75 -112.167 75 -187.5c0 -74 -25 -135.833 -75 -185.5s-112.667 -74.5 -188 -74.5c-73.333 0 -135 25 -185 75zM394 1001.5
c21.333 20.333 32 45.501 32 75.501c0 31.333 -10.167 57.666 -30.5 78.999s-47.166 32 -80.499 32c-32.667 0 -58.834 -11 -78.501 -33s-29.5 -48 -29.5 -78s9.83301 -55.167 29.5 -75.5s45.834 -30.5 78.501 -30.5c31.333 0 57.666 10.167 78.999 30.5z" />
    <glyph glyph-name="plusminus" unicode="&#xb1;" horiz-adv-x="925" 
d="M852 721v-221h-277v-168h-223v168h-278v221h278v166h223v-166h277zM74 221h778v-221h-778v221z" />
    <glyph glyph-name="uni00B2" unicode="&#xb2;" horiz-adv-x="813" 
d="M713.5 995.5c-15.667 -38.333 -42.168 -80.334 -79.501 -126.001s-98.333 -112.167 -183 -199.5h284v-199h-620v156l114 116l177.5 183.5c36.333 39 63 72.833 80 101.5s25.5 56 25.5 82c0 32.667 -9.5 56.834 -28.5 72.501s-44.167 23.5 -75.5 23.5
c-36.667 0 -64.667 -11.5 -84 -34.5s-27.666 -51.833 -24.999 -86.5h-221c-4 64 8.33301 120.667 37 170s69.5 87.333 122.5 114s113.167 40 180.5 40c95.333 0 172.333 -26 231 -78s88 -120.333 88 -205c0 -48.667 -7.83301 -92.167 -23.5 -130.5z" />
    <glyph glyph-name="uni00B3" unicode="&#xb3;" horiz-adv-x="837" 
d="M701.5 945c44.333 -48.667 66.5 -108.998 66.5 -180.998c0 -58.667 -15 -111.5 -45 -158.5s-72 -83.833 -126 -110.5s-114.333 -40 -181 -40c-101.333 0 -184.666 29 -249.999 87s-97.333 136 -96 234h219c0 -35.333 12.667 -64 38 -86s56.333 -33 93 -33
c35.333 0 65 10.333 89 31s36 46 36 76c0 39.333 -15.667 70.666 -47 93.999s-69 33.666 -113 30.999h-51h-76v145l166 162h-305v193h598v-175l-180 -176c65.333 -13.333 120.166 -44.333 164.499 -93z" />
    <glyph glyph-name="acute" unicode="&#xb4;" horiz-adv-x="692" 
d="M240 1493l327 350l138 -139l-383 -297z" />
    <glyph glyph-name="mu" unicode="&#xb5;" horiz-adv-x="1331" 
d="M1253 197l0.000976562 -196.998c-46.667 -13.333 -93.667 -20 -141 -20c-58.667 0 -109.5 11.167 -152.5 33.5s-74.167 54.166 -93.5 95.499c-22 -40.667 -55.833 -73.5 -101.5 -98.5s-94.5 -37.5 -146.5 -37.5c-53.333 0 -99.333 10.667 -138 32
s-66.334 49.666 -83.001 84.999v-534h-282v1368h286v-486c0 -72.667 17.833 -127 53.5 -163s83.5 -54 143.5 -54c61.333 0 109.833 18.5 145.5 55.5s53.5 89.5 53.5 157.5v490h284v-592c0 -49.333 9.66699 -84.833 29 -106.5s48 -32.5 86 -32.5c26 0 45 1.33301 57 4z" />
    <glyph glyph-name="paragraph" unicode="&#xb6;" horiz-adv-x="1110" 
d="M1143 1198h-144v-1477h-86v1477h-176v-1472h-239v915h-142c-96.667 0 -173.667 31.333 -231 94s-86 144 -86 244c0 96.667 28.667 176.5 86 239.5s134.333 94.5 231 94.5h787v-115z" />
    <glyph glyph-name="periodcentered" unicode="&#xb7;" horiz-adv-x="737" 
d="M214 403.5c-44.667 43.667 -67.001 94.167 -67.001 151.5c0 60 22.333 111.833 67 155.5s97 65.5 157 65.5c58.667 0 109.834 -22.167 153.501 -66.5s65.5 -95.833 65.5 -154.5c0 -57.333 -21.5 -107.833 -64.5 -151.5s-94.5 -65.5 -154.5 -65.5
s-112.333 21.833 -157 65.5z" />
    <glyph glyph-name="cedilla" unicode="&#xb8;" horiz-adv-x="604" 
d="M402.5 -141.5c32.333 -13.667 59.667 -36.168 82 -67.501s33.5 -71 33.5 -119c0 -69.333 -25.167 -123.166 -75.5 -161.499s-111.833 -57.5 -184.5 -57.5c-62.667 0 -120.667 15 -174 45v144c13.333 -16.667 31.666 -29.5 54.999 -38.5s47.333 -13.5 72 -13.5
c32.667 0 60.334 8.33301 83.001 25s34 40 34 70c0 28.667 -11.333 52.5 -34 71.5s-47.667 28.5 -75 28.5l-18 -2l-51 63l114 226h117v-74l-70 -123c28.667 2.66699 59.167 -2.83301 91.5 -16.5z" />
    <glyph glyph-name="uni00B9" unicode="&#xb9;" horiz-adv-x="628" 
d="M66 1239c68 0 123.167 13.668 165.5 41.001s68.833 63.666 79.5 108.999h185v-918h-228v608h-202v160z" />
    <glyph glyph-name="guillemotright" unicode="&#xbb;" horiz-adv-x="1169" 
d="M580 463l-220 -391h-315l221 391l-221 387h315zM1040 463l-217 -391h-315l219 391l-219 387h315z" />
    <glyph glyph-name="onequarter" unicode="&#xbc;" horiz-adv-x="1589" 
d="M1563 348v-180h-111v-168h-215v168h-381v162l330 524h266v-506h111zM1237 348v264l-166 -264h166zM246 0l915 1399l125 -80l-917 -1395zM39 1165c68 0 122.666 13.333 163.999 40c40.667 26.667 67.334 62.667 80.001 108h180v-854h-223v549h-201v157z" />
    <glyph glyph-name="onehalf" unicode="&#xbd;" horiz-adv-x="1632" 
d="M1566 484c-14.667 -34.667 -38.665 -71.6699 -71.998 -111.003s-88.333 -98.666 -165 -177.999h256v-195h-584v154l121 120c98 98 163.333 166.667 196 206c32 38.667 48 75.334 48 110.001c0 27.333 -8.66699 47.333 -26 60s-38.666 19.334 -63.999 20.001
c-32.667 0 -57.334 -9.66699 -74.001 -29s-23.334 -43.333 -20.001 -72h-217c-2.66699 61.333 9.66602 115 36.999 161c28 46 67.333 81.333 118 106s106 36.667 166 36c88.667 0 161 -24.333 217 -73c56 -49.333 84 -113 84 -191c0.666992 -48 -6.33301 -89.333 -21 -124z
M246.002 -0.00292969l915 1399l125 -80l-917 -1395zM39.002 1165c68 0 122.666 13.333 163.999 40c40.667 26.667 67.334 62.667 80.001 108h180v-854h-223v549h-201v157z" />
    <glyph glyph-name="threequarters" unicode="&#xbe;" horiz-adv-x="1712" 
d="M1686 348v-180h-111v-168h-215v168h-381v162l330 524h266v-506h111zM1360 348v264l-166 -264h166zM369 0l915 1399l125 -80l-917 -1395zM634 897c40 -44 59.999 -99.334 59.999 -166.001c0 -83.333 -31 -152 -93 -206s-141.667 -81 -239 -81
c-98 0 -177.333 27.667 -238 83s-89.667 128 -87 218h217c0 -30 10.667 -54.667 32 -74c21.333 -20 48.333 -30 81 -30c31.333 0 56.333 9.33301 75 28c19.333 18.667 29 40.667 29 66c0 32.667 -14.667 59.334 -44 80.001s-61.666 29.667 -96.999 27
c-1.33301 0 -6.33301 -0.666992 -15 -2c-8 -1.33301 -18 -2 -30 -2h-74v145l143 137h-270v193h561v-172l-162 -158c60.667 -13.333 111 -42 151 -86z" />
    <glyph glyph-name="questiondown" unicode="&#xbf;" horiz-adv-x="1021" 
d="M415.5 1032c-35.667 32.667 -53.5 76.334 -53.5 131.001c0 53.333 17.833 96 53.5 128s80.167 48 133.5 48c54.667 0 100 -16 136 -48s54 -74.667 54 -128c0 -54.667 -18 -98.334 -54 -131.001s-81.333 -49 -136 -49c-53.333 0 -97.833 16.333 -133.5 49zM899 178
c-35.333 -61.333 -87.167 -110.165 -155.5 -146.498s-148.833 -54.5 -241.5 -54.5c-82 0 -155.167 14.333 -219.5 43s-114.833 68.667 -151.5 120s-55 111 -55 179c0 72.667 17.667 133.5 53 182.5s85.333 100.833 150 155.5c48 44 82.833 79 104.5 105
s33.834 55.333 36.501 88v18h266v-18c0 -66.667 -16.667 -123.334 -50 -170.001s-81.333 -97.334 -144 -152.001c-45.333 -38 -79.333 -71.333 -102 -100s-34 -59.334 -34 -92.001c0 -35.333 14.333 -64.666 43 -87.999s65.667 -35 111 -35
c53.333 0 95.666 15.667 126.999 47s45.666 71 42.999 119h268c2.66699 -72.667 -13.666 -139.667 -48.999 -201z" />
    <glyph glyph-name="Agrave" unicode="&#xc0;" horiz-adv-x="1298" 
d="M268 1683l135 140l330 -348l-84 -89zM506 1313h289l487 -1313h-317l-97 270h-442l-98 -270h-312zM782 520l-51 142l-53 165l-27 82c-4 -18 -14.5 -51.167 -31.5 -99.5s-35.167 -97.5 -54.5 -147.5l-53 -142h270z" />
    <glyph glyph-name="Aacute" unicode="&#xc1;" horiz-adv-x="1298" 
d="M567 1475l328 350l137 -139l-383 -297zM506 1313h289l487 -1313h-317l-97 270h-442l-98 -270h-312zM782 520l-51 142l-53 165l-27 82c-4 -18 -14.5 -51.167 -31.5 -99.5s-35.167 -97.5 -54.5 -147.5l-53 -142h270z" />
    <glyph glyph-name="Acircumflex" unicode="&#xc2;" horiz-adv-x="1298" 
d="M526 1765h246l221 -299l-133 -92l-211 225l-213 -225l-131 92zM506 1313h289l487 -1313h-317l-97 270h-442l-98 -270h-312zM782 520l-51 142l-53 165l-27 82c-4 -18 -14.5 -51.167 -31.5 -99.5s-35.167 -97.5 -54.5 -147.5l-53 -142h270z" />
    <glyph glyph-name="Atilde" unicode="&#xc3;" horiz-adv-x="1298" 
d="M326 1464c0 68 16.666 122.666 49.999 163.999s77.333 62 132 62c27.333 0 53 -5.16699 77 -15.5s52.333 -25.166 85 -44.499l49 -26.5c16 -8.33301 30.333 -12.5 43 -12.5c24.667 0 41.334 7.83301 50.001 23.5s12.334 39.5 11.001 71.5h140c4 -24.667 6 -48.667 6 -72
c0 -64 -16.5 -115.5 -49.5 -154.5s-76.833 -58.5 -131.5 -58.5c-30 0 -57.5 5.16699 -82.5 15.5s-53.167 24.833 -84.5 43.5c-16.667 9.33301 -32.834 17.833 -48.501 25.5s-29.167 11.5 -40.5 11.5c-26 0 -43.333 -10.5 -52 -31.5s-11.667 -45.833 -9 -74.5h-139
c-4 26.667 -6 51 -6 73zM505.999 1313h289l487 -1313h-317l-97 270h-442l-98 -270h-312zM781.999 519.999l-51 142l-53 165l-27 82c-4 -18 -14.5 -51.167 -31.5 -99.5s-35.167 -97.5 -54.5 -147.5l-53 -142h270z" />
    <glyph glyph-name="Adieresis" unicode="&#xc4;" horiz-adv-x="1298" 
d="M345 1423c-26.667 26 -39.999 59 -39.999 99c0 40.667 13.333 74 40 100s59.667 39 99 39s72.166 -13 98.499 -39s39.5 -59.333 39.5 -100c0 -38 -13 -70.5 -39 -97.5s-59 -40.5 -99 -40.5c-39.333 0 -72.333 13 -99 39zM755.001 1424c-26.667 26.667 -40 59.333 -40 98
c0 40.667 13.333 74 40 100s59.667 39 99 39s72 -13 98 -39s39 -59.333 39 -100c0 -38 -13 -70.5 -39 -97.5s-58.667 -40.5 -98 -40.5s-72.333 13.333 -99 40zM506.001 1313h289l487 -1313h-317l-97 270h-442l-98 -270h-312zM782.001 519.999l-51 142l-53 165l-27 82
c-4 -18 -14.5 -51.167 -31.5 -99.5s-35.167 -97.5 -54.5 -147.5l-53 -142h270z" />
    <glyph glyph-name="Aring" unicode="&#xc5;" horiz-adv-x="1298" 
d="M501.5 1206c42.333 -24.667 92.165 -37 149.498 -37c56 0 105.5 12.333 148.5 37s75.833 56.834 98.5 96.501s34 82.167 34 127.5s-11.667 88 -35 128s-56.166 72.333 -98.499 97s-91.5 37 -147.5 37c-57.333 0 -107.166 -12.333 -149.499 -37
s-74.666 -57.167 -96.999 -97.5s-33.5 -82.833 -33.5 -127.5c0 -45.333 11.167 -87.833 33.5 -127.5s54.666 -71.834 96.999 -96.501zM723.999 1357c-20 -21.333 -44.333 -32.002 -73 -32.002c-30 0 -54.833 10.167 -74.5 30.5s-29.5 46.5 -29.5 78.5
c0 28.667 9.83301 52.834 29.5 72.501s44.5 29.5 74.5 29.5c28.667 0 53 -10.167 73 -30.5s30 -44.166 30 -71.499c0 -30 -10 -55.667 -30 -77zM505.999 1313h289l487 -1313h-317l-97 270h-442l-98 -270h-312zM781.999 519.998l-51 142l-53 165l-27 82
c-4 -18 -14.5 -51.167 -31.5 -99.5s-35.167 -97.5 -54.5 -147.5l-53 -142h270z" />
    <glyph glyph-name="AE" unicode="&#xc6;" horiz-adv-x="1802" 
d="M1108 1034v-233l526 -2v-269h-526v-247l592 -2v-281l-592 2v-2h-281v285h-354l-113 -285h-342l547 1298v15h1135v-281zM827 1034h-59l-195 -493h254v493z" />
    <glyph glyph-name="Ccedilla" unicode="&#xc7;" horiz-adv-x="1480" 
d="M830.5 -124.5c32.333 -13.667 59.667 -36.332 82 -67.999s33.5 -71.167 33.5 -118.5c0 -69.333 -25.167 -123.166 -75.5 -161.499s-111.833 -57.5 -184.5 -57.5c-62.667 0 -120.667 15 -174 45v143c13.333 -16.667 31.666 -29.334 54.999 -38.001s47.333 -13 72 -13
c32.667 0 60.334 8.16699 83.001 24.5s34 39.5 34 69.5c0 28.667 -11.333 52.5 -34 71.5s-47.667 28.5 -75 28.5l-18 -2l-51 64l114 225h117v-74l-70 -123c28.667 3.33301 59.167 -1.83398 91.5 -15.501zM399.501 58.002c105 -56.667 224.499 -84.9971 358.499 -84.9971
c117.333 0 223.833 20.833 319.5 62.5s172.834 100.167 231.501 175.5s94 161.333 106 258h-332c-18 -65.333 -56.833 -118.166 -116.5 -158.499s-130.5 -60.5 -212.5 -60.5c-112 0 -202.167 36.167 -270.5 108.5s-102.5 171.166 -102.5 296.499c0 124 33.5 223 100.5 297
s157.833 111 272.5 111c84.667 0 157 -19.833 217 -59.5s97.333 -91.5 112 -155.5h332c-13.333 100 -50.5 187.167 -111.5 261.5s-138.833 131.5 -233.5 171.5s-198.667 60 -312 60c-136.667 0 -257.167 -28.333 -361.5 -85s-185.5 -136.834 -243.5 -240.501
s-87 -222.5 -87 -356.5c0 -136.667 29.333 -256.834 88 -360.501s140.5 -183.834 245.5 -240.501z" />
    <glyph glyph-name="Egrave" unicode="&#xc8;" horiz-adv-x="1112" 
d="M193 1683l135 140l329 -348l-84 -89zM440 1042v-249h506v-261h-506v-262h568v-270h-867v1313h867v-271h-568z" />
    <glyph glyph-name="Eacute" unicode="&#xc9;" horiz-adv-x="1112" 
d="M492 1475l327 350l137 -139l-383 -297zM440 1042v-249h506v-261h-506v-262h568v-270h-867v1313h867v-271h-568z" />
    <glyph glyph-name="Ecircumflex" unicode="&#xca;" horiz-adv-x="1112" 
d="M451 1765h245l222 -299l-134 -92l-211 225l-213 -225l-131 92zM440 1042v-249h506v-261h-506v-262h568v-270h-867v1313h867v-271h-568z" />
    <glyph glyph-name="Edieresis" unicode="&#xcb;" horiz-adv-x="1112" 
d="M269 1423c-26.667 26 -40 59 -40 99c0 40.667 13.333 74 40 100s60 39 100 39c39.333 0 72 -13 98 -39s39 -59.333 39 -100c0 -38 -13 -70.5 -39 -97.5s-58.667 -40.5 -98 -40.5c-40 0 -73.333 13 -100 39zM679 1424c-26.667 26.667 -40 59.333 -40 98
c0 40.667 13.333 74 40 100s59.667 39 99 39s72 -13 98 -39s39 -59.333 39 -100c0 -38 -12.833 -70.5 -38.5 -97.5s-58.5 -40.5 -98.5 -40.5c-39.333 0 -72.333 13.333 -99 40zM440 1042v-249h506v-261h-506v-262h568v-270h-867v1313h867v-271h-568z" />
    <glyph glyph-name="Igrave" unicode="&#xcc;" horiz-adv-x="563" 
d="M-90 1683l135 140l330 -348l-84 -89zM141 0v1313h299v-1313h-299z" />
    <glyph glyph-name="Iacute" unicode="&#xcd;" horiz-adv-x="563" 
d="M209 1475l328 350l137 -139l-383 -297zM141 0v1313h299v-1313h-299z" />
    <glyph glyph-name="Icircumflex" unicode="&#xce;" horiz-adv-x="563" 
d="M168 1765h246l221 -299l-133 -92l-211 225l-213 -225l-131 92zM141 0v1313h299v-1313h-299z" />
    <glyph glyph-name="Idieresis" unicode="&#xcf;" horiz-adv-x="563" 
d="M-13 1423c-26.667 26 -40 59 -40 99c0 40.667 13.333 74 40 100s59.667 39 99 39s72 -13 98 -39s39 -59.333 39 -100c0 -38 -13 -70.5 -39 -97.5s-58.667 -40.5 -98 -40.5s-72.333 13 -99 39zM396 1424c-26.667 26.667 -40 59.333 -40 98c0 40.667 13.333 74 40 100
s60 39 100 39c39.333 0 72 -13 98 -39s39 -59.333 39 -100c0 -38 -13 -70.5 -39 -97.5s-58.667 -40.5 -98 -40.5c-40 0 -73.333 13.333 -100 40zM141 -0.000976562v1313h299v-1313h-299z" />
    <glyph glyph-name="Eth" unicode="&#xd0;" horiz-adv-x="1476" 
d="M1020.5 1228c100.333 -56.667 178.834 -135.168 235.501 -235.501s85 -214.166 85 -341.499c0 -125.333 -27.833 -237.5 -83.5 -336.5s-133.834 -176.167 -234.501 -231.5s-215 -83 -343 -83h-535v555h-118v205h118v553h535c126.667 0 240.167 -28.333 340.5 -85z
M924.501 375.499c67.667 70.333 101.5 162.167 101.5 275.5c0 117.333 -33.833 211.833 -101.5 283.5s-158.834 107.5 -273.501 107.5h-207v-282h181v-205h-181v-285h207c114.667 0 205.834 35.167 273.501 105.5z" />
    <glyph glyph-name="Ntilde" unicode="&#xd1;" horiz-adv-x="1392" 
d="M383 1501c0 68 16.6689 122.501 50.002 163.501s77.333 61.5 132 61.5c27.333 0 53 -5 77 -15s52.333 -24.667 85 -44l49.5 -26.5c16.333 -8.33301 30.5 -12.5 42.5 -12.5c24.667 0 41.5 7.83301 50.5 23.5s12.833 39.167 11.5 70.5h139c4 -24.667 6 -48.334 6 -71.001
c0 -64 -16.333 -115.5 -49 -154.5s-76.334 -58.5 -131.001 -58.5c-30 0 -57.667 5 -83 15s-53.666 24.667 -84.999 44c-16.667 9.33301 -32.834 17.833 -48.501 25.5s-28.834 11.5 -39.501 11.5c-26 0 -43.5 -10.667 -52.5 -32s-12.167 -46.333 -9.5 -75h-139
c-4 27.333 -6 52 -6 74zM1253 1313v-1313h-278l-539 795v-795h-295v1313h279l536 -797v797h297z" />
    <glyph glyph-name="Ograve" unicode="&#xd2;" horiz-adv-x="1544" 
d="M391 1712l135 139l330 -348l-84 -88zM1387.5 301c-61 -104 -145 -184.665 -252 -241.998s-228.833 -86 -365.5 -86c-135.333 0 -256.5 28.667 -363.5 86s-190.5 137.666 -250.5 240.999s-90 221.666 -90 354.999c0 134 30 252.833 90 356.5s143.5 184.5 250.5 242.5
s228.833 87 365.5 87c135.333 0 256.5 -28.667 363.5 -86s191 -137.833 252 -241.5s91.5 -222.5 91.5 -356.5c0 -133.333 -30.5 -252 -91.5 -356zM1112 868.502c-32.667 61.667 -78.333 109.498 -137 143.498s-125.667 51 -201 51c-76.667 0 -144.667 -17 -204 -51
s-105.666 -81.833 -138.999 -143.5s-50 -132.834 -50 -213.501c0 -79.333 16.333 -149.666 49 -210.999s78.667 -108.666 138 -141.999s127.333 -50 204 -50c75.333 0 142.666 17 201.999 51s105.333 81.833 138 143.5s49 131.834 49 210.501
c0 79.333 -16.333 149.833 -49 211.5z" />
    <glyph glyph-name="Oacute" unicode="&#xd3;" horiz-adv-x="1544" 
d="M690 1503l328 350l137 -139l-383 -297zM1387.5 301c-61 -104 -145 -184.665 -252 -241.998s-228.833 -86 -365.5 -86c-135.333 0 -256.5 28.667 -363.5 86s-190.5 137.666 -250.5 240.999s-90 221.666 -90 354.999c0 134 30 252.833 90 356.5s143.5 184.5 250.5 242.5
s228.833 87 365.5 87c135.333 0 256.5 -28.667 363.5 -86s191 -137.833 252 -241.5s91.5 -222.5 91.5 -356.5c0 -133.333 -30.5 -252 -91.5 -356zM1112 868.502c-32.667 61.667 -78.333 109.498 -137 143.498s-125.667 51 -201 51c-76.667 0 -144.667 -17 -204 -51
s-105.666 -81.833 -138.999 -143.5s-50 -132.834 -50 -213.501c0 -79.333 16.333 -149.666 49 -210.999s78.667 -108.666 138 -141.999s127.333 -50 204 -50c75.333 0 142.666 17 201.999 51s105.333 81.833 138 143.5s49 131.834 49 210.501
c0 79.333 -16.333 149.833 -49 211.5z" />
    <glyph glyph-name="Ocircumflex" unicode="&#xd4;" horiz-adv-x="1544" 
d="M649 1794h246l221 -299l-133 -92l-211 225l-213 -225l-131 92zM1387.5 301c-61 -104 -145 -184.665 -252 -241.998s-228.833 -86 -365.5 -86c-135.333 0 -256.5 28.667 -363.5 86s-190.5 137.666 -250.5 240.999s-90 221.666 -90 354.999c0 134 30 252.833 90 356.5
s143.5 184.5 250.5 242.5s228.833 87 365.5 87c135.333 0 256.5 -28.667 363.5 -86s191 -137.833 252 -241.5s91.5 -222.5 91.5 -356.5c0 -133.333 -30.5 -252 -91.5 -356zM1112 868.502c-32.667 61.667 -78.333 109.498 -137 143.498s-125.667 51 -201 51
c-76.667 0 -144.667 -17 -204 -51s-105.666 -81.833 -138.999 -143.5s-50 -132.834 -50 -213.501c0 -79.333 16.333 -149.666 49 -210.999s78.667 -108.666 138 -141.999s127.333 -50 204 -50c75.333 0 142.666 17 201.999 51s105.333 81.833 138 143.5
s49 131.834 49 210.501c0 79.333 -16.333 149.833 -49 211.5z" />
    <glyph glyph-name="Otilde" unicode="&#xd5;" horiz-adv-x="1544" 
d="M449 1493c0 68 16.6641 122.5 49.9971 163.5s77.333 61.5 132 61.5c27.333 0 52.833 -5 76.5 -15s52.167 -24.667 85.5 -44l49 -26.5c16 -8.33301 30.333 -12.5 43 -12.5c24.667 0 41.334 7.83301 50.001 23.5s12.334 39.167 11.001 70.5h139
c4 -24.667 6.33301 -48.667 7 -72c0 -64 -16.5 -115.333 -49.5 -154s-76.833 -58 -131.5 -58c-30 0 -57.5 5 -82.5 15s-53.5 24.667 -85.5 44c-16.667 9.33301 -32.667 17.833 -48 25.5s-28.666 11.5 -39.999 11.5c-26 0 -43.333 -10.667 -52 -32s-11.667 -46.333 -9 -75
h-139c-4 27.333 -6 52 -6 74zM1387.5 301c-61 -104 -145 -184.665 -252 -241.998s-228.833 -86 -365.5 -86c-135.333 0 -256.5 28.667 -363.5 86s-190.5 137.666 -250.5 240.999s-90 221.666 -90 354.999c0 134 30 252.833 90 356.5s143.5 184.5 250.5 242.5
s228.833 87 365.5 87c135.333 0 256.5 -28.667 363.5 -86s191 -137.833 252 -241.5s91.5 -222.5 91.5 -356.5c0 -133.333 -30.5 -252 -91.5 -356zM1112 868.502c-32.667 61.667 -78.333 109.498 -137 143.498s-125.667 51 -201 51c-76.667 0 -144.667 -17 -204 -51
s-105.666 -81.833 -138.999 -143.5s-50 -132.834 -50 -213.501c0 -79.333 16.333 -149.666 49 -210.999s78.667 -108.666 138 -141.999s127.333 -50 204 -50c75.333 0 142.666 17 201.999 51s105.333 81.833 138 143.5s49 131.834 49 210.501
c0 79.333 -16.333 149.833 -49 211.5z" />
    <glyph glyph-name="Odieresis" unicode="&#xd6;" horiz-adv-x="1544" 
d="M468 1452c-26.667 26 -39.999 58.667 -39.999 98c0 40.667 13.333 74.167 40 100.5s59.667 39.5 99 39.5s72.166 -13 98.499 -39s39.5 -59.667 39.5 -101c0 -38 -13 -70.333 -39 -97s-59 -40 -99 -40c-39.333 0 -72.333 13 -99 39zM878.001 1453
c-26.667 26.667 -40 59 -40 97c0 40.667 13.333 74.167 40 100.5s59.667 39.5 99 39.5s72 -13 98 -39s39 -59.667 39 -101c0 -38 -13 -70.333 -39 -97s-58.667 -40 -98 -40s-72.333 13.333 -99 40zM1387.5 301c-61 -104 -145 -184.665 -252 -241.998
s-228.833 -86 -365.5 -86c-135.333 0 -256.5 28.667 -363.5 86s-190.5 137.666 -250.5 240.999s-90 221.666 -90 354.999c0 134 30 252.833 90 356.5s143.5 184.5 250.5 242.5s228.833 87 365.5 87c135.333 0 256.5 -28.667 363.5 -86s191 -137.833 252 -241.5
s91.5 -222.5 91.5 -356.5c0 -133.333 -30.5 -252 -91.5 -356zM1112 868.502c-32.667 61.667 -78.333 109.498 -137 143.498s-125.667 51 -201 51c-76.667 0 -144.667 -17 -204 -51s-105.666 -81.833 -138.999 -143.5s-50 -132.834 -50 -213.501
c0 -79.333 16.333 -149.666 49 -210.999s78.667 -108.666 138 -141.999s127.333 -50 204 -50c75.333 0 142.666 17 201.999 51s105.333 81.833 138 143.5s49 131.834 49 210.501c0 79.333 -16.333 149.833 -49 211.5z" />
    <glyph glyph-name="multiply" unicode="&#xd7;" horiz-adv-x="1118" 
d="M403 623l-231 231l152 154l231 -234l233 234l154 -154l-233 -231l233 -234l-154 -151l-231 231l-233 -233l-154 153z" />
    <glyph glyph-name="Oslash" unicode="&#xd8;" horiz-adv-x="1544" 
d="M1135.5 1257c107 -57.333 191 -137.831 252 -241.498s91.5 -222.5 91.5 -356.5s-30.5 -252.833 -91.5 -356.5s-145 -184.167 -252 -241.5s-228.833 -86 -365.5 -86c-135.333 0 -256.5 28.667 -363.5 86s-190.5 137.666 -250.5 240.999s-90 221.666 -90 354.999
c0 134 30 252.833 90 356.5s143.5 184.5 250.5 242.5s228.833 87 365.5 87c135.333 0 256.5 -28.667 363.5 -86zM570 1014c-59.333 -34 -105.668 -81.832 -139.001 -143.499s-50 -132.834 -50 -213.501c0 -101.333 26.667 -188 80 -260l407 658
c-31.333 6.66699 -62.666 10 -93.999 10c-76.667 0 -144.667 -17 -204 -51zM973.998 305.003c59.333 34 105.333 81.832 138 143.499s49 131.834 49 210.501c0 108 -29.333 199 -88 273l-405 -666c32.667 -8 67.334 -12 104.001 -12c75.333 0 142.666 17 201.999 51z" />
    <glyph glyph-name="Ugrave" unicode="&#xd9;" horiz-adv-x="1409" 
d="M324 1683l135 140l329 -348l-83 -89zM131 1313l299.001 0.000976562v-811c1.33301 -87.333 26.666 -152.5 75.999 -195.5s114.666 -64.5 195.999 -64.5c88.667 0 157 22.833 205 68.5s72 109.5 72 191.5v811h299v-824c0 -164 -52.167 -291 -156.5 -381
s-244.166 -135 -419.499 -135c-176 0 -315.167 46.167 -417.5 138.5s-153.5 218.166 -153.5 377.499v824z" />
    <glyph glyph-name="Uacute" unicode="&#xda;" horiz-adv-x="1409" 
d="M623 1475l327 350l137 -139l-382 -297zM131 1313l299.001 0.000976562v-811c1.33301 -87.333 26.666 -152.5 75.999 -195.5s114.666 -64.5 195.999 -64.5c88.667 0 157 22.833 205 68.5s72 109.5 72 191.5v811h299v-824c0 -164 -52.167 -291 -156.5 -381
s-244.166 -135 -419.499 -135c-176 0 -315.167 46.167 -417.5 138.5s-153.5 218.166 -153.5 377.499v824z" />
    <glyph glyph-name="Ucircumflex" unicode="&#xdb;" horiz-adv-x="1409" 
d="M582 1765h245l222 -299l-134 -92l-210 225l-213 -225l-132 92zM131 1313l299.001 0.000976562v-811c1.33301 -87.333 26.666 -152.5 75.999 -195.5s114.666 -64.5 195.999 -64.5c88.667 0 157 22.833 205 68.5s72 109.5 72 191.5v811h299v-824
c0 -164 -52.167 -291 -156.5 -381s-244.166 -135 -419.499 -135c-176 0 -315.167 46.167 -417.5 138.5s-153.5 218.166 -153.5 377.499v824z" />
    <glyph glyph-name="Udieresis" unicode="&#xdc;" horiz-adv-x="1409" 
d="M400 1423c-26.667 26 -40 59 -40 99c0 40.667 13.333 74 40 100s60 39 100 39c39.333 0 72 -13 98 -39s39 -59.333 39 -100c0 -38 -13 -70.5 -39 -97.5s-58.667 -40.5 -98 -40.5c-40 0 -73.333 13 -100 39zM810 1424c-26.667 26.667 -39.999 59.333 -39.999 98
c0 40.667 13.333 74 40 100s59.667 39 99 39s72.166 -13 98.499 -39s39.5 -59.333 39.5 -100c0 -38 -13 -70.5 -39 -97.5s-59 -40.5 -99 -40.5c-39.333 0 -72.333 13.333 -99 40zM131.001 1313l299.001 0.000976562v-811c1.33301 -87.333 26.666 -152.5 75.999 -195.5
s114.666 -64.5 195.999 -64.5c88.667 0 157 22.833 205 68.5s72 109.5 72 191.5v811h299v-824c0 -164 -52.167 -291 -156.5 -381s-244.166 -135 -419.499 -135c-176 0 -315.167 46.167 -417.5 138.5s-153.5 218.166 -153.5 377.499v824z" />
    <glyph glyph-name="Yacute" unicode="&#xdd;" horiz-adv-x="1284" 
d="M567 1475l328 350l137 -139l-383 -297zM365 1313l131 -228c38 -66.667 71 -127 99 -181l52 -101c6.66699 15.333 24 49.833 52 103.5s61.333 113.167 100 178.5l133 228h336l-475 -801v-512h-301v512l-474 801h347z" />
    <glyph glyph-name="Thorn" unicode="&#xde;" horiz-adv-x="1206" 
d="M1036 983c82 -82 122.999 -193.333 122.999 -334c0 -90 -18.333 -169.833 -55 -239.5s-90.167 -123.667 -160.5 -162s-154.166 -57.5 -251.499 -57.5h-252v-190h-299v1313h299v-207h258c143.333 0 256 -41 338 -123zM793.499 509c33.667 40 50.499 88.667 50.499 146
c0 49.333 -16.833 92.833 -50.5 130.5s-85.167 56.5 -154.5 56.5h-199v-393h197c70.667 0 122.834 20 156.501 60z" />
    <glyph glyph-name="germandbls" unicode="&#xdf;" horiz-adv-x="1146" 
d="M1005.5 659.5c50.333 -71 75.502 -155.499 75.502 -253.499c0 -83.333 -18.667 -156.833 -56 -220.5s-89.833 -113.167 -157.5 -148.5s-145.834 -53 -234.501 -53c-68 0 -119.333 6 -154 18v246c24.667 -8 54 -12 88 -12c69.333 0 124 18.667 164 56s60 88 60 152
c0 68 -22 121.667 -66 161s-104 59 -180 59h-27v239h27c46.667 0 83.5 13.667 110.5 41s40.5 63 40.5 107c0 42 -13.333 76 -40 102s-62.334 39 -107.001 39c-46.667 0 -83.667 -15.333 -111 -46s-41 -71.334 -41 -122.001v-1026h-286v1001c0 135.333 40.833 242 122.5 320
s190.834 117 327.501 117c128.667 0 232.167 -32.833 310.5 -98.5s117.5 -152.5 117.5 -260.5c0 -70.667 -17.667 -132 -53 -184s-83 -85.333 -143 -100c91.333 -18 162.166 -62.5 212.499 -133.5z" />
    <glyph glyph-name="agrave" unicode="&#xe0;" horiz-adv-x="1198" 
d="M143 1327l136 139l329 -348l-84 -88zM1090 924v-923.999h-275v106c-31.333 -40.667 -75 -73 -131 -97s-116.667 -36 -182 -36c-86 0 -162.167 20.167 -228.5 60.5s-117.5 96.666 -153.5 168.999s-54 156.5 -54 252.5c0 100 19.333 187.667 58 263
s93.167 133.833 163.5 175.5s150.5 62.5 240.5 62.5c132.667 0 233.667 -40.667 303 -122l19 90h240zM740.5 295.501c41.667 43 62.5 100.167 62.5 171.5c0 69.333 -20.833 125.166 -62.5 167.499s-95.834 63.5 -162.501 63.5s-120 -21.5 -160 -64.5s-60 -99.167 -60 -168.5
s20.167 -125.666 60.5 -168.999s93.5 -65 159.5 -65c66.667 0 120.834 21.5 162.501 64.5z" />
    <glyph glyph-name="aacute" unicode="&#xe1;" horiz-adv-x="1198" 
d="M442 1118l328 348l137 -139l-383 -297zM1090 924v-923.999h-275v106c-31.333 -40.667 -75 -73 -131 -97s-116.667 -36 -182 -36c-86 0 -162.167 20.167 -228.5 60.5s-117.5 96.666 -153.5 168.999s-54 156.5 -54 252.5c0 100 19.333 187.667 58 263
s93.167 133.833 163.5 175.5s150.5 62.5 240.5 62.5c132.667 0 233.667 -40.667 303 -122l19 90h240zM740.5 295.501c41.667 43 62.5 100.167 62.5 171.5c0 69.333 -20.833 125.166 -62.5 167.499s-95.834 63.5 -162.501 63.5s-120 -21.5 -160 -64.5s-60 -99.167 -60 -168.5
s20.167 -125.666 60.5 -168.999s93.5 -65 159.5 -65c66.667 0 120.834 21.5 162.501 64.5z" />
    <glyph glyph-name="acircumflex" unicode="&#xe2;" horiz-adv-x="1198" 
d="M401 1409h244l221 -299l-131 -92l-211 225l-213 -225l-131 92zM1090 924v-923.999h-275v106c-31.333 -40.667 -75 -73 -131 -97s-116.667 -36 -182 -36c-86 0 -162.167 20.167 -228.5 60.5s-117.5 96.666 -153.5 168.999s-54 156.5 -54 252.5
c0 100 19.333 187.667 58 263s93.167 133.833 163.5 175.5s150.5 62.5 240.5 62.5c132.667 0 233.667 -40.667 303 -122l19 90h240zM740.5 295.501c41.667 43 62.5 100.167 62.5 171.5c0 69.333 -20.833 125.166 -62.5 167.499s-95.834 63.5 -162.501 63.5
s-120 -21.5 -160 -64.5s-60 -99.167 -60 -168.5s20.167 -125.666 60.5 -168.999s93.5 -65 159.5 -65c66.667 0 120.834 21.5 162.501 64.5z" />
    <glyph glyph-name="atilde" unicode="&#xe3;" horiz-adv-x="1198" 
d="M201 1108c0 68 16.666 122.501 49.999 163.501s77.333 61.5 132 61.5c27.333 0 53 -5 77 -15s52.333 -24.667 85 -44l49 -26.5c16 -8.33301 30.333 -12.5 43 -12.5c24.667 0 41.334 7.83301 50.001 23.5s12.334 39.167 11.001 70.5h140c4 -24.667 6 -48.667 6 -72
c0 -64 -16.5 -115.5 -49.5 -154.5s-76.5 -58.5 -130.5 -58.5c-30 0 -57.667 5.16699 -83 15.5s-53.666 25.166 -84.999 44.499c-16.667 9.33301 -32.834 17.833 -48.501 25.5s-28.834 11.5 -39.501 11.5c-26 0 -43.5 -10.667 -52.5 -32s-12.167 -46.333 -9.5 -75h-139
c-4 27.333 -6 52 -6 74zM1090 924.001v-923.999h-275v106c-31.333 -40.667 -75 -73 -131 -97s-116.667 -36 -182 -36c-86 0 -162.167 20.167 -228.5 60.5s-117.5 96.666 -153.5 168.999s-54 156.5 -54 252.5c0 100 19.333 187.667 58 263s93.167 133.833 163.5 175.5
s150.5 62.5 240.5 62.5c132.667 0 233.667 -40.667 303 -122l19 90h240zM740.499 295.502c41.667 43 62.5 100.167 62.5 171.5c0 69.333 -20.833 125.166 -62.5 167.499s-95.834 63.5 -162.501 63.5s-120 -21.5 -160 -64.5s-60 -99.167 -60 -168.5
s20.167 -125.666 60.5 -168.999s93.5 -65 159.5 -65c66.667 0 120.834 21.5 162.501 64.5z" />
    <glyph glyph-name="adieresis" unicode="&#xe4;" horiz-adv-x="1198" 
d="M220 1070c-26.667 26.667 -39.999 59.665 -39.999 98.998c0 40.667 13 73.834 39 99.501s59.333 38.5 100 38.5c39.333 0 72.166 -12.667 98.499 -38s39.5 -58.666 39.5 -99.999c0 -39.333 -13 -72.333 -39 -99s-59 -40 -99 -40c-39.333 0 -72.333 13.333 -99 40z
M630.001 1070c-26.667 26.667 -40 59.665 -40 98.998c0 40.667 13.333 73.834 40 99.501s59.667 38.5 99 38.5s72 -12.667 98 -38s39 -58.666 39 -99.999c0 -39.333 -13 -72.333 -39 -99s-58.667 -40 -98 -40s-72.333 13.333 -99 40zM1090 923.996v-923.999h-275v106
c-31.333 -40.667 -75 -73 -131 -97s-116.667 -36 -182 -36c-86 0 -162.167 20.167 -228.5 60.5s-117.5 96.666 -153.5 168.999s-54 156.5 -54 252.5c0 100 19.333 187.667 58 263s93.167 133.833 163.5 175.5s150.5 62.5 240.5 62.5c132.667 0 233.667 -40.667 303 -122
l19 90h240zM740.501 295.497c41.667 43 62.5 100.167 62.5 171.5c0 69.333 -20.833 125.166 -62.5 167.499s-95.834 63.5 -162.501 63.5s-120 -21.5 -160 -64.5s-60 -99.167 -60 -168.5s20.167 -125.666 60.5 -168.999s93.5 -65 159.5 -65
c66.667 0 120.834 21.5 162.501 64.5z" />
    <glyph glyph-name="aring" unicode="&#xe5;" horiz-adv-x="1198" 
d="M374.5 1042.5c-42.333 24.333 -74.665 56.333 -96.998 96s-33.5 82.167 -33.5 127.5s11.167 88 33.5 128s54.666 72.333 96.999 97s92.166 37 149.499 37c56 0 105.167 -12.333 147.5 -37s75.166 -57.167 98.499 -97.5s35 -82.833 35 -127.5
c0 -45.333 -11.333 -87.833 -34 -127.5s-55.5 -71.667 -98.5 -96s-92.5 -36.5 -148.5 -36.5c-57.333 0 -107.166 12.167 -149.499 36.5zM597.001 1193c20 21.333 30 47.002 30 77.002c0 27.333 -10 51.166 -30 71.499s-44.333 30.5 -73 30.5
c-30 0 -54.833 -9.83301 -74.5 -29.5s-29.5 -43.834 -29.5 -72.501c0 -31.333 9.83301 -57.333 29.5 -78s44.5 -31 74.5 -31c28.667 0 53 10.667 73 32zM1090 924.002v-923.999h-275v106c-31.333 -40.667 -75 -73 -131 -97s-116.667 -36 -182 -36
c-86 0 -162.167 20.167 -228.5 60.5s-117.5 96.666 -153.5 168.999s-54 156.5 -54 252.5c0 100 19.333 187.667 58 263s93.167 133.833 163.5 175.5s150.5 62.5 240.5 62.5c132.667 0 233.667 -40.667 303 -122l19 90h240zM740.501 295.503
c41.667 43 62.5 100.167 62.5 171.5c0 69.333 -20.833 125.166 -62.5 167.499s-95.834 63.5 -162.501 63.5s-120 -21.5 -160 -64.5s-60 -99.167 -60 -168.5s20.167 -125.666 60.5 -168.999s93.5 -65 159.5 -65c66.667 0 120.834 21.5 162.501 64.5z" />
    <glyph glyph-name="ae" unicode="&#xe6;" horiz-adv-x="1681" 
d="M1620 295c-24.667 -96.667 -78.998 -174.497 -162.998 -233.497s-184.667 -88.5 -302 -88.5c-83.333 0 -157.333 14.333 -222 43s-115 67.667 -151 117c-32.667 -50.667 -79.334 -90 -140.001 -118s-130.667 -42 -210 -42c-112 0 -200.667 27 -266 81
s-98 126.667 -98 218c0 90 33 162 99 216s159 81 279 81h203v29c0 45.333 -14 80.166 -42 104.499s-66.333 36.5 -115 36.5c-48 0 -86.667 -10.5 -116 -31.5s-45.333 -49.167 -48 -84.5h-238c2.66699 100 43 180.5 121 241.5s177.667 91.5 299 91.5
c136.667 0 239.667 -40.667 309 -122c87.333 80.667 196.666 120.667 327.999 120c91.333 0 172.166 -19 242.499 -57s125 -90.5 164 -157.5s58.5 -142.833 58.5 -227.5c0 -28.667 -1.66699 -55.334 -5 -80.001s-6 -40.334 -8 -47.001h-651
c1.33301 -50.667 20.833 -92.667 58.5 -126s87.834 -50 150.501 -50c45.333 0 84.333 7.5 117 22.5s55.667 36.167 69 63.5h277zM1003.5 679.003c-33 -28 -50.833 -64.667 -53.5 -110h371c-1.33301 46.667 -19.5 83.667 -54.5 111s-78.167 41 -129.5 41
c-56 0 -100.5 -14 -133.5 -42zM651.002 389.003h-135c-57.333 0 -98 -10.5 -122 -31.5s-36 -46.5 -36 -76.5c0 -31.333 11.333 -55.666 34 -72.999s53 -26 91 -26c52 0 93 14.667 123 44s45 68.666 45 117.999v45z" />
    <glyph glyph-name="ccedilla" unicode="&#xe7;" horiz-adv-x="1107" 
d="M671 -120.5c32 -13.667 59.167 -36.333 81.5 -68s33.5 -71.167 33.5 -118.5c0 -69.333 -25.167 -123.166 -75.5 -161.499s-111.833 -57.5 -184.5 -57.5c-62.667 0 -120.667 15 -174 45v143c13.333 -16.667 31.666 -29.334 54.999 -38.001s47.333 -13 72 -13
c32.667 0 60.334 8.16699 83.001 24.5s34 39.5 34 69.5c0 28.667 -11.333 52.5 -34 71.5s-47.667 28.5 -75 28.5l-18 -2l-51 64l114 225h117v-74l-69 -122c28.667 2.66699 59 -2.83301 91 -16.5zM128 722.001c-41.333 -74.667 -62.001 -160.998 -62.001 -258.998
c0 -96.667 20.667 -182 62 -256s100 -131.5 176 -172.5s163 -61.5 261 -61.5c87.333 0 165.833 16.5 235.5 49.5s125.334 79.167 167.001 138.5s65.834 127.333 72.501 204h-290c-8 -40.667 -29.167 -74.167 -63.5 -100.5s-76.166 -39.5 -125.499 -39.5
c-62.667 0 -112.5 21.5 -149.5 64.5s-55.5 100.833 -55.5 173.5c0 74 18.833 132.333 56.5 175s87.167 64 148.5 64c46.667 0 87 -11.833 121 -35.5s56.667 -58.834 68 -105.501h290c-5.33301 78 -28.833 147 -70.5 207s-97.334 106.333 -167.001 139
s-148.834 49 -237.501 49c-98 0 -185 -20.333 -261 -61s-134.667 -98.334 -176 -173.001z" />
    <glyph glyph-name="egrave" unicode="&#xe8;" horiz-adv-x="1069" 
d="M168 1327l135 139l330 -348l-84 -88zM861 62.5c-85.333 -59.667 -187.335 -89.4971 -306.002 -89.4971c-96.667 0 -182 20.5 -256 61.5s-131.333 98.667 -172 173s-61 160.166 -61 257.499c0 98 20.333 184.333 61 259s98 132 172 172s157.333 60 250 60
c91.333 0 172.5 -19 243.5 -57s126 -90.833 165 -158.5s58.5 -144.5 58.5 -230.5c0 -48 -4 -89.667 -12 -125h-656c2.66699 -54.667 22.834 -98.334 60.501 -131.001s86.5 -49 146.5 -49c45.333 0 84.333 8.5 117 25.5s55 39.167 67 66.5h279
c-19.333 -96.667 -71.666 -174.834 -156.999 -234.501zM722.998 571.003c-1.33301 46.667 -19.168 83.667 -53.501 111s-77.833 41 -130.5 41c-53.333 0 -97.166 -13.667 -131.499 -41s-52.833 -64.333 -55.5 -111h371z" />
    <glyph glyph-name="eacute" unicode="&#xe9;" horiz-adv-x="1069" 
d="M467 1118l328 350l137 -139l-383 -297zM861 62.5c-85.333 -59.667 -187.335 -89.4971 -306.002 -89.4971c-96.667 0 -182 20.5 -256 61.5s-131.333 98.667 -172 173s-61 160.166 -61 257.499c0 98 20.333 184.333 61 259s98 132 172 172s157.333 60 250 60
c91.333 0 172.5 -19 243.5 -57s126 -90.833 165 -158.5s58.5 -144.5 58.5 -230.5c0 -48 -4 -89.667 -12 -125h-656c2.66699 -54.667 22.834 -98.334 60.501 -131.001s86.5 -49 146.5 -49c45.333 0 84.333 8.5 117 25.5s55 39.167 67 66.5h279
c-19.333 -96.667 -71.666 -174.834 -156.999 -234.501zM722.998 571.003c-1.33301 46.667 -19.168 83.667 -53.501 111s-77.833 41 -130.5 41c-53.333 0 -97.166 -13.667 -131.499 -41s-52.833 -64.333 -55.5 -111h371z" />
    <glyph glyph-name="ecircumflex" unicode="&#xea;" horiz-adv-x="1069" 
d="M426 1409h246l221 -299l-133 -92l-211 225l-213 -225l-131 92zM861 62.5c-85.333 -59.667 -187.335 -89.4971 -306.002 -89.4971c-96.667 0 -182 20.5 -256 61.5s-131.333 98.667 -172 173s-61 160.166 -61 257.499c0 98 20.333 184.333 61 259s98 132 172 172
s157.333 60 250 60c91.333 0 172.5 -19 243.5 -57s126 -90.833 165 -158.5s58.5 -144.5 58.5 -230.5c0 -48 -4 -89.667 -12 -125h-656c2.66699 -54.667 22.834 -98.334 60.501 -131.001s86.5 -49 146.5 -49c45.333 0 84.333 8.5 117 25.5s55 39.167 67 66.5h279
c-19.333 -96.667 -71.666 -174.834 -156.999 -234.501zM722.998 571.003c-1.33301 46.667 -19.168 83.667 -53.501 111s-77.833 41 -130.5 41c-53.333 0 -97.166 -13.667 -131.499 -41s-52.833 -64.333 -55.5 -111h371z" />
    <glyph glyph-name="edieresis" unicode="&#xeb;" horiz-adv-x="1069" 
d="M245 1070c-26.667 26.667 -40 59.665 -40 98.998c0 40.667 13 73.834 39 99.501s59.333 38.5 100 38.5c39.333 0 72 -12.667 98 -38s39 -58.666 39 -99.999c0 -39.333 -13 -72.333 -39 -99s-58.667 -40 -98 -40s-72.333 13.333 -99 40zM654 1070
c-26.667 26.667 -40 59.665 -40 98.998c0 40.667 13.333 73.834 40 99.501s60 38.5 100 38.5c39.333 0 72 -12.667 98 -38s39 -58.666 39 -99.999c0 -39.333 -13 -72.333 -39 -99s-58.667 -40 -98 -40c-40 0 -73.333 13.333 -100 40zM861 62.4961
c-85.333 -59.667 -187.335 -89.4971 -306.002 -89.4971c-96.667 0 -182 20.5 -256 61.5s-131.333 98.667 -172 173s-61 160.166 -61 257.499c0 98 20.333 184.333 61 259s98 132 172 172s157.333 60 250 60c91.333 0 172.5 -19 243.5 -57s126 -90.833 165 -158.5
s58.5 -144.5 58.5 -230.5c0 -48 -4 -89.667 -12 -125h-656c2.66699 -54.667 22.834 -98.334 60.501 -131.001s86.5 -49 146.5 -49c45.333 0 84.333 8.5 117 25.5s55 39.167 67 66.5h279c-19.333 -96.667 -71.666 -174.834 -156.999 -234.501zM722.998 570.999
c-1.33301 46.667 -19.168 83.667 -53.501 111s-77.833 41 -130.5 41c-53.333 0 -97.166 -13.667 -131.499 -41s-52.833 -64.333 -55.5 -111h371z" />
    <glyph glyph-name="igrave" unicode="&#xec;" horiz-adv-x="507" 
d="M-127 1350l135 139l330 -348l-84 -88zM397 924v-924h-286v924h286z" />
    <glyph glyph-name="iacute" unicode="&#xed;" horiz-adv-x="507" 
d="M172 1141l328 350l137 -139l-383 -297zM397 924v-924h-286v924h286z" />
    <glyph glyph-name="icircumflex" unicode="&#xee;" horiz-adv-x="507" 
d="M131 1432h246l221 -299l-133 -93l-211 226l-213 -226l-131 93zM397 924v-924h-286v924h286z" />
    <glyph glyph-name="idieresis" unicode="&#xef;" horiz-adv-x="507" 
d="M-50 1089.5c-26.667 25.667 -40 58.5 -40 98.5c0 40.667 13.333 74 40 100s59.667 39 99 39s72 -13 98 -39s39 -59.333 39 -100c0 -38 -12.833 -70.333 -38.5 -97s-58.5 -40 -98.5 -40c-39.333 0 -72.333 12.833 -99 38.5zM359 1090.5
c-26.667 26.333 -40 58.833 -40 97.5c0 40.667 13.333 74 40 100s60 39 100 39c39.333 0 72 -13 98 -39s39 -59.333 39 -100c0 -38 -13 -70.333 -39 -97s-58.667 -40 -98 -40c-40 0 -73.333 13.167 -100 39.5zM397 924v-924h-286v924h286z" />
    <glyph glyph-name="eth" unicode="&#xf0;" horiz-adv-x="1112" 
d="M990.5 716.5c37.667 -71 56.501 -156.167 56.501 -255.5c0 -96.667 -20.833 -182 -62.5 -256s-100.5 -131.167 -176.5 -171.5s-163 -60.5 -261 -60.5c-96.667 0 -181.667 19.5 -255 58.5s-129.333 92.667 -168 161s-58 145.5 -58 231.5c0 92.667 20.667 173.167 62 241.5
s97.166 119.833 167.499 154.5s148.5 50 234.5 46l-104 119l-207 -96l-80 168l162 76l-156 180h359l53 -62l182 84l76 -168l-131 -61l160 -182c60 -67.333 108.833 -136.5 146.5 -207.5zM703.501 289.5c37.667 43 56.5 99.499 56.5 169.499
c0 69.333 -18.5 125.166 -55.5 167.499s-86.167 63.5 -147.5 63.5s-110.833 -21.167 -148.5 -63.5s-56.5 -98.166 -56.5 -167.499s18.833 -125.666 56.5 -168.999s87.167 -65 148.5 -65c60 0 108.833 21.5 146.5 64.5z" />
    <glyph glyph-name="ntilde" unicode="&#xf1;" horiz-adv-x="1103" 
d="M227 1108c0 68 16.8281 122.501 50.4951 163.501s77.834 61.5 132.501 61.5c27.333 0 52.833 -5 76.5 -15s51.834 -24.667 84.501 -44l49.5 -26.5c16.333 -8.33301 30.833 -12.5 43.5 -12.5c24.667 0 41.334 7.83301 50.001 23.5s12.334 39.167 11.001 70.5h139
c4 -24.667 6 -48.667 6 -72c0 -64 -16.333 -115.5 -49 -154.5s-76.334 -58.5 -131.001 -58.5c-30 0 -57.667 5.16699 -83 15.5s-53.666 25.166 -84.999 44.499c-16.667 9.33301 -32.667 17.833 -48 25.5s-28.666 11.5 -39.999 11.5c-26 0 -43.333 -10.667 -52 -32
s-11.667 -46.333 -9 -75h-140c-4 27.333 -6 52 -6 74zM911.495 852.001c61.667 -69.333 92.499 -162.333 92.499 -279v-573h-287v506c0 126.667 -52 190 -156 190c-54.667 0 -96 -16 -124 -48s-42 -76.667 -42 -134v-514h-284v924h237l19 -101
c28.667 40.667 68.5 73 119.5 97s106.5 36 166.5 36c110.667 0 196.834 -34.667 258.501 -104z" />
    <glyph glyph-name="ograve" unicode="&#xf2;" horiz-adv-x="1157" 
d="M199 1327l135 139l330 -348l-84 -88zM130.5 718.5c43 75 103.333 133.333 181 175s167.167 62.5 268.5 62.5s190.5 -20.833 267.5 -62.5s137 -100 180 -175s64.5 -160.167 64.5 -255.5c0 -94 -21.5 -178.333 -64.5 -253s-103.5 -132.834 -181.5 -174.501
s-166.667 -62.5 -266 -62.5c-101.333 0 -190.833 20.833 -268.5 62.5s-138 99.834 -181 174.501s-64.5 159 -64.5 253c0 95.333 21.5 180.5 64.5 255.5zM419.5 293.5c41 -44.333 94.501 -66.5 160.501 -66.5c65.333 0 118.5 22.167 159.5 66.5s61.5 101.5 61.5 171.5
c0 69.333 -20.167 125.833 -60.5 169.5s-93.833 65.5 -160.5 65.5s-120.334 -21.833 -161.001 -65.5s-61 -100.167 -61 -169.5c0 -70 20.5 -127.167 61.5 -171.5z" />
    <glyph glyph-name="oacute" unicode="&#xf3;" horiz-adv-x="1157" 
d="M498 1118l327 350l138 -139l-383 -297zM130.5 718.5c43 75 103.333 133.333 181 175s167.167 62.5 268.5 62.5s190.5 -20.833 267.5 -62.5s137 -100 180 -175s64.5 -160.167 64.5 -255.5c0 -94 -21.5 -178.333 -64.5 -253s-103.5 -132.834 -181.5 -174.501
s-166.667 -62.5 -266 -62.5c-101.333 0 -190.833 20.833 -268.5 62.5s-138 99.834 -181 174.501s-64.5 159 -64.5 253c0 95.333 21.5 180.5 64.5 255.5zM419.5 293.5c41 -44.333 94.501 -66.5 160.501 -66.5c65.333 0 118.5 22.167 159.5 66.5s61.5 101.5 61.5 171.5
c0 69.333 -20.167 125.833 -60.5 169.5s-93.833 65.5 -160.5 65.5s-120.334 -21.833 -161.001 -65.5s-61 -100.167 -61 -169.5c0 -70 20.5 -127.167 61.5 -171.5z" />
    <glyph glyph-name="ocircumflex" unicode="&#xf4;" horiz-adv-x="1157" 
d="M457 1409h245l222 -299l-133 -92l-211 225l-213 -225l-131 92zM130.5 718.5c43 75 103.333 133.333 181 175s167.167 62.5 268.5 62.5s190.5 -20.833 267.5 -62.5s137 -100 180 -175s64.5 -160.167 64.5 -255.5c0 -94 -21.5 -178.333 -64.5 -253
s-103.5 -132.834 -181.5 -174.501s-166.667 -62.5 -266 -62.5c-101.333 0 -190.833 20.833 -268.5 62.5s-138 99.834 -181 174.501s-64.5 159 -64.5 253c0 95.333 21.5 180.5 64.5 255.5zM419.5 293.5c41 -44.333 94.501 -66.5 160.501 -66.5
c65.333 0 118.5 22.167 159.5 66.5s61.5 101.5 61.5 171.5c0 69.333 -20.167 125.833 -60.5 169.5s-93.833 65.5 -160.5 65.5s-120.334 -21.833 -161.001 -65.5s-61 -100.167 -61 -169.5c0 -70 20.5 -127.167 61.5 -171.5z" />
    <glyph glyph-name="otilde" unicode="&#xf5;" horiz-adv-x="1157" 
d="M256 1108c0 68 16.6689 122.501 50.002 163.501s77.333 61.5 132 61.5c27.333 0 53 -5 77 -15s52.333 -24.667 85 -44l49.5 -26.5c16.333 -8.33301 30.5 -12.5 42.5 -12.5c24.667 0 41.5 7.83301 50.5 23.5s12.833 39.167 11.5 70.5h139c4 -24.667 6 -48.667 6 -72
c0 -64 -16.333 -115.5 -49 -154.5s-76.334 -58.5 -131.001 -58.5c-30 0 -57.667 5.16699 -83 15.5s-53.666 25.166 -84.999 44.499c-16.667 9.33301 -32.834 17.833 -48.501 25.5s-28.834 11.5 -39.501 11.5c-26 0 -43.5 -10.667 -52.5 -32s-12.167 -46.333 -9.5 -75h-139
c-4 27.333 -6 52 -6 74zM130.502 718.501c43 75 103.333 133.333 181 175s167.167 62.5 268.5 62.5s190.5 -20.833 267.5 -62.5s137 -100 180 -175s64.5 -160.167 64.5 -255.5c0 -94 -21.5 -178.333 -64.5 -253s-103.5 -132.834 -181.5 -174.501s-166.667 -62.5 -266 -62.5
c-101.333 0 -190.833 20.833 -268.5 62.5s-138 99.834 -181 174.501s-64.5 159 -64.5 253c0 95.333 21.5 180.5 64.5 255.5zM419.502 293.501c41 -44.333 94.501 -66.5 160.501 -66.5c65.333 0 118.5 22.167 159.5 66.5s61.5 101.5 61.5 171.5
c0 69.333 -20.167 125.833 -60.5 169.5s-93.833 65.5 -160.5 65.5s-120.334 -21.833 -161.001 -65.5s-61 -100.167 -61 -169.5c0 -70 20.5 -127.167 61.5 -171.5z" />
    <glyph glyph-name="odieresis" unicode="&#xf6;" horiz-adv-x="1157" 
d="M275.5 1067c-26.333 26 -39.5 58.667 -39.5 98c0 40.667 13.167 74.167 39.5 100.5s59.5 39.5 99.5 39.5c39.333 0 72 -13 98 -39s39 -59.667 39 -101c0 -38 -13 -70.333 -39 -97s-58.667 -40 -98 -40c-40 0 -73.167 13 -99.5 39zM685 1068
c-26.667 26.667 -39.999 59 -39.999 97c0 40.667 13.333 74.167 40 100.5s59.667 39.5 99 39.5s72.166 -13 98.499 -39s39.5 -59.667 39.5 -101c0 -38 -13 -70.333 -39 -97s-59 -40 -99 -40c-39.333 0 -72.333 13.333 -99 40zM130.501 718.5c43 75 103.333 133.333 181 175
s167.167 62.5 268.5 62.5s190.5 -20.833 267.5 -62.5s137 -100 180 -175s64.5 -160.167 64.5 -255.5c0 -94 -21.5 -178.333 -64.5 -253s-103.5 -132.834 -181.5 -174.501s-166.667 -62.5 -266 -62.5c-101.333 0 -190.833 20.833 -268.5 62.5s-138 99.834 -181 174.501
s-64.5 159 -64.5 253c0 95.333 21.5 180.5 64.5 255.5zM419.501 293.5c41 -44.333 94.501 -66.5 160.501 -66.5c65.333 0 118.5 22.167 159.5 66.5s61.5 101.5 61.5 171.5c0 69.333 -20.167 125.833 -60.5 169.5s-93.833 65.5 -160.5 65.5s-120.334 -21.833 -161.001 -65.5
s-61 -100.167 -61 -169.5c0 -70 20.5 -127.167 61.5 -171.5z" />
    <glyph glyph-name="divide" unicode="&#xf7;" horiz-adv-x="1019" 
d="M402.5 865c-31 29.333 -46.5 64.668 -46.5 106.001c0 40.667 15.5 76 46.5 106s67.5 45 109.5 45c39.333 0 74.5 -15 105.5 -45s46.5 -65.333 46.5 -106s-15.5 -75.834 -46.5 -105.501s-66.167 -44.5 -105.5 -44.5c-42 0 -78.5 14.667 -109.5 44zM872 715.002v-219h-725
v219h725zM402.5 133.002c-31 30 -46.5 64.999 -46.5 104.999c0 42 15.5 77.667 46.5 107s67.5 44 109.5 44c39.333 0 74.5 -15 105.5 -45s46.5 -65.333 46.5 -106c0 -39.333 -15.5 -74.166 -46.5 -104.499s-66.167 -45.5 -105.5 -45.5c-42 0 -78.5 15 -109.5 45z" />
    <glyph glyph-name="oslash" unicode="&#xf8;" horiz-adv-x="1157" 
d="M178 -10l654 1040l152 -93l-655 -1040zM130.5 718.5c43 75 103.333 133.333 181 175s167.167 62.5 268.5 62.5s190.5 -20.833 267.5 -62.5s137 -100 180 -175s64.5 -160.167 64.5 -255.5c0 -94 -21.5 -178.333 -64.5 -253s-103.5 -132.834 -181.5 -174.501
s-166.667 -62.5 -266 -62.5c-101.333 0 -190.833 20.833 -268.5 62.5s-138 99.834 -181 174.501s-64.5 159 -64.5 253c0 95.333 21.5 180.5 64.5 255.5zM419.5 293.5c41 -44.333 94.501 -66.5 160.501 -66.5c65.333 0 118.5 22.167 159.5 66.5s61.5 101.5 61.5 171.5
c0 69.333 -20.167 125.833 -60.5 169.5s-93.833 65.5 -160.5 65.5s-120.334 -21.833 -161.001 -65.5s-61 -100.167 -61 -169.5c0 -70 20.5 -127.167 61.5 -171.5z" />
    <glyph glyph-name="ugrave" unicode="&#xf9;" horiz-adv-x="1085" 
d="M162 1294l135 140l330 -349l-84 -88zM985 924l-0.00195312 -924.001h-237l-19 104c-32.667 -44 -73.167 -76.833 -121.5 -98.5s-102.166 -32.5 -161.499 -32.5c-110.667 0 -196 32.833 -256 98.5s-90 155.167 -90 268.5v584h287v-541
c0 -57.333 13.333 -98.666 40 -123.999s65.334 -38 116.001 -38c49.333 0 87.5 15.333 114.5 46s40.5 72 40.5 124v533h287z" />
    <glyph glyph-name="uacute" unicode="&#xfa;" horiz-adv-x="1085" 
d="M461 1085l327 351l138 -140l-383 -297zM985 924l-0.00195312 -924.001h-237l-19 104c-32.667 -44 -73.167 -76.833 -121.5 -98.5s-102.166 -32.5 -161.499 -32.5c-110.667 0 -196 32.833 -256 98.5s-90 155.167 -90 268.5v584h287v-541
c0 -57.333 13.333 -98.666 40 -123.999s65.334 -38 116.001 -38c49.333 0 87.5 15.333 114.5 46s40.5 72 40.5 124v533h287z" />
    <glyph glyph-name="ucircumflex" unicode="&#xfb;" horiz-adv-x="1085" 
d="M420 1376h246l221 -299l-133 -92l-211 225l-213 -225l-131 92zM985 924l-0.00195312 -924.001h-237l-19 104c-32.667 -44 -73.167 -76.833 -121.5 -98.5s-102.166 -32.5 -161.499 -32.5c-110.667 0 -196 32.833 -256 98.5s-90 155.167 -90 268.5v584h287v-541
c0 -57.333 13.333 -98.666 40 -123.999s65.334 -38 116.001 -38c49.333 0 87.5 15.333 114.5 46s40.5 72 40.5 124v533h287z" />
    <glyph glyph-name="udieresis" unicode="&#xfc;" horiz-adv-x="1085" 
d="M239 1034c-26.667 26 -40 59 -40 99c0 40.667 13.333 74 40 100s59.667 39 99 39s72 -13 98 -39s39 -59.333 39 -100c0 -38 -13 -70.5 -39 -97.5s-58.667 -40.5 -98 -40.5s-72.333 13 -99 39zM648 1035c-26.667 26.667 -40 59.333 -40 98c0 40.667 13.333 74 40 100
s60 39 100 39c39.333 0 72 -13 98 -39s39 -59.333 39 -100c0 -38 -13 -70.5 -39 -97.5s-58.667 -40.5 -98 -40.5c-40 0 -73.333 13.333 -100 40zM985 923.999l-0.00195312 -924.001h-237l-19 104c-32.667 -44 -73.167 -76.833 -121.5 -98.5s-102.166 -32.5 -161.499 -32.5
c-110.667 0 -196 32.833 -256 98.5s-90 155.167 -90 268.5v584h287v-541c0 -57.333 13.333 -98.666 40 -123.999s65.334 -38 116.001 -38c49.333 0 87.5 15.333 114.5 46s40.5 72 40.5 124v533h287z" />
    <glyph glyph-name="yacute" unicode="&#xfd;" horiz-adv-x="1101" 
d="M473 1085l328 351l137 -140l-383 -297zM1081 924l-428 -1074c-23.333 -56 -48.833 -104.667 -76.5 -146s-68.834 -77.833 -123.501 -109.5s-123.667 -47.5 -207 -47.5c-56 0 -119 7.66699 -189 23l4 233c50.667 -9.33301 95.334 -14 134.001 -14
c46.667 0 83.5 6.5 110.5 19.5s47 29 60 48s24.833 43.5 35.5 73.5l17 41l-395 953h309l217 -605l229 605h303z" />
    <glyph glyph-name="thorn" unicode="&#xfe;" horiz-adv-x="1224" 
d="M938 894c74 -40 131 -97 171 -171s60 -159.333 60 -256s-20 -182 -60 -256s-97.333 -131.5 -172 -172.5s-161.667 -61.5 -261 -61.5c-110.667 0 -200.667 25.333 -270 76v-497h-281v1849h274v-535c36.667 26 80 46.5 130 61.5s101.667 22.5 155 22.5
c95.333 0 180 -20 254 -60zM816.5 294.5c44.333 43.667 66.5 99.832 66.5 168.499c0 68 -22.167 123.5 -66.5 166.5s-102.166 64.5 -173.499 64.5c-68 0 -123.833 -21.5 -167.5 -64.5s-65.5 -98.5 -65.5 -166.5c0 -69.333 21.833 -125.666 65.5 -168.999s99.5 -65 167.5 -65
c71.333 0 129.166 21.833 173.499 65.5z" />
    <glyph glyph-name="ydieresis" unicode="&#xff;" horiz-adv-x="1101" 
d="M251 1034c-26.667 26 -40 59 -40 99c0 40.667 13.333 74 40 100s59.667 39 99 39s72 -13 98 -39s39 -59.333 39 -100c0 -38 -12.833 -70.5 -38.5 -97.5s-58.5 -40.5 -98.5 -40.5c-39.333 0 -72.333 13 -99 39zM660.5 1035c-26.333 26.667 -39.5 59.333 -39.5 98
c0 40.667 13.167 74 39.5 100s59.5 39 99.5 39c39.333 0 72 -13 98 -39s39 -59.333 39 -100c0 -38 -13 -70.5 -39 -97.5s-58.667 -40.5 -98 -40.5c-40 0 -73.167 13.333 -99.5 40zM1081 923.999l-428 -1074c-23.333 -56 -48.833 -104.667 -76.5 -146
s-68.834 -77.833 -123.501 -109.5s-123.667 -47.5 -207 -47.5c-56 0 -119 7.66699 -189 23l4 233c50.667 -9.33301 95.334 -14 134.001 -14c46.667 0 83.5 6.5 110.5 19.5s47 29 60 48s24.833 43.5 35.5 73.5l17 41l-395 953h309l217 -605l229 605h303z" />
    <glyph glyph-name="Amacron" unicode="&#x100;" horiz-adv-x="1298" 
d="M942 1591v-190h-582v190h582zM506 1313h289l487 -1313h-317l-97 270h-442l-98 -270h-312zM782 520l-51 142l-53 165l-27 82c-4 -18 -14.5 -51.167 -31.5 -99.5s-35.167 -97.5 -54.5 -147.5l-53 -142h270z" />
    <glyph glyph-name="amacron" unicode="&#x101;" horiz-adv-x="1198" 
d="M817 1235v-191h-581v191h581zM1090 924v-923.999h-275v106c-31.333 -40.667 -75 -73 -131 -97s-116.667 -36 -182 -36c-86 0 -162.167 20.167 -228.5 60.5s-117.5 96.666 -153.5 168.999s-54 156.5 -54 252.5c0 100 19.333 187.667 58 263s93.167 133.833 163.5 175.5
s150.5 62.5 240.5 62.5c132.667 0 233.667 -40.667 303 -122l19 90h240zM740.5 295.501c41.667 43 62.5 100.167 62.5 171.5c0 69.333 -20.833 125.166 -62.5 167.499s-95.834 63.5 -162.501 63.5s-120 -21.5 -160 -64.5s-60 -99.167 -60 -168.5
s20.167 -125.666 60.5 -168.999s93.5 -65 159.5 -65c66.667 0 120.834 21.5 162.501 64.5z" />
    <glyph glyph-name="Abreve" unicode="&#x102;" horiz-adv-x="1298" 
d="M897 1475c-66.667 -57.333 -149.332 -86 -247.999 -86c-104 0 -188.333 29.667 -253 89s-99.667 138 -105 236h196c1.33301 -44 17.166 -78.167 47.499 -102.5s68.5 -36.5 114.5 -36.5c48 0 85.667 12.333 113 37s42.333 58.667 45 102h199
c-6 -102 -42.333 -181.667 -109 -239zM506.002 1313h289l487 -1313h-317l-97 270h-442l-98 -270h-312zM782.002 520l-51 142l-53 165l-27 82c-4 -18 -14.5 -51.167 -31.5 -99.5s-35.167 -97.5 -54.5 -147.5l-53 -142h270z" />
    <glyph glyph-name="abreve" unicode="&#x103;" horiz-adv-x="1198" 
d="M772 1118c-66.667 -57.333 -149.332 -86 -247.999 -86c-104 0 -188.333 29.667 -253 89s-99.667 138.333 -105 237h196c1.33301 -44 17.166 -78.167 47.499 -102.5s68.5 -36.5 114.5 -36.5c48 0 85.667 12.167 113 36.5s42.333 58.5 45 102.5h199
c-6 -102.667 -42.333 -182.667 -109 -240zM1090 924v-923.999h-275v106c-31.333 -40.667 -75 -73 -131 -97s-116.667 -36 -182 -36c-86 0 -162.167 20.167 -228.5 60.5s-117.5 96.666 -153.5 168.999s-54 156.5 -54 252.5c0 100 19.333 187.667 58 263
s93.167 133.833 163.5 175.5s150.5 62.5 240.5 62.5c132.667 0 233.667 -40.667 303 -122l19 90h240zM740.502 295.501c41.667 43 62.5 100.167 62.5 171.5c0 69.333 -20.833 125.166 -62.5 167.499s-95.834 63.5 -162.501 63.5s-120 -21.5 -160 -64.5
s-60 -99.167 -60 -168.5s20.167 -125.666 60.5 -168.999s93.5 -65 159.5 -65c66.667 0 120.834 21.5 162.501 64.5z" />
    <glyph glyph-name="Aogonek" unicode="&#x104;" horiz-adv-x="1298" 
d="M1280 0c-38 -24.667 -66.333 -49.998 -85 -75.998s-28 -50.667 -28 -74c0 -20.667 7.16699 -37 21.5 -49s33.833 -18 58.5 -18c19.333 0 41.333 4 66 12v-143c-42 -13.333 -83.667 -20.333 -125 -21c-61.333 0 -109.833 16.167 -145.5 48.5s-53.5 71.5 -53.5 117.5
c0 35.333 11.333 71.166 34 107.499s55.667 68.166 99 95.499h158zM506 1313h289l487 -1313h-317l-97 270h-442l-98 -270h-312zM782 520.002l-51 142l-53 165l-27 82c-4 -18 -14.5 -51.167 -31.5 -99.5s-35.167 -97.5 -54.5 -147.5l-53 -142h270z" />
    <glyph glyph-name="aogonek" unicode="&#x105;" horiz-adv-x="1198" 
d="M1087 0c-38 -24.667 -66.168 -49.998 -84.501 -75.998s-27.5 -50.667 -27.5 -74c0 -20.667 7.16699 -37 21.5 -49s33.833 -18 58.5 -18c19.333 0 41 4 65 12v-143c-42 -13.333 -83.667 -20.333 -125 -21c-61.333 0 -109.666 16.167 -144.999 48.5s-53 71.5 -53 117.5
c0 35.333 11.167 71.166 33.5 107.499s55.5 68.166 99.5 95.499h157zM1090 924.002v-923.999h-275v106c-31.333 -40.667 -75 -73 -131 -97s-116.667 -36 -182 -36c-86 0 -162.167 20.167 -228.5 60.5s-117.5 96.666 -153.5 168.999s-54 156.5 -54 252.5
c0 100 19.333 187.667 58 263s93.167 133.833 163.5 175.5s150.5 62.5 240.5 62.5c132.667 0 233.667 -40.667 303 -122l19 90h240zM740.499 295.503c41.667 43 62.5 100.167 62.5 171.5c0 69.333 -20.833 125.166 -62.5 167.499s-95.834 63.5 -162.501 63.5
s-120 -21.5 -160 -64.5s-60 -99.167 -60 -168.5s20.167 -125.666 60.5 -168.999s93.5 -65 159.5 -65c66.667 0 120.834 21.5 162.501 64.5z" />
    <glyph glyph-name="Cacute" unicode="&#x106;" horiz-adv-x="1480" 
d="M676 1503l328 348l137 -139l-383 -297zM399.5 58c-105 56.667 -186.831 137 -245.498 241s-88 224 -88 360c0 134 29 252.833 87 356.5s139.167 183.834 243.5 240.501s224.833 85 361.5 85c113.333 0 217.333 -20 312 -60s172.5 -97.333 233.5 -172
s98.167 -161.667 111.5 -261h-332c-15.333 64 -52.833 115.833 -112.5 155.5s-131.834 59.5 -216.501 59.5c-114.667 0 -205.5 -36.833 -272.5 -110.5s-100.5 -172.834 -100.5 -297.501c0 -125.333 34.167 -224.166 102.5 -296.499s158.5 -108.5 270.5 -108.5
c82 0 153 20.167 213 60.5s98.667 93.166 116 158.499h332c-12 -96.667 -47.333 -182.667 -106 -258s-135.834 -133.833 -231.501 -175.5s-202.167 -62.5 -319.5 -62.5c-134 0 -253.5 28.333 -358.5 85z" />
    <glyph glyph-name="cacute" unicode="&#x107;" horiz-adv-x="1107" 
d="M483 1118l328 348l137 -139l-383 -297zM128 722c41.333 74.667 100 132.332 176 172.999s163 61 261 61c88.667 0 167.834 -16.333 237.501 -49s125.334 -79 167.001 -139s65.167 -129 70.5 -207h-290c-10.667 46.667 -33.167 81.834 -67.5 105.501
s-74.833 35.5 -121.5 35.5c-61.333 0 -110.833 -21.5 -148.5 -64.5s-56.5 -101.167 -56.5 -174.5c0 -72.667 18.5 -130.5 55.5 -173.5s86.833 -64.5 149.5 -64.5c49.333 0 91 13 125 39s55.333 59.667 64 101h290c-6.66699 -76.667 -30.834 -144.667 -72.501 -204
s-97.334 -105.5 -167.001 -138.5s-148.167 -49.5 -235.5 -49.5c-98 0 -185 20.5 -261 61.5s-134.667 98.333 -176 172s-62 159.167 -62 256.5c0 98 20.667 184.333 62 259z" />
    <glyph glyph-name="Ccircumflex" unicode="&#x108;" horiz-adv-x="1480" 
d="M635 1794h244l221 -299l-131 -92l-211 225l-213 -225l-131 92zM399.5 58c-105 56.667 -186.831 137 -245.498 241s-88 224 -88 360c0 134 29 252.833 87 356.5s139.167 183.834 243.5 240.501s224.833 85 361.5 85c113.333 0 217.333 -20 312 -60
s172.5 -97.333 233.5 -172s98.167 -161.667 111.5 -261h-332c-15.333 64 -52.833 115.833 -112.5 155.5s-131.834 59.5 -216.501 59.5c-114.667 0 -205.5 -36.833 -272.5 -110.5s-100.5 -172.834 -100.5 -297.501c0 -125.333 34.167 -224.166 102.5 -296.499
s158.5 -108.5 270.5 -108.5c82 0 153 20.167 213 60.5s98.667 93.166 116 158.499h332c-12 -96.667 -47.333 -182.667 -106 -258s-135.834 -133.833 -231.501 -175.5s-202.167 -62.5 -319.5 -62.5c-134 0 -253.5 28.333 -358.5 85z" />
    <glyph glyph-name="ccircumflex" unicode="&#x109;" horiz-adv-x="1107" 
d="M442 1409h244l221 -299l-131 -92l-211 225l-213 -225l-131 92zM128 722c41.333 74.667 100 132.332 176 172.999s163 61 261 61c88.667 0 167.834 -16.333 237.501 -49s125.334 -79 167.001 -139s65.167 -129 70.5 -207h-290
c-10.667 46.667 -33.167 81.834 -67.5 105.501s-74.833 35.5 -121.5 35.5c-61.333 0 -110.833 -21.5 -148.5 -64.5s-56.5 -101.167 -56.5 -174.5c0 -72.667 18.5 -130.5 55.5 -173.5s86.833 -64.5 149.5 -64.5c49.333 0 91 13 125 39s55.333 59.667 64 101h290
c-6.66699 -76.667 -30.834 -144.667 -72.501 -204s-97.334 -105.5 -167.001 -138.5s-148.167 -49.5 -235.5 -49.5c-98 0 -185 20.5 -261 61.5s-134.667 98.333 -176 172s-62 159.167 -62 256.5c0 98 20.667 184.333 62 259z" />
    <glyph glyph-name="Cdotaccent" unicode="&#x10a;" horiz-adv-x="1480" 
d="M658 1457c-26.667 26.667 -40 59.665 -40 98.998c0 40.667 13 73.834 39 99.501s59.667 38.5 101 38.5c39.333 0 72 -12.667 98 -38s39 -58.666 39 -99.999c0 -39.333 -13 -72.333 -39 -99s-58.667 -40 -98 -40c-40 0 -73.333 13.333 -100 40zM399.5 57.998
c-105 56.667 -186.831 137 -245.498 241s-88 224 -88 360c0 134 29 252.833 87 356.5s139.167 183.834 243.5 240.501s224.833 85 361.5 85c113.333 0 217.333 -20 312 -60s172.5 -97.333 233.5 -172s98.167 -161.667 111.5 -261h-332
c-15.333 64 -52.833 115.833 -112.5 155.5s-131.834 59.5 -216.501 59.5c-114.667 0 -205.5 -36.833 -272.5 -110.5s-100.5 -172.834 -100.5 -297.501c0 -125.333 34.167 -224.166 102.5 -296.499s158.5 -108.5 270.5 -108.5c82 0 153 20.167 213 60.5
s98.667 93.166 116 158.499h332c-12 -96.667 -47.333 -182.667 -106 -258s-135.834 -133.833 -231.501 -175.5s-202.167 -62.5 -319.5 -62.5c-134 0 -253.5 28.333 -358.5 85z" />
    <glyph glyph-name="cdotaccent" unicode="&#x10b;" horiz-adv-x="1107" 
d="M466 1072c-26.667 26.667 -40 59.665 -40 98.998c0 40.667 13 73.834 39 99.501s59.333 38.5 100 38.5c39.333 0 72 -12.667 98 -38s39 -58.666 39 -99.999c0 -39.333 -12.833 -72.333 -38.5 -99s-58.5 -40 -98.5 -40c-39.333 0 -72.333 13.333 -99 40zM128 721.998
c41.333 74.667 100 132.332 176 172.999s163 61 261 61c88.667 0 167.834 -16.333 237.501 -49s125.334 -79 167.001 -139s65.167 -129 70.5 -207h-290c-10.667 46.667 -33.167 81.834 -67.5 105.501s-74.833 35.5 -121.5 35.5c-61.333 0 -110.833 -21.5 -148.5 -64.5
s-56.5 -101.167 -56.5 -174.5c0 -72.667 18.5 -130.5 55.5 -173.5s86.833 -64.5 149.5 -64.5c49.333 0 91 13 125 39s55.333 59.667 64 101h290c-6.66699 -76.667 -30.834 -144.667 -72.501 -204s-97.334 -105.5 -167.001 -138.5s-148.167 -49.5 -235.5 -49.5
c-98 0 -185 20.5 -261 61.5s-134.667 98.333 -176 172s-62 159.167 -62 256.5c0 98 20.667 184.333 62 259z" />
    <glyph glyph-name="Ccaron" unicode="&#x10c;" horiz-adv-x="1480" 
d="M545 1808l213 -225l211 225l133 -92l-221 -299h-246l-221 299zM399.5 58c-105 56.667 -186.831 137 -245.498 241s-88 224 -88 360c0 134 29 252.833 87 356.5s139.167 183.834 243.5 240.501s224.833 85 361.5 85c113.333 0 217.333 -20 312 -60
s172.5 -97.333 233.5 -172s98.167 -161.667 111.5 -261h-332c-15.333 64 -52.833 115.833 -112.5 155.5s-131.834 59.5 -216.501 59.5c-114.667 0 -205.5 -36.833 -272.5 -110.5s-100.5 -172.834 -100.5 -297.501c0 -125.333 34.167 -224.166 102.5 -296.499
s158.5 -108.5 270.5 -108.5c82 0 153 20.167 213 60.5s98.667 93.166 116 158.499h332c-12 -96.667 -47.333 -182.667 -106 -258s-135.834 -133.833 -231.501 -175.5s-202.167 -62.5 -319.5 -62.5c-134 0 -253.5 28.333 -358.5 85z" />
    <glyph glyph-name="ccaron" unicode="&#x10d;" horiz-adv-x="1107" 
d="M352 1423l213 -225l211 225l133 -92l-221 -299h-246l-221 299zM128 722c41.333 74.667 100 132.332 176 172.999s163 61 261 61c88.667 0 167.834 -16.333 237.501 -49s125.334 -79 167.001 -139s65.167 -129 70.5 -207h-290
c-10.667 46.667 -33.167 81.834 -67.5 105.501s-74.833 35.5 -121.5 35.5c-61.333 0 -110.833 -21.5 -148.5 -64.5s-56.5 -101.167 -56.5 -174.5c0 -72.667 18.5 -130.5 55.5 -173.5s86.833 -64.5 149.5 -64.5c49.333 0 91 13 125 39s55.333 59.667 64 101h290
c-6.66699 -76.667 -30.834 -144.667 -72.501 -204s-97.334 -105.5 -167.001 -138.5s-148.167 -49.5 -235.5 -49.5c-98 0 -185 20.5 -261 61.5s-134.667 98.333 -176 172s-62 159.167 -62 256.5c0 98 20.667 184.333 62 259z" />
    <glyph glyph-name="Dcaron" unicode="&#x10e;" horiz-adv-x="1402" 
d="M330 1780l213 -226l211 226l133 -92l-221 -299h-246l-221 299zM1016.5 1228c100.333 -56.667 178.833 -135.168 235.5 -235.501s85 -214.166 85 -341.499c0 -125.333 -28 -237.5 -84 -336.5s-134.167 -176.167 -234.5 -231.5s-214.5 -83 -342.5 -83h-535v1313h535
c126.667 0 240.167 -28.333 340.5 -85zM920.5 375.499c67.667 70.333 101.5 162.167 101.5 275.5c0 117.333 -33.833 211.833 -101.5 283.5s-158.834 107.5 -273.501 107.5h-207v-772h207c114.667 0 205.834 35.167 273.501 105.5z" />
    <glyph glyph-name="dcaron" unicode="&#x10f;" horiz-adv-x="1341" 
d="M817 1405h285v-1405h-271l-8 96c-31.333 -36.667 -73.666 -65.667 -126.999 -87s-108.666 -32 -165.999 -32c-92.667 0 -174.834 20.167 -246.501 60.5s-127.334 97 -167.001 170s-59.5 158.167 -59.5 255.5c0 96.667 19.833 182.167 59.5 256.5s95 132 166 173
s153.5 61.5 247.5 61.5c58.667 0 114 -8.5 166 -25.5s92.333 -40.5 121 -70.5v547zM1405 1405l-43 -451h-174v451h217zM742.5 297.5c44.333 43 66.5029 100.167 66.5029 171.5c0 69.333 -21.833 124.5 -65.5 165.5s-98.834 61.5 -165.501 61.5
s-122.334 -20.167 -167.001 -60.5s-67 -95.833 -67 -166.5s22.5 -127.667 67.5 -171s100.5 -65 166.5 -65c65.333 0 120.166 21.5 164.499 64.5z" />
    <glyph glyph-name="Dcroat" unicode="&#x110;" horiz-adv-x="1536" 
d="M1076.5 1228c100.333 -56.667 178.834 -135.168 235.501 -235.501s85 -214.166 85 -341.499c0 -125.333 -28 -237.5 -84 -336.5s-134.167 -176.167 -234.5 -231.5s-214.833 -83 -343.5 -83h-534v555h-119v205h119v553h534c127.333 0 241.166 -28.333 341.499 -85z
M980.001 375.499c67.333 70.333 101 162.167 101 275.5c0 117.333 -33.667 211.833 -101 283.5s-158.333 107.5 -273 107.5h-207v-282h180v-205h-180v-285h207c114.667 0 205.667 35.167 273 105.5z" />
    <glyph glyph-name="dcroat" unicode="&#x111;" horiz-adv-x="1200" 
d="M1265 1256v-190h-789v190h789zM1090 1405l-0.00195312 -1405h-238l-16 111c-31.333 -44 -74.666 -78 -129.999 -102s-116.666 -36 -183.999 -36c-88.667 0 -167.5 20.5 -236.5 61.5s-122.833 98.333 -161.5 172s-58 159.167 -58 256.5c0 96.667 19.333 182.667 58 258
s92.5 133.333 161.5 174s147.833 61 236.5 61c61.333 0 116 -8.5 164 -25.5s87.667 -41.833 119 -74.5v549h285zM740.498 295.5c41.667 43 62.5 100.167 62.5 171.5c0 69.333 -20.833 125.166 -62.5 167.499s-95.834 63.5 -162.501 63.5s-120 -21.5 -160 -64.5
s-60 -99.167 -60 -168.5s20.167 -125.666 60.5 -168.999s93.5 -65 159.5 -65c66.667 0 120.834 21.5 162.501 64.5z" />
    <glyph glyph-name="Emacron" unicode="&#x112;" horiz-adv-x="1112" 
d="M866 1591v-190h-581v190h581zM440 1042v-249h506v-261h-506v-262h568v-270h-867v1313h867v-271h-568z" />
    <glyph glyph-name="emacron" unicode="&#x113;" horiz-adv-x="1069" 
d="M842 1235v-191h-582v191h582zM861 62.5c-85.333 -59.667 -187.335 -89.4971 -306.002 -89.4971c-96.667 0 -182 20.5 -256 61.5s-131.333 98.667 -172 173s-61 160.166 -61 257.499c0 98 20.333 184.333 61 259s98 132 172 172s157.333 60 250 60
c91.333 0 172.5 -19 243.5 -57s126 -90.833 165 -158.5s58.5 -144.5 58.5 -230.5c0 -48 -4 -89.667 -12 -125h-656c2.66699 -54.667 22.834 -98.334 60.501 -131.001s86.5 -49 146.5 -49c45.333 0 84.333 8.5 117 25.5s55 39.167 67 66.5h279
c-19.333 -96.667 -71.666 -174.834 -156.999 -234.501zM722.998 571.003c-1.33301 46.667 -19.168 83.667 -53.501 111s-77.833 41 -130.5 41c-53.333 0 -97.166 -13.667 -131.499 -41s-52.833 -64.333 -55.5 -111h371z" />
    <glyph glyph-name="Ebreve" unicode="&#x114;" horiz-adv-x="1112" 
d="M821.5 1475c-67 -57.333 -149.833 -86 -248.5 -86c-104 0 -188.333 29.667 -253 89s-99.667 138 -105 236h197c1.33301 -44 17 -78.167 47 -102.5s68 -36.5 114 -36.5c48 0 85.667 12.333 113 37s42.333 58.667 45 102h199c-5.33301 -102 -41.5 -181.667 -108.5 -239z
M440 1042v-249h506v-261h-506v-262h568v-270h-867v1313h867v-271h-568z" />
    <glyph glyph-name="ebreve" unicode="&#x115;" horiz-adv-x="1069" 
d="M796.5 1118c-67 -57.333 -149.5 -86 -247.5 -86c-104 0 -188.333 29.667 -253 89s-100 138.333 -106 237h197c1.33301 -44 17 -78.167 47 -102.5s68.333 -36.5 115 -36.5c48 0 85.5 12.167 112.5 36.5s42.167 58.5 45.5 102.5h198
c-5.33301 -102.667 -41.5 -182.667 -108.5 -240zM861 62.5c-85.333 -59.667 -187.335 -89.4971 -306.002 -89.4971c-96.667 0 -182 20.5 -256 61.5s-131.333 98.667 -172 173s-61 160.166 -61 257.499c0 98 20.333 184.333 61 259s98 132 172 172s157.333 60 250 60
c91.333 0 172.5 -19 243.5 -57s126 -90.833 165 -158.5s58.5 -144.5 58.5 -230.5c0 -48 -4 -89.667 -12 -125h-656c2.66699 -54.667 22.834 -98.334 60.501 -131.001s86.5 -49 146.5 -49c45.333 0 84.333 8.5 117 25.5s55 39.167 67 66.5h279
c-19.333 -96.667 -71.666 -174.834 -156.999 -234.501zM722.998 571.003c-1.33301 46.667 -19.168 83.667 -53.501 111s-77.833 41 -130.5 41c-53.333 0 -97.166 -13.667 -131.499 -41s-52.833 -64.333 -55.5 -111h371z" />
    <glyph glyph-name="Edotaccent" unicode="&#x116;" horiz-adv-x="1112" 
d="M474 1428.5c-26.667 26.333 -39.999 59.5 -39.999 99.5c0 40.667 13 73.667 39 99s59.333 38 100 38c39.333 0 72.166 -12.667 98.499 -38s39.5 -58.333 39.5 -99c0 -39.333 -13 -72.333 -39 -99s-59 -40 -99 -40c-39.333 0 -72.333 13.167 -99 39.5zM440.001 1042v-249
h506v-261h-506v-262h568v-270h-867v1313h867v-271h-568z" />
    <glyph glyph-name="edotaccent" unicode="&#x117;" horiz-adv-x="1069" 
d="M449.5 1072c-26.333 26.667 -39.5 59.665 -39.5 98.998c0 40.667 12.833 73.834 38.5 99.501s59.167 38.5 100.5 38.5c39.333 0 72 -12.667 98 -38s39 -58.666 39 -99.999c0 -39.333 -13 -72.333 -39 -99s-58.667 -40 -98 -40c-40 0 -73.167 13.333 -99.5 40zM861 62.498
c-85.333 -59.667 -187.335 -89.4971 -306.002 -89.4971c-96.667 0 -182 20.5 -256 61.5s-131.333 98.667 -172 173s-61 160.166 -61 257.499c0 98 20.333 184.333 61 259s98 132 172 172s157.333 60 250 60c91.333 0 172.5 -19 243.5 -57s126 -90.833 165 -158.5
s58.5 -144.5 58.5 -230.5c0 -48 -4 -89.667 -12 -125h-656c2.66699 -54.667 22.834 -98.334 60.501 -131.001s86.5 -49 146.5 -49c45.333 0 84.333 8.5 117 25.5s55 39.167 67 66.5h279c-19.333 -96.667 -71.666 -174.834 -156.999 -234.501zM722.998 571.001
c-1.33301 46.667 -19.168 83.667 -53.501 111s-77.833 41 -130.5 41c-53.333 0 -97.166 -13.667 -131.499 -41s-52.833 -64.333 -55.5 -111h371z" />
    <glyph glyph-name="Eogonek" unicode="&#x118;" horiz-adv-x="1112" 
d="M1008 0c-38 -24.667 -66.334 -49.998 -85.001 -75.998s-28 -50.667 -28 -74c0 -20.667 7.16699 -37 21.5 -49s33.833 -18 58.5 -18c19.333 0 41 4 65 12v-143c-42 -13.333 -83.667 -20.333 -125 -21c-61.333 0 -109.666 16.167 -144.999 48.5s-53 71.5 -53 117.5
c0 35.333 11.167 71.166 33.5 107.499s55.5 68.166 99.5 95.499h158zM439.999 1042v-249h506v-261h-506v-262h568v-270h-867v1313h867v-271h-568z" />
    <glyph glyph-name="eogonek" unicode="&#x119;" horiz-adv-x="1069" 
d="M688 31c-38 -24.667 -66.333 -49.998 -85 -75.998s-28 -50.667 -28 -74c0 -20.667 7.16699 -37 21.5 -49s33.833 -18 58.5 -18c19.333 0 41.333 4 66 12v-143c-42 -13.333 -83.667 -20.333 -125 -21c-61.333 0 -109.833 16 -145.5 48s-53.5 71.333 -53.5 118
c0 35.333 11.333 71.166 34 107.499s55.667 68.166 99 95.499h158zM861 62.502c85.333 59.667 137.668 137.833 157.001 234.5h-279c-12 -27.333 -34.333 -49.5 -67 -66.5s-71.667 -25.5 -117 -25.5c-60 0 -108.833 16.333 -146.5 49s-57.834 76.334 -60.501 131.001h656
c8 35.333 12 77 12 125c0 86 -19.5 162.833 -58.5 230.5s-94 120.5 -165 158.5s-152.167 57 -243.5 57c-92.667 0 -176 -20 -250 -60s-131.333 -97.333 -172 -172s-61 -161 -61 -259c0 -96.667 20.333 -182.334 61 -257.001s98 -132.5 172 -173.5s159.333 -61.5 256 -61.5
c118.667 0 220.667 29.833 306 89.5zM723.002 571.001h-370.999c2.66699 46.667 21.167 83.667 55.5 111s78.166 41 131.499 41s97 -13.667 131 -41s51.667 -64.333 53 -111z" />
    <glyph glyph-name="Ecaron" unicode="&#x11a;" horiz-adv-x="1112" 
d="M360 1780l213 -226l211 226l134 -92l-222 -299h-245l-222 299zM440 1042v-249h506v-261h-506v-262h568v-270h-867v1313h867v-271h-568z" />
    <glyph glyph-name="ecaron" unicode="&#x11b;" horiz-adv-x="1069" 
d="M336 1423l213 -225l211 225l133 -92l-221 -299h-246l-221 299zM861 62.5c-85.333 -59.667 -187.335 -89.4971 -306.002 -89.4971c-96.667 0 -182 20.5 -256 61.5s-131.333 98.667 -172 173s-61 160.166 -61 257.499c0 98 20.333 184.333 61 259s98 132 172 172
s157.333 60 250 60c91.333 0 172.5 -19 243.5 -57s126 -90.833 165 -158.5s58.5 -144.5 58.5 -230.5c0 -48 -4 -89.667 -12 -125h-656c2.66699 -54.667 22.834 -98.334 60.501 -131.001s86.5 -49 146.5 -49c45.333 0 84.333 8.5 117 25.5s55 39.167 67 66.5h279
c-19.333 -96.667 -71.666 -174.834 -156.999 -234.501zM722.998 571.003c-1.33301 46.667 -19.168 83.667 -53.501 111s-77.833 41 -130.5 41c-53.333 0 -97.166 -13.667 -131.499 -41s-52.833 -64.333 -55.5 -111h371z" />
    <glyph glyph-name="Gcircumflex" unicode="&#x11c;" horiz-adv-x="1478" 
d="M633 1794h244l221 -299l-131 -92l-211 225l-213 -225l-131 92zM1413 727v-141.002c0 -121.333 -28.333 -228.166 -85 -320.499s-135.834 -164.166 -237.501 -215.499s-217.5 -77 -347.5 -77c-135.333 0 -254.166 28 -356.499 84s-181.333 134.833 -237 236.5
s-83.5 219.5 -83.5 353.5c0 135.333 29 255.5 87 360.5s139.167 186.833 243.5 245.5s224.166 88 359.499 88c112 0 213 -19.667 303 -59s163.667 -94.5 221 -165.5s94.333 -153.167 111 -246.5h-320c-22 60 -61.667 107.167 -119 141.5s-124.666 51.5 -201.999 51.5
c-116 0 -207.5 -37.167 -274.5 -111.5s-100.5 -174.5 -100.5 -300.5c0 -125.333 33.833 -223.5 101.5 -294.5s158.167 -106.5 271.5 -106.5c87.333 0 162 19.833 224 59.5s102 94.167 120 163.5h-353v254h674z" />
    <glyph glyph-name="gcircumflex" unicode="&#x11d;" horiz-adv-x="1230" 
d="M539 1386h243l222 -255l-132 -79l-210 192l-213 -192l-132 79zM1079 924l-0.000976562 -925.999c0 -142 -45.333 -255 -136 -339s-216 -126 -376 -126c-91.333 0 -173.5 16.667 -246.5 50s-131 80.5 -174 141.5s-67.833 131.833 -74.5 212.5h282
c8 -50.667 31.5 -88.667 70.5 -114s86.5 -38 142.5 -38c70.667 0 126 18.167 166 54.5s60 85.166 60 146.499v139c-27.333 -34 -66.333 -61.667 -117 -83s-106.667 -32 -168 -32c-84.667 0 -160.5 19.5 -227.5 58.5s-119.5 94 -157.5 165s-57 152.167 -57 243.5
c0 94 19.333 177.333 58 250s91.834 129 159.501 169s143.167 60 226.5 60c62.667 0 120 -11.167 172 -33.5s91.667 -52.833 119 -91.5l12 93h266zM722.499 321.501c42.333 42.333 63.499 96.168 63.499 161.501c0 66.667 -21.167 121 -63.5 163s-94.166 63 -155.499 63
s-111.5 -21.167 -150.5 -63.5s-58.5 -96.5 -58.5 -162.5c0 -66.667 19.833 -120.834 59.5 -162.501s90.167 -62.5 151.5 -62.5c60 0 111.167 21.167 153.5 63.5z" />
    <glyph glyph-name="Gbreve" unicode="&#x11e;" horiz-adv-x="1478" 
d="M1003.5 1503c-67 -57.333 -149.5 -86 -247.5 -86c-104 0 -188.333 29.667 -253 89s-100 138.333 -106 237h197c1.33301 -44 17 -78.167 47 -102.5s68.333 -36.5 115 -36.5c48 0 85.5 12.167 112.5 36.5s41.833 58.5 44.5 102.5h199
c-5.33301 -102.667 -41.5 -182.667 -108.5 -240zM1413 727v-141.002c0 -121.333 -28.333 -228.166 -85 -320.499s-135.834 -164.166 -237.501 -215.499s-217.5 -77 -347.5 -77c-135.333 0 -254.166 28 -356.499 84s-181.333 134.833 -237 236.5s-83.5 219.5 -83.5 353.5
c0 135.333 29 255.5 87 360.5s139.167 186.833 243.5 245.5s224.166 88 359.499 88c112 0 213 -19.667 303 -59s163.667 -94.5 221 -165.5s94.333 -153.167 111 -246.5h-320c-22 60 -61.667 107.167 -119 141.5s-124.666 51.5 -201.999 51.5
c-116 0 -207.5 -37.167 -274.5 -111.5s-100.5 -174.5 -100.5 -300.5c0 -125.333 33.833 -223.5 101.5 -294.5s158.167 -106.5 271.5 -106.5c87.333 0 162 19.833 224 59.5s102 94.167 120 163.5h-353v254h674z" />
    <glyph glyph-name="gbreve" unicode="&#x11f;" horiz-adv-x="1181" 
d="M757.5 1118c-67 -57.333 -149.5 -86 -247.5 -86c-104 0 -188.333 29.667 -253 89s-99.667 138.333 -105 237h196c1.33301 -44 17 -78.167 47 -102.5s68.333 -36.5 115 -36.5c48 0 85.667 12.167 113 36.5s42.333 58.5 45 102.5h198
c-5.33301 -102.667 -41.5 -182.667 -108.5 -240zM1079 924l-0.000976562 -925.999c0 -142 -45.333 -255 -136 -339s-216 -126 -376 -126c-91.333 0 -173.5 16.667 -246.5 50s-131 80.5 -174 141.5s-67.833 131.833 -74.5 212.5h282c8 -50.667 31.5 -88.667 70.5 -114
s86.5 -38 142.5 -38c70.667 0 126 18.167 166 54.5s60 85.166 60 146.499v139c-27.333 -34 -66.333 -61.667 -117 -83s-106.667 -32 -168 -32c-84.667 0 -160.5 19.5 -227.5 58.5s-119.5 94 -157.5 165s-57 152.167 -57 243.5c0 94 19.333 177.333 58 250
s91.834 129 159.501 169s143.167 60 226.5 60c62.667 0 120 -11.167 172 -33.5s91.667 -52.833 119 -91.5l12 93h266zM722.499 321.501c42.333 42.333 63.499 96.168 63.499 161.501c0 66.667 -21.167 121 -63.5 163s-94.166 63 -155.499 63s-111.5 -21.167 -150.5 -63.5
s-58.5 -96.5 -58.5 -162.5c0 -66.667 19.833 -120.834 59.5 -162.501s90.167 -62.5 151.5 -62.5c60 0 111.167 21.167 153.5 63.5z" />
    <glyph glyph-name="Gdotaccent" unicode="&#x120;" horiz-adv-x="1478" 
d="M656 1457c-26.667 26.667 -40 59.665 -40 98.998c0 40.667 13 73.834 39 99.501s59.667 38.5 101 38.5c39.333 0 72 -12.667 98 -38s39 -58.666 39 -99.999c0 -39.333 -13 -72.333 -39 -99s-58.667 -40 -98 -40c-40 0 -73.333 13.333 -100 40zM1413 726.998v-141.002
c0 -121.333 -28.333 -228.166 -85 -320.499s-135.834 -164.166 -237.501 -215.499s-217.5 -77 -347.5 -77c-135.333 0 -254.166 28 -356.499 84s-181.333 134.833 -237 236.5s-83.5 219.5 -83.5 353.5c0 135.333 29 255.5 87 360.5s139.167 186.833 243.5 245.5
s224.166 88 359.499 88c112 0 213 -19.667 303 -59s163.667 -94.5 221 -165.5s94.333 -153.167 111 -246.5h-320c-22 60 -61.667 107.167 -119 141.5s-124.666 51.5 -201.999 51.5c-116 0 -207.5 -37.167 -274.5 -111.5s-100.5 -174.5 -100.5 -300.5
c0 -125.333 33.833 -223.5 101.5 -294.5s158.167 -106.5 271.5 -106.5c87.333 0 162 19.833 224 59.5s102 94.167 120 163.5h-353v254h674z" />
    <glyph glyph-name="gdotaccent" unicode="&#x121;" horiz-adv-x="1181" 
d="M411 1072c-26.667 26.667 -40 59.665 -40 98.998c0 40.667 13 73.834 39 99.501s59.333 38.5 100 38.5c39.333 0 72 -12.667 98 -38s39 -58.666 39 -99.999c0 -39.333 -13 -72.333 -39 -99s-58.667 -40 -98 -40s-72.333 13.333 -99 40zM1079 923.998
l-0.000976562 -925.999c0 -142 -45.333 -255 -136 -339s-216 -126 -376 -126c-91.333 0 -173.5 16.667 -246.5 50s-131 80.5 -174 141.5s-67.833 131.833 -74.5 212.5h282c8 -50.667 31.5 -88.667 70.5 -114s86.5 -38 142.5 -38c70.667 0 126 18.167 166 54.5
s60 85.166 60 146.499v139c-27.333 -34 -66.333 -61.667 -117 -83s-106.667 -32 -168 -32c-84.667 0 -160.5 19.5 -227.5 58.5s-119.5 94 -157.5 165s-57 152.167 -57 243.5c0 94 19.333 177.333 58 250s91.834 129 159.501 169s143.167 60 226.5 60
c62.667 0 120 -11.167 172 -33.5s91.667 -52.833 119 -91.5l12 93h266zM722.499 321.499c42.333 42.333 63.499 96.168 63.499 161.501c0 66.667 -21.167 121 -63.5 163s-94.166 63 -155.499 63s-111.5 -21.167 -150.5 -63.5s-58.5 -96.5 -58.5 -162.5
c0 -66.667 19.833 -120.834 59.5 -162.501s90.167 -62.5 151.5 -62.5c60 0 111.167 21.167 153.5 63.5z" />
    <glyph glyph-name="uni0122" unicode="&#x122;" horiz-adv-x="1478" 
d="M879 -130c26 -30.667 38.999 -70.001 38.999 -118.001c0 -72.667 -22 -133.5 -66 -182.5s-109 -74.833 -195 -77.5v57c48 8 84.333 23.667 109 47s38.334 52.333 41.001 87c-13.333 -8 -29.666 -12.333 -48.999 -13c-34 0 -61.667 11.333 -83 34s-32 50.334 -32 83.001
c0 38 12.667 69 38 93s57.666 36 96.999 36c41.333 0 75 -15.333 101 -46zM1413 726.999v-141.002c0 -121.333 -28.333 -228.166 -85 -320.499s-135.834 -164.166 -237.501 -215.499s-217.5 -77 -347.5 -77c-135.333 0 -254.166 28 -356.499 84s-181.333 134.833 -237 236.5
s-83.5 219.5 -83.5 353.5c0 135.333 29 255.5 87 360.5s139.167 186.833 243.5 245.5s224.166 88 359.499 88c112 0 213 -19.667 303 -59s163.667 -94.5 221 -165.5s94.333 -153.167 111 -246.5h-320c-22 60 -61.667 107.167 -119 141.5s-124.666 51.5 -201.999 51.5
c-116 0 -207.5 -37.167 -274.5 -111.5s-100.5 -174.5 -100.5 -300.5c0 -125.333 33.833 -223.5 101.5 -294.5s158.167 -106.5 271.5 -106.5c87.333 0 162 19.833 224 59.5s102 94.167 120 163.5h-353v254h674z" />
    <glyph glyph-name="uni0123" unicode="&#x123;" horiz-adv-x="1181" 
d="M428 1118l328 350l137 -139l-383 -297zM1079 924l-0.000976562 -925.999c0 -142 -45.333 -255 -136 -339s-216 -126 -376 -126c-91.333 0 -173.5 16.667 -246.5 50s-131 80.5 -174 141.5s-67.833 131.833 -74.5 212.5h282c8 -50.667 31.5 -88.667 70.5 -114
s86.5 -38 142.5 -38c70.667 0 126 18.167 166 54.5s60 85.166 60 146.499v139c-27.333 -34 -66.333 -61.667 -117 -83s-106.667 -32 -168 -32c-84.667 0 -160.5 19.5 -227.5 58.5s-119.5 94 -157.5 165s-57 152.167 -57 243.5c0 94 19.333 177.333 58 250
s91.834 129 159.501 169s143.167 60 226.5 60c62.667 0 120 -11.167 172 -33.5s91.667 -52.833 119 -91.5l12 93h266zM722.499 321.501c42.333 42.333 63.499 96.168 63.499 161.501c0 66.667 -21.167 121 -63.5 163s-94.166 63 -155.499 63s-111.5 -21.167 -150.5 -63.5
s-58.5 -96.5 -58.5 -162.5c0 -66.667 19.833 -120.834 59.5 -162.501s90.167 -62.5 151.5 -62.5c60 0 111.167 21.167 153.5 63.5z" />
    <glyph glyph-name="Hbar" unicode="&#x126;" horiz-adv-x="1374" 
d="M1378 1160v-226h-1354v226h1354zM141 1313h299v-522h510v522h301v-1313h-301v530h-510v-530h-299v1313z" />
    <glyph glyph-name="hbar" unicode="&#x127;" horiz-adv-x="1112" 
d="M653 1033h-641v202h641v-202zM111 1405l286 -0.00195312v-571c27.333 38 65 68 113 90s100.667 32.667 158 32c110.667 0 195.667 -34.333 255 -103s89 -162 89 -280v-573h-285v506c0 76.667 -17 127.334 -51 152.001c-34 25.333 -69 38 -105 38
c-40.667 0 -80 -11.333 -118 -34c-38 -23.333 -57.333 -72.666 -58 -147.999v-514h-284v1405z" />
    <glyph glyph-name="Itilde" unicode="&#x128;" horiz-adv-x="563" 
d="M-33 1464c0 68 16.833 122.666 50.5 163.999s77.834 62 132.501 62c27.333 0 52.833 -5.16699 76.5 -15.5s51.834 -25.166 84.501 -44.499l49.5 -26.5c16.333 -8.33301 30.5 -12.5 42.5 -12.5c24.667 0 41.5 7.83301 50.5 23.5s12.833 39.5 11.5 71.5h139
c4 -24.667 6 -48.667 6 -72c0 -64 -16.333 -115.5 -49 -154.5s-76.334 -58.5 -131.001 -58.5c-30 0 -57.667 5.16699 -83 15.5s-53.666 24.833 -84.999 43.5c-16.667 9.33301 -32.834 17.833 -48.501 25.5s-28.834 11.5 -39.501 11.5c-26 0 -43.333 -10.5 -52 -31.5
s-11.667 -45.833 -9 -74.5h-140c-4 26.667 -6 51 -6 73zM141 -0.000976562v1313h299v-1313h-299z" />
    <glyph glyph-name="itilde" unicode="&#x129;" horiz-adv-x="507" 
d="M-70 1130c0 68 16.8281 122.666 50.4951 163.999s77.834 62 132.501 62c27.333 0 52.833 -5.16699 76.5 -15.5s51.834 -25.166 84.501 -44.499l49.5 -26.5c16.333 -8.33301 30.833 -12.5 43.5 -12.5c24.667 0 41.334 8 50.001 24s12.334 39.667 11.001 71h139
c4 -24.667 6 -48.667 6 -72c0 -64 -16.333 -115.5 -49 -154.5s-76.334 -58.5 -131.001 -58.5c-30 0 -57.667 5.16699 -83 15.5s-53.666 24.833 -84.999 43.5c-16.667 9.33301 -32.667 17.833 -48 25.5s-28.666 11.5 -39.999 11.5c-26 0 -43.333 -10.5 -52 -31.5
s-11.667 -45.833 -9 -74.5h-139c-4.66699 26.667 -7 51 -7 73zM396.995 923.999v-924h-286v924h286z" />
    <glyph glyph-name="Imacron" unicode="&#x12a;" horiz-adv-x="563" 
d="M584 1591v-190h-582v190h582zM141 0v1313h299v-1313h-299z" />
    <glyph glyph-name="imacron" unicode="&#x12b;" horiz-adv-x="507" 
d="M547 1257v-190h-582v190h582zM397 924v-924h-286v924h286z" />
    <glyph glyph-name="Iogonek" unicode="&#x12e;" horiz-adv-x="563" 
d="M440 4c-38 -24.667 -66.168 -49.998 -84.501 -75.998s-27.5 -50.333 -27.5 -73c0 -20.667 7.16699 -37.167 21.5 -49.5s33.833 -18.5 58.5 -18.5c19.333 0 41 4 65 12v-143c-42 -13.333 -83.667 -20.333 -125 -21c-61.333 0 -109.666 16.167 -144.999 48.5
s-53 71.5 -53 117.5c0 35.333 11.167 71.166 33.5 107.499s55.5 68.166 99.5 95.499h157zM140.999 0.00195312v1313h299v-1313h-299z" />
    <glyph glyph-name="iogonek" unicode="&#x12f;" horiz-adv-x="507" 
d="M395 0c-38 -24.667 -66.167 -49.998 -84.5 -75.998s-27.5 -50.667 -27.5 -74c0 -20.667 7.16699 -37 21.5 -49s33.5 -18 57.5 -18c19.333 0 41.333 4 66 12v-143c-42 -13.333 -83.667 -20.333 -125 -21c-61.333 0 -109.833 16.167 -145.5 48.5s-53.5 71.5 -53.5 117.5
c0 35.333 11.333 71.166 34 107.499s56 68.166 100 95.499h157zM155 1095c-26.667 26.667 -40 59.667 -40 99c0 40.667 13 73.667 39 99s59.333 38 100 38c39.333 0 72 -12.667 98 -38s39 -58.333 39 -99c0 -39.333 -13 -72.333 -39 -99s-58.667 -40 -98 -40
s-72.333 13.333 -99 40zM397 924.002v-924h-286v924h286z" />
    <glyph glyph-name="Idotaccent" unicode="&#x130;" horiz-adv-x="563" 
d="M191.5 1428.5c-26.333 26.333 -39.5 59.5 -39.5 99.5c0 40.667 12.833 73.667 38.5 99s59.167 38 100.5 38c39.333 0 72 -12.667 98 -38s39 -58.333 39 -99c0 -39.333 -13 -72.333 -39 -99s-58.667 -40 -98 -40c-40 0 -73.167 13.167 -99.5 39.5zM141 0v1313h299v-1313
h-299z" />
    <glyph glyph-name="dotlessi" unicode="&#x131;" horiz-adv-x="507" 
d="M397 924v-924h-286v924h286z" />
    <glyph glyph-name="Jcircumflex" unicode="&#x134;" horiz-adv-x="1071" 
d="M489 1765h244l221 -299l-131 -92l-211 225l-213 -225l-131 92zM940 389c0 -83.333 -18.832 -156.333 -56.499 -219s-90.834 -111.167 -159.501 -145.5s-147.667 -51.5 -237 -51.5c-88.667 0 -167 17.5 -235 52.5s-120.5 83.833 -157.5 146.5s-55.5 135 -55.5 217v76h289
v-66c0 -49.333 14 -87.5 42 -114.5s65.667 -40.5 113 -40.5c50.667 0 89.667 14 117 42s41 65.667 41 113v643h-375v271h674v-924z" />
    <glyph glyph-name="jcircumflex" unicode="&#x135;" horiz-adv-x="569" 
d="M166 1432h244l221 -299l-131 -93l-211 226l-213 -226l-131 93zM143 924h287v-1368h-285z" />
    <glyph glyph-name="uni0136" unicode="&#x136;" horiz-adv-x="1306" 
d="M786.5 -109.5c25.667 -31 38.499 -70.167 38.499 -117.5c0 -72.667 -21.833 -133.5 -65.5 -182.5s-108.5 -74.833 -194.5 -77.5v57c48 8 84.333 23.667 109 47s38.334 52 41.001 86c-13.333 -8 -29.666 -12 -48.999 -12c-34 0 -61.667 11.167 -83 33.5
s-32 49.833 -32 82.5c0 38 12.667 69.167 38 93.5s57.666 36.5 96.999 36.5c41.333 0 74.833 -15.5 100.5 -46.5zM634.999 489l-195 -243v-252h-299v1319h299v-602l475 602h373l-450 -565l452 -748h-358z" />
    <glyph glyph-name="uni0137" unicode="&#x137;" horiz-adv-x="1077" 
d="M641 -109.5c26 -31 38.999 -70.167 38.999 -117.5c0 -72.667 -21.833 -133.5 -65.5 -182.5s-108.5 -74.833 -194.5 -77.5v57c48 8 84.167 23.667 108.5 47s37.833 52 40.5 86c-13.333 -8 -29.666 -12 -48.999 -12c-34 0 -61.5 11.167 -82.5 33.5s-31.5 49.833 -31.5 82.5
c0 38 12.5 69.167 37.5 93.5s57.5 36.5 97.5 36.5c40.667 0 74 -15.5 100 -46.5zM730.999 582l309 -582h-323l-191 369l-129 -133v-236h-286v1405h286v-819l310 338h354z" />
    <glyph glyph-name="Lacute" unicode="&#x139;" horiz-adv-x="1028" 
d="M211 1475l328 348l137 -140l-383 -297zM981 270v-270h-840v1313h303v-1043h537z" />
    <glyph glyph-name="lacute" unicode="&#x13a;" horiz-adv-x="507" 
d="M174 1569l328 350l137 -139l-383 -297zM111 1405h286v-1405h-286v1405z" />
    <glyph glyph-name="uni013B" unicode="&#x13b;" horiz-adv-x="1028" 
d="M627 -109.5c26 -31 39 -70.167 39 -117.5c0 -72.667 -21.833 -133.5 -65.5 -182.5s-108.5 -74.833 -194.5 -77.5v57c48 8 84.167 23.667 108.5 47s37.833 52 40.5 86c-13.333 -8 -29.666 -12 -48.999 -12c-34 0 -61.667 11.167 -83 33.5s-32 49.833 -32 82.5
c0 38 12.667 69.167 38 93.5s57.666 36.5 96.999 36.5c41.333 0 75 -15.5 101 -46.5zM981 270v-270h-840v1313h303v-1043h537z" />
    <glyph glyph-name="uni013C" unicode="&#x13c;" horiz-adv-x="507" 
d="M356 -109.5c26 -31 38.999 -70.167 38.999 -117.5c0 -72.667 -21.833 -133.5 -65.5 -182.5s-108.5 -74.833 -194.5 -77.5v57c48 8 84.333 23.667 109 47s38.334 52 41.001 86c-13.333 -8 -29.666 -12 -48.999 -12c-34 0 -61.667 11.167 -83 33.5s-32 49.833 -32 82.5
c0 38 12.667 69.167 38 93.5s57.666 36.5 96.999 36.5c40.667 0 74 -15.5 100 -46.5zM110.999 1405h286v-1405h-286v1405z" />
    <glyph glyph-name="Lcaron" unicode="&#x13d;" horiz-adv-x="1069" 
d="M833.5 1297c25.667 -30.667 38.499 -69.667 38.499 -117c0 -72.667 -21.833 -133.5 -65.5 -182.5s-108.5 -74.833 -194.5 -77.5v57c48 8 84.333 23.667 109 47s38.334 52 41.001 86c-13.333 -8 -29.666 -12 -48.999 -12c-34 0 -61.667 11.167 -83 33.5
s-32 49.833 -32 82.5c0 38 12.667 69 38 93s57.666 36 96.999 36c41.333 0 74.833 -15.333 100.5 -46zM980.999 270v-270h-840v1313h303v-1043h537z" />
    <glyph glyph-name="lcaron" unicode="&#x13e;" horiz-adv-x="507" 
d="M111 1405h286v-1405h-286v1405z" />
    <glyph glyph-name="Ldot" unicode="&#x13f;" horiz-adv-x="1069" 
d="M662 620.5c-29.333 29 -44 62.5 -44 100.5c0 40 14.667 74.333 44 103s64 43 104 43c38.667 0 72.667 -14.667 102 -44s44 -63.333 44 -102c0 -38 -14.333 -71.5 -43 -100.5s-63 -43.5 -103 -43.5s-74.667 14.5 -104 43.5zM981 270v-270h-840v1313h303v-1043h537z" />
    <glyph glyph-name="ldot" unicode="&#x140;" horiz-adv-x="874" 
d="M593 532c-30 29.333 -45 63.333 -45 102c0 40.667 15 75.667 45 105s65 44 105 44c39.333 0 73.833 -14.833 103.5 -44.5s44.5 -64.5 44.5 -104.5c0 -38.667 -14.5 -72.667 -43.5 -102s-63.833 -44 -104.5 -44c-40 0 -75 14.667 -105 44zM111 1405h286v-1405h-286v1405z
" />
    <glyph glyph-name="Lslash" unicode="&#x141;" horiz-adv-x="1028" 
d="M981 270v-270h-840v610l-137 -65v223l137 66v479h303v-336l205 98v-223l-205 -98v-484h537z" />
    <glyph glyph-name="lslash" unicode="&#x142;" horiz-adv-x="561" 
d="M522 805l-98 -47v-758h-287v621l-98 -48v201l98 47v584h287v-449l98 48v-199z" />
    <glyph glyph-name="Nacute" unicode="&#x143;" horiz-adv-x="1392" 
d="M625 1511l327 349l138 -140l-383 -297zM1253 1313v-1313h-278l-539 795v-795h-295v1313h279l536 -797v797h297z" />
    <glyph glyph-name="nacute" unicode="&#x144;" horiz-adv-x="1103" 
d="M469 1118l328 348l137 -139l-383 -297zM911.5 852c61.667 -69.333 92.499 -162.333 92.499 -279v-573h-287v506c0 126.667 -52 190 -156 190c-54.667 0 -96 -16 -124 -48s-42 -76.667 -42 -134v-514h-284v924h237l19 -101c28.667 40.667 68.5 73 119.5 97
s106.5 36 166.5 36c110.667 0 196.834 -34.667 258.501 -104z" />
    <glyph glyph-name="uni0145" unicode="&#x145;" horiz-adv-x="1392" 
d="M799 -109.5c26 -31 39 -70.167 39 -117.5c0 -72.667 -21.833 -133.5 -65.5 -182.5s-108.5 -74.833 -194.5 -77.5v57c48 8 84.167 23.667 108.5 47s37.833 52 40.5 86c-13.333 -8 -29.666 -12 -48.999 -12c-34 0 -61.667 11.167 -83 33.5s-32 49.833 -32 82.5
c0 38 12.667 69.167 38 93.5s57.666 36.5 96.999 36.5c41.333 0 75 -15.5 101 -46.5zM1253 1313v-1313h-278l-539 795v-795h-295v1313h279l536 -797v797h297z" />
    <glyph glyph-name="uni0146" unicode="&#x146;" horiz-adv-x="1103" 
d="M657 -109.5c26 -31 38.999 -70.167 38.999 -117.5c0 -72.667 -21.833 -133.5 -65.5 -182.5s-108.5 -74.833 -194.5 -77.5v57c48 8 84.333 23.667 109 47s38.334 52 41.001 86c-13.333 -8 -29.666 -12 -48.999 -12c-34 0 -61.667 11.167 -83 33.5s-32 49.833 -32 82.5
c0 38 12.667 69.167 38 93.5s57.666 36.5 96.999 36.5c40.667 0 74 -15.5 100 -46.5zM911.499 852c61.667 -69.333 92.499 -162.333 92.499 -279v-573h-287v506c0 126.667 -52 190 -156 190c-54.667 0 -96 -16 -124 -48s-42 -76.667 -42 -134v-514h-284v924h237l19 -101
c28.667 40.667 68.5 73 119.5 97s106.5 36 166.5 36c110.667 0 196.834 -34.667 258.501 -104z" />
    <glyph glyph-name="Ncaron" unicode="&#x147;" horiz-adv-x="1392" 
d="M494 1817l213 -226l211 226l133 -93l-222 -299h-245l-222 299zM1253 1313v-1313h-278l-539 795v-795h-295v1313h279l536 -797v797h297z" />
    <glyph glyph-name="ncaron" unicode="&#x148;" horiz-adv-x="1103" 
d="M338 1423l213 -225l211 225l133 -92l-221 -299h-246l-221 299zM911.5 852c61.667 -69.333 92.499 -162.333 92.499 -279v-573h-287v506c0 126.667 -52 190 -156 190c-54.667 0 -96 -16 -124 -48s-42 -76.667 -42 -134v-514h-284v924h237l19 -101
c28.667 40.667 68.5 73 119.5 97s106.5 36 166.5 36c110.667 0 196.834 -34.667 258.501 -104z" />
    <glyph glyph-name="Eng" unicode="&#x14a;" horiz-adv-x="1449" 
d="M141 1313h295.001l578 -842v842h297v-1434c0 -114.667 -35.833 -197.5 -107.5 -248.5s-156.834 -76.5 -255.501 -76.5c-39.333 0 -81 4.66699 -125 14v223h95c38 0 68.167 9.5 90.5 28.5s33.5 54.5 33.5 106.5v74h-28l-578 840v-840h-295v1313z" />
    <glyph glyph-name="eng" unicode="&#x14b;" horiz-adv-x="1116" 
d="M111 924h265.999l20 -97c30 39.333 69.667 70.333 119 93s102 34 158 34c108 0 192 -34.833 252 -104.5s90 -162.5 90 -278.5v-637c0 -112 -30 -191.833 -90 -239.5s-131.667 -71.5 -215 -71.5c-44 0 -84.333 6.33301 -121 19v219c19.333 -2.66699 32.333 -4 39 -4
c66.667 0 100 35.333 100 106v539c0 78 -16 129.833 -48 155.5s-67.333 38.5 -106 38.5c-45.333 0 -86.666 -11.833 -123.999 -35.5s-56 -73.167 -56 -148.5v-512h-284v924z" />
    <glyph glyph-name="Omacron" unicode="&#x14c;" horiz-adv-x="1544" 
d="M1065 1620v-190h-582v190h582zM1387.5 301c-61 -104 -145 -184.665 -252 -241.998s-228.833 -86 -365.5 -86c-135.333 0 -256.5 28.667 -363.5 86s-190.5 137.666 -250.5 240.999s-90 221.666 -90 354.999c0 134 30 252.833 90 356.5s143.5 184.5 250.5 242.5
s228.833 87 365.5 87c135.333 0 256.5 -28.667 363.5 -86s191 -137.833 252 -241.5s91.5 -222.5 91.5 -356.5c0 -133.333 -30.5 -252 -91.5 -356zM1112 868.502c-32.667 61.667 -78.333 109.498 -137 143.498s-125.667 51 -201 51c-76.667 0 -144.667 -17 -204 -51
s-105.666 -81.833 -138.999 -143.5s-50 -132.834 -50 -213.501c0 -79.333 16.333 -149.666 49 -210.999s78.667 -108.666 138 -141.999s127.333 -50 204 -50c75.333 0 142.666 17 201.999 51s105.333 81.833 138 143.5s49 131.834 49 210.501
c0 79.333 -16.333 149.833 -49 211.5z" />
    <glyph glyph-name="omacron" unicode="&#x14d;" horiz-adv-x="1157" 
d="M872 1235v-191h-581v191h581zM130.5 718.5c43 75 103.333 133.333 181 175s167.167 62.5 268.5 62.5s190.5 -20.833 267.5 -62.5s137 -100 180 -175s64.5 -160.167 64.5 -255.5c0 -94 -21.5 -178.333 -64.5 -253s-103.5 -132.834 -181.5 -174.501
s-166.667 -62.5 -266 -62.5c-101.333 0 -190.833 20.833 -268.5 62.5s-138 99.834 -181 174.501s-64.5 159 -64.5 253c0 95.333 21.5 180.5 64.5 255.5zM419.5 293.5c41 -44.333 94.501 -66.5 160.501 -66.5c65.333 0 118.5 22.167 159.5 66.5s61.5 101.5 61.5 171.5
c0 69.333 -20.167 125.833 -60.5 169.5s-93.833 65.5 -160.5 65.5s-120.334 -21.833 -161.001 -65.5s-61 -100.167 -61 -169.5c0 -70 20.5 -127.167 61.5 -171.5z" />
    <glyph glyph-name="Ohungarumlaut" unicode="&#x150;" horiz-adv-x="1544" 
d="M487 1503l328 348l137 -139l-383 -297zM893 1503l328 348l135 -139l-381 -297zM1387.5 301c-61 -104 -145 -184.665 -252 -241.998s-228.833 -86 -365.5 -86c-135.333 0 -256.5 28.667 -363.5 86s-190.5 137.666 -250.5 240.999s-90 221.666 -90 354.999
c0 134 30 252.833 90 356.5s143.5 184.5 250.5 242.5s228.833 87 365.5 87c135.333 0 256.5 -28.667 363.5 -86s191 -137.833 252 -241.5s91.5 -222.5 91.5 -356.5c0 -133.333 -30.5 -252 -91.5 -356zM1112 868.502c-32.667 61.667 -78.333 109.498 -137 143.498
s-125.667 51 -201 51c-76.667 0 -144.667 -17 -204 -51s-105.666 -81.833 -138.999 -143.5s-50 -132.834 -50 -213.501c0 -79.333 16.333 -149.666 49 -210.999s78.667 -108.666 138 -141.999s127.333 -50 204 -50c75.333 0 142.666 17 201.999 51s105.333 81.833 138 143.5
s49 131.834 49 210.501c0 79.333 -16.333 149.833 -49 211.5z" />
    <glyph glyph-name="ohungarumlaut" unicode="&#x151;" horiz-adv-x="1157" 
d="M295 1118l328 348l137 -139l-383 -297zM700 1118l328 348l135 -139l-381 -297zM130.5 718.5c43 75 103.333 133.333 181 175s167.167 62.5 268.5 62.5s190.5 -20.833 267.5 -62.5s137 -100 180 -175s64.5 -160.167 64.5 -255.5c0 -94 -21.5 -178.333 -64.5 -253
s-103.5 -132.834 -181.5 -174.501s-166.667 -62.5 -266 -62.5c-101.333 0 -190.833 20.833 -268.5 62.5s-138 99.834 -181 174.501s-64.5 159 -64.5 253c0 95.333 21.5 180.5 64.5 255.5zM419.5 293.5c41 -44.333 94.501 -66.5 160.501 -66.5
c65.333 0 118.5 22.167 159.5 66.5s61.5 101.5 61.5 171.5c0 69.333 -20.167 125.833 -60.5 169.5s-93.833 65.5 -160.5 65.5s-120.334 -21.833 -161.001 -65.5s-61 -100.167 -61 -169.5c0 -70 20.5 -127.167 61.5 -171.5z" />
    <glyph glyph-name="OE" unicode="&#x152;" horiz-adv-x="2265" 
d="M1552 1104l-0.000976562 -273h541v-266h-541v-284h609v-281h-906v135c-52 -49.333 -117.833 -88.333 -197.5 -117s-164.5 -43 -254.5 -43c-150 0 -280.667 30.5 -392 91.5s-196.666 145.333 -255.999 253s-89 229.834 -89 366.501c0 139.333 30.333 263.666 91 372.999
s146.667 195 258 257s239.333 93 384 93c96.667 0 185 -13.667 265 -41s143.667 -65 191 -113v129h906v-280h-609zM1040.5 319.5c65.667 35.667 116.835 85.833 153.502 150.5s55 138.667 55 222c0 84.667 -18.333 159.5 -55 224.5s-87.834 115.167 -153.501 150.5
s-140.834 53 -225.501 53s-159.667 -18 -225 -54s-116.5 -86.5 -153.5 -151.5s-55.5 -139.167 -55.5 -222.5s18.5 -157 55.5 -221s88.5 -114.167 154.5 -150.5s141.333 -54.5 226 -54.5c83.333 0 157.833 17.833 223.5 53.5z" />
    <glyph glyph-name="oe" unicode="&#x153;" horiz-adv-x="1916" 
d="M1697 62.5c-85.333 -59.667 -187.332 -89.4971 -305.999 -89.4971c-96.667 0 -182 20.5 -256 61.5s-131.5 98.667 -172.5 173s-61.5 160.166 -61.5 257.499c0 98 20.5 184.333 61.5 259s98.333 132 172 172s156.834 60 249.501 60c91.333 0 172.666 -19 243.999 -57
s126.333 -90.833 165 -158.5s58 -144.5 58 -230.5c0 -48 -4 -89.667 -12 -125h-655c2.66699 -54.667 22.667 -98.334 60 -131.001s86.333 -49 147 -49c45.333 0 84.166 8.5 116.499 25.5s54.833 39.167 67.5 66.5h278c-18.667 -96.667 -70.667 -174.834 -156 -234.501z
M1559 571.003c-1.33301 46.667 -19.168 83.667 -53.501 111s-78.166 41 -131.499 41s-97 -13.667 -131 -41s-52.333 -64.333 -55 -111h371zM130.499 718.503c43 75 103.333 133.333 181 175s167.167 62.5 268.5 62.5s190.5 -20.833 267.5 -62.5s137 -100 180 -175
s64.5 -160.167 64.5 -255.5c0 -94 -21.5 -178.333 -64.5 -253s-103.5 -132.834 -181.5 -174.501s-166.667 -62.5 -266 -62.5c-101.333 0 -190.833 20.833 -268.5 62.5s-138 99.834 -181 174.501s-64.5 159 -64.5 253c0 95.333 21.5 180.5 64.5 255.5zM419.499 293.503
c41 -44.333 94.501 -66.5 160.501 -66.5c65.333 0 118.5 22.167 159.5 66.5s61.5 101.5 61.5 171.5c0 69.333 -20.167 125.833 -60.5 169.5s-93.833 65.5 -160.5 65.5s-120.334 -21.833 -161.001 -65.5s-61 -100.167 -61 -169.5c0 -70 20.5 -127.167 61.5 -171.5z" />
    <glyph glyph-name="Racute" unicode="&#x154;" horiz-adv-x="1269" 
d="M487 1475l328 348l137 -140l-383 -297zM141 1313l528.999 -0.000976562c173.333 0 303.333 -36.167 390 -108.5s130 -178.166 130 -317.499c0 -90 -19.167 -166.833 -57.5 -230.5s-94.166 -112.5 -167.499 -146.5l239 -510h-336l-202 459h-226v-459h-299v1313z
M667.999 714.999c69.333 0 121.001 16 155.001 48s51 72.667 51 122c0 48 -16.333 88 -49 120s-84.334 48 -155.001 48h-230v-338h228z" />
    <glyph glyph-name="racute" unicode="&#x155;" horiz-adv-x="727" 
d="M160 1085l327 349l138 -140l-383 -297zM696 924l-0.000976562 -248c-9.33301 1.33301 -23.666 2 -42.999 2c-82 0 -145.167 -21.5 -189.5 -64.5s-66.5 -103.5 -66.5 -181.5v-432h-286v924h262l18 -125c15.333 44 42.333 77.167 81 99.5s84.667 33.5 138 33.5
c30 0 58.667 -2.66699 86 -8z" />
    <glyph glyph-name="uni0156" unicode="&#x156;" horiz-adv-x="1269" 
d="M754 -109.5c26 -31 39 -70.167 39 -117.5c0 -72.667 -21.833 -133.5 -65.5 -182.5s-108.834 -74.833 -195.501 -77.5v57c48 8 84.333 23.667 109 47s38.334 52 41.001 86c-13.333 -8 -29.666 -12 -48.999 -12c-34 0 -61.667 11.167 -83 33.5s-32 49.833 -32 82.5
c0 38 12.667 69.167 38 93.5s57.666 36.5 96.999 36.5c41.333 0 75 -15.5 101 -46.5zM141 1313l528.999 -0.000976562c173.333 0 303.333 -36.167 390 -108.5s130 -178.166 130 -317.499c0 -90 -19.167 -166.833 -57.5 -230.5s-94.166 -112.5 -167.499 -146.5l239 -510h-336
l-202 459h-226v-459h-299v1313zM667.999 714.999c69.333 0 121.001 16 155.001 48s51 72.667 51 122c0 48 -16.333 88 -49 120s-84.334 48 -155.001 48h-230v-338h228z" />
    <glyph glyph-name="uni0157" unicode="&#x157;" horiz-adv-x="727" 
d="M356 -109.5c26 -31 38.999 -70.167 38.999 -117.5c0 -72.667 -21.833 -133.5 -65.5 -182.5s-108.5 -74.833 -194.5 -77.5v57c48 8 84.333 23.667 109 47s38.334 52 41.001 86c-13.333 -8 -29.666 -12 -48.999 -12c-34 0 -61.667 11.167 -83 33.5s-32 49.833 -32 82.5
c0 38 12.667 69.167 38 93.5s57.666 36.5 96.999 36.5c40.667 0 74 -15.5 100 -46.5zM695.999 924l-0.000976562 -248c-9.33301 1.33301 -23.666 2 -42.999 2c-82 0 -145.167 -21.5 -189.5 -64.5s-66.5 -103.5 -66.5 -181.5v-432h-286v924h262l18 -125
c15.333 44 42.333 77.167 81 99.5s84.667 33.5 138 33.5c30 0 58.667 -2.66699 86 -8z" />
    <glyph glyph-name="Rcaron" unicode="&#x158;" horiz-adv-x="1269" 
d="M356 1780l213 -226l211 226l133 -92l-221 -299h-246l-221 299zM141 1313l528.999 -0.000976562c173.333 0 303.333 -36.167 390 -108.5s130 -178.166 130 -317.499c0 -90 -19.167 -166.833 -57.5 -230.5s-94.166 -112.5 -167.499 -146.5l239 -510h-336l-202 459h-226
v-459h-299v1313zM667.999 714.999c69.333 0 121.001 16 155.001 48s51 72.667 51 122c0 48 -16.333 88 -49 120s-84.334 48 -155.001 48h-230v-338h228z" />
    <glyph glyph-name="rcaron" unicode="&#x159;" horiz-adv-x="727" 
d="M29 1391l213 -226l211 226l133 -93l-221 -299h-246l-221 299zM696 924l-0.000976562 -248c-9.33301 1.33301 -23.666 2 -42.999 2c-82 0 -145.167 -21.5 -189.5 -64.5s-66.5 -103.5 -66.5 -181.5v-432h-286v924h262l18 -125c15.333 44 42.333 77.167 81 99.5
s84.667 33.5 138 33.5c30 0 58.667 -2.66699 86 -8z" />
    <glyph glyph-name="Sacute" unicode="&#x15a;" horiz-adv-x="1189" 
d="M510 1503l328 348l137 -139l-383 -297zM163.5 1145c41 62.667 98.3291 110.999 171.996 144.999s159.834 51 258.501 51c95.333 0 180.333 -16.667 255 -50s132.667 -80.666 174 -141.999s62.666 -131.666 63.999 -210.999h-309c-1.33301 45.333 -20.666 82 -57.999 110
s-84.666 42 -141.999 42c-50.667 0 -91.334 -11.667 -122.001 -35s-46 -54.666 -46 -93.999c0 -36.667 13.167 -64.334 39.5 -83.001s65.5 -34.334 117.5 -47.001l207 -47c116 -27.333 203 -74.333 261 -141s87 -148 87 -244c0 -86 -21.5 -161 -64.5 -225
s-103.667 -113.5 -182 -148.5s-169.5 -52.5 -273.5 -52.5c-155.333 0 -281.166 37.667 -377.499 113s-149.166 177.666 -158.499 306.999h307c4 -53.333 26.833 -94.666 68.5 -123.999s96.5 -44 164.5 -44c62.667 0 111.834 12.667 147.501 38s53.5 60 53.5 104
c0 35.333 -11.667 62.833 -35 82.5s-56 34.5 -98 44.5l-217 51c-122.667 28.667 -212.5 75.667 -269.5 141s-85.5 144.666 -85.5 237.999c0 84.667 20.5 158.334 61.5 221.001z" />
    <glyph glyph-name="sacute" unicode="&#x15b;" horiz-adv-x="944" 
d="M391 1118l328 348l137 -139l-383 -297zM189.5 56c-74.333 55.333 -115.501 131 -123.501 227h282c1.33301 -31.333 14 -55.666 38 -72.999s54.333 -26 91 -26c32.667 0 58.667 6.16699 78 18.5s29 30.833 29 55.5c0 22 -7.5 38.167 -22.5 48.5s-35.5 18.166 -61.5 23.499
l-148 37c-176 42 -264 134.667 -264 278c0 92.667 35.5 167.667 106.5 225s163.833 86 278.5 86c113.333 0 205.166 -28 275.499 -84s106.833 -129.667 109.5 -221h-278c-1.33301 27.333 -12.333 49.166 -33 65.499s-47.334 24.5 -80.001 24.5
c-28.667 0 -51.167 -6 -67.5 -18s-24.5 -29 -24.5 -51s6.83301 -37.167 20.5 -45.5s36.834 -16.5 69.501 -24.5l172 -41c83.333 -19.333 144.5 -53.166 183.5 -101.499s58.5 -105.833 58.5 -172.5c0 -95.333 -36.167 -171.5 -108.5 -228.5s-170.166 -85.5 -293.499 -85.5
c-117.333 0 -213.166 27.667 -287.499 83z" />
    <glyph glyph-name="Scircumflex" unicode="&#x15c;" horiz-adv-x="1189" 
d="M469 1794h244l221 -299l-131 -92l-211 225l-213 -225l-131 92zM163.5 1145c41 62.667 98.3291 110.999 171.996 144.999s159.834 51 258.501 51c95.333 0 180.333 -16.667 255 -50s132.667 -80.666 174 -141.999s62.666 -131.666 63.999 -210.999h-309
c-1.33301 45.333 -20.666 82 -57.999 110s-84.666 42 -141.999 42c-50.667 0 -91.334 -11.667 -122.001 -35s-46 -54.666 -46 -93.999c0 -36.667 13.167 -64.334 39.5 -83.001s65.5 -34.334 117.5 -47.001l207 -47c116 -27.333 203 -74.333 261 -141s87 -148 87 -244
c0 -86 -21.5 -161 -64.5 -225s-103.667 -113.5 -182 -148.5s-169.5 -52.5 -273.5 -52.5c-155.333 0 -281.166 37.667 -377.499 113s-149.166 177.666 -158.499 306.999h307c4 -53.333 26.833 -94.666 68.5 -123.999s96.5 -44 164.5 -44c62.667 0 111.834 12.667 147.501 38
s53.5 60 53.5 104c0 35.333 -11.667 62.833 -35 82.5s-56 34.5 -98 44.5l-217 51c-122.667 28.667 -212.5 75.667 -269.5 141s-85.5 144.666 -85.5 237.999c0 84.667 20.5 158.334 61.5 221.001z" />
    <glyph glyph-name="scircumflex" unicode="&#x15d;" horiz-adv-x="944" 
d="M350 1409h244l221 -299l-131 -92l-211 225l-213 -225l-131 92zM189.5 56c-74.333 55.333 -115.501 131 -123.501 227h282c1.33301 -31.333 14 -55.666 38 -72.999s54.333 -26 91 -26c32.667 0 58.667 6.16699 78 18.5s29 30.833 29 55.5c0 22 -7.5 38.167 -22.5 48.5
s-35.5 18.166 -61.5 23.499l-148 37c-176 42 -264 134.667 -264 278c0 92.667 35.5 167.667 106.5 225s163.833 86 278.5 86c113.333 0 205.166 -28 275.499 -84s106.833 -129.667 109.5 -221h-278c-1.33301 27.333 -12.333 49.166 -33 65.499s-47.334 24.5 -80.001 24.5
c-28.667 0 -51.167 -6 -67.5 -18s-24.5 -29 -24.5 -51s6.83301 -37.167 20.5 -45.5s36.834 -16.5 69.501 -24.5l172 -41c83.333 -19.333 144.5 -53.166 183.5 -101.499s58.5 -105.833 58.5 -172.5c0 -95.333 -36.167 -171.5 -108.5 -228.5s-170.166 -85.5 -293.499 -85.5
c-117.333 0 -213.166 27.667 -287.499 83z" />
    <glyph glyph-name="Scedilla" unicode="&#x15e;" horiz-adv-x="1189" 
d="M629 -92c48 0 92.3291 -16 132.996 -48s61 -81 61 -147c0 -70.667 -26.167 -125.167 -78.5 -163.5s-114.833 -57.5 -187.5 -57.5c-65.333 0 -120.666 13.667 -165.999 41v143c13.333 -15.333 32.333 -27.333 57 -36s49.334 -13 74.001 -13
c32.667 0 60.334 7.83301 83.001 23.5s34 39.167 34 70.5c0 28.667 -9.83301 50.667 -29.5 66s-45.5 23 -77.5 23c-9.33301 0 -23.666 -1.66699 -42.999 -5l-59 62l148 223h104v-74l-76 -110zM163.496 1145c-41 -62.667 -61.4971 -136.327 -61.4971 -220.994
c0 -92.667 28.333 -171.834 85 -237.501s146.667 -112.834 270 -141.501l217 -51c42 -9.33301 74.667 -24 98 -44s35 -47.667 35 -83c0 -44 -17.833 -78.667 -53.5 -104s-84.834 -38 -147.501 -38c-68 0 -122.833 14.667 -164.5 44s-64.5 70.666 -68.5 123.999h-307
c9.33301 -130 62.166 -232.5 158.499 -307.5s222.166 -112.5 377.499 -112.5c104 0 195.167 17.5 273.5 52.5s139 84.5 182 148.5s64.5 139 64.5 225c0 95.333 -29 176.5 -87 243.5s-145 114.167 -261 141.5l-207 47c-52 12 -91.167 27.333 -117.5 46s-39.5 46.667 -39.5 84
c0 39.333 15.333 70.666 46 93.999s71.334 35 122.001 35c57.333 0 104.666 -14 141.999 -42s56.666 -64.667 57.999 -110h309c-1.33301 79.333 -22.666 149.666 -63.999 210.999s-99.333 108.666 -174 141.999s-159.667 50 -255 50c-98 0 -184 -17 -258 -51
s-131.5 -82.333 -172.5 -145z" />
    <glyph glyph-name="scedilla" unicode="&#x15f;" horiz-adv-x="944" 
d="M502 -78c48 0 92.3301 -15.999 132.997 -47.999s61 -80.667 61 -146c0 -70.667 -26.167 -125.334 -78.5 -164.001s-114.833 -58 -187.5 -58c-65.333 0 -120.666 13.667 -165.999 41v144c13.333 -15.333 32.333 -27.333 57 -36s49.334 -13 74.001 -13
c32.667 0 60.334 7.83301 83.001 23.5s34 39.167 34 70.5c0 28.667 -9.83301 50.5 -29.5 65.5s-45.167 22.5 -76.5 22.5c-9.33301 0 -24 -1.33301 -44 -4l-59 61l148 223h104v-73l-76 -111zM189.497 56.001c74.333 -55.333 170.165 -83 287.498 -83
c122.667 0 220.334 28.333 293.001 85s109 133 109 229c0 66.667 -19.5 124.167 -58.5 172.5s-100.167 82.166 -183.5 101.499l-172 41c-32.667 8 -55.834 16.167 -69.501 24.5s-20.5 23.5 -20.5 45.5s8.16699 39 24.5 51s38.833 18 67.5 18
c32.667 0 59.334 -8.16699 80.001 -24.5s31.667 -38.166 33 -65.499h278c-2.66699 91.333 -39.167 165 -109.5 221s-162.166 84 -275.499 84c-114.667 0 -207.5 -28.667 -278.5 -86s-106.5 -132.333 -106.5 -225c0 -143.333 88 -236 264 -278l148 -37
c26 -5.33301 46.5 -13.166 61.5 -23.499s22.5 -26.5 22.5 -48.5c0 -24.667 -9.66699 -43.167 -29 -55.5s-45.333 -18.5 -78 -18.5c-36.667 0 -67 8.66699 -91 26s-36.667 41.666 -38 72.999h-282c8 -96 49.167 -171.667 123.5 -227z" />
    <glyph glyph-name="Scaron" unicode="&#x160;" horiz-adv-x="1189" 
d="M379 1808l213 -225l211 225l133 -92l-221 -299h-246l-221 299zM163.5 1145c41 62.667 98.3291 110.999 171.996 144.999s159.834 51 258.501 51c95.333 0 180.333 -16.667 255 -50s132.667 -80.666 174 -141.999s62.666 -131.666 63.999 -210.999h-309
c-1.33301 45.333 -20.666 82 -57.999 110s-84.666 42 -141.999 42c-50.667 0 -91.334 -11.667 -122.001 -35s-46 -54.666 -46 -93.999c0 -36.667 13.167 -64.334 39.5 -83.001s65.5 -34.334 117.5 -47.001l207 -47c116 -27.333 203 -74.333 261 -141s87 -148 87 -244
c0 -86 -21.5 -161 -64.5 -225s-103.667 -113.5 -182 -148.5s-169.5 -52.5 -273.5 -52.5c-155.333 0 -281.166 37.667 -377.499 113s-149.166 177.666 -158.499 306.999h307c4 -53.333 26.833 -94.666 68.5 -123.999s96.5 -44 164.5 -44c62.667 0 111.834 12.667 147.501 38
s53.5 60 53.5 104c0 35.333 -11.667 62.833 -35 82.5s-56 34.5 -98 44.5l-217 51c-122.667 28.667 -212.5 75.667 -269.5 141s-85.5 144.666 -85.5 237.999c0 84.667 20.5 158.334 61.5 221.001z" />
    <glyph glyph-name="scaron" unicode="&#x161;" horiz-adv-x="944" 
d="M260 1423l213 -225l211 225l133 -92l-221 -299h-246l-221 299zM189.5 56c-74.333 55.333 -115.501 131 -123.501 227h282c1.33301 -31.333 14 -55.666 38 -72.999s54.333 -26 91 -26c32.667 0 58.667 6.16699 78 18.5s29 30.833 29 55.5c0 22 -7.5 38.167 -22.5 48.5
s-35.5 18.166 -61.5 23.499l-148 37c-176 42 -264 134.667 -264 278c0 92.667 35.5 167.667 106.5 225s163.833 86 278.5 86c113.333 0 205.166 -28 275.499 -84s106.833 -129.667 109.5 -221h-278c-1.33301 27.333 -12.333 49.166 -33 65.499s-47.334 24.5 -80.001 24.5
c-28.667 0 -51.167 -6 -67.5 -18s-24.5 -29 -24.5 -51s6.83301 -37.167 20.5 -45.5s36.834 -16.5 69.501 -24.5l172 -41c83.333 -19.333 144.5 -53.166 183.5 -101.499s58.5 -105.833 58.5 -172.5c0 -95.333 -36.167 -171.5 -108.5 -228.5s-170.166 -85.5 -293.499 -85.5
c-117.333 0 -213.166 27.667 -287.499 83z" />
    <glyph glyph-name="uni0162" unicode="&#x162;" horiz-adv-x="1150" 
d="M664 -109c48 0 92.3291 -16 132.996 -48s61 -80.667 61 -146c0 -70.667 -26.333 -125.167 -79 -163.5s-115 -57.5 -187 -57.5c-65.333 0 -120.666 13.667 -165.999 41v143c13.333 -15.333 32.333 -27.333 57 -36s49.334 -13 74.001 -13
c32.667 0 60.334 7.83301 83.001 23.5s34 39.167 34 70.5c0 28.667 -10 50.5 -30 65.5s-45.667 22.5 -77 22.5c-9.33301 0 -23.666 -1.33301 -42.999 -4l-59 61l147 224h105v-74l-76 -111zM1118 1042h-391v-1042h-299v1042h-395v271h1085v-271z" />
    <glyph glyph-name="uni0163" unicode="&#x163;" horiz-adv-x="684" 
d="M428 -109c48 0 92.499 -16 133.499 -48s61.5 -80.667 61.5 -146c0 -70.667 -26.333 -125.167 -79 -163.5s-115.334 -57.5 -188.001 -57.5c-65.333 0 -120.666 13.667 -165.999 41v143c13.333 -15.333 32.5 -27.333 57.5 -36s49.833 -13 74.5 -13
c32.667 0 60.167 7.83301 82.5 23.5s33.5 39.167 33.5 70.5c0 28.667 -9.83301 50.5 -29.5 65.5s-45.167 22.5 -76.5 22.5c-9.33301 0 -23.666 -1.33301 -42.999 -4l-60 61l148 224h104v-74l-75 -111zM656.999 688h-174v-688h-286v688h-170v236h170v239h286v-239h174v-236z
" />
    <glyph glyph-name="Tcaron" unicode="&#x164;" horiz-adv-x="1150" 
d="M362 1780l213 -226l211 226l134 -92l-222 -299h-245l-222 299zM1118 1042h-391v-1042h-299v1042h-395v271h1085v-271z" />
    <glyph glyph-name="tcaron" unicode="&#x165;" horiz-adv-x="684" 
d="M750 1405l-43 -399h-148v399h191zM483 924h174v-242h-174v-682h-286v682h-170v242h170v239h286v-239z" />
    <glyph glyph-name="Tbar" unicode="&#x166;" horiz-adv-x="1150" 
d="M1047 805v-252h-910v252h910zM1118 1042h-391v-1042h-299v1042h-395v271h1085v-271z" />
    <glyph glyph-name="tbar" unicode="&#x167;" horiz-adv-x="684" 
d="M656 345h-630v216h630v-216zM657 688h-174v-688h-286v688h-170v236h170v239h286v-239h174v-236z" />
    <glyph glyph-name="Utilde" unicode="&#x168;" horiz-adv-x="1409" 
d="M381 1464c0 68 16.6689 122.666 50.002 163.999s77.333 62 132 62c27.333 0 53 -5.16699 77 -15.5s52.333 -25.166 85 -44.499l49.5 -26.5c16.333 -8.33301 30.5 -12.5 42.5 -12.5c24.667 0 41.5 7.83301 50.5 23.5s12.833 39.5 11.5 71.5h139c4 -24.667 6 -48.667 6 -72
c0 -64 -16.333 -115.5 -49 -154.5s-76.334 -58.5 -131.001 -58.5c-30 0 -57.667 5.16699 -83 15.5s-53.666 24.833 -84.999 43.5c-16.667 9.33301 -32.834 17.833 -48.501 25.5s-28.834 11.5 -39.501 11.5c-26 0 -43.5 -10.5 -52.5 -31.5s-12.167 -45.833 -9.5 -74.5h-139
c-4 26.667 -6 51 -6 73zM131.002 1313l299.001 0.000976562v-811c1.33301 -87.333 26.666 -152.5 75.999 -195.5s114.666 -64.5 195.999 -64.5c88.667 0 157 22.833 205 68.5s72 109.5 72 191.5v811h299v-824c0 -164 -52.167 -291 -156.5 -381s-244.166 -135 -419.499 -135
c-176 0 -315.167 46.167 -417.5 138.5s-153.5 218.166 -153.5 377.499v824z" />
    <glyph glyph-name="utilde" unicode="&#x169;" horiz-adv-x="1085" 
d="M219 1075c0 68 16.6689 122.501 50.002 163.501s77.333 61.5 132 61.5c27.333 0 53 -5 77 -15s52.333 -24.667 85 -44l49.5 -26.5c16.333 -8.33301 30.5 -12.5 42.5 -12.5c24.667 0 41.5 7.83301 50.5 23.5s12.833 39.167 11.5 70.5h139c4 -24.667 6 -48.334 6 -71.001
c0 -64 -16.333 -115.5 -49 -154.5s-76.334 -58.5 -131.001 -58.5c-30 0 -57.667 5 -83 15s-53.666 24.667 -84.999 44c-16.667 9.33301 -32.834 17.833 -48.501 25.5s-28.834 11.5 -39.501 11.5c-26 0 -43.5 -10.667 -52.5 -32s-11.833 -46.333 -8.5 -75h-140
c-4 27.333 -6 52 -6 74zM985.002 924.001l-0.00195312 -924.001h-237l-19 104c-32.667 -44 -73.167 -76.833 -121.5 -98.5s-102.166 -32.5 -161.499 -32.5c-110.667 0 -196 32.833 -256 98.5s-90 155.167 -90 268.5v584h287v-541c0 -57.333 13.333 -98.666 40 -123.999
s65.334 -38 116.001 -38c49.333 0 87.5 15.333 114.5 46s40.5 72 40.5 124v533h287z" />
    <glyph glyph-name="Umacron" unicode="&#x16a;" horiz-adv-x="1409" 
d="M997 1591v-190h-581v190h581zM131 1313l299.001 0.000976562v-811c1.33301 -87.333 26.666 -152.5 75.999 -195.5s114.666 -64.5 195.999 -64.5c88.667 0 157 22.833 205 68.5s72 109.5 72 191.5v811h299v-824c0 -164 -52.167 -291 -156.5 -381
s-244.166 -135 -419.499 -135c-176 0 -315.167 46.167 -417.5 138.5s-153.5 218.166 -153.5 377.499v824z" />
    <glyph glyph-name="umacron" unicode="&#x16b;" horiz-adv-x="1085" 
d="M836 1202v-190h-582v190h582zM985 924l-0.00195312 -924.001h-237l-19 104c-32.667 -44 -73.167 -76.833 -121.5 -98.5s-102.166 -32.5 -161.499 -32.5c-110.667 0 -196 32.833 -256 98.5s-90 155.167 -90 268.5v584h287v-541c0 -57.333 13.333 -98.666 40 -123.999
s65.334 -38 116.001 -38c49.333 0 87.5 15.333 114.5 46s40.5 72 40.5 124v533h287z" />
    <glyph glyph-name="Uring" unicode="&#x16e;" horiz-adv-x="1409" 
d="M555 1399c-42 24.667 -74.335 56.667 -97.002 96s-34 81.666 -34 126.999s11.333 88 34 128s55 72.333 97 97s92 37 150 37c56 0 105 -12.333 147 -37s74.667 -57 98 -97s35 -82.667 35 -128s-11.167 -87.666 -33.5 -126.999s-55.166 -71.333 -98.499 -96
s-92.666 -37 -147.999 -37c-58 0 -108 12.333 -150 37zM777.498 1549.5c19.667 21 29.499 46.499 29.499 76.499c0 27.333 -9.83301 51.333 -29.5 72s-43.834 31 -72.501 31c-30 0 -55 -10 -75 -30s-30 -44.333 -30 -73c0 -31.333 9.83301 -57.166 29.5 -77.499
s44.834 -30.5 75.501 -30.5c28.667 0 52.834 10.5 72.501 31.5zM130.997 1313l299.001 0.000976562v-811c1.33301 -87.333 26.666 -152.5 75.999 -195.5s114.666 -64.5 195.999 -64.5c88.667 0 157 22.833 205 68.5s72 109.5 72 191.5v811h299v-824
c0 -164 -52.167 -291 -156.5 -381s-244.166 -135 -419.499 -135c-176 0 -315.167 46.167 -417.5 138.5s-153.5 218.166 -153.5 377.499v824z" />
    <glyph glyph-name="uring" unicode="&#x16f;" horiz-adv-x="1085" 
d="M393.5 1010c-42.333 24.667 -74.833 56.667 -97.5 96s-34 81.666 -34 126.999s11.333 88 34 128s55.167 72.333 97.5 97s92.166 37 149.499 37c56 0 105.167 -12.333 147.5 -37s75 -57.167 98 -97.5s34.5 -82.833 34.5 -127.5c0 -45.333 -11.167 -87.666 -33.5 -126.999
s-55 -71.333 -98 -96s-92.5 -37 -148.5 -37c-57.333 0 -107.166 12.333 -149.499 37zM615.5 1160c19.667 21.333 29.5 47.002 29.5 77.002c0 27.333 -9.83301 51.166 -29.5 71.499s-43.834 30.5 -72.501 30.5c-30 0 -55 -9.83301 -75 -29.5s-30 -43.834 -30 -72.501
c0 -31.333 10 -57.333 30 -78s45 -31 75 -31c28.667 0 52.834 10.667 72.501 32zM985 924.002l-0.00195312 -924.001h-237l-19 104c-32.667 -44 -73.167 -76.833 -121.5 -98.5s-102.166 -32.5 -161.499 -32.5c-110.667 0 -196 32.833 -256 98.5s-90 155.167 -90 268.5v584
h287v-541c0 -57.333 13.333 -98.666 40 -123.999s65.334 -38 116.001 -38c49.333 0 87.5 15.333 114.5 46s40.5 72 40.5 124v533h287z" />
    <glyph glyph-name="Uhungarumlaut" unicode="&#x170;" horiz-adv-x="1409" 
d="M420 1475l328 350l137 -139l-383 -297zM825 1475l328 350l135 -139l-381 -297zM131 1313l299.001 0.000976562v-811c1.33301 -87.333 26.666 -152.5 75.999 -195.5s114.666 -64.5 195.999 -64.5c88.667 0 157 22.833 205 68.5s72 109.5 72 191.5v811h299v-824
c0 -164 -52.167 -291 -156.5 -381s-244.166 -135 -419.499 -135c-176 0 -315.167 46.167 -417.5 138.5s-153.5 218.166 -153.5 377.499v824z" />
    <glyph glyph-name="uhungarumlaut" unicode="&#x171;" horiz-adv-x="1085" 
d="M258 1085l328 351l137 -140l-383 -297zM664 1085l327 351l135 -140l-381 -297zM985 924l-0.00195312 -924.001h-237l-19 104c-32.667 -44 -73.167 -76.833 -121.5 -98.5s-102.166 -32.5 -161.499 -32.5c-110.667 0 -196 32.833 -256 98.5s-90 155.167 -90 268.5v584h287
v-541c0 -57.333 13.333 -98.666 40 -123.999s65.334 -38 116.001 -38c49.333 0 87.5 15.333 114.5 46s40.5 72 40.5 124v533h287z" />
    <glyph glyph-name="Uogonek" unicode="&#x172;" horiz-adv-x="1409" 
d="M838 -8c-38 -24.667 -66.334 -49.998 -85.001 -75.998s-28 -50.667 -28 -74c0 -20.667 7.16699 -37 21.5 -49s33.833 -18 58.5 -18c19.333 0 41 4 65 12v-143c-42 -13.333 -83.667 -20.333 -125 -21c-61.333 0 -109.666 16 -144.999 48s-53 71.333 -53 118
c0 35.333 11.167 71.166 33.5 107.499s55.5 68.166 99.5 95.499h158zM130.999 1313l299.001 0.000976562v-811c1.33301 -87.333 26.666 -152.5 75.999 -195.5s114.666 -64.5 195.999 -64.5c88.667 0 157 22.833 205 68.5s72 109.5 72 191.5v811h299v-824
c0 -164 -52.167 -291 -156.5 -381s-244.166 -135 -419.499 -135c-176 0 -315.167 46.167 -417.5 138.5s-153.5 218.166 -153.5 377.499v824z" />
    <glyph glyph-name="uogonek" unicode="&#x173;" horiz-adv-x="1085" 
d="M983 0c-38 -24.667 -66.333 -49.998 -85 -75.998s-28 -50.667 -28 -74c0 -20.667 7.16699 -37 21.5 -49s33.833 -18 58.5 -18c19.333 0 41.333 4 66 12v-143c-42 -13.333 -83.667 -20.333 -125 -21c-61.333 0 -109.833 16.167 -145.5 48.5s-53.5 71.5 -53.5 117.5
c0 35.333 11.333 71.166 34 107.499s55.667 68.166 99 95.499h158zM985 924.002l-0.00195312 -924.001h-237l-19 104c-32.667 -44 -73.167 -76.833 -121.5 -98.5s-102.166 -32.5 -161.499 -32.5c-110.667 0 -196 32.833 -256 98.5s-90 155.167 -90 268.5v584h287v-541
c0 -57.333 13.333 -98.666 40 -123.999s65.334 -38 116.001 -38c49.333 0 87.5 15.333 114.5 46s40.5 72 40.5 124v533h287z" />
    <glyph glyph-name="Wcircumflex" unicode="&#x174;" horiz-adv-x="1959" 
d="M852 1765h246l221 -299l-133 -92l-211 225l-213 -225l-131 92zM344 1313l125.001 -412c35.333 -114.667 63 -213.334 83 -296.001s30 -126.667 30 -132c18 54.667 66.333 220.667 145 498l90 307h328l180 -614l55 -191c0 5.33301 10 49.333 30 132
s47.667 181.334 83 296.001l127 412h319l-417 -1313h-291l-78 258l-99.5 334.5c-37.667 129 -61.834 214.833 -72.501 257.5l-70.5 -256c-36.333 -130 -69.5 -242 -99.5 -336l-80 -258h-291l-417 1313h321z" />
    <glyph glyph-name="wcircumflex" unicode="&#x175;" horiz-adv-x="1576" 
d="M672 1376h246l221 -299l-133 -92l-211 225l-213 -225l-131 92zM342 924l59.001 -211c38 -136.667 66 -248 84 -334l138 471l16 55h303l61.5 -225c29 -108 56.167 -214.667 81.5 -320c20.667 90 51.667 205.667 93 347l63 217h303l-325 -924h-279
c-66.667 224 -117.334 407.667 -152.001 551c-6.66699 -30 -24.667 -98.667 -54 -206s-63 -222.333 -101 -345h-291l-309 924h309z" />
    <glyph glyph-name="Ycircumflex" unicode="&#x176;" horiz-adv-x="1284" 
d="M526 1765h246l221 -299l-133 -92l-211 225l-213 -225l-131 92zM365 1313l131 -228c38 -66.667 71 -127 99 -181l52 -101c6.66699 15.333 24 49.833 52 103.5s61.333 113.167 100 178.5l133 228h336l-475 -801v-512h-301v512l-474 801h347z" />
    <glyph glyph-name="ycircumflex" unicode="&#x177;" horiz-adv-x="1101" 
d="M432 1376h246l221 -299l-133 -92l-211 225l-213 -225l-131 92zM1081 924l-428 -1074c-23.333 -56 -48.833 -104.667 -76.5 -146s-68.834 -77.833 -123.501 -109.5s-123.667 -47.5 -207 -47.5c-56 0 -119 7.66699 -189 23l4 233c50.667 -9.33301 95.334 -14 134.001 -14
c46.667 0 83.5 6.5 110.5 19.5s47 29 60 48s24.833 43.5 35.5 73.5l17 41l-395 953h309l217 -605l229 605h303z" />
    <glyph glyph-name="Ydieresis" unicode="&#x178;" horiz-adv-x="1284" 
d="M345 1423c-26.667 26 -39.999 59 -39.999 99c0 40.667 13.333 74 40 100s59.667 39 99 39s72.166 -13 98.499 -39s39.5 -59.333 39.5 -100c0 -38 -13 -70.5 -39 -97.5s-59 -40.5 -99 -40.5c-39.333 0 -72.333 13 -99 39zM755.001 1424c-26.667 26.667 -40 59.333 -40 98
c0 40.667 13.333 74 40 100s59.667 39 99 39s72 -13 98 -39s39 -59.333 39 -100c0 -38 -13 -70.5 -39 -97.5s-58.667 -40.5 -98 -40.5s-72.333 13.333 -99 40zM365.001 1313l131 -228c38 -66.667 71 -127 99 -181l52 -101c6.66699 15.333 24 49.833 52 103.5
s61.333 113.167 100 178.5l133 228h336l-475 -801v-512h-301v512l-474 801h347z" />
    <glyph glyph-name="Zacute" unicode="&#x179;" horiz-adv-x="1132" 
d="M489 1475l328 348l137 -140l-383 -297zM1059 1083l-594 -813h588v-270h-981v242l596 800h-584v271h975v-230z" />
    <glyph glyph-name="zacute" unicode="&#x17a;" horiz-adv-x="929" 
d="M383 1085l328 349l137 -140l-383 -297zM78 252l414 422h-414v250h774v-254l-426 -416h426v-254h-774v252z" />
    <glyph glyph-name="Zdotaccent" unicode="&#x17b;" horiz-adv-x="1132" 
d="M472 1428.5c-26.667 26.333 -39.999 59.5 -39.999 99.5c0 40.667 13 73.667 39 99s59.333 38 100 38c39.333 0 72.166 -12.667 98.499 -38s39.5 -58.333 39.5 -99c0 -39.333 -13 -72.333 -39 -99s-59 -40 -99 -40c-39.333 0 -72.333 13.167 -99 39.5zM1059 1083
l-594 -813h588v-270h-981v242l596 800h-584v271h975v-230z" />
    <glyph glyph-name="zdotaccent" unicode="&#x17c;" horiz-adv-x="929" 
d="M366 1039c-26.667 26.667 -40 60 -40 100c0 40.667 12.833 73.667 38.5 99s59.167 38 100.5 38c39.333 0 72 -12.667 98 -38s39 -58.333 39 -99c0 -39.333 -13 -72.5 -39 -99.5s-58.667 -40.5 -98 -40.5s-72.333 13.333 -99 40zM78 252l414 422h-414v250h774v-254
l-426 -416h426v-254h-774v252z" />
    <glyph glyph-name="Zcaron" unicode="&#x17d;" horiz-adv-x="1132" 
d="M358 1780l213 -226l211 226l133 -92l-221 -299h-245l-222 299zM1059 1083l-594 -813h588v-270h-981v242l596 800h-584v271h975v-230z" />
    <glyph glyph-name="zcaron" unicode="&#x17e;" horiz-adv-x="929" 
d="M252 1391l213 -226l211 226l133 -93l-221 -299h-246l-221 299zM78 252l414 422h-414v250h774v-254l-426 -416h426v-254h-774v252z" />
    <glyph glyph-name="florin" unicode="&#x192;" horiz-adv-x="1339" 
d="M880 1025c-29.333 -26.667 -49 -69.333 -59 -128l-6 -35h348v-209h-381l-51 -315c-20.667 -121.333 -68.834 -208 -144.501 -260s-177.5 -78 -305.5 -78h-168l-2 250h129c70.667 0 122.334 15.333 155.001 46s54.667 81.667 66 153l33 204h-240v209h274l15 88
c23.333 138 72.5 233 147.5 285s180.833 78 317.5 78h155v-248h-139c-66.667 0 -114.667 -13.333 -144 -40z" />
    <glyph glyph-name="Aringacute" unicode="&#x1fa;" horiz-adv-x="1298" 
d="M586 1680l383 286l111 -161l-429 -226zM499.5 1247c42.333 -24.667 92.165 -37.0029 149.498 -37.0029c56 0 105.5 12.333 148.5 37s75.833 56.834 98.5 96.501s34 81.834 34 126.501c0 45.333 -11.667 88.166 -35 128.499s-56.166 72.833 -98.499 97.5
s-91.5 37 -147.5 37c-57.333 0 -107.166 -12.333 -149.499 -37s-74.666 -57.167 -96.999 -97.5s-33.5 -83.166 -33.5 -128.499s11.167 -87.666 33.5 -126.999s54.666 -71.333 96.999 -96zM721.999 1398c-20 -21.333 -44.333 -32.002 -73 -32.002
c-30 0 -54.833 10.167 -74.5 30.5s-29.5 46.5 -29.5 78.5c0 28.667 9.83301 52.834 29.5 72.501s44.5 29.5 74.5 29.5c28.667 0 53 -10.167 73 -30.5s30 -44.166 30 -71.499c0 -30 -10 -55.667 -30 -77zM505.999 1313h289l487 -1313h-317l-97 270h-442l-98 -270h-312z
M781.999 519.995l-51 142l-53 165l-27 82c-4 -18 -14.5 -51.167 -31.5 -99.5s-35.167 -97.5 -54.5 -147.5l-53 -142h270z" />
    <glyph glyph-name="aringacute" unicode="&#x1fb;" horiz-adv-x="1191" 
d="M565 1178l328 348l137 -140l-383 -296zM374.5 860c42.333 -24.667 92.165 -37.0029 149.498 -37.0029c56 0 105.5 12.333 148.5 37s75.833 56.834 98.5 96.501s34 81.834 34 126.501c0 45.333 -11.667 88.166 -35 128.499s-56.166 72.833 -98.499 97.5
s-91.5 37 -147.5 37c-57.333 0 -107.166 -12.333 -149.499 -37s-74.666 -57.167 -96.999 -97.5s-33.5 -83.166 -33.5 -128.499s11.167 -87.666 33.5 -126.999s54.666 -71.333 96.999 -96zM596.999 1010.5c-20 -21 -44.333 -31.499 -73 -31.499
c-30 0 -54.833 10.167 -74.5 30.5s-29.5 46.166 -29.5 77.499c0 28.667 9.83301 53 29.5 73s44.5 30 74.5 30c28.667 0 53 -10.333 73 -31s30 -44.667 30 -72c0 -30 -10 -55.5 -30 -76.5zM1090 923.998v-923.999h-275v106c-31.333 -40.667 -75 -73 -131 -97
s-116.667 -36 -182 -36c-86 0 -162.167 20.167 -228.5 60.5s-117.5 96.666 -153.5 168.999s-54 156.5 -54 252.5c0 100 19.333 187.667 58 263s93.167 133.833 163.5 175.5s150.5 62.5 240.5 62.5c132.667 0 233.667 -40.667 303 -122l19 90h240zM740.499 295.499
c41.667 43 62.5 100.167 62.5 171.5c0 69.333 -20.833 125.166 -62.5 167.499s-95.834 63.5 -162.501 63.5s-120 -21.5 -160 -64.5s-60 -99.167 -60 -168.5s20.167 -125.666 60.5 -168.999s93.5 -65 159.5 -65c66.667 0 120.834 21.5 162.501 64.5z" />
    <glyph glyph-name="AEacute" unicode="&#x1fc;" horiz-adv-x="1802" 
d="M983 1511l328 349l137 -140l-383 -297zM1108 1034v-233l526 -2v-269h-526v-247l592 -2v-281l-592 2v-2h-281v285h-354l-113 -285h-342l547 1298v15h1135v-281zM827 1034h-59l-195 -493h254v493z" />
    <glyph glyph-name="aeacute" unicode="&#x1fd;" horiz-adv-x="1681" 
d="M748 1141l327 348l137 -139l-383 -297zM1620 295c-24.667 -96.667 -78.998 -174.497 -162.998 -233.497s-184.667 -88.5 -302 -88.5c-83.333 0 -157.333 14.333 -222 43s-115 67.667 -151 117c-32.667 -50.667 -79.334 -90 -140.001 -118s-130.667 -42 -210 -42
c-112 0 -200.667 27 -266 81s-98 126.667 -98 218c0 90 33 162 99 216s159 81 279 81h203v29c0 45.333 -14 80.166 -42 104.499s-66.333 36.5 -115 36.5c-48 0 -86.667 -10.5 -116 -31.5s-45.333 -49.167 -48 -84.5h-238c2.66699 100 43 180.5 121 241.5
s177.667 91.5 299 91.5c136.667 0 239.667 -40.667 309 -122c87.333 80.667 196.666 120.667 327.999 120c91.333 0 172.166 -19 242.499 -57s125 -90.5 164 -157.5s58.5 -142.833 58.5 -227.5c0 -28.667 -1.66699 -55.334 -5 -80.001s-6 -40.334 -8 -47.001h-651
c1.33301 -50.667 20.833 -92.667 58.5 -126s87.834 -50 150.501 -50c45.333 0 84.333 7.5 117 22.5s55.667 36.167 69 63.5h277zM1003.5 679.003c-33 -28 -50.833 -64.667 -53.5 -110h371c-1.33301 46.667 -19.5 83.667 -54.5 111s-78.167 41 -129.5 41
c-56 0 -100.5 -14 -133.5 -42zM651.002 389.003h-135c-57.333 0 -98 -10.5 -122 -31.5s-36 -46.5 -36 -76.5c0 -31.333 11.333 -55.666 34 -72.999s53 -26 91 -26c52 0 93 14.667 123 44s45 68.666 45 117.999v45z" />
    <glyph glyph-name="Oslashacute" unicode="&#x1fe;" horiz-adv-x="1544" 
d="M727 1556l328 349l137 -140l-383 -297zM1135.5 1257c107 -57.333 191 -137.831 252 -241.498s91.5 -222.5 91.5 -356.5s-30.5 -252.833 -91.5 -356.5s-145 -184.167 -252 -241.5s-228.833 -86 -365.5 -86c-135.333 0 -256.5 28.667 -363.5 86
s-190.5 137.666 -250.5 240.999s-90 221.666 -90 354.999c0 134 30 252.833 90 356.5s143.5 184.5 250.5 242.5s228.833 87 365.5 87c135.333 0 256.5 -28.667 363.5 -86zM570 1014c-59.333 -34 -105.668 -81.832 -139.001 -143.499s-50 -132.834 -50 -213.501
c0 -101.333 26.667 -188 80 -260l407 658c-31.333 6.66699 -62.666 10 -93.999 10c-76.667 0 -144.667 -17 -204 -51zM973.998 305.003c59.333 34 105.333 81.832 138 143.499s49 131.834 49 210.501c0 108 -29.333 199 -88 273l-405 -666c32.667 -8 67.334 -12 104.001 -12
c75.333 0 142.666 17 201.999 51z" />
    <glyph glyph-name="oslashacute" unicode="&#x1ff;" horiz-adv-x="1157" 
d="M498 1118l327 348l138 -139l-383 -297zM178 -10l654 1040l152 -93l-655 -1040zM130.5 718.5c43 75 103.333 133.333 181 175s167.167 62.5 268.5 62.5s190.5 -20.833 267.5 -62.5s137 -100 180 -175s64.5 -160.167 64.5 -255.5c0 -94 -21.5 -178.333 -64.5 -253
s-103.5 -132.834 -181.5 -174.501s-166.667 -62.5 -266 -62.5c-101.333 0 -190.833 20.833 -268.5 62.5s-138 99.834 -181 174.501s-64.5 159 -64.5 253c0 95.333 21.5 180.5 64.5 255.5zM419.5 293.5c41 -44.333 94.501 -66.5 160.501 -66.5
c65.333 0 118.5 22.167 159.5 66.5s61.5 101.5 61.5 171.5c0 69.333 -20.167 125.833 -60.5 169.5s-93.833 65.5 -160.5 65.5s-120.334 -21.833 -161.001 -65.5s-61 -100.167 -61 -169.5c0 -70 20.5 -127.167 61.5 -171.5z" />
    <glyph glyph-name="uni0218" unicode="&#x218;" horiz-adv-x="1189" 
d="M692 -150.5c26 -31 39.001 -70.166 39.001 -117.499c0 -72.667 -21.833 -133.5 -65.5 -182.5s-108.5 -74.833 -194.5 -77.5v57c48 8 84.167 23.667 108.5 47s38.166 52 41.499 86c-13.333 -8 -30 -12 -50 -12c-34 0 -61.5 11.167 -82.5 33.5s-31.5 50.166 -31.5 83.499
c0 38 12.5 69 37.5 93s57.5 36 97.5 36c40.667 0 74 -15.5 100 -46.5zM163.501 1145c41 62.667 98.3291 110.999 171.996 144.999s159.834 51 258.501 51c95.333 0 180.333 -16.667 255 -50s132.667 -80.666 174 -141.999s62.666 -131.666 63.999 -210.999h-309
c-1.33301 45.333 -20.666 82 -57.999 110s-84.666 42 -141.999 42c-50.667 0 -91.334 -11.667 -122.001 -35s-46 -54.666 -46 -93.999c0 -36.667 13.167 -64.334 39.5 -83.001s65.5 -34.334 117.5 -47.001l207 -47c116 -27.333 203 -74.333 261 -141s87 -148 87 -244
c0 -86 -21.5 -161 -64.5 -225s-103.667 -113.5 -182 -148.5s-169.5 -52.5 -273.5 -52.5c-155.333 0 -281.166 37.667 -377.499 113s-149.166 177.666 -158.499 306.999h307c4 -53.333 26.833 -94.666 68.5 -123.999s96.5 -44 164.5 -44c62.667 0 111.834 12.667 147.501 38
s53.5 60 53.5 104c0 35.333 -11.667 62.833 -35 82.5s-56 34.5 -98 44.5l-217 51c-122.667 28.667 -212.5 75.667 -269.5 141s-85.5 144.666 -85.5 237.999c0 84.667 20.5 158.334 61.5 221.001z" />
    <glyph glyph-name="uni0219" unicode="&#x219;" horiz-adv-x="927" 
d="M604 -136c26 -30.667 38.999 -70.001 38.999 -118.001c0 -72.667 -21.833 -133.5 -65.5 -182.5s-108.5 -74.833 -194.5 -77.5v57c48 8 84.167 23.667 108.5 47s37.833 52 40.5 86c-13.333 -8 -29.666 -12 -48.999 -12c-34 0 -61.5 11.333 -82.5 34
s-31.5 50.334 -31.5 83.001c0 38 12.5 69 37.5 93s57.5 36 97.5 36c40.667 0 74 -15.333 100 -46zM189.499 55.999c-74.333 55.333 -115.501 131 -123.501 227h282c1.33301 -31.333 14 -55.666 38 -72.999s54.333 -26 91 -26c32.667 0 58.667 6.16699 78 18.5
s29 30.833 29 55.5c0 22 -7.5 38.167 -22.5 48.5s-35.5 18.166 -61.5 23.499l-148 37c-176 42 -264 134.667 -264 278c0 92.667 35.5 167.667 106.5 225s163.833 86 278.5 86c113.333 0 205.166 -28 275.499 -84s106.833 -129.667 109.5 -221h-278
c-1.33301 27.333 -12.333 49.166 -33 65.499s-47.334 24.5 -80.001 24.5c-28.667 0 -51.167 -6 -67.5 -18s-24.5 -29 -24.5 -51s6.83301 -37.167 20.5 -45.5s36.834 -16.5 69.501 -24.5l172 -41c83.333 -19.333 144.5 -53.166 183.5 -101.499s58.5 -105.833 58.5 -172.5
c0 -95.333 -36.167 -171.5 -108.5 -228.5s-170.166 -85.5 -293.499 -85.5c-117.333 0 -213.166 27.667 -287.499 83z" />
    <glyph glyph-name="uni021A" unicode="&#x21a;" horiz-adv-x="1150" 
d="M680 -167c26 -30.667 38.999 -70.001 38.999 -118.001c0 -72.667 -21.833 -133.5 -65.5 -182.5s-108.5 -74.833 -194.5 -77.5v58c48 8 84.167 23.5 108.5 46.5s37.833 51.833 40.5 86.5c-13.333 -8 -29.666 -12.333 -48.999 -13c-34 0 -61.667 11.333 -83 34
s-32 50.334 -32 83.001c0 38 12.667 69 38 93s58 36 98 36c40.667 0 74 -15.333 100 -46zM1118 1042h-391v-1042h-299v1042h-395v271h1085v-271z" />
    <glyph glyph-name="uni021B" unicode="&#x21b;" horiz-adv-x="698" 
d="M446.5 -103.5c25.667 -31 38.499 -70.166 38.499 -117.499c0 -72.667 -21.833 -133.5 -65.5 -182.5s-108.5 -74.833 -194.5 -77.5v57c48 8 84.333 23.667 109 47s38.334 52 41.001 86c-13.333 -8 -29.666 -12 -48.999 -12c-34 0 -61.667 11.167 -83 33.5
s-32 50.166 -32 83.499c0 38 12.667 69 38 93s57.666 36 96.999 36c41.333 0 74.833 -15.5 100.5 -46.5zM656.999 688.001h-174v-688h-286v688h-170v236h170v239h286v-239h174v-236z" />
    <glyph glyph-name="uni0237" unicode="&#x237;" horiz-adv-x="569" 
d="M143 924h287v-1368h-285z" />
    <glyph glyph-name="uni0243" unicode="&#x243;" horiz-adv-x="1228" 
d="M1102.5 554c40.333 -56.667 60.5 -124 60.5 -202c0 -113.333 -42 -200.333 -126 -261s-197.667 -91 -341 -91h-555v322h-121v174h121v817h557c92.667 0 173.167 -15 241.5 -45s120.333 -72 156 -126s53.5 -116 53.5 -186c0 -70.667 -18.5 -131 -55.5 -181
s-87.5 -84.333 -151.5 -103c66.667 -22 120.167 -61.333 160.5 -118zM436 1061l-0.00195312 -280.999h248c54.667 0 96.334 13.667 125.001 41s43 60.333 43 99c0 39.333 -13.667 72.666 -41 99.999s-69.666 41 -126.999 41h-248zM821.998 296.001
c30.667 29.333 46 68 46 116c0 46.667 -15.333 83.5 -46 110.5s-71.334 40.5 -122.001 40.5h-264v-67h178v-174h-178v-70h264c50.667 0 91.334 14.667 122.001 44z" />
    <glyph glyph-name="circumflex" unicode="&#x2c6;" horiz-adv-x="942" 
d="M346 1784h246l221 -299l-133 -92l-211 225l-213 -225l-131 92z" />
    <glyph glyph-name="caron" unicode="&#x2c7;" horiz-adv-x="942" 
d="M256 1798l213 -225l211 225l133 -92l-221 -299h-246l-221 299z" />
    <glyph glyph-name="breve" unicode="&#x2d8;" horiz-adv-x="1038" 
d="M768 1493c-66.667 -57.333 -149.332 -86 -247.999 -86c-104 0 -188.333 29.667 -253 89s-99.667 138.333 -105 237h196c1.33301 -44 17.166 -78.333 47.499 -103s68.5 -37 114.5 -37c48 0 85.667 12.333 113 37s42.333 59 45 103h199
c-6 -102.667 -42.333 -182.667 -109 -240z" />
    <glyph glyph-name="dotaccent" unicode="&#x2d9;" horiz-adv-x="442" 
d="M120 1444c-26.667 26 -40 58.667 -40 98c0 40.667 13.333 74 40 100s59.667 39 99 39s72 -12.833 98 -38.5s39 -59.167 39 -100.5c0 -38 -12.833 -70.333 -38.5 -97s-58.5 -40 -98.5 -40c-39.333 0 -72.333 13 -99 39z" />
    <glyph glyph-name="ring" unicode="&#x2da;" horiz-adv-x="768" 
d="M235.5 1397c-42.333 24.667 -74.832 56.667 -97.499 96s-34 81.666 -34 126.999s11.333 88 34 128s55.167 72.333 97.5 97s92.166 37 149.499 37c56 0 105.167 -12.333 147.5 -37s75.166 -57 98.499 -97s35 -82.667 35 -128s-11.333 -87.666 -34 -126.999
s-55.5 -71.333 -98.5 -96s-92.5 -37 -148.5 -37c-57.333 0 -107.166 12.333 -149.499 37zM457.501 1547.5c19.667 21 29.5 46.501 29.5 76.501c0 27.333 -9.83301 51.166 -29.5 71.499s-43.834 30.5 -72.501 30.5c-30 0 -54.833 -9.83301 -74.5 -29.5
s-29.5 -43.834 -29.5 -72.501c0 -31.333 9.83301 -57.166 29.5 -77.499s44.5 -30.5 74.5 -30.5c28.667 0 52.834 10.5 72.501 31.5z" />
    <glyph glyph-name="ogonek" unicode="&#x2db;" horiz-adv-x="575" 
d="M446 0c-38 -24.667 -66.168 -49.998 -84.501 -75.998s-27.5 -50.667 -27.5 -74c0 -20.667 7.16699 -37 21.5 -49s33.833 -18 58.5 -18c19.333 0 41 4 65 12v-143c-42 -13.333 -83.667 -20.333 -125 -21c-61.333 0 -109.666 16.167 -144.999 48.5s-53 71.5 -53 117.5
c0 35.333 11.167 71.166 33.5 107.499s55.5 68.166 99.5 95.499h157z" />
    <glyph glyph-name="tilde" unicode="&#x2dc;" horiz-adv-x="1017" 
d="M184 1483c0 68 16.8281 122.501 50.4951 163.501s77.834 61.5 132.501 61.5c27.333 0 52.833 -5.16699 76.5 -15.5s51.834 -24.833 84.501 -43.5l49.5 -26.5c16.333 -8.33301 30.833 -12.5 43.5 -12.5c24.667 0 41.334 7.83301 50.001 23.5s12.334 39.167 11.001 70.5
h139c4 -24.667 6 -48.667 6 -72c0 -64 -16.333 -115.5 -49 -154.5s-76.334 -58.5 -131.001 -58.5c-30 0 -57.667 5.16699 -83 15.5s-53.666 25.166 -84.999 44.499c-16.667 9.33301 -32.667 17.833 -48 25.5s-28.666 11.5 -39.999 11.5c-26 0 -43.333 -10.667 -52 -32
s-11.667 -46.333 -9 -75h-140c-4 27.333 -6 52 -6 74z" />
    <glyph glyph-name="hungarumlaut" unicode="&#x2dd;" horiz-adv-x="1124" 
d="M240 1493l327 350l138 -139l-383 -297zM645 1493l328 350l135 -139l-381 -297z" />
    <glyph glyph-name="gravecomb" unicode="&#x300;" 
d="M-602 1702l135 139l330 -348l-84 -88z" />
    <glyph glyph-name="acutecomb" unicode="&#x301;" 
d="M-451 1493l328 348l137 -139l-383 -297z" />
    <glyph glyph-name="uni0302" unicode="&#x302;" 
d="M-594 1784h244l221 -299l-131 -92l-211 225l-213 -225l-131 92z" />
    <glyph glyph-name="tildecomb" unicode="&#x303;" 
d="M-834 1483c0 68 16.8281 122.501 50.4951 163.501s77.834 61.5 132.501 61.5c27.333 0 52.833 -5.16699 76.5 -15.5s52.167 -24.833 85.5 -43.5l49 -26.5c16 -8.33301 30.333 -12.5 43 -12.5c24.667 0 41.334 7.83301 50.001 23.5s12.334 39.167 11.001 70.5h139
c4 -24.667 6.33301 -48.667 7 -72c0 -64 -16.5 -115.5 -49.5 -154.5s-76.833 -58.5 -131.5 -58.5c-30 0 -57.667 5.16699 -83 15.5s-53.666 25.166 -84.999 44.499c-16.667 9.33301 -32.667 17.833 -48 25.5s-28.666 11.5 -39.999 11.5c-26 0 -43.333 -10.667 -52 -32
s-11.667 -46.333 -9 -75h-139c-4.66699 27.333 -7 52 -7 74z" />
    <glyph glyph-name="uni0304" unicode="&#x304;" 
d="M-137 1610v-191h-582v191h582z" />
    <glyph glyph-name="uni0306" unicode="&#x306;" 
d="M-270.5 1493c-67 -57.333 -149.5 -86 -247.5 -86c-104 0 -188.333 29.667 -253 89s-100 138.333 -106 237h197c1.33301 -44 17 -78.333 47 -103s68.333 -37 115 -37c48 0 85.5 12.333 112.5 37s42.167 59 45.5 103h198c-5.33301 -102.667 -41.5 -182.667 -108.5 -240z
" />
    <glyph glyph-name="uni0307" unicode="&#x307;" 
d="M-333 1447c-26.667 26.667 -40 59.667 -40 99c0 40.667 13 73.667 39 99s59.667 38 101 38c39.333 0 72 -12.5 98 -37.5s39 -58.167 39 -99.5c0 -39.333 -13 -72.333 -39 -99s-58.667 -40 -98 -40c-40 0 -73.333 13.333 -100 40z" />
    <glyph glyph-name="uni0308" unicode="&#x308;" 
d="M-742 1447c-26.667 26.667 -40 59.667 -40 99c0 40.667 12.833 73.667 38.5 99s59.167 38 100.5 38c39.333 0 72 -12.5 98 -37.5s39 -58.167 39 -99.5c0 -39.333 -13 -72.333 -39 -99s-58.667 -40 -98 -40s-72.333 13.333 -99 40zM-333 1447
c-26.667 26.667 -40 59.667 -40 99c0 40.667 13.333 73.667 40 99s60 38 100 38c39.333 0 72 -12.5 98 -37.5s39 -58.167 39 -99.5c0 -39.333 -13 -72.333 -39 -99s-58.667 -40 -98 -40c-40 0 -73.333 13.333 -100 40z" />
    <glyph glyph-name="uni030A" unicode="&#x30a;" 
d="M-532.5 1417c-42.333 24.667 -74.832 56.8311 -97.499 96.498s-34 81.834 -34 126.501c0 45.333 11.333 88.166 34 128.499s55.167 72.833 97.5 97.5s92.166 37 149.499 37c56 0 105.167 -12.333 147.5 -37s75.166 -57.167 98.499 -97.5s35 -83.166 35 -128.499
s-11.333 -87.666 -34 -126.999s-55.5 -71.333 -98.5 -96s-92.5 -37 -148.5 -37c-57.333 0 -107.166 12.333 -149.499 37zM-310.499 1567.5c19.667 21 29.5 46.835 29.5 77.502c0 27.333 -9.83301 51.166 -29.5 71.499s-43.834 30.5 -72.501 30.5
c-30 0 -54.833 -9.83301 -74.5 -29.5s-29.5 -43.834 -29.5 -72.501c0 -31.333 9.83301 -57.333 29.5 -78s44.5 -31 74.5 -31c28.667 0 52.834 10.5 72.501 31.5z" />
    <glyph glyph-name="uni030B" unicode="&#x30b;" 
d="M-881 1493l328 348l137 -139l-383 -297zM-475 1493l328 348l135 -139l-381 -297z" />
    <glyph glyph-name="uni030C" unicode="&#x30c;" 
d="M-684 1798l213 -225l211 225l133 -92l-221 -299h-246l-221 299z" />
    <glyph glyph-name="uni0312" unicode="&#x312;" 
d="M-105.5 1613c21 -22.667 31.498 -50.3311 31.498 -82.998c0 -36.667 -12.167 -67 -36.5 -91s-57.166 -36 -98.499 -36c-42 0 -75.667 15.333 -101 46s-38 70 -38 118c0 72.667 22.167 133.5 66.5 182.5s108.833 74.167 193.5 75.5v-58
c-48 -6.66699 -84.167 -22.334 -108.5 -47.001s-38.166 -53.334 -41.499 -86.001c12 8 29.333 12.333 52 13c32.667 0 59.5 -11.333 80.5 -34z" />
    <glyph glyph-name="uni0326" unicode="&#x326;" 
d="M-113 -62.5c26 -31 38.999 -70.166 38.999 -117.499c0 -72.667 -21.833 -133.5 -65.5 -182.5s-108.5 -74.833 -194.5 -77.5v57c48 8 84.333 23.667 109 47s38.334 52 41.001 86c-13.333 -8 -29.666 -12 -48.999 -12c-34 0 -61.667 11.167 -83 33.5s-32 50.166 -32 83.499
c0 38 12.667 69 38 93s57.666 36 96.999 36c40.667 0 74 -15.5 100 -46.5z" />
    <glyph glyph-name="uni0327" unicode="&#x327;" 
d="M-281 -111c48 0 92.4961 -16 133.496 -48s61.5 -80.667 61.5 -146c0 -70.667 -26.333 -125.167 -79 -163.5s-115 -57.5 -187 -57.5c-65.333 0 -120.666 13.667 -165.999 41v143c13.333 -15.333 32.333 -27.333 57 -36s49.334 -13 74.001 -13
c32.667 0 60.334 7.83301 83.001 23.5s34 39.167 34 70.5c0 28.667 -10 50.5 -30 65.5s-45.667 22.5 -77 22.5c-9.33301 0 -23.666 -1.33301 -42.999 -4l-59 61l147 224h105v-74l-76 -111z" />
    <glyph glyph-name="uni0338" unicode="&#x338;" 
d="M-1194 -154l778 1237l180 -110l-778 -1237z" />
    <glyph glyph-name="uni03A9" unicode="&#x3a9;" horiz-adv-x="1591" 
d="M1421.5 419c-50.333 -86.667 -122.167 -155.332 -215.5 -205.999h260v-213h-571v287c86 26 155.333 72.667 208 140s79 147.666 79 240.999c0 106.667 -35.167 191.667 -105.5 255s-162.166 95 -275.499 95c-116 0 -209.5 -33.167 -280.5 -99.5
s-106.5 -152.833 -106.5 -259.5c0 -90 25.167 -168.333 75.5 -235s115.833 -112.334 196.5 -137.001v-287h-573v213h268c-92.667 50.667 -163.667 119.334 -213 206.001s-74 184 -74 292c0 118.667 29.667 224.667 89 318s142.333 166.333 249 219s228.334 79 365.001 79
c135.333 0 256.166 -26 362.499 -78s189.166 -124.667 248.499 -218s89 -199.333 89 -318c0 -109.333 -25.167 -207.333 -75.5 -294z" />
    <glyph glyph-name="pi" unicode="&#x3c0;" horiz-adv-x="1310" 
d="M49 1108l1116 -0.000976562v-227h-161v-525c0 -53.333 9.5 -89.166 28.5 -107.499s53.167 -27.5 102.5 -27.5h30v-221c-42 -9.33301 -88.333 -14 -139 -14c-117.333 0 -197.5 28.667 -240.5 86s-64.5 144 -64.5 260v549h-240v-881h-280v881h-152v227z" />
    <glyph glyph-name="uni0E3F" unicode="&#xe3f;" horiz-adv-x="1228" 
d="M1100.5 540.5c41.667 -50.333 62.5 -115.167 62.5 -194.5c0 -112 -41.667 -197.667 -125 -257s-197.333 -89 -342 -89h-24v-211h-152v211h-379v1313h379v194h152v-194h26c140.667 0 251 -33.167 331 -99.5s120 -154.166 120 -263.499
c0 -76.667 -19.167 -139.834 -57.5 -189.501s-90.833 -85.5 -157.5 -107.5c69.333 -24.667 124.833 -62.167 166.5 -112.5zM436 1061l-0.000976562 -299h248c54.667 0 96.334 15 125.001 45s43 64 43 102s-14 72.833 -42 104.5s-70 47.5 -126 47.5h-248zM821.999 290.999
c30.667 26 45.999 60.667 45.999 104c0 42 -16 77.5 -48 106.5s-72 43.5 -120 43.5h-264v-293h264c50.667 0 91.334 13 122.001 39z" />
    <glyph glyph-name="Wgrave" unicode="&#x1e80;" horiz-adv-x="1959" 
d="M594 1683l135 140l330 -348l-84 -89zM344 1313l125.001 -412c35.333 -114.667 63 -213.334 83 -296.001s30 -126.667 30 -132c18 54.667 66.333 220.667 145 498l90 307h328l180 -614l55 -191c0 5.33301 10 49.333 30 132s47.667 181.334 83 296.001l127 412h319
l-417 -1313h-291l-78 258l-99.5 334.5c-37.667 129 -61.834 214.833 -72.501 257.5l-70.5 -256c-36.333 -130 -69.5 -242 -99.5 -336l-80 -258h-291l-417 1313h321z" />
    <glyph glyph-name="wgrave" unicode="&#x1e81;" horiz-adv-x="1576" 
d="M414 1294l135 140l330 -349l-84 -88zM342 924l59.001 -211c38 -136.667 66 -248 84 -334l138 471l16 55h303l61.5 -225c29 -108 56.167 -214.667 81.5 -320c20.667 90 51.667 205.667 93 347l63 217h303l-325 -924h-279c-66.667 224 -117.334 407.667 -152.001 551
c-6.66699 -30 -24.667 -98.667 -54 -206s-63 -222.333 -101 -345h-291l-309 924h309z" />
    <glyph glyph-name="Wacute" unicode="&#x1e82;" horiz-adv-x="1959" 
d="M893 1475l328 350l137 -139l-383 -297zM344 1313l125.001 -412c35.333 -114.667 63 -213.334 83 -296.001s30 -126.667 30 -132c18 54.667 66.333 220.667 145 498l90 307h328l180 -614l55 -191c0 5.33301 10 49.333 30 132s47.667 181.334 83 296.001l127 412h319
l-417 -1313h-291l-78 258l-99.5 334.5c-37.667 129 -61.834 214.833 -72.501 257.5l-70.5 -256c-36.333 -130 -69.5 -242 -99.5 -336l-80 -258h-291l-417 1313h321z" />
    <glyph glyph-name="wacute" unicode="&#x1e83;" horiz-adv-x="1576" 
d="M713 1085l327 351l138 -140l-383 -297zM342 924l59.001 -211c38 -136.667 66 -248 84 -334l138 471l16 55h303l61.5 -225c29 -108 56.167 -214.667 81.5 -320c20.667 90 51.667 205.667 93 347l63 217h303l-325 -924h-279c-66.667 224 -117.334 407.667 -152.001 551
c-6.66699 -30 -24.667 -98.667 -54 -206s-63 -222.333 -101 -345h-291l-309 924h309z" />
    <glyph glyph-name="Wdieresis" unicode="&#x1e84;" horiz-adv-x="1959" 
d="M671 1423c-26.667 26 -40 59 -40 99c0 40.667 13.333 74 40 100s59.667 39 99 39s72 -13 98 -39s39 -59.333 39 -100c0 -38 -13 -70.5 -39 -97.5s-58.667 -40.5 -98 -40.5s-72.333 13 -99 39zM1080 1424c-26.667 26.667 -40 59.333 -40 98c0 40.667 13.333 74 40 100
s60 39 100 39c39.333 0 72 -13 98 -39s39 -59.333 39 -100c0 -38 -13 -70.5 -39 -97.5s-58.667 -40.5 -98 -40.5c-40 0 -73.333 13.333 -100 40zM344 1313l125.001 -412c35.333 -114.667 63 -213.334 83 -296.001s30 -126.667 30 -132c18 54.667 66.333 220.667 145 498
l90 307h328l180 -614l55 -191c0 5.33301 10 49.333 30 132s47.667 181.334 83 296.001l127 412h319l-417 -1313h-291l-78 258l-99.5 334.5c-37.667 129 -61.834 214.833 -72.501 257.5l-70.5 -256c-36.333 -130 -69.5 -242 -99.5 -336l-80 -258h-291l-417 1313h321z" />
    <glyph glyph-name="wdieresis" unicode="&#x1e85;" horiz-adv-x="1576" 
d="M490.5 1034c-26.333 26 -39.5 59 -39.5 99c0 40.667 13.167 74 39.5 100s59.5 39 99.5 39c39.333 0 72 -13 98 -39s39 -59.333 39 -100c0 -38 -13 -70.5 -39 -97.5s-58.667 -40.5 -98 -40.5c-40 0 -73.167 13 -99.5 39zM900 1035
c-26.667 26.667 -39.999 59.333 -39.999 98c0 40.667 13.333 74 40 100s59.667 39 99 39s72.166 -13 98.499 -39s39.5 -59.333 39.5 -100c0 -38 -13 -70.5 -39 -97.5s-59 -40.5 -99 -40.5c-39.333 0 -72.333 13.333 -99 40zM342.001 923.999l59.001 -211
c38 -136.667 66 -248 84 -334l138 471l16 55h303l61.5 -225c29 -108 56.167 -214.667 81.5 -320c20.667 90 51.667 205.667 93 347l63 217h303l-325 -924h-279c-66.667 224 -117.334 407.667 -152.001 551c-6.66699 -30 -24.667 -98.667 -54 -206s-63 -222.333 -101 -345
h-291l-309 924h309z" />
    <glyph glyph-name="Ygrave" unicode="&#x1ef2;" horiz-adv-x="1284" 
d="M268 1683l135 140l330 -348l-84 -89zM365 1313l131 -228c38 -66.667 71 -127 99 -181l52 -101c6.66699 15.333 24 49.833 52 103.5s61.333 113.167 100 178.5l133 228h336l-475 -801v-512h-301v512l-474 801h347z" />
    <glyph glyph-name="ygrave" unicode="&#x1ef3;" horiz-adv-x="1101" 
d="M174 1294l135 140l330 -349l-84 -88zM1081 924l-428 -1074c-23.333 -56 -48.833 -104.667 -76.5 -146s-68.834 -77.833 -123.501 -109.5s-123.667 -47.5 -207 -47.5c-56 0 -119 7.66699 -189 23l4 233c50.667 -9.33301 95.334 -14 134.001 -14
c46.667 0 83.5 6.5 110.5 19.5s47 29 60 48s24.833 43.5 35.5 73.5l17 41l-395 953h309l217 -605l229 605h303z" />
    <glyph glyph-name="endash" unicode="&#x2013;" horiz-adv-x="1894" 
d="M1749 621v-252h-1604v252h1604z" />
    <glyph glyph-name="emdash" unicode="&#x2014;" horiz-adv-x="2351" 
d="M2206 621v-252h-2061v252h2061z" />
    <glyph glyph-name="quoteleft" unicode="&#x2018;" horiz-adv-x="524" 
d="M393 1027c27.333 -26.667 41 -61.667 41 -105c0 -46.667 -15.333 -84.667 -46 -114s-70.667 -44 -120 -44c-53.333 0 -96.333 19.167 -129 57.5s-49 88.833 -49 151.5c0 88.667 30.333 163 91 223s141.667 94.667 243 104v-75
c-60 -6.66699 -106.833 -26.167 -140.5 -58.5s-50.5 -69.5 -50.5 -111.5c16.667 8 36 12 58 12c40.667 0 74.667 -13.333 102 -40z" />
    <glyph glyph-name="quoteright" unicode="&#x2019;" horiz-adv-x="524" 
d="M385 1267.5c32.667 -38.333 48.999 -88.833 48.999 -151.5c0 -88.667 -30 -163 -90 -223s-141.333 -95 -244 -105v76c61.333 6.66699 108.5 26.167 141.5 58.5s49.5 69.5 49.5 111.5c-16.667 -8 -36 -12 -58 -12c-39.333 0 -72.666 13.333 -99.999 40s-41 61.667 -41 105
c0 46.667 15 84.667 45 114s69.667 44 119 44c53.333 0 96.333 -19.167 129 -57.5z" />
    <glyph glyph-name="quotesinglbase" unicode="&#x201a;" horiz-adv-x="555" 
d="M397 260l-237 -534h-146l92 534h291z" />
    <glyph glyph-name="quotedblleft" unicode="&#x201c;" horiz-adv-x="944" 
d="M393 1028c27.333 -27.333 40.998 -62.665 40.998 -105.998c0 -45.333 -15.667 -83 -47 -113s-71.666 -45 -120.999 -45c-53.333 0 -96 18.833 -128 56.5s-48 88.5 -48 152.5c0 86 29.333 159.667 88 221s139.334 96.666 242.001 105.999v-75
c-56 -6.66699 -101.167 -25.834 -135.5 -57.501s-51.5 -68.5 -51.5 -110.5c22 8 41.333 12 58 12c40.667 0 74.667 -13.667 102 -41zM814.998 1028c27.333 -27.333 41.001 -62.668 41.001 -106.001c0 -45.333 -15.333 -83 -46 -113s-70 -45 -118 -45
c-54.667 0 -98.334 19.167 -131.001 57.5s-49 88.833 -49 151.5c0 88.667 30.667 163.334 92 224.001s141.333 95 240 103v-75c-57.333 -6.66699 -102.833 -25.167 -136.5 -55.5s-51.167 -67.833 -52.5 -112.5c18 8 37.333 12 58 12c40.667 0 74.667 -13.667 102 -41z" />
    <glyph glyph-name="quotedblright" unicode="&#x201d;" horiz-adv-x="948" 
d="M385 1267.5c32.667 -38.333 48.999 -88.833 48.999 -151.5c0 -88.667 -30 -163 -90 -223s-141.333 -95 -244 -105v76c61.333 6.66699 108.5 26.167 141.5 58.5s49.5 69.5 49.5 111.5c-16.667 -8 -36 -12 -58 -12c-39.333 0 -72.666 13.333 -99.999 40s-41 61.667 -41 105
c0 46.667 15 84.667 45 114s69.667 44 119 44c53.333 0 96.333 -19.167 129 -57.5zM806.999 1267.5c32.667 -38.333 49.001 -88.833 49.001 -151.5c0 -90 -30.333 -165 -91 -225s-140.334 -94.333 -239.001 -103v76c60 6.66699 106.167 26.167 138.5 58.5
s49.166 69.5 50.499 111.5c-19.333 -8 -38.666 -12 -57.999 -12c-39.333 0 -73 13.333 -101 40s-42 61.667 -42 105c0 46.667 15.333 84.667 46 114s70 44 118 44c53.333 0 96.333 -19.167 129 -57.5z" />
    <glyph glyph-name="quotedblbase" unicode="&#x201e;" horiz-adv-x="1013" 
d="M492 260l-222 -534h-237l186 534h273zM911 260l-260 -534h-239l225 534h274z" />
    <glyph glyph-name="dagger" unicode="&#x2020;" horiz-adv-x="856" 
d="M772 541h-260v-293h-166v293h-262v153h262v619h166v-619h260v-153z" />
    <glyph glyph-name="daggerdbl" unicode="&#x2021;" horiz-adv-x="786" 
d="M477 903v-209h207v-157h-207v-254h-166v254h-209v157h209v209h-209v156h209v254h166v-254h207v-156h-207z" />
    <glyph glyph-name="bullet" unicode="&#x2022;" horiz-adv-x="1077" 
d="M339 223c-60.667 34 -108.5 80.5 -143.5 139.5s-52.5 124.5 -52.5 196.5c0 72.667 17.5 139.334 52.5 200.001s82.833 108.667 143.5 144s128 53 202 53s140.833 -17.667 200.5 -53s106.667 -83 141 -143s51.5 -127 51.5 -201c0 -70.667 -17.167 -135.834 -51.5 -195.501
s-81.5 -106.5 -141.5 -140.5s-126.667 -51 -200 -51c-74 0 -141.333 17 -202 51z" />
    <glyph glyph-name="ellipsis" unicode="&#x2026;" horiz-adv-x="1595" 
d="M159 15.5c-33.333 33.667 -50 72.833 -50 117.5c0 45.333 16.667 85 50 119s73.333 51 120 51c45.333 0 85 -17 119 -51s51 -73.667 51 -119c0 -44 -17.167 -83 -51.5 -117s-73.833 -51 -118.5 -51c-46.667 0 -86.667 16.833 -120 50.5zM679 15.499
c-33.333 33.667 -50.001 72.833 -50.001 117.5c0 45.333 16.667 85 50 119s73.333 51 120 51c44 0 83 -17 117 -51s51 -73.667 51 -119c0 -44 -17.167 -83 -51.5 -117s-73.166 -51 -116.499 -51c-46.667 0 -86.667 16.833 -120 50.5zM1195 15.498
c-33.333 33.667 -50.001 72.833 -50.001 117.5c0 45.333 16.667 85 50 119s72.666 51 117.999 51c46.667 0 87.334 -17 122.001 -51s52 -73.667 52 -119c0 -44 -17.5 -83 -52.5 -117s-75.5 -51 -121.5 -51c-45.333 0 -84.666 16.833 -117.999 50.5z" />
    <glyph glyph-name="perthousand" unicode="&#x2030;" horiz-adv-x="2299" 
d="M122 1238c26.667 47.333 63.832 85.002 111.499 113.002s102.167 42 163.5 42c62.667 0 118.334 -14 167.001 -42s86 -65.333 112 -112s39 -97.334 39 -152.001c0 -53.333 -12.667 -102.833 -38 -148.5s-61.833 -82.5 -109.5 -110.5s-102.5 -42 -164.5 -42
c-62.667 0 -118.5 14 -167.5 42s-86.833 65.333 -113.5 112s-40 95.667 -40 147c0 53.333 13.333 103.666 40 150.999zM177.998 0.00195312l1039 1368h204l-1038 -1368h-205zM307.998 1000.5c24 -23.667 54.999 -35.5 92.999 -35.5c36.667 0 66.334 11.833 89.001 35.5
s34 52.5 34 86.5c0 35.333 -11.167 65.333 -33.5 90s-52.833 37 -91.5 37c-38 0 -69 -11.833 -93 -35.5s-35.333 -53.167 -34 -88.5c0 -36 12 -65.833 36 -89.5zM901.997 419.502c26.667 46.333 64.168 83.5029 112.501 111.503s103.5 42 165.5 42
c61.333 0 116.166 -13.5 164.499 -40.5s85.833 -63.833 112.5 -110.5s40 -97.334 40 -152.001s-13 -104.834 -39 -150.501s-62.833 -82.167 -110.5 -109.5s-102.167 -41 -163.5 -41c-62.667 0 -118.667 14 -168 42s-87.333 64.833 -114 110.5s-40 95.167 -40 148.5
s13.333 103.166 40 149.499zM1623 419.505c26.667 46.333 63.835 83.498 111.502 111.498s102.167 42 163.5 42c62.667 0 118.334 -14 167.001 -42s86 -65.167 112 -111.5s39 -96.166 39 -149.499s-12.667 -103.166 -38 -149.499s-61.833 -83.166 -109.5 -110.499
s-102.834 -41 -165.501 -41s-118.334 14 -167.001 42s-86.334 64.833 -113.001 110.5s-40 95.167 -40 148.5s13.333 103.166 40 149.499zM1088.5 183.003c25 -24 55.5 -35.999 91.5 -35.999c38 0 68.333 12 91 36s34 53 34 87c0 35.333 -11.333 65 -34 89s-53 36 -91 36
s-69 -11.833 -93 -35.5s-36 -52.834 -36 -87.501c0 -35.333 12.5 -65 37.5 -89zM1810.5 182.004c23 -23.333 53.833 -35.001 92.5 -35.001c36.667 0 66.167 12 88.5 36s33.5 53 33.5 87c0 35.333 -11.167 65 -33.5 89s-52.5 36 -90.5 36s-68.333 -11.833 -91 -35.5
s-34 -53.5 -34 -89.5c0 -35.333 11.5 -64.666 34.5 -87.999z" />
    <glyph glyph-name="minute" unicode="&#x2032;" horiz-adv-x="419" 
d="M104 1282c27.333 28.667 63 43.001 107 43.001c42 0 76.667 -14.333 104 -43s41 -65.667 41 -111c0 -10.667 -2 -24.334 -6 -41.001l-100 -473h-80l-100 469c-4 24.667 -6.33301 39.667 -7 45c0 45.333 13.667 82.333 41 111z" />
    <glyph glyph-name="guilsinglleft" unicode="&#x2039;" horiz-adv-x="710" 
d="M444 463l220 -391h-314l-221 391l221 387h314z" />
    <glyph glyph-name="guilsinglright" unicode="&#x203a;" horiz-adv-x="710" 
d="M582 463l-222 -391h-313l217 391l-217 387h313z" />
    <glyph glyph-name="uni2042" unicode="&#x2042;" horiz-adv-x="1841" 
d="M969 1063c10.667 -52 16 -100.335 16 -145.002v-134h-133v134c0 42 5.33301 90.333 16 145c-36.667 -34 -76 -62.667 -118 -86l-113 -68l-68 117l115 66c40.667 24.667 85.667 44.334 135 59.001c-48 12 -93 30.333 -135 55l-115 68l68 115l113 -66
c48 -26 87.333 -54.667 118 -86c-10.667 52 -16 100.333 -16 145v134h133v-134c0 -45.333 -5.33301 -93.666 -16 -144.999c32.667 31.333 72 60 118 86l115 66l66 -115l-113 -68c-44 -24.667 -89 -43 -135 -55c53.333 -18 98.333 -37.667 135 -59l113 -66l-66 -117l-115 68
c-38 22 -77.333 50.667 -118 86zM674 398.998c-40.667 -23.333 -85.002 -41.666 -133.002 -54.999c50.667 -16.667 95 -36.334 133 -59.001l114 -66l-67 -117l-113 68c-45.333 26 -85 54.667 -119 86c10.667 -52 16.334 -100.333 17.001 -145v-134h-133v134
c0 45.333 5.33301 93.666 16 144.999c-40.667 -35.333 -80.334 -64 -119.001 -86l-114 -68l-66 117l115 66c38 23.333 82.333 43 133 59c-48 13.333 -92.333 31.666 -133 54.999l-115 68l66 115l114 -66c46.667 -26 86.334 -54.667 119.001 -86
c-10.667 52 -16 100.333 -16 145v134h133v-134c0 -45.333 -5.66699 -93.666 -17 -144.999c28.667 28.667 68.334 57.334 119.001 86.001l113 66l67 -115zM1634 284.998l113.001 -66.001l-66 -117l-114 68c-42 23.333 -81 52 -117 86c9.33301 -45.333 14 -93.666 14 -144.999
v-134h-131v134c0 56 5.66699 104.333 17 145c-40.667 -35.333 -80.334 -64 -119.001 -86l-115 -68l-65 117l112 66c40.667 24.667 85.667 44.334 135 59.001c-48 12 -93 30.333 -135 55l-112 68l65 115l115 -66c46.667 -26 86.334 -54.667 119.001 -86
c-10.667 40.667 -16.334 89 -17.001 145v134h131v-134c0 -52 -4.66699 -100.333 -14 -145c30 30 69 58.667 117 86l114 66l66 -115l-113 -68c-42 -24.667 -87 -43 -135 -55c49.333 -14.667 94.333 -34.334 135 -59.001z" />
    <glyph glyph-name="fraction" unicode="&#x2044;" horiz-adv-x="1191" 
d="M76 0l915 1399l125 -80l-917 -1395z" />
    </font>
</defs>
</svg>
