<svg width="1057" height="812" fill="none" xmlns="http://www.w3.org/2000/svg"><g opacity=".67"><path d="M321.055 365.954l-18.135 6.045 17.798-11.187c-.145-1.707-.325-3.428-.542-5.162l-9.576 1.842 9.063-5.61c-2.073-13.368-6.688-30.146-13.02-47.271l-35.298 13.624 33.731-17.785c-8.857-23.009-20.691-46.186-33.534-62.17l-18.972 13.391 15.127-17.929c-11.687-12.998-24.029-19.615-35.609-14.5-14.069 6.217-18.101 36.36-13.769 72.708l9.502-.169-9.291 1.859c1.999 15.907 5.579 32.932 10.603 49.627l36.238-12.231-34.599 17.513c7.653 23.861 18.257 46.695 31.404 64.193l14.288-14.287-11.608 17.735c11.07 13.757 23.828 23.731 38.064 27.494 0 0 20.144-33.853 18.135-77.73z" fill="#03673D"/><path d="M304.996 443.684s20.144-33.853 18.135-77.73l-18.135 6.045 17.798-11.187c-.146-1.707-.325-3.428-.542-5.162l-9.576 1.842 9.063-5.61c-2.073-13.368-6.688-30.146-13.02-47.269l-35.298 13.622 33.731-17.783c-8.857-23.011-20.692-46.188-33.534-62.172l-18.973 13.393 15.128-17.931c-11.687-12.998-24.029-19.615-35.609-14.5 0 0 52.675 125.573 69.808 224.143.342.096.681.208 1.024.299z" fill="#04AD66"/><path d="M293.668 471.274l-13.42 3.132 12.256-6.64c-1.261-3.601-2.766-7.357-4.576-11.282-3.727-8.073-9.059-17.31-15.236-26.242l-12.073 9.174 8.505-14.173c-18.725-25.381-43.339-45.902-55.44-25.935-4.974 8.205-5.302 21.268-1.868 35.953l27.468-.964-26.481 4.854c2.742 10.021 7.144 20.639 12.946 30.891l9.27-4.17-7.987 6.389c6.114 10.381 13.662 20.3 22.366 28.737l18.901-20.617-16.288 23.074c11.449 10.428 24.748 18.254 39.331 21.301 0 0 13.272-18.616 2.326-53.482z" fill="#10794D"/><path d="M290.26 524.506c.362.082.721.174 1.085.249 0 0 13.273-18.616 2.326-53.48l-13.421 3.131 12.257-6.64c-1.261-3.601-2.766-7.357-4.577-11.281-3.725-8.073-9.058-17.31-15.235-26.244l-12.073 9.176 8.504-14.173c-17.649-23.927-40.529-43.517-53.233-28.964 10.175 13.721 53.048 73.158 74.367 128.226z" fill="#04AD66"/><path d="M252.343 509.605c-7.492-7.077-20.86-15.765-36.379-23.751-6.73 9.944-14.243 21.174-15.536 23.634-.185.439-.254.59-.17.364.029-.084.088-.208.17-.364 1.088-2.579 6.355-15.564 10.622-26.101-9.31-4.569-19.221-8.813-28.998-12.275l-5.322 25.249 2.452-26.244c-30.49-10.343-58.919-12.577-62.539 7.45-1.001 5.535.94 11.685 5.099 18.122 11.687-.684 28.592-1.781 28.592-1.781l-24.646 7.162c9.039 11.138 23.888 22.844 41.106 33.541l14.791-28.707-12.09 30.36c18.135 11.002 38.607 20.817 57.539 27.68 1.606-7.08 2.78-12.21 2.78-12.21l.239 13.281c3.644 1.273 7.22 2.427 10.703 3.456l1.566-6.123 1.027 6.868c17.341 4.863 32.086 6.379 40.534 2.853 0 0 6.718-26.324-31.54-62.464z" fill="#007248"/><path d="M357.356 320.595c18.27-45.005 43.26-54.4 53.472-53.472 16.934-2.227 17.824 27.293 16.152 42.332h-25.622l25.622 5.013c-.446 24.063-6.87 49.759-10.026 59.599l-31.749-6.127 31.749 10.583c-8.021 30.301-20.052 58.3-25.065 68.511l-32.306-15.039 30.635 18.381-3.899 6.684-8.912-1.671 7.798 3.899c-13.813 28.073-39.547 39.547-50.687 41.775-9.357-11.14-12.068-32.491-12.254-41.775l16.71-3.899h-16.71c-1.782-16.041 3.713-43.817 6.684-55.7l12.811 5.57-12.254-8.355 1.671-5.57 27.293 8.355-25.065-15.596c2.674-15.596 15.596-46.231 21.723-59.599l17.267 2.228-15.038-6.127z" fill="#096B42"/><path d="M385.474 460.233c-14.102 27.788-39.748 39.574-50.808 41.994 16.59-114.473 60.486-204.269 80.359-234.857 13.687 2.489 13.999 29.724 12.443 43.031l-25.404-1.037 25.404 4.666c-1.659 27.374-6.912 51.845-9.332 60.659l-34.217-7.259 32.662 10.888c-7.881 34.01-19.874 60.14-24.886 68.953l-31.625-15.553 30.588 18.664-4.147 7.258-8.814-2.073 7.777 4.666z" fill="#0EA867"/><path fill-rule="evenodd" clip-rule="evenodd" d="M317.606 662.193c0 .002 0 .003-.665-.042l.665.045c-.023.351-.315.623-.667.622-.352-.001-.642-.276-.663-.627-2.568-43.076-19.552-76.042-41.614-101.097-21.721-23.589-47.346-40.957-72.635-53.72.029-.046.058-.093.087-.14-16.772-8.34-31.182-13.583-39.513-16.614l-.001-.001c-1.906-.693-3.494-1.271-4.719-1.744-15.132-5.019-29.041-8.508-40.551-10.911.013-.104.023-.209.033-.314.016-.17.031-.34.062-.507 3.588-19.311 31.884-17.131 62.238-7.129l-2.359 24.726c.021.008.043.017.065.026l5.152-23.791c9.734 3.349 19.602 7.451 28.874 11.864-3.446 8.257-7.543 18.062-9.536 22.782.323.16.647.32.972.482 2.833-4.406 8.725-13.012 14.122-20.821 15.647 7.886 29.125 16.462 36.679 23.447 38.576 35.669 31.822 61.626 31.822 61.626-.374.153-.765.294-1.167.424 16.339 21.65 28.717 48.47 32.475 81.546.235-5.832.493-14.113.614-24.412.252-21.5-.092-51.793-2.475-86.96-4.769-70.344-17.698-160.142-50.319-238.071-.142-.339.018-.73.358-.872.339-.142.73.018.872.357 32.703 78.125 45.646 168.09 50.419 238.496 2.386 35.208 2.731 65.537 2.478 87.065-.126 10.764-.402 19.329-.646 25.203-.122 2.938-.236 5.202-.32 6.734-.042.765-.076 1.347-.1 1.739-.007.131-.014.24-.02.328l-.007.114-.007.112-.002.028-.001.007z" fill="#128E5A"/><path d="M243.549 435.15s73.391 102.406 73.391 227.001c11.095-217.613 67.497-336.196 67.497-336.196" stroke="#014D2D" stroke-miterlimit="10" stroke-linecap="round" stroke-linejoin="round"/><path d="M340.91 627.692h-58.866s-15.849 125.484 35.093 140.049c50.941 14.565 23.773-140.049 23.773-140.049z" fill="#F52D29"/><path d="M351.259 627.692h-55.192s-12.488 125.484 27.649 140.049c63.834 7.19 27.543-140.049 27.543-140.049z" fill="#F80700"/></g><g opacity=".76"><path d="M363.782 40.1785h-19.039V115.1h19.039V40.1785z" fill="#FF1F55"/><path d="M386.347 40.1785h-19.038V115.1h19.038V40.1785z" fill="#FFC702"/><path d="M400.418 41.5193l-16.126 10.1238 39.878 63.4579 16.127-10.123-39.879-63.4587z" fill="#3D99EE"/><path d="M548.976 131.616H343.524c-4.382 0-8.585-1.74-11.684-4.838-3.099-3.097-4.84-7.298-4.84-11.678h238.498c0 4.38-1.74 8.58-4.839 11.678-3.098 3.097-7.301 4.837-11.683 4.838z" fill="#6F2A1A"/><path d="M552.884 42.9529h-90.959v72.1461h90.959V42.9529z" fill="#BDD8F5"/><path d="M546.804 50.0396h-78.792v57.9584h78.792V50.0396z" fill="#FB4C47"/><path d="M507.407 97.6165c10.272 0 18.599-8.3231 18.599-18.5902s-8.327-18.5903-18.599-18.5903c-10.273 0-18.6 8.3232-18.6 18.5903s8.327 18.5902 18.6 18.5902z" fill="#FFC700"/><path d="M529.856 107.998h-61.844V80.2463c10.676-.4041 26.445.8937 41.344 9.4542 8.029 4.6118 15.011 10.8435 20.5 18.2975z" fill="#1DB776"/><path d="M546.801 69.8809v38.1181h-49.584c3.177-6.632 7.261-12.7904 12.136-18.2978 8.464-9.514 20.54-17.7101 37.448-19.8203z" fill="#11915B"/><path d="M375.235 145.954h-14.826l2.048-30.855h10.73l2.048 30.855zM532.094 145.954h-14.826l2.048-30.855h10.73l2.048 30.855z" fill="#592A3C"/><path d="M843.914 98.9117H632.482V.00024414h211.432V98.9117zm-202.366-9.0592H834.85V9.06189H641.545l.003 80.79061z" fill="#925C50"/><path d="M834.85 9.06201H641.546V89.8526H834.85V9.06201z" fill="#fff"/><path d="M684.531 68.8182c16.289-3.8144 26.4-20.1047 22.583-36.3855-3.816-16.2807-20.115-26.38664-36.404-22.57222-16.289 3.81442-26.4 20.10472-22.583 36.38552 3.816 16.2807 20.115 26.3867 36.404 22.5722z" fill="#FFC700"/><path d="M641.546 64.3461L699.01 38.697c4.578-2.0439 9.627-2.7993 14.604-2.185 4.976.6144 9.689 2.5753 13.632 5.6711l60.729 47.6687H641.548l-.002-25.5057z" fill="#11915B"/><path d="M741.877 53.6689l43.284-14.303c4.629-1.5296 9.581-1.8036 14.35-.7941 4.769 1.0094 9.185 3.2662 12.795 6.5397l22.543 20.437v24.309h-46.876l-46.096-36.1886z" fill="#1DB776"/></g><path opacity=".89" d="M528.971 238.419c-1.97-.057-3.673 1.462-4.155 3.55-3.058.239-6.548.32-10.377.077-2.141-.138-4.166-.361-6.065-.638.01-.366.017-.735.017-1.104 0-1.796-.126-3.561-.371-5.288.965-.743 2.175-1.523 3.636-2.193 2.538-1.169 4.917-1.584 6.745-1.704.9 2.051 2.959 3.242 4.94 2.724 2.226-.585 3.496-3.112 2.841-5.647-.656-2.534-2.99-4.119-5.216-3.534-2.028.534-3.265 2.681-2.973 4.977-1.604.915-3.986 1.907-6.935 1.981-1.461.038-2.735-.158-3.768-.412-.656-2.681-1.601-5.25-2.8-7.673 1.271-1.154 2.773-2.377 4.533-3.558 2.548-1.715 5.005-2.942 7.162-3.823 1.407 1.654 3.653 2.204 5.382 1.196 1.988-1.154 2.552-3.935 1.254-6.203-1.301-2.27-3.975-3.17-5.963-2.012-1.733 1.004-2.378 3.235-1.665 5.288-1.852 1.447-4.132 2.973-6.867 4.335-1.862.931-3.642 1.638-5.253 2.177-1.315-2.22-2.861-4.289-4.59-6.177.666-2.431 1.79-5.27 3.707-8.115 1.797-2.662 3.798-4.604 5.497-5.97 1.869 1.166 4.22.985 5.559-.55 1.522-1.738 1.172-4.55-.781-6.281-1.951-1.734-4.768-1.73-6.283.008-1.345 1.535-1.233 3.9.156 5.627-1.097 1.823-2.755 4.085-5.195 6.238-2.688 2.378-5.392 3.801-7.448 4.647-2.338-1.804-4.889-3.335-7.618-4.546.398-1.104.921-2.216 1.607-3.308.551-.865 1.142-1.627 1.743-2.292 2.08.85 4.401.238 5.447-1.543 1.179-1.988.319-4.688-1.92-6.027-2.235-1.338-5.001-.811-6.177 1.181-1.03 1.75-.486 4.05 1.176 5.488-.347.923-.768 1.882-1.268 2.858-.571 1.123-1.196 2.158-1.852 3.116-.275-.112-.553-.22-.829-.319-3.251-1.223-6.71-1.996-10.315-2.258-.592-1.608-1.108-3.389-1.468-5.346-.738-3.993-.602-7.469-.262-10.079 2.12-.409 3.711-2.085 3.711-4.095 0-2.315-2.111-4.192-4.713-4.192-2.6 0-4.71 1.877-4.71 4.192 0 2.044 1.648 3.744 3.819 4.116.473 2.571.782 6.172.051 10.346-.322 1.837-.798 3.512-1.355 5.027-3.456.197-6.782.869-9.925 1.951-.439-.699-.829-1.432-1.179-2.298-.697-1.714-.999-3.321-1.118-4.659 2.032-1.065 3.082-3.301 2.361-5.279-.785-2.175-3.408-3.209-5.851-2.31s-3.785 3.39-2.997 5.565c.68 1.877 2.725 2.901 4.846 2.57.618 1.28 1.209 2.757 1.678 4.433.245.888.432 1.756.574 2.606-2.85 1.137-5.528 2.621-7.985 4.396-1.294-.942-2.616-2.035-3.921-3.316-3.007-2.949-5.015-5.974-6.333-8.397 1.461-1.627 1.716-3.956.492-5.561-1.403-1.835-4.209-2.029-6.272-.432-2.062 1.596-2.599 4.379-1.196 6.214 1.237 1.623 3.575 1.96 5.521.915 1.907 1.717 4.377 4.426 6.293 8.319.874 1.78 1.485 3.512 1.91 5.127-.394.365-.788.741-1.169 1.125-1.923 1.937-3.636 4.082-5.107 6.404-.866-.252-1.763-.555-2.681-.928-2.993-1.212-5.311-2.756-6.989-4.102.713-2.093.02-4.352-1.757-5.331-2.015-1.113-4.662-.153-5.912 2.144-1.25 2.298-.632 5.063 1.386 6.175 1.774.979 4.03.353 5.403-1.373 2.038.71 4.573 1.849 7.196 3.718.782.559 1.502 1.133 2.168 1.711-2.076 3.764-3.523 7.924-4.213 12.341-1.794.155-3.728.228-5.8.164-2.96-.092-5.634-.441-7.968-.896-.054-2.31-1.59-4.244-3.673-4.464-2.284-.241-4.36 1.675-4.628 4.281-.275 2.605 1.362 4.913 3.646 5.155 2.035.215 3.897-1.281 4.475-3.449 2.399.049 5.09.265 8.005.77 2.015.349 3.887.795 5.61 1.291-.082 1.003-.122 2.017-.122 3.043 0 2.437.227 4.82.669 7.129-1.981 1.321-4.72 2.82-8.199 3.873-3.051.923-5.8 1.237-7.988 1.304-.785-2.054-2.739-3.335-4.72-2.95-2.256.439-3.69 2.88-3.194 5.452.493 2.573 2.722 4.302 4.981 3.863 1.951-.379 3.279-2.255 3.286-4.419 2.243-.734 4.886-1.422 7.897-1.872 3.462-.515 6.564-.588 9.174-.474 1.05 3.187 2.518 6.182 4.329 8.924-.853.681-1.811 1.354-2.878 1.983-2.056 1.204-4.027 1.954-5.736 2.438-1.162-1.861-3.323-2.734-5.188-1.974-2.131.869-3.072 3.542-2.09 5.969.612 1.523 1.835 2.592 3.187 2.958.799.219 1.645.192 2.436-.131.238-.096.459-.215.663-.358 1.56-1.038 2.219-3.189 1.56-5.241 1.617-.841 3.506-1.673 5.688-2.359 1.396-.441 2.731-.761 3.989-1.001 1.145 1.491 2.402 2.891 3.754 4.183.129.122.255.245.384.361-.914 2.054-2.29 4.55-4.366 7.081-2.032 2.476-4.145 4.28-5.922 5.553-1.784-1.273-4.119-1.246-5.556.181-1.634 1.627-1.478 4.458.353 6.323 1.825 1.862 4.638 2.054 6.273.427 1.417-1.411 1.488-3.734.278-5.539 1.4-1.834 3.225-3.903 5.556-5.946 2.501-2.192 4.971-3.815 7.122-5.011 2.847 2.038 5.994 3.688 9.354 4.869-.136 1.273-.364 2.646-.734 4.088-.805 3.143-2.018 5.662-3.119 7.516-2.154-.435-4.285.557-5.015 2.457-.829 2.158.465 4.674 2.891 5.62 2.426.947 5.066-.038 5.895-2.2.724-1.877-.163-4.023-2.001-5.169.52-2.235 1.339-4.877 2.644-7.715.638-1.385 1.318-2.647 2.015-3.797 2.585.704 5.283 1.135 8.063 1.254.455 2.192.822 4.646.999 7.327.265 3.988.051 7.519-.327 10.435-2.113.413-3.69 2.089-3.69 4.092 0 2.314 2.11 4.192 4.713 4.192s4.71-1.878 4.71-4.192c0-1.996-1.57-3.669-3.67-4.089-.354-2.981-.547-6.503-.347-10.438.14-2.654.439-5.104.819-7.319 2.905-.112 5.725-.562 8.42-1.312.231.4.462.815.68 1.242 1.461 2.82 2.249 5.462 2.677 7.578-1.876 1.095-2.827 3.226-2.158 5.126.775 2.181 3.385 3.235 5.841 2.358 2.45-.881 3.809-3.362 3.038-5.543-.683-1.934-2.82-2.98-5.005-2.58-1.002-1.735-2.168-4.354-2.572-7.708-.051-.415-.089-.823-.112-1.223 3.003-1.046 5.827-2.473 8.423-4.219 1.678 1.373 3.445 3.012 5.202 4.958 2.698 2.992 4.658 5.942 6.075 8.449-1.437 1.624-1.688 3.935-.469 5.531 1.404 1.835 4.207 2.027 6.273.431 2.062-1.596 2.603-4.377 1.199-6.216-1.213-1.584-3.476-1.945-5.399-.98-2.069-2.112-4.363-4.785-6.575-8.069-1.43-2.123-2.609-4.185-3.584-6.119 1.046-.85 2.048-1.754 2.996-2.712 1.56-1.569 2.984-3.273 4.241-5.096 2.324.654 5.012 1.611 7.859 3.05 2.746 1.381 5.032 2.9 6.877 4.315-.7 2.054-.034 4.277 1.696 5.269 1.998 1.151 4.658.235 5.953-2.038 1.291-2.277.717-5.05-1.281-6.2-1.747-1.004-4.003-.431-5.406 1.254-2.059-.789-4.557-1.985-7.146-3.819-2.691-1.904-4.719-3.946-6.194-5.708.996-1.877 1.835-3.85 2.504-5.904 1.118.039 2.294.139 3.52.323 3.143.477 5.763 1.374 7.778 2.266-.173 2.192 1.057 4.2 3.011 4.703 2.222.577 4.556-1.011 5.205-3.55.646-2.538-.635-5.061-2.858-5.638-1.964-.508-4.006.662-4.906 2.681-2.144-.177-4.883-.65-7.88-1.82-1.141-.445-2.191-.942-3.149-1.461.479-1.904.815-3.862.988-5.869 1.937-.158 4-.258 6.164-.262 3.829-.011 7.302.265 10.353.673.367 2.112 1.981 3.72 3.952 3.781 2.297.065 4.223-2.004 4.295-4.623.075-2.619-1.726-4.796-4.027-4.862z" fill="#FA5752" fill-opacity=".82"/><path opacity=".93" d="M182.81 134.743c-3.029-.089-5.644 2.257-6.386 5.481-4.699.369-10.061.493-15.945.119-3.289-.213-6.401-.558-9.319-.986.015-.564.026-1.134.026-1.704 0-2.773-.194-5.499-.569-8.165 1.482-1.146 3.341-2.352 5.586-3.386 3.9-1.804 7.555-2.446 10.364-2.63 1.383 3.166 4.547 5.006 7.591 4.205 3.42-.903 5.373-4.805 4.365-8.718-1.008-3.913-4.594-6.36-8.014-5.457-3.117.825-5.018 4.139-4.569 7.684-2.464 1.413-6.124 2.945-10.656 3.058-2.245.06-4.203-.244-5.79-.636-1.008-4.138-2.459-8.106-4.302-11.847 1.953-1.781 4.26-3.67 6.965-5.493 3.916-2.648 7.69-4.543 11.006-5.902 2.161 2.553 5.612 3.402 8.27 1.846 3.054-1.781 3.921-6.075 1.926-9.5781-1.999-3.5042-6.108-4.8936-9.162-3.1064-2.663 1.55-3.655 4.995-2.559 8.1658-2.845 2.2332-6.349 4.5907-10.552 6.6927-2.861 1.437-5.597 2.53-8.071 3.361-2.021-3.427-4.396-6.621-7.054-9.537 1.023-3.753 2.752-8.1363 5.696-12.5301 2.762-4.1096 5.837-7.1082 8.448-9.2172 2.871 1.7999 6.484 1.5205 8.542-.8489 2.339-2.6838 1.801-7.0248-1.201-9.6974-2.997-2.6779-7.325-2.6721-9.654.0116-2.068 2.37-1.895 6.0221.24 8.6884-1.686 2.8147-4.234 6.3062-7.983 9.6318-4.13 3.6706-8.286 5.8678-11.444 7.1743-3.593-2.7857-7.514-5.1493-11.706-7.0195.611-1.7043 1.415-3.4207 2.469-5.107.846-1.3361 1.755-2.5126 2.679-3.5391 3.195 1.3123 6.761.3672 8.369-2.382 1.812-3.07.491-7.2387-2.95-9.3054-3.435-2.0667-7.685-1.2531-9.492 1.8231-1.582 2.7023-.746 6.2529 1.807 8.4739-.533 1.4253-1.18 2.9045-1.948 4.4123-.877 1.7344-1.837 3.332-2.845 4.8107-.423-.1722-.851-.3387-1.274-.4924-4.996-1.8887-10.312-3.0821-15.8511-3.4868-.9084-2.4819-1.702-5.2327-2.2555-8.254-1.1329-6.1652-.9241-11.5312-.402-15.561 3.258-.6313 5.7016-3.2205 5.7016-6.3226 0-3.5745-3.2424-6.4727-7.2418-6.4727-3.9941 0-7.2364 2.8982-7.2364 6.4727 0 3.156 2.5322 5.7806 5.8685 6.3538.7257 3.9706 1.2008 9.5304.0783 15.9746-.496 2.8369-1.227 5.4224-2.0832 7.7622-5.3098.3033-10.4212 1.3408-15.2507 3.0129-.6735-1.0793-1.274-2.2125-1.8117-3.5491-1.0703-2.6462-1.535-5.1282-1.7178-7.1933 3.1222-1.6451 4.7355-5.0964 3.6287-8.15-1.2061-3.3583-5.2367-4.9554-8.9907-3.5676-3.7539 1.3879-5.8162 5.2349-4.6049 8.5927 1.0442 2.8983 4.1872 4.4795 7.4452 3.9681.9502 1.9763 1.8587 4.2559 2.5792 6.8446.3759 1.3714.663 2.7117.8823 4.023-4.3805 1.7565-8.4946 4.0467-12.2695 6.7875-1.9892-1.4534-4.0202-3.1413-6.0251-5.1197-4.6206-4.5534-7.7063-9.2235-9.732-12.9649 2.245-2.512 2.6366-6.1076.757-8.5853-2.1563-2.8343-6.4688-3.1339-9.638-.6683-3.1692 2.465-3.9942 6.7616-1.8379 9.5954 1.9005 2.5052 5.4926 3.0261 8.4843 1.4127 2.929 2.6504 6.7247 6.8329 9.6694 12.8439 1.3418 2.7492 2.2816 5.4229 2.9342 7.9165-.6056.5631-1.2113 1.1442-1.796 1.737-2.9552 2.9912-5.5866 6.3026-7.8473 9.8876-1.3313-.389-2.7097-.857-4.1194-1.433-4.5998-1.871-8.1605-4.256-10.7397-6.3335 1.0964-3.2321.0313-6.7199-2.6993-8.2313-3.0961-1.7181-7.1633-.2357-9.0846 3.3113-1.9214 3.5475-.9712 7.8165 2.1301 9.5335 2.7254 1.512 6.1922.546 8.3015-2.119 3.1327 1.095 7.0276 2.853 11.0582 5.74 1.2009.862 2.3077 1.749 3.3311 2.642-3.1901 5.811-5.4143 12.235-6.4742 19.055-2.7567.238-5.7275.351-8.9123.253-4.5476-.142-8.6565-.682-12.2434-1.384-.0835-3.566-2.4434-6.552-5.644-6.892-3.50851-.373-6.69859 2.585-7.11105 6.609-.42291 4.022 2.09363 7.586 5.60219 7.959 3.12746.332 5.98856-1.977 6.87616-5.324 3.6861.076 7.8212.408 12.3008 1.188 3.0961.54 5.9729 1.228 8.62 1.993-.1253 1.549-.188 3.115-.188 4.699 0 3.762.3498 7.442 1.0286 11.008-3.0439 2.039-7.2521 4.354-12.5985 5.978-4.6885 1.426-8.9123 1.911-12.2746 2.015-1.2061-3.172-4.20824-5.15-7.25212-4.556-3.46679.679-5.670073 4.447-4.907798 8.419.757054 3.972 4.182098 6.642 7.654108 5.964 2.99691-.586 5.03831-3.482 5.04871-6.822 3.4459-1.134 7.5079-2.197 12.1338-2.891 5.3202-.795 10.0871-.908 14.0968-.732 1.6133 4.921 3.8689 9.545 6.6517 13.778-1.3105 1.052-2.7828 2.091-4.4223 3.062-3.1587 1.86-6.1869 3.017-8.8131 3.764-1.7856-2.872-5.1062-4.221-7.9726-3.048-3.2736 1.343-4.7198 5.47-3.2109 9.217.9398 2.352 2.8193 4.002 4.8973 4.567 1.227.338 2.527.297 3.7435-.203.3655-.148.7049-.332 1.0181-.552 2.3965-1.602 3.4094-4.923 2.3965-8.093 2.4852-1.297 5.3881-2.582 8.7401-3.642 2.1458-.68 4.1977-1.175 6.1295-1.545 1.7595 2.303 3.6913 4.463 5.7693 6.458.1984.189.3915.379.5899.557-1.4044 3.172-3.519 7.026-6.709 10.933-3.1222 3.824-6.3697 6.61-9.1003 8.575-2.7411-1.965-6.3279-1.924-8.5365.279-2.5113 2.513-2.2711 6.883.543 9.763 2.8037 2.874 7.1268 3.171 9.6381.659 2.1772-2.179 2.2868-5.766.4281-8.551 2.1511-2.832 4.9548-6.028 8.5364-9.181 3.8427-3.385 7.6385-5.891 10.9434-7.737 4.3753 3.147 9.2099 5.694 14.3736 7.518-.2089 1.965-.5587 4.085-1.1277 6.312-1.2374 4.852-3.1014 8.742-4.793 11.604-3.3102-.671-6.5838.86-7.7063 3.794-1.2739 3.332.7153 7.216 4.4431 8.676 3.7279 1.463 7.7846-.058 9.0586-3.396 1.112-2.898-.2506-6.212-3.0752-7.981.7988-3.451 2.0571-7.53 4.062-11.913.9815-2.138 2.0257-4.085 3.096-5.862 3.9733 1.087 8.1188 1.753 12.3896 1.937.6996 3.384 1.2635 7.173 1.535 11.312.4073 6.158.0783 11.61-.5012 16.112-3.2475.637-5.6701 3.226-5.6701 6.318 0 3.573 3.2423 6.473 7.2416 6.473 3.9994 0 7.2366-2.9 7.2366-6.473 0-3.081-2.4123-5.665-5.6389-6.313-.543-4.602-.8406-10.042-.5326-16.117.2141-4.097.6735-7.88 1.2583-11.3 4.4642-.172 8.7972-.868 12.9382-2.025.355.617.71 1.258 1.044 1.917 2.245 4.354 3.456 8.434 4.114 11.7-2.882 1.692-4.344 4.981-3.315 7.915 1.19 3.367 5.2 4.995 8.975 3.641 3.764-1.36 5.852-5.191 4.667-8.558-1.049-2.986-4.333-4.602-7.69-3.984-1.541-2.679-3.331-6.723-3.953-11.902-.078-.64-.135-1.27-.172-1.887 4.615-1.616 8.954-3.819 12.943-6.515 2.579 2.12 5.294 4.65 7.993 7.655 4.146 4.62 7.159 9.175 9.336 13.046-2.209 2.507-2.595 6.075-.721 8.54 2.156 2.832 6.464 3.13 9.638.665 3.169-2.465 4-6.758 1.843-9.597-1.864-2.446-5.341-3.004-8.296-1.514-3.18-3.26-6.704-7.387-10.103-12.459-2.198-3.278-4.01-6.46-5.508-9.448 1.608-1.312 3.148-2.708 4.605-4.186 2.396-2.423 4.584-5.054 6.516-7.868 3.571 1.009 7.701 2.487 12.076 4.708 4.219 2.132 7.733 4.478 10.568 6.663-1.076 3.171-.053 6.604 2.605 8.136 3.07 1.776 7.158.362 9.147-3.147 1.984-3.516 1.102-7.798-1.968-9.573-2.684-1.55-6.15-.665-8.307 1.936-3.164-1.218-7.001-3.064-10.98-5.897-4.135-2.94-7.252-6.093-9.518-8.813 1.53-2.898 2.82-5.944 3.848-9.115 1.718.059 3.524.214 5.409.498 4.83.737 8.855 2.121 11.951 3.499-.266 3.384 1.624 6.484 4.626 7.262 3.415.89 7.002-1.562 7.999-5.481.992-3.92-.976-7.815-4.391-8.706-3.018-.784-6.156 1.022-7.539 4.139-3.295-.273-7.503-1.003-12.108-2.809-1.754-.688-3.367-1.455-4.84-2.256.736-2.94 1.253-5.963 1.519-9.062 2.976-.244 6.146-.398 9.471-.404 5.885-.018 11.221.409 15.909 1.039.564 3.261 3.044 5.742 6.072 5.838 3.53.1 6.49-3.095 6.6-7.139.114-4.044-2.653-7.405-6.187-7.506z" fill="#FA5752" fill-opacity=".9"/><path d="M1046.3 62.6161c-1.81-.0541-3.38 1.3679-3.82 3.3227-2.81.2233-6.01.2988-9.53.0721-1.97-.1294-3.83-.3385-5.57-.5976.01-.3421.01-.6876.01-1.0332 0-1.6814-.11-3.3336-.34-4.9499.89-.6947 2-1.4255 3.34-2.0523 2.33-1.094 4.52-1.4831 6.2-1.5946.82 1.919 2.72 3.0345 4.54 2.549 2.04-.5473 3.21-2.9125 2.61-5.285-.61-2.3721-2.75-3.8556-4.8-3.3083-1.86.5003-3 2.5093-2.73 4.6582-1.47.8571-3.66 1.7858-6.37 1.8544-1.34.0358-2.51-.148-3.46-.3856-.6-2.509-1.47-4.9141-2.57-7.1819 1.17-1.0799 2.55-2.2249 4.16-3.3301 2.34-1.6055 4.6-2.7539 6.58-3.578 1.29 1.5475 3.36 2.0625 4.95 1.119 1.82-1.0796 2.34-3.6827 1.15-5.8063-1.2-2.1243-3.65-2.9666-5.48-1.8832-1.59.9397-2.18 3.0281-1.53 4.9503-1.7 1.3538-3.8 2.7828-6.31 4.0574-1.71.8711-3.34 1.5334-4.82 2.0372-1.21-2.0772-2.63-4.0138-4.22-5.7813.61-2.2752 1.64-4.9324 3.4-7.596 1.66-2.4913 3.49-4.3092 5.06-5.5876 1.71 1.0911 3.87.9217 5.1-.5147 1.4-1.6269 1.08-4.2585-.72-5.8787-1.79-1.6234-4.38-1.6199-5.77.007-1.23 1.4367-1.13 3.6507.15 5.267-1.01 1.7064-2.54 3.823-4.78 5.8391-2.47 2.2251-4.95 3.5571-6.84 4.3491-2.15-1.6887-4.49-3.1216-7-4.2553.37-1.0332.85-2.0737 1.48-3.096.5-.8099 1.05-1.5231 1.6-2.1454 1.91.7955 4.04.2226 5-1.4441 1.09-1.861.3-4.3882-1.76-5.6411-2.05-1.2528-4.59-.7596-5.68 1.1053-.94 1.6381-.44 3.7906 1.09 5.137-.32.864-.71 1.7608-1.17 2.6748-.52 1.0514-1.1 2.0199-1.7 2.9163-.25-.1044-.51-.2053-.76-.2985-2.99-1.1449-6.167-1.8684-9.479-2.1137-.544-1.5046-1.018-3.1722-1.349-5.0038-.677-3.7374-.552-6.9904-.24-9.4333 1.948-.3827 3.409-1.9523 3.409-3.8329 0-2.16689-1.939-3.92384-4.33-3.92384-2.388 0-4.327 1.75695-4.327 3.92384 0 1.9132 1.514 3.5043 3.509 3.8518.434 2.4071.718 5.7775.047 9.6841-.297 1.7198-.734 3.2871-1.246 4.7056-3.174.1838-6.23.8128-9.118 1.8264-.402-.6543-.761-1.3412-1.083-2.1515-.64-1.6042-.918-3.1088-1.027-4.3607 1.867-.9973 2.831-3.0895 2.169-4.9406-.721-2.036-3.13-3.0041-5.375-2.1628-2.244.8413-3.477 3.1735-2.753 5.2091.624 1.7569 2.503 2.7155 4.451 2.4055.568 1.1981 1.112 2.58 1.542 4.1493.225.8314.397 1.6439.528 2.4388-2.619 1.0648-5.079 2.4532-7.336 4.1147-1.189-.881-2.403-1.9043-3.602-3.1037-2.763-2.7603-4.608-5.5914-5.819-7.8595 1.342-1.5228 1.577-3.7026.453-5.2046-1.289-1.7182-3.868-1.8998-5.763-.4051-1.894 1.4943-2.388 4.099-1.098 5.8169 1.136 1.5187 3.284 1.8345 5.072.8564 1.751 1.6067 4.021 4.1422 5.781 7.7862.803 1.6666 1.364 3.2875 1.755 4.7991-.362.3414-.725.6937-1.074 1.053-1.767 1.8134-3.34 3.8211-4.692 5.9941-.796-.2358-1.62-.5198-2.463-.8686-2.75-1.1344-4.879-2.58-6.421-3.8396.656-1.9594.019-4.0737-1.614-4.99-1.851-1.0415-4.283-.1429-5.431 2.0074-1.149 2.1505-.581 4.7383 1.273 5.7794 1.63.9163 3.702.3309 4.964-1.2849 1.873.6643 4.201 1.7301 6.611 3.48.718.5227 1.38 1.0604 1.992 1.6013-1.908 3.5232-3.237 7.4173-3.871 11.5515-1.648.1448-3.424.2133-5.329.1534-2.719-.0861-5.175-.4131-7.32-.8387-.05-2.1621-1.461-3.9722-3.374-4.1782-2.098-.2261-4.005 1.5674-4.252 4.0065-.253 2.4385 1.252 4.599 3.35 4.8251 1.869.2011 3.58-1.1987 4.111-3.2276 2.204.0458 4.676.2476 7.354.7203 1.851.327 3.571.7446 5.154 1.208-.075.939-.112 1.8886-.112 2.8487 0 2.2806.209 4.5112.615 6.673-1.82 1.2365-4.336 2.6396-7.533 3.6244-2.803.8641-5.328 1.1581-7.339 1.2212-.721-1.9226-2.516-3.1216-4.336-2.7616-2.072.4112-3.39 2.6956-2.934 5.1033.453 2.4081 2.501 4.0267 4.576 3.6154 1.792-.3548 3.013-2.1108 3.019-4.1355 2.06-.6873 4.489-1.3316 7.255-1.7521 3.18-.482 6.03-.5509 8.428-.4439.964 2.9832 2.313 5.7865 3.977 8.3524-.784.6376-1.664 1.2676-2.644 1.8562-1.889 1.1274-3.699 1.8287-5.269 2.2819-1.068-1.7413-3.053-2.5592-4.767-1.8476-1.957.8138-2.822 3.3157-1.92 5.5873.562 1.4255 1.686 2.4263 2.928 2.7684.734.2052 1.511.1799 2.238-.1227.219-.0897.422-.2014.609-.3347 1.433-.9713 2.038-2.9848 1.433-4.9061 1.486-.7865 3.221-1.5654 5.225-2.2079 1.283-.4121 2.51-.7126 3.665-.9367 1.052 1.396 2.207 2.7055 3.449 3.9149.119.1146.235.2299.353.3378-.84 1.9226-2.104 4.2589-4.011 6.6279-1.867 2.318-3.808 4.0066-5.441 5.1986-1.639-1.192-3.783-1.167-5.104.169-1.501 1.523-1.358 4.172.325 5.918 1.676 1.743 4.261 1.923 5.762.4 1.302-1.321 1.368-3.496.256-5.184 1.286-1.717 2.963-3.6542 5.104-5.5658 2.298-2.052 4.567-3.5713 6.543-4.6906 2.616 1.9078 5.506 3.4521 8.594 4.5576-.125 1.1914-.334 2.4768-.675 3.8268-.739 2.941-1.854 5.299-2.865 7.034-1.979-.406-3.937.522-4.608 2.3-.761 2.02.428 4.375 2.657 5.26 2.229.887 4.654-.035 5.416-2.059.665-1.757-.15-3.766-1.839-4.838.478-2.092 1.23-4.565 2.429-7.222.587-1.296 1.211-2.4766 1.851-3.5533 2.375.6588 4.854 1.0623 7.407 1.1738.419 2.0515.756 4.3485.918 6.8585.244 3.733.047 7.037-.3 9.767-1.941.386-3.39 1.955-3.39 3.83 0 2.166 1.939 3.924 4.33 3.924s4.327-1.758 4.327-3.924c0-1.868-1.443-3.435-3.372-3.827-.324-2.79-.502-6.088-.318-9.77.128-2.485.403-4.777.752-6.8512 2.669-.1044 5.26-.5258 7.737-1.2275.21.374.42.7628.62 1.1625 1.35 2.6392 2.07 5.1122 2.46 7.0922-1.72 1.026-2.59 3.02-1.98 4.798.71 2.042 3.11 3.029 5.37 2.207 2.25-.824 3.5-3.146 2.79-5.188-.63-1.81-2.59-2.789-4.6-2.415-.92-1.623-1.99-4.075-2.36-7.2145-.05-.3884-.09-.7702-.11-1.1443 2.76-.9793 5.36-2.3148 7.74-3.9494 1.54 1.2852 3.17 2.8189 4.78 4.6406 2.48 2.8006 4.28 5.5616 5.58 7.9086-1.32 1.52-1.55 3.683-.43 5.177 1.29 1.717 3.87 1.898 5.76.403 1.9-1.494 2.39-4.096 1.11-5.817-1.12-1.483-3.2-1.822-4.96-.918-1.91-1.977-4.01-4.478-6.05-7.553-1.31-1.9872-2.39-3.9165-3.29-5.7276.96-.7955 1.88-1.6416 2.75-2.5377 1.44-1.4691 2.75-3.064 3.9-4.77 2.14.6117 4.61 1.5081 7.22 2.8545 2.52 1.2926 4.62 2.7142 6.32 4.0391-.64 1.9226-.03 4.0033 1.56 4.9321 1.83 1.0767 4.28.2197 5.47-1.9078 1.18-2.131.65-4.7271-1.18-5.8032-1.61-.9396-3.68-.4032-4.97 1.1735-1.89-.7382-4.18-1.8576-6.56-3.5748-2.47-1.7819-4.34-3.6936-5.69-5.3426.91-1.7566 1.68-3.6033 2.3-5.5258 1.02.0362 2.1.1297 3.23.3023 2.89.4468 5.3 1.2855 7.15 2.1208-.16 2.0516.97 3.9309 2.76 4.4023 2.04.54 4.19-.9467 4.78-3.3227.6-2.376-.58-4.7373-2.62-5.2773-1.8-.4756-3.68.6194-4.51 2.5089-1.97-.1655-4.48-.6081-7.24-1.7028-1.05-.4173-2.01-.882-2.89-1.3678.44-1.782.75-3.6148.91-5.4935 1.78-.1476 3.67-.2411 5.66-.245 3.52-.0109 6.71.2482 9.51.63.34 1.9766 1.82 3.4812 3.63 3.5389 2.11.0612 3.88-1.8758 3.95-4.3274.07-2.4516-1.59-4.4891-3.7-4.5503z" fill="#FA5752" fill-opacity=".75"/><path d="M1168.66 417.493c-4.1-.122-7.63 3.087-8.63 7.498-6.34.503-13.58.674-21.52.162-4.42-.293-8.63-.764-12.56-1.348.02-.772.03-1.552.03-2.331 0-3.793-.27-7.522-.77-11.17 2-1.568 4.51-3.217 7.55-4.63 5.26-2.469 10.18-3.346 13.98-3.598 1.86 4.329 6.14 6.848 10.23 5.751 4.62-1.234 7.26-6.572 5.89-11.925-1.36-5.353-6.19-8.7-10.81-7.466-4.2 1.13-6.77 5.662-6.16 10.512-3.32 1.934-8.27 4.029-14.39 4.183-3.01.082-5.66-.333-7.8-.868-1.36-5.663-3.31-11.089-5.81-16.206 2.64-2.437 5.75-5.02 9.4-7.515 5.28-3.622 10.38-6.213 14.85-8.074 2.92 3.494 7.57 4.656 11.16 2.528 4.13-2.439 5.28-8.312 2.59-13.104-2.69-4.792-8.23-6.693-12.35-4.248-3.59 2.12-4.94 6.831-3.46 11.169-3.84 3.054-8.56 6.279-14.24 9.155-3.85 1.966-7.54 3.46-10.89 4.597-2.73-4.686-5.92-9.057-9.51-13.046 1.38-5.133 3.71-11.128 7.69-17.139 3.73-5.621 7.87-9.723 11.38-12.607 3.88 2.461 8.76 2.079 11.54-1.162 3.15-3.671 2.43-9.609-1.63-13.264-4.04-3.663-9.87-3.657-13.02.016-2.78 3.241-2.56 8.237.33 11.883-2.28 3.851-5.72 8.627-10.77 13.177-5.58 5.019-11.17 8.025-15.44 9.812-4.86-3.81-10.15-7.043-15.8-9.601.82-2.332 1.91-4.679 3.33-6.986 1.15-1.828 2.38-3.436 3.62-4.842 4.3 1.795 9.12.504 11.29-3.257 2.44-4.199.65-9.903-3.99-12.728-4.64-2.827-10.36-1.715-12.8 2.493-2.14 3.697-1.01 8.553 2.44 11.591-.72 1.951-1.59 3.973-2.64 6.035-1.18 2.373-2.47 4.559-3.83 6.58-.58-.235-1.14-.462-1.72-.673-6.73-2.584-13.9-4.216-21.38-4.769-1.23-3.395-2.3-7.158-3.05-11.291-1.53-8.433-1.24-15.772-.54-21.285 4.4-.864 7.69-4.405 7.69-8.648 0-4.89-4.37-8.854-9.76-8.854-5.4 0-9.77 3.964-9.77 8.854 0 4.316 3.41 7.906 7.91 8.69.98 5.433 1.63 13.037.12 21.852-.67 3.88-1.66 7.416-2.82 10.618-7.17.414-14.07 1.834-20.58 4.121-.9-1.476-1.72-3.027-2.45-4.855-1.43-3.621-2.05-7.015-2.3-9.839 4.21-2.251 6.38-6.973 4.9-11.149-1.64-4.593-7.07-6.779-12.14-4.88s-7.86 7.161-6.21 11.755c1.41 3.963 5.65 6.127 10.04 5.426 1.28 2.704 2.51 5.822 3.47 9.364.52 1.875.9 3.709 1.2 5.503-5.91 2.402-11.46 5.536-16.55 9.285-2.68-1.989-5.424-4.298-8.135-7.003-6.239-6.229-10.398-12.618-13.131-17.735 3.027-3.436 3.561-8.355 1.024-11.744-2.907-3.878-8.733-4.287-13.012-.915-4.268 3.374-5.378 9.25-2.482 13.127 2.58 3.426 7.415 4.138 11.465 1.931 3.942 3.627 9.07 9.347 13.033 17.57 1.819 3.761 3.082 7.417 3.974 10.828-.816.77-1.644 1.565-2.439 2.376-3.974 4.092-7.534 8.622-10.583 13.524-1.796-.53-3.658-1.172-5.564-1.959-6.195-2.559-10.997-5.821-14.481-8.664 1.481-4.421.033-9.19-3.648-11.259-4.17-2.351-9.657-.323-12.249 4.531-2.602 4.851-1.317 10.69 2.875 13.04 3.669 2.066 8.351.746 11.193-2.9 4.224 1.499 9.494 3.904 14.927 7.853 1.623 1.179 3.104 2.392 4.486 3.612-4.3 7.95-7.306 16.737-8.732 26.066-3.713.325-7.72.482-12.02.345-6.141-.193-11.683-.931-16.529-1.892-.109-4.879-3.288-8.962-7.6-9.427-4.747-.511-9.048 3.536-9.614 9.04-.555 5.503 2.831 10.377 7.567 10.887 4.225.454 8.079-2.705 9.288-7.283 4.965.103 10.54.559 16.583 1.625 4.192.739 8.057 1.68 11.639 2.727-.174 2.119-.25 4.261-.25 6.428 0 5.146.468 10.177 1.383 15.056-4.116 2.792-9.778 5.957-16.997 8.18-6.326 1.949-12.02 2.612-16.561 2.755-1.633-4.338-5.683-7.044-9.788-6.232-4.671.927-7.644 6.082-6.62 11.514 1.023 5.434 5.651 9.087 10.322 8.16 4.05-.802 6.805-4.764 6.816-9.332 4.649-1.551 10.137-3.006 16.375-3.953 7.165-1.088 13.6-1.245 19.022-1.003 2.167 6.733 5.216 13.057 8.972 18.846-1.775 1.44-3.746 2.861-5.978 4.189-4.257 2.544-8.34 4.127-11.89 5.15-2.395-3.931-6.881-5.776-10.757-4.17-4.41 1.837-6.359 7.482-4.334 12.607 1.274 3.217 3.811 5.476 6.62 6.247 1.655.463 3.409.407 5.053-.275.479-.204.947-.456 1.371-.757 3.223-2.191 4.595-6.735 3.234-11.07 3.354-1.775 7.274-3.533 11.781-4.982 2.907-.93 5.673-1.609 8.275-2.114 2.374 3.15 4.987 6.106 7.785 8.833.262.26.534.521.795.763-1.894 4.338-4.747 9.61-9.048 14.955-4.214 5.232-8.591 9.041-12.282 11.731-3.691-2.69-8.536-2.632-11.509.381-3.397 3.436-3.07 9.415.73 13.354 3.778 3.931 9.614 4.339 13 .902 2.951-2.982 3.093-7.887.588-11.697 2.897-3.876 6.675-8.245 11.498-12.559 5.194-4.63 10.311-8.058 14.779-10.584 5.9 4.305 12.42 7.789 19.38 10.284-.27 2.688-.74 5.588-1.52 8.635-1.67 6.637-4.18 11.957-6.45 15.873-4.48-.919-8.9 1.177-10.41 5.19-1.71 4.557.98 9.87 6.01 11.868 5.02 1.998 10.48-.082 12.21-4.647 1.5-3.964-.33-8.496-4.15-10.918 1.07-4.719 2.78-10.3 5.48-16.295 1.33-2.923 2.74-5.588 4.17-8.016 5.37 1.486 10.96 2.397 16.73 2.648.93 4.631 1.7 9.812 2.07 15.474.55 8.423.11 15.881-.68 22.038-4.38.87-7.65 4.411-7.65 8.644 0 4.89 4.36 8.853 9.77 8.853 5.39 0 9.76-3.963 9.76-8.853 0-4.217-3.26-7.751-7.61-8.636-.73-6.296-1.12-13.736-.71-22.046.28-5.606.91-10.78 1.69-15.458 6.03-.236 11.88-1.186 17.46-2.771.48.845.95 1.723 1.41 2.625 3.04 5.954 4.67 11.535 5.55 16.002-3.89 2.315-5.87 6.815-4.46 10.829 1.59 4.605 7.01 6.831 12.09 4.978 5.08-1.86 7.91-7.099 6.31-11.705-1.42-4.085-5.85-6.296-10.38-5.45-2.08-3.664-4.49-9.196-5.33-16.279-.11-.878-.19-1.738-.23-2.583 6.22-2.21 12.07-5.223 17.46-8.911 3.48 2.899 7.13 6.36 10.77 10.47 5.6 6.32 9.67 12.551 12.61 17.847-2.98 3.428-3.5 8.31-.98 11.681 2.92 3.874 8.73 4.281 13.01.909 4.27-3.37 5.38-9.243 2.48-13.125-2.51-3.348-7.2-4.112-11.19-2.072-4.29-4.46-9.05-10.105-13.63-17.043-2.96-4.484-5.41-8.837-7.43-12.924 2.17-1.795 4.24-3.704 6.22-5.727 3.22-3.314 6.17-6.913 8.79-10.763 4.82 1.382 10.38 3.405 16.29 6.442 5.69 2.917 10.44 6.125 14.26 9.114-1.45 4.338-.08 9.033 3.52 11.128 4.13 2.43 9.65.496 12.33-4.304 2.68-4.809 1.48-10.666-2.65-13.096-3.62-2.119-8.31-.908-11.21 2.65-4.27-1.667-9.45-4.192-14.82-8.067-5.57-4.021-9.79-8.335-12.83-12.055 2.05-3.963 3.8-8.13 5.19-12.469 2.31.082 4.76.293 7.28.683 6.53 1.007 11.96 2.899 16.14 4.784-.36 4.631 2.19 8.871 6.23 9.935 4.61 1.219 9.45-2.137 10.8-7.497 1.34-5.361-1.31-10.69-5.94-11.909-4.05-1.073-8.28 1.397-10.16 5.661-4.44-.373-10.13-1.373-16.35-3.841-2.35-.943-4.53-1.991-6.51-3.088.99-4.02 1.69-8.156 2.05-12.396 4.02-.333 8.28-.544 12.78-.553 7.93-.023 15.14.561 21.46 1.422.76 4.46 4.11 7.856 8.19 7.987 4.77.137 8.76-4.234 8.91-9.765.15-5.531-3.59-10.13-8.34-10.268z" fill="#FA5752" fill-opacity=".92"/><path d="M890.349 286.798v412.105" stroke="#925D51" stroke-width="5.81" stroke-miterlimit="10"/><path d="M809.958 285.333s70.138 29.735 160.057-3.499L921.456 171.64l-71.929-1.75-39.569 115.443z" fill="#AC6352"/><path d="M940.493 214.839c-28.261 32.008-74.159 45.486-122.32 46.526l-8.215 23.968s70.138 29.735 160.059-3.499l-29.524-66.995z" fill="#984B39"/><rect x="266.703" y="762.272" width="726.385" height="16.939" rx="8.46951" fill="#925D51"/><path fill-rule="evenodd" clip-rule="evenodd" d="M630.526 393.656c-.807-.126-1.627-.187-2.457-.187H443.306c-12.751-.001-23.061-.001-23.061 46.835v251.053c0-6.31 3.26-4.542 8.381-1.763 4.024 2.183 9.197 4.99 14.84 4.99h184.603c1.769 0 3.492-.276 5.147-.722h180.86c7.845 0 15.036-2.798 20.63-4.975 7.118-2.77 11.649-4.534 11.649 1.757V440.35c0-46.696-14.332-46.695-32.057-46.694H630.526z" fill="#F5C827"/><path d="M435.084 524.238v166.66c0-11.978 9.336 3.431 20.851 3.431H621.7c8.391 0 15.619-8.17 18.927-7.976v4.545c0-2.279.337-3.562.957-4.153.627.591.967 1.874.967 4.153v-4.547c3.285-.162 10.434 7.978 18.731 7.978h164.199c11.408 0 20.655-15.409 20.655-3.431V424.073c0-2.669-.031-5.167-.083-7.559L435.084 524.238z" fill="#DCB21D" opacity=".699997"/><path d="M453.511 648.111c0 16.915-9.67 30.626-21.598 30.626h-47.517c-11.929 0-21.6-13.711-21.6-30.626V537.856c0-16.915 9.671-30.627 21.6-30.627h47.517c11.928 0 21.598 13.712 21.598 30.627v110.255z" fill="#EBAFB2"/><path d="M473.267 660.326c0 18.397-14.03 33.311-31.338 33.311h-68.943c-17.308 0-31.339-14.914-31.339-33.311V540.408c0-18.398 14.031-33.311 31.339-33.311h68.943c17.308 0 31.338 14.913 31.338 33.311v119.918zM957.102 660.611c0 18.455-13.836 33.415-30.904 33.415h-67.989c-17.068 0-30.904-14.96-30.904-33.415V540.318c0-18.455 13.836-33.415 30.904-33.415h67.989c17.068 0 30.904 14.96 30.904 33.415v120.293z" fill="#CAA41E"/><path d="M392.78 801.411c0 5.847-3.816 10.589-8.521 10.589-4.708 0-8.524-4.742-8.524-10.589v-36.584c0-5.847 3.816-10.588 8.524-10.588 4.705 0 8.521 4.741 8.521 10.588v36.584zM922.095 799.517c0 5.847-3.815 10.589-8.523 10.589-4.705 0-8.521-4.742-8.521-10.589v-36.584c0-5.847 3.816-10.588 8.521-10.588 4.708 0 8.523 4.741 8.523 10.588v36.584z" fill="#925D51"/><path d="M936.358 507.097h-23.897c-11.998 0-21.724 13.719-21.724 30.642v153.207H405.205V537.739c0-16.923-9.726-30.642-21.724-30.642h-23.895c-11.998 0-21.724 13.719-21.724 30.642v209.893c0 8.857 2.68 16.812 6.939 22.407 3.965 5.995 9.6 9.766 15.872 9.766l575.685-1.531c11.998 0 21.724-13.719 21.724-30.642V537.739c0-16.923-9.726-30.642-21.724-30.642z" fill="#F5C827"/><path d="M528.952 523.195h-88.415c-3.364 0-6.091 3.181-6.091 7.105v103.151c0 3.925 2.727 7.106 6.091 7.106h88.415c3.364 0 6.09-3.181 6.09-7.106V530.3c0-3.924-2.726-7.105-6.09-7.105zM871.098 534.406l-80.403-14.032c-3.059-.534-6.087 2.173-6.764 6.047l-17.79 101.826c-.676 3.874 1.255 7.447 4.313 7.981l80.404 14.033c3.058.534 6.087-2.174 6.764-6.048l17.789-101.826c.677-3.874-1.254-7.447-4.313-7.981z" fill="#fff"/><path fill-rule="evenodd" clip-rule="evenodd" d="M861.963 714.351c16.325 0 29.559-14.767 29.559-32.985v-29.685c0-18.218-13.234-32.985-29.559-32.985H633.667c-1.64-.651-3.356-.997-5.123-.997H425.645c-11.613 0-21.026 14.922-21.026 33.329v29.995c0 18.407 9.413 33.328 21.026 33.328h436.318z" fill="#FFE792"/><path d="M577.736 344.017c-3.027-.244-5.85-1.626-7.923-3.848-5.416-5.81-13.174-19.321-2.063-43.316 20.684-44.686 96.33-37.982 114.373-5.512 12.838 23.1 25.609 27.683 18.718 34.633-6.649 6.708-85.435 21.084-123.105 18.043z" fill="#FF504A"/><path d="M711.066 612.483c-.082.011-.17.023-.251.034-16.36 2.383-32.95 4.572-49.587 5.858-.953.07-1.908.145-2.865.203-17.605 1.252-35.258 1.44-52.728-.279-5.731-.563-11.446-1.341-17.1-2.375-12.641-2.309-21.162-14.257-19.115-26.94 1.928-11.908 3.187-23.189 4.016-33.794.124-1.577.244-3.134.343-4.677.838-12.379 1.11-23.779 1.2-34.134.004-.881.011-1.752.015-2.613 0-.39.008-.778.008-1.159.003-.591.003-1.177.003-1.755.008-.396.008-.785.008-1.166 0-.808.004-1.595 0-2.383.011-2.421.004-4.773.011-7.056v-.606c.004-7.903.037-14.977.354-21.179.012-.284.023-.559.046-.837.07-1.288.135-2.566.198-3.825.055-1.221.116-2.43.159-3.627.132-3.358.221-6.595.274-9.686.033-2.6.033-5.091-.007-7.455-.05-2.623-.143-5.08-.291-7.356-.057-.753-.109-1.531-.17-2.33-.093-1.21-.194-2.465-.298-3.754-.063-.784-.13-1.573-.209-2.376-.035-.35-.063-.705-.097-1.065-.004-.089-.016-.175-.021-.256-.046-.497-.092-.991-.135-1.495-.05-.489-.099-.978-.147-1.472-.078-.862-.163-1.741-.258-2.627-.407-4.134-.881-8.474-1.362-12.923-.158-1.394-.312-2.809-.468-4.226-.249-2.195-.5-4.414-.744-6.622-.167-1.426-.329-2.853-.488-4.277-2.441-21.451-4.736-41.989-3.92-48.507 1.413-11.286 56.072-41.074 56.072-41.074l32.809-1.031s46.053 18.551 54.549 29.749c.045.055.083.112.125.163 1.927 2.638 3.14 6.303 3.834 10.833.622 3.983.843 8.629.797 13.84-.021 3.709-.182 7.706-.422 11.945-.253 4.495-.597 9.264-.976 14.259-.108 1.453-.222 2.925-.336 4.414-.118 1.514-.23 3.041-.346 4.587-.075.999-.149 2.007-.223 3.018-.2 2.669-.396 5.386-.572 8.14-.057.888-.12 1.786-.177 2.686-.038.566-.071 1.143-.101 1.713-.036.584-.07 1.166-.103 1.754v.011c-.03.54-.064 1.075-.089 1.613-.04.586-.067 1.173-.095 1.763-.055 1.08-.112 2.162-.156 3.254-.046.9-.082 1.809-.116 2.716-.014.16-.019.329-.019.492-.031.586-.053 1.174-.069 1.756l-.009.306-.008.146c-.023.767-.049 1.547-.07 2.319-.031.928-.053 1.854-.076 2.777-.01.426-.014.865-.021 1.298-.012.383-.015.778-.023 1.166 0 .198-.004.388-.004.59-.011.534-.019 1.069-.025 1.618-.007.911-.009 1.834-.009 2.779v1.495c.002 2.615.03 5.348.082 8.191.019 1.174.045 2.364.072 3.572.029 1.28.063 2.573.095 3.883.084 2.754.173 5.567.285 8.431.012.419.025.833.044 1.255.008.172.012.341.019.512.034.934.071 1.871.114 2.82.059 1.364.122 2.743.177 4.12.063 1.491.166 3.071.297 4.737.161 2.085.369 4.295.62 6.63.055.546.118 1.099.184 1.655.103.896.204 1.808.329 2.735.069.582.137 1.16.215 1.751.048.373.095.748.147 1.124.18 1.404.376 2.847.584 4.316.022.163.045.325.066.488.107.744.223 1.491.325 2.252.211 1.449.44 2.929.67 4.428.068.42.131.848.198 1.272.399 2.552.829 5.169 1.278 7.845.078.466.163.945.243 1.423.179 1.053.363 2.115.548 3.183.646 3.724 1.331 7.534 2.046 11.404.835 4.475 1.704 9.028 2.606 13.615.738 3.773 1.502 7.568 2.274 11.362 1.807 8.876 3.686 17.748 5.54 26.308 2.893 13.328-6.078 26.362-19.573 28.33z" fill="#fff"/><path d="M714.832 352.387c-23.969 5.136-46.206 6.603-63.769 6.603-3.191 0-6.227-.048-9.093-.13-27.134-.793-44.783-4.726-45.522-4.889l1.278-5.649 1.274-5.646h.004c.346.078 17.656 3.887 43.613 4.619 17.531.493 41.757-.384 68.255-5.905.044.055.084.11.124.164 1.926 2.637 3.142 6.302 3.836 10.833zM715.625 366.226c-.022 3.709-.184 7.706-.424 11.945-23.442 4.983-45.298 6.452-62.892 6.452-4.357 0-8.452-.09-12.246-.24-27.116-1.061-44.72-5.169-45.456-5.344l2.666-11.271c.174.042 17.478 4.061 43.551 5.054 18.942.726 45.724-.075 74.801-6.596zM714.23 392.43c-.108 1.453-.222 2.925-.337 4.414-.117 1.514-.23 3.041-.346 4.587-.074.998-.148 2.006-.224 3.018-22.086 4.464-42.74 5.831-59.747 5.831-5.555 0-10.713-.144-15.412-.372-27.096-1.334-44.656-5.619-45.392-5.797l2.779-11.244c.171.04 17.434 4.232 43.488 5.487 19.005.915 45.922.376 75.191-5.924zM712.373 418.741v.012c-.03.542-.063 1.074-.089 1.613-.038.587-.065 1.173-.095 1.763-.056 1.08-.111 2.162-.156 3.254-.044.899-.082 1.808-.115 2.716-.013.159-.02.329-.02.492-.031.586-.052 1.174-.067 1.755l-.011.307c-20.904 4.037-40.51 5.319-56.978 5.319-6.767 0-12.999-.213-18.581-.546-27.077-1.601-44.593-6.063-45.325-6.249l2.891-11.213h.004c.158.041 4.532 1.143 12.107 2.424 7.575 1.282 18.347 2.743 31.312 3.498 18.969 1.105 45.842.837 75.123-5.145zM592.102 443.062l-1.498 5.592 1.502-5.592h-.004zm119.566 9.97c-.051-2.844-.08-5.577-.084-8.192-29.709 5.871-56.958 5.887-76.117 4.576-25.913-1.767-43.047-6.272-43.361-6.354l-1.502 5.592-1.501 5.591c.729.194 18.195 4.831 45.255 6.702 6.439.449 13.748.75 21.749.75 16.269 0 35.359-1.25 55.631-5.094-.024-1.207-.051-2.398-.07-3.571zM712.768 482.361c-20.077 3.821-39.06 5.092-55.402 5.092-9.245 0-17.642-.407-24.915-.982-27.036-2.149-44.457-6.957-45.188-7.158l1.56-5.576 1.554-5.577h.002c.277.078 17.373 4.759 43.297 6.792 19.648 1.538 47.828 1.769 78.505-4.268.034.936.072 1.873.114 2.82.059 1.364.121 2.743.179 4.122.062 1.489.165 3.069.294 4.735zM715.908 507.74c-20.671 4.123-40.311 5.498-57.295 5.498-10.498 0-19.977-.527-28.063-1.247-27.022-2.418-44.395-7.4-45.124-7.61l3.228-11.12v-.004c.167.05 17.246 4.928 43.233 7.226 20.439 1.81 50.153 2.293 82.376-4.226.181 1.405.377 2.847.584 4.315.023.164.046.325.069.489.104.743.22 1.491.323 2.252.211 1.451.439 2.928.669 4.427zM720.221 532.867c-21.69 4.643-42.419 6.185-60.378 6.185-11.751 0-22.318-.66-31.202-1.542-27.002-2.689-44.33-7.843-45.054-8.064l3.339-11.086c.168.048 17.201 5.099 43.168 7.657 21.615 2.13 53.623 2.879 88.081-4.553.646 3.724 1.329 7.533 2.046 11.403zM725.099 557.846c-22.915 5.3-44.935 7.056-64.035 7.056-13.014 0-24.669-.814-34.328-1.876-26.98-2.959-44.264-8.288-44.985-8.512l1.727-5.529 1.721-5.527.004.004c.268.08 17.235 5.276 43.102 8.089 22.921 2.489 57.567 3.543 94.52-5.069.738 3.773 1.502 7.568 2.274 11.364z" fill="#1DB776" fill-opacity=".56"/><path d="M636.866 596.906c1.108-47.742-7.066-103.293-6.997-151.049.062-42.818 3.191-85.328 3.157-128.146-10.215.768-14.603 2.512-14.603 2.512s-9.767 8.334-41.551 18.691c-29.971 9.766-24.401 120.465-22.579 182.424 1.82 61.96 1.097 101.243 60.017 108.772 5.534.708 10.97 1.332 16.293 1.855.089-14.169 5.934-20.856 6.263-35.059z" fill="#FB4C47"/><path d="M572.947 471.021c-.633 0-1.204-.443-1.341-1.09-.159-.74.314-1.47 1.056-1.63.751-.162 18.436-4.188 24.534-25.363.207-.73.97-1.149 1.7-.941.728.209 1.151.971.939 1.7-6.565 22.811-25.787 27.12-26.603 27.293-.095.021-.192.031-.285.031zM624.383 587.501c-.57 0-1.05-.445-1.082-1.023-4.743-85.49-8.517-169.058-2.666-251.541.043-.597.564-1.044 1.158-1.004.599.042 1.048.561 1.006 1.158-5.845 82.356-2.073 165.849 2.668 251.265.032.599-.426 1.11-1.023 1.143-.021.002-.04.002-.061.002z" fill="#B63A37"/><path d="M739.134 382.275c1.421-44.106-19.823-55.747-62.217-62.105-.165-.025-.327-.049-.492-.072-.681 7.286-.432 14.686.044 21.96.76 11.634 2.111 23.201 2.578 34.854 1.959 48.626 6.718 81.654 2.811 145.476-2.938 47.968 4.73 73.145 6.073 109.493 24.066-3.676 43.006-13.471 54.67-33.347 21.881-37.289-4.885-172.153-3.467-216.259z" fill="#FB4C47"/><path d="M734.155 469.533c-.102 0-.203-.009-.308-.034-.283-.065-28.47-6.982-33.234-47.976-.088-.753.452-1.436 1.207-1.522.759-.093 1.436.453 1.522 1.206 4.543 39.087 30.853 45.553 31.12 45.612.739.17 1.202.907 1.032 1.647-.144.635-.711 1.067-1.339 1.067zM691.165 579.658c-.521 0-.981-.377-1.069-.909-1.987-12.07-1.225-44.45-.485-75.762.561-23.821 1.092-46.32.472-59.874-2.094-45.888-8.364-109.977-8.427-110.618-.059-.595.376-1.126.972-1.185.591-.057 1.127.377 1.185.972.062.643 6.338 64.785 8.436 110.73.622 13.63.091 36.165-.472 60.026-.736 31.213-1.496 63.489.459 75.359.097.589-.303 1.149-.894 1.246-.059.009-.118.015-.177.015z" fill="#B63A37"/><path d="M652.622 219.014l-20.847 7.571s-6.253 8.623-14.452 6.845c-3.288-.715-6.888-3.102-10.526-8.383-12.709-18.463 17.944-44.043 36.367-39.745 9.035 2.107 11.485 10.262 11.631 18.024.154 8.058-2.173 15.688-2.173 15.688z" fill="#002014"/><path d="M652.621 219.014l-20.846 7.571s-6.254 8.623-14.452 6.845c0-9.562 13.413-27.046 37.472-30.104.154 8.058-2.174 15.688-2.174 15.688z" fill="#FFD339"/><path d="M652.274 182.13c-.376 0-.785.044-1.228.132-1.08.216-1.78.741-2.201 1.652-1.873 4.055 2.077 13.713 4.9 19.418 1.744-6.329 3.834-16.909.88-20.243-.568-.641-1.343-.959-2.351-.959zm1.8 25.964c-.47 0-.909-.252-1.141-.671-.999-1.79-9.656-17.683-6.461-24.604.768-1.664 2.174-2.744 4.062-3.121 3.218-.641 5.067.548 6.048 1.656 5.131 5.794-.595 23.808-1.265 25.843-.163.492-.601.842-1.118.892-.042.004-.084.005-.125.005z" fill="#FFD339"/><path d="M669.901 188.562c-.123 0-.249.008-.374.027-4.418.587-9.757 9.958-12.579 15.886 5.867-2.471 15.173-7.189 16.409-11.48.278-.966.091-1.82-.584-2.691-.909-1.169-1.85-1.742-2.872-1.742zm-15.462 19.616c-.351 0-.696-.141-.945-.403-.359-.377-.462-.929-.262-1.408.825-1.976 8.277-19.347 15.949-20.371 1.47-.195 3.644.113 5.656 2.703 1.183 1.521 1.54 3.258 1.032 5.019-2.111 7.324-19.058 13.68-20.983 14.382-.146.053-.296.078-.447.078z" fill="#FFD339"/><path d="M615.747 236.145c-4.553-.681-9.673-3.108-12.887-9.812-7.59-15.825 10.563-29.18 10.747-29.313.371-.268.888-.183 1.157.186.268.371.184.89-.187 1.158-.173.126-17.212 12.68-10.224 27.252 6.236 13.001 19.965 8.427 20.546 8.223.435-.148.905.082 1.055.514.148.432-.08.903-.513 1.054-.082.028-4.523 1.51-9.694.738zM676.145 238.1s8.136 34.163-3.165 56.276c-11.299 22.113-22.653 28.136-6.427 35.005 16.227 6.868 34.688-6.215 47.077.59 14.956 8.214-1.814-60.728-9.289-89.904-7.651-29.854-43.984-33.195-43.984-33.195l15.788 31.228z" fill="#002014"/><path d="M697.651 262.648s14.538-33.296-12.72-48.969c-27.259-15.673-54.792-3.836-62.127 14.209-7.336 18.044 3.897 29.914 3.897 29.914l70.95 4.846z" fill="#002014"/><path d="M650.934 332.95c7.868 2.185 11.015-1.303 13.431-3.897l1.626-14.106.951-8.227.197-1.212-3.617-.401-26.69-7.699-3.61 16.948-1.716 8.035c3.431 3.239 7.99 7.383 19.428 10.559z" fill="#FBB990"/><path d="M665.989 314.947c-8.271 3.729-24.584 2.035-32.769-.592-.029-.003-.05-.013-.078-.023l3.688-16.924 26.69 7.699 3.617.401-.197 1.211-.951 8.228z" fill="#181818"/><path d="M687.782 262.853s15.848-4.606 12.739 9.395c-3.426 15.417-16.042 11.04-18.214 10.042l5.475-19.437z" fill="#FB9476"/><path d="M676.395 288.459c-.877 5.866 3.182 11.351 9.047 12.227 5.868.877 11.352-3.181 12.229-9.049.748-5.003-2.103-9.72-6.594-11.546-.007.01-.015.021-.022.038-.755.198-.913.78-.984 1.413 3.983 1.417 6.545 5.506 5.898 9.842-.736 4.924-5.342 8.336-10.272 7.6-4.924-.736-8.336-5.346-7.6-10.27.331-2.225 1.453-4.138 3.038-5.498.41-.35.852-.666 1.318-.94-.415-.374-.809-.81-1.157-1.308-.428.266-.846.569-1.23.9-1.913 1.622-3.273 3.919-3.671 6.591z" fill="#fff"/><path d="M689.554 277.713c-.03-.004-.061-.011-.091-.019-.459-.12-.736-.589-.617-1.05 1.763-6.795 6.767-9.15 6.978-9.247.432-.195.944-.007 1.141.427.196.431.008.941-.422 1.139-.188.087-4.482 2.147-6.03 8.115-.113.43-.529.7-.959.635z" fill="#FA7764"/><path d="M695.225 274.853c-.244-.036-.47-.175-.607-.401-.025-.038-1.084-1.72-2.6-1.739-.473-.002-.856-.393-.852-.869.008-.475.396-.856.871-.85 2.471.025 3.987 2.457 4.049 2.56.248.407.118.936-.287 1.183-.179.108-.382.144-.574.116z" fill="#FA7764"/><path d="M696.472 260.933c-.985 5.568-2.502 10.979-4.391 16.053-.85 2.299-1.786 4.526-2.777 6.668-6.983 15.093-17.021 25.968-25.039 26.909-12.695 1.493-27.106-4.709-34.171-21.264-1.154-2.705-2.364-5.972-2.942-9.822-.078-.534-.154-1.082-.219-1.641-2.071-17.2 2.292-41.721 2.292-41.721 10.405-15.534 32.774-11.394 45.751-9.258 12.986 2.14 26.017 8.593 21.496 34.076z" fill="#FFC29C"/><path d="M660.753 301.674c-2.756-.411-4.384-1.66-4.454-1.714-.375-.292-.443-.833-.151-1.207.291-.375.83-.443 1.204-.152.029.021 1.488 1.108 3.92 1.407 2.48.302 4.142-.27 4.157-.276.447-.158.94.076 1.1.521.159.445-.071.938-.516 1.098-.081.03-2.037.72-4.948.365-.107-.012-.209-.027-.312-.042z" fill="#FB9476"/><path d="M612.434 466.759c-.552 0-1.065-.352-1.244-.906-1.87-5.757-3.159-12.251-3.214-12.525-.139-.71.321-1.396 1.03-1.537.706-.139 1.396.321 1.535 1.031.014.066 1.316 6.618 3.136 12.225.223.686-.154 1.424-.84 1.647-.133.044-.27.065-.403.065zM619.415 464.416c-.546 0-1.054-.343-1.238-.888-1.946-5.731-3.321-12.205-3.378-12.477-.15-.707.303-1.401 1.01-1.55.706-.15 1.398.303 1.548 1.008.014.067 1.402 6.598 3.296 12.178.232.685-.135 1.426-.818 1.658-.14.048-.281.071-.42.071zM626.402 462.073c-.539 0-1.043-.335-1.233-.872-2.02-5.703-3.48-12.156-3.541-12.428-.158-.704.283-1.404.989-1.562.702-.157 1.403.284 1.561.989.016.065 1.489 6.575 3.456 12.129.242.68-.116 1.426-.795 1.667-.145.052-.293.077-.437.077zM633.38 459.73c-.532 0-1.03-.327-1.226-.855-2.096-5.675-3.64-12.108-3.705-12.379-.169-.702.264-1.408.968-1.575.702-.168 1.405.266 1.575.968.015.064 1.574 6.554 3.615 12.08.249.677-.097 1.431-.774 1.68-.148.055-.302.081-.453.081zM640.365 457.388c-.525 0-1.021-.32-1.221-.839-2.17-5.649-3.801-12.06-3.868-12.33-.179-.7.245-1.411.945-1.588.7-.177 1.411.247 1.588.947.017.063 1.662 6.533 3.775 12.033.259.674-.076 1.431-.751 1.689-.154.059-.312.088-.468.088zM647.345 455.046c-.519 0-1.01-.312-1.214-.824-2.246-5.62-3.961-12.012-4.033-12.282-.187-.696.228-1.413.926-1.599.698-.187 1.413.228 1.599.926.017.064 1.75 6.514 3.935 11.985.268.672-.059 1.432-.728 1.7-.16.063-.324.094-.485.094zM654.327 452.703c-.513 0-.998-.305-1.208-.807-2.32-5.593-4.121-11.964-4.197-12.232-.196-.695.209-1.417.905-1.613.694-.196 1.417.209 1.611.905.019.065 1.835 6.493 4.097 11.938.276.666-.04 1.432-.708 1.708-.163.068-.333.101-.5.101z" fill="#108A57"/><path d="M691.947 313.328c-.266 3.41-.899 6.815-2.061 9.996-.295.814-.628 1.611-1.001 2.391v.004c-1.873 3.963-4.707 7.455-8.872 10.009 0 0-20.31 8.633-44.235-1.962h-.004c-1.358-.603-2.729-1.271-4.112-2.003-1.207-.639-2.417-1.329-3.63-2.073-10.392-6.366-14.511-14.945-15.637-23.115-.101-.729-.179-1.449-.234-2.174-.441-5.761.489-11.189 1.601-15.325.076-.274.15-.544.225-.805 1.204-4.214 2.521-6.896 2.521-6.896s5.379-2.337 12.435-3.41c2.683-.407 5.61-.631 8.577-.473 3.368.175 6.79.844 9.966 2.293 22.685 10.35 34.174 14.972 40.756 6.088 0 0 1.143 3.306 2.186 8.285.148.707.291 1.443.433 2.212.384 2.111.729 4.44.955 6.896.299 3.216.401 6.637.131 10.062z" fill="#0CAD69"/><path d="M690.862 296.369c-.302.468-.642.942-1.015 1.413-2.874 3.631-8.458 7.811-18.939 7.811-.643 0-1.301-.015-1.98-.049-10.163-.485-18.086-4.681-25.751-8.737-9.148-4.84-17.791-9.416-29.26-7.001l-.154-.73-.152-.731c.128-.024.255-.051.379-.074 11.803-2.352 20.591 2.298 29.885 7.218 7.52 3.977 15.297 8.094 25.124 8.56 8.906.43 15.509-1.974 19.633-7.138.739-.926 1.329-1.863 1.797-2.754.15.706.291 1.444.433 2.212zM689.883 323.324c-.295.814-.628 1.611-1.001 2.391v.003c-3.8 2.182-8.353 3.677-13.619 4.468-2.993.453-6.217.675-9.657.675-4.479 0-9.323-.38-14.492-1.141-15.51-2.294-28.77-7.299-28.905-7.353l.535-1.396c.131.052 13.259 5.008 28.613 7.273 12.214 1.795 28.041 2.174 38.526-4.92z" fill="#108E59"/><path d="M654.024 442.994l-45.987 15.017s-.608-2.68-1.55-7.237c-.209-1.015-.437-2.128-.675-3.324-.65-3.235-1.398-7.094-2.187-11.4-.198-1.092-.398-2.208-.599-3.355-.639-3.602-1.293-7.455-1.929-11.483-.175-1.117-.351-2.244-.523-3.387-.57-3.766-1.124-7.65-1.628-11.592-.146-1.143-.291-2.29-.429-3.442-.472-3.901-.89-7.834-1.237-11.735-.108-1.168-.205-2.333-.294-3.495-.318-4.065-.55-8.072-.666-11.946-.034-1.192-.061-2.372-.074-3.537-.053-4.34.055-8.479.365-12.3.101-1.253.224-2.466.371-3.642.101-.852.22-1.685.346-2.495.601-3.785 1.434-7.217 2.44-10.333.418-1.308.871-2.558 1.348-3.754 8.513-21.381 25.232-25.595 25.232-25.595 12.383 1.229 17.826 14.46 17.826 14.46-2.596 2.474-4.471 5.873-5.757 9.95-.332 1.058-.627 2.161-.88 3.304-.689 3.062-1.107 6.424-1.301 10.002-.063 1.11-.101 2.242-.12 3.389-.055 3.343.061 6.839.318 10.431.078 1.122.171 2.25.276 3.386.321 3.459.758 6.989 1.285 10.532.169 1.13.344 2.254.527 3.382.574 3.526 1.229 7.055 1.938 10.538.224 1.12.46 2.232.696 3.343.765 3.581 1.579 7.096 2.412 10.489.27 1.105.542 2.195.819 3.271.921 3.642 1.86 7.117 2.764 10.344.31 1.109.62 2.193.922 3.241 1.116 3.87 2.162 7.303 3.056 10.15.369 1.174.71 2.244 1.02 3.208 1.154 3.565 1.875 5.615 1.875 5.615z" fill="#0CAD69"/><path d="M638.413 338.37c-.333 1.057-.628 2.158-.881 3.301-8.139-1.004-22.924-1.938-37.768 1.638.418-1.309.871-2.56 1.348-3.754 7.377-1.596 14.464-2.127 20.312-2.186 6.904-.074 12.843.463 16.989 1.001zM636.232 351.675c-.062 1.109-.1 2.241-.119 3.388-9.715-.417-24.974-.025-39.506 4.714.101-1.251.225-2.464.371-3.642 9.633-2.961 19.237-4.087 26.778-4.441 4.7-.22 8.947-.173 12.476-.019zM636.706 368.88c-10.369.175-25.94 1.472-40.39 6.737-.034-1.193-.061-2.374-.076-3.54 10.639-3.727 21.512-5.363 29.846-6.057 3.792-.318 7.288-.468 10.342-.523.08 1.12.173 2.248.278 3.383zM638.522 382.795c-10.709.721-26.652 2.737-41.243 8.262-.107-1.17-.204-2.334-.293-3.496 14.675-5.435 30.319-7.429 41.01-8.147.169 1.127.344 2.253.526 3.381zM641.152 396.675c-10.882 1.233-27.309 3.895-42.21 9.559-.146-1.143-.291-2.29-.43-3.444 14.972-5.599 31.086-8.233 41.944-9.458.224 1.122.46 2.234.696 3.343zM644.385 410.437c-10.911 1.721-27.926 5.053-43.29 10.775-.175-1.116-.35-2.244-.523-3.387 15.312-5.622 32.073-8.925 42.995-10.662.269 1.107.541 2.197.818 3.274zM648.078 424.022c-10.791 2.196-28.49 6.261-44.448 12.027-.198-1.09-.4-2.206-.601-3.353 15.888-5.69 33.328-9.709 44.126-11.917.31 1.109.62 2.193.923 3.243zM652.147 437.379c-10.451 2.63-28.948 7.562-45.66 13.395-.211-1.016-.437-2.128-.677-3.325 16.615-5.774 34.859-10.64 45.318-13.278.37 1.173.709 2.244 1.019 3.208z" fill="#108E59"/><path d="M635.778 333.766h-.004c-.34-.019-.69-.059-1.054-.128-1.105-.209-2.12-.865-3.06-1.875-7.906-8.528-9.943-42.183-9.943-42.183s2.963-7.324 7.226-11.613c2.681-.407 5.61-.631 8.577-.473.614 6.32 2.74 26.468 5.213 32.012 2.843 6.367 2.48 24.764-6.955 24.26z" fill="#128E5A"/><path d="M691.948 313.328c-11.553 8.966-36.768 3.804-59.792-2.98-7.866-2.318-14.42-3.4-19.762-3.771-.097-.729-.177-1.451-.232-2.174 10.008.626 23.416 3.438 40.025 7.212 24.632 5.593 35.853-3.848 39.632-8.347.299 3.216.4 6.639.129 10.06z" fill="#108E59"/><path d="M675.253 267.722c-.38 2.43.407 4.574 1.762 4.787 1.359.215 2.771-1.586 3.151-4.019.15-.958.118-1.867-.057-2.636 2.415.483 3.452-.905 3.452-.905-1.604-.025-3.648-.69-4.612-1.037-.341-.127-.55-.209-.55-.209-1.354-.215-2.763 1.583-3.146 4.019z" fill="#181818"/><path d="M678.401 263.702s.208.082.551.21c-.17-.107-.353-.179-.551-.21z" fill="#181818"/><path d="M692.085 276.986c-.852 2.299-1.786 4.526-2.777 6.668-1.092.009-2.263-.067-3.471-.238-5.395-.763-9.52-3.125-9.214-5.274.306-2.147 4.928-3.267 10.317-2.506 1.923.272 3.686.747 5.145 1.35zM652.483 273.925c-.308 2.172-4.975 3.304-10.426 2.532-5.451-.774-9.619-3.159-9.309-5.331.306-2.17 4.975-3.304 10.424-2.532 5.45.774 9.619 3.159 9.311 5.331z" fill="#FD9B7E"/><path d="M629.982 260.194c.295-2.056-.58-4.094-2.257-5.315-4.159-3.026-9.73-4.74-12.49.76-5.123 10.21 4.186 23.891 12.239 22.089l2.508-17.534z" fill="#FBB990"/><path d="M631.671 277.057c-.156.145-.31.284-.468.411-.462.383-.934.708-1.415.978-.883.5-1.776.825-2.632 1.033-.082-.539-.156-1.085-.217-1.644.612-.146 1.242-.359 1.864-.673.504-.238 1.008-.54 1.487-.915.19-.15.384-.314.565-.483.3-.293.73-.228.955.137.224.358.169.883-.139 1.156zM623.877 270.63c-.422-.062-.743-.433-.732-.871.167-6.892-4.205-10.572-4.249-10.608-.365-.302-.42-.843-.119-1.21.3-.369.84-.424 1.209-.123.206.169 5.069 4.216 4.88 11.981-.011.476-.407.852-.88.839-.038 0-.073-.004-.109-.008z" fill="#FB9476"/><path d="M618.383 265.802c-.198-.03-.385-.127-.523-.289-.31-.359-.272-.899.087-1.211.101-.088 2.518-2.147 5.232-1.429.458.122.732.594.611 1.054-.124.458-.598.729-1.054.611-1.826-.483-3.646 1.051-3.665 1.067-.198.169-.451.233-.688.197zM668.964 276.925h.006-.006zm-4.319 4.344c-.348-.052-.656-.314-.726-.719-.067-.38.156-.753.506-.921 2.117-1.004 4.157-2.295 4.513-2.841-.293-1.569-1.455-7.803-1.879-10.085-.088-.468.22-.913.688-1.001.466-.087.915.219 1.003.685.439 2.358 1.662 8.921 1.905 10.22.086.449.341 1.813-5.515 4.588-.16.076-.333.098-.495.074z" fill="#FB9476"/><path d="M653.719 264.505c-.348 2.436-1.726 4.255-3.084 4.064-1.362-.192-2.186-2.328-1.839-4.766.137-.958.433-1.82.825-2.503-2.451-.243-3.037-1.875-3.037-1.875 1.54.445 3.691.407 4.714.358.364-.023.586-.042.586-.042 1.358.192 2.184 2.322 1.835 4.764z" fill="#181818"/><path d="M651.89 259.741s-.223.019-.587.04c.193-.051.389-.07.587-.04z" fill="#181818"/><path d="M687.683 263.833c-.493-1.018-1.14-2.032-1.838-2.944-.703-.919-1.494-1.754-2.341-2.488-.84-.746-1.765-1.356-2.721-1.845-.944-.521-1.974-.806-2.969-1.063l-.103-.025c-1.082-.277-1.732-1.38-1.455-2.461.276-1.082 1.379-1.734 2.459-1.456.126.032.253.079.366.133 1.257.597 2.476 1.253 3.516 2.128 1.054.844 1.995 1.797 2.783 2.841.796 1.035 1.473 2.132 2.033 3.275.557 1.151 1.008 2.305 1.327 3.562.076.299-.103.601-.401.677-.261.067-.525-.062-.637-.296l-.019-.038zM641.332 256.454c.865-1.185 1.827-2.214 2.898-3.188 1.069-.966 2.242-1.835 3.513-2.586 1.261-.765 2.645-1.368 4.098-1.809 1.453-.483 2.998-.66 4.555-.761 1.113-.072 2.073.773 2.145 1.885.071 1.113-.772 2.073-1.884 2.145-.111.008-.221.004-.327-.005l-.13-.014c-1.19-.123-2.425-.224-3.657-.036-1.234.145-2.48.436-3.684.904-1.208.452-2.39 1.034-3.516 1.738-1.115.702-2.21 1.529-3.148 2.429l-.03.028c-.221.213-.573.204-.786-.017-.19-.198-.203-.5-.047-.713z" fill="#111"/><path d="M640.355 234.183s15.956 21.778 53.236 20.713c20.057-.572 2.638-31.892-27.259-33.653-29.899-1.759-25.977 12.94-25.977 12.94z" fill="#002014"/><path d="M693.687 251.488s2.241 16.608-1.603 25.498c0 0 7.208-14.867 4.96-24.264-2.248-9.397-3.357-1.234-3.357-1.234z" fill="#181818"/><path d="M650.351 234.248s-17.769 30.291-13.421 54.743c4.344 24.45 10.69 43.916-6.835 45.741-17.345 1.809-28.85-5.003-44.38 1.138h-.004c-.162.066-.321.129-.487.198-.407.167-.772.268-1.109.313-2.689.346-3.204-3.164-2.196-9.155.359-2.119.905-4.542 1.611-7.218 3.271-12.39 10-30.117 17.308-47.154 5.742-13.38 11.841-26.335 16.91-35.943 1.846-3.5 3.558-6.55 5.062-9.024 16.041-26.312 51.765-18.893 51.765-18.893l-24.224 25.254z" fill="#002014"/><path d="M618.814 238.062c-.164.299-9.213 16.94-17.978 34.791-7.153 14.564-14.116 29.939-15.921 37.907-.776 3.433-1.204 6.514-1.39 9.249-.59 8.745 1.301 13.954 2.181 15.86-.159.066-.321.131-.485.197-.407.17-.774.27-1.11.314-.698-1.542-1.78-4.564-2.195-9.155-.388-4.243-.202-9.831 1.381-16.832 4.064-17.959 32.839-70.882 34.06-73.126.089-.165.228-.283.388-.355.228-.105.5-.105.736.026.403.217.553.721.333 1.124z" fill="#002014"/><path opacity=".399994" d="M671.44 254.942s-19.357-5.879-24.87 15.403c-5.516 21.279 13.566 30.834 25.669 28.495 12.105-2.341 20.068-40.289-.799-43.898z" fill="#FFC29C"/><path d="M652.134 252.681c-7.24 0-13.128 5.891-13.128 13.131 0 7.238 5.888 13.128 13.128 13.128s13.129-5.89 13.129-13.128c0-7.24-5.889-13.131-13.129-13.131zm0 28.066c-8.237 0-14.937-6.7-14.937-14.935 0-8.237 6.7-14.937 14.937-14.937 8.237 0 14.937 6.7 14.937 14.937 0 8.235-6.7 14.935-14.937 14.935zM685.224 259.392c-7.24 0-13.128 5.89-13.128 13.128 0 7.241 5.888 13.131 13.128 13.131 7.241 0 13.129-5.89 13.129-13.131 0-7.238-5.888-13.128-13.129-13.128zm0 28.066c-8.237 0-14.937-6.701-14.937-14.938 0-8.235 6.7-14.935 14.937-14.935 8.237 0 14.937 6.7 14.937 14.935 0 8.237-6.7 14.938-14.937 14.938z" fill="#fff"/><path d="M671.139 268.642c-1.592-2.453-4.525-1.415-4.65-1.369l-.62-1.697c1.519-.555 4.891-.835 6.786 2.081l-1.516.985z" fill="#fff"/><path d="M694.891 611.712c-4.178 2.999-9.872 11.961-19.762 15.106C618.95 644.694 566.524 610 566.524 610c-3.113-15.386-1.187-32.867 3.996-39.267-1.63-2.273-.552-4.991-.552-4.991l-24.739-45.863c.599.377 38.807 24.53 67.12 41.641h.012c8.159 4.928 15.494 9.272 20.869 12.29 8.202 4.605 18.672 5.055 28.93 3.642 19.995-2.763 39.177-12.615 39.177-12.615s47.841-28.21 59.915-27.236c9.388.753-24.581 52.517-66.361 74.111z" fill="#108E59"/><path d="M589.08 658.116s-3.024.567-7.938 1.575c-1.4.287-2.952.605-4.627.96-2.225.47-4.671.995-7.28 1.575-1.488.329-3.028.675-4.612 1.035-19.696 4.486-45.776 11.31-56.278 17.982-.736.467-1.451.931-2.138 1.397-16.002 10.759-19.275 20.05-22.244 18.165-3.098-1.963-3.792-10.019 1.263-15.316 3.499-3.67 5.949-9.024 10.649-14.811 1.27-1.565 2.704-3.163 4.368-4.768 7.351-7.083 19.114-14.403 25.683-20.03.424-.362.825-.719 1.203-1.067 5.407-4.987 7.517-15.249 17.383-18.368 4.822-1.522 10.599-.929 16.174.542.991.26 1.976.551 2.944.859 1.451.464 2.87.974 4.237 1.501 1.889.74 3.68 1.517 5.314 2.28 1.565.73 2.991 1.446 4.22 2.088 2.965 1.554 4.798 2.709 4.798 2.709l6.881 21.692z" fill="#fff"/><path d="M560.68 626.987c-5.831 7.632-19.26 22.221-34.76 18.894.424-.363.825-.719 1.204-1.068 5.407-4.987 7.518-15.249 17.383-18.369 4.821-1.521 10.599-.926 16.173.543zM506.206 682.639c-16.002 10.759-19.275 20.05-22.242 18.167-3.1-1.963-3.792-10.021 1.261-15.318 3.501-3.67 5.951-9.022 10.649-14.809 3.959 2.809 8.17 6.791 10.332 11.96zM581.137 659.691c-1.4.285-2.95.605-4.627.96-2.914-5.321-4.376-11.81-4.287-19.212.046-3.741.476-7.14.953-9.812 1.567.731 2.992 1.446 4.22 2.088-.348 2.25-.627 4.928-.66 7.813-.066 5.833.894 12.513 4.401 18.163zM567.863 629.347c-1.367-.527-2.786-1.037-4.237-1.501-.941 2.733-2.29 7.338-2.898 12.752-.987 8.775.351 16.481 3.891 22.662 1.584-.359 3.125-.705 4.612-1.034-7.486-11.466-3.368-27.004-1.368-32.879z" fill="#80D7B2"/><path d="M825.234 574.855c-21.09 25.756-68.509 52.103-119.224 67.39-17.609 5.308-32.727 9.292-45.629 12.278-10.159 2.356-18.95 4.087-26.494 5.352-29.129 4.886-39.835 2.851-39.835 2.851s-17.974-5.78-10.268-34.977c0 0 34.074-7.832 60.475-20.882 5.383-2.659 10.449-5.539 14.84-8.614 1.029-.721 2.053-1.453 3.064-2.197 24.538-17.974 45.519-42.388 100.815-64.457 0 0 28.922-17.564 52.17-9.688 3.467 1.171 6.75 2.864 9.717 5.2 16.846 13.255 14.608 30.366.369 47.744z" fill="#0CAD69"/><path d="M721.945 634.354l-10.993 1.51-66.684-28.997c5.382-2.661 10.447-5.538 14.84-8.614 1.027-.721 2.052-1.453 3.064-2.196l59.773 38.297zM660.388 654.522c-10.16 2.357-18.95 4.087-26.495 5.352-21.221-5.763-46.63-16.516-46.63-16.516l1.655-13.179 71.47 24.343zM825.232 574.856c-17.406-23.394-13.948-42.983-10.085-52.945 3.469 1.173 6.749 2.864 9.718 5.2 16.845 13.255 14.606 30.366.367 47.745z" fill="#108E59"/><path d="M586.683 636.457c17.734-3.473 54.206-18.359 97.562-39.821 32.427-16.052 69.918-36.736 75.608-44.22 3.074-4.042 3.949-7.419 2.6-10.036-2.018-3.916-8.278-4.578-11.141-4.671-.738-.025-1.342.574-1.32 1.314.021.669.552 1.21 1.223 1.232 2.813.101 7.689.791 8.975 3.292 1.069 2.079-.696 5.132-2.366 7.326-4.589 6.037-36.008 24.321-74.708 43.479-33.324 16.496-76.287 35.564-96.922 39.606l.489 2.499z" fill="#108E59"/><path d="M590.514 624.111c1.318 15.576 4.734 29.831 13.026 41.002 0 0-7.722 5.078-14.403.915-5.102-3.18-14.153-27.807-9.76-40.561 4.475-2.202 8.283-2.875 11.137-1.356z" fill="#108E59"/><path d="M712.635 664.405s2.98.761 7.818 2.09c1.377.376 2.906.799 4.555 1.261 2.189.614 4.595 1.299 7.16 2.048 1.463.426 2.979.871 4.534 1.333 19.361 5.767 44.939 14.283 54.981 21.624.706.518 1.388 1.027 2.044 1.537 15.263 11.782 17.923 21.265 21.006 19.581 3.222-1.755 4.439-9.75-.256-15.366-3.254-3.892-5.348-9.394-9.658-15.478-1.166-1.643-2.491-3.332-4.047-5.042-6.872-7.55-18.13-15.621-24.317-21.667-.4-.388-.778-.771-1.132-1.145-5.068-5.329-6.504-15.706-16.145-19.466-4.71-1.833-10.515-1.62-16.173-.517-1.008.196-2.01.42-2.995.666-1.48.369-2.927.783-4.327 1.221-1.932.614-3.769 1.274-5.451 1.926-1.611.628-3.079 1.248-4.347 1.811-3.06 1.354-4.966 2.385-4.966 2.385l-8.284 21.198z" fill="#fff"/><path d="M743.006 635.197c5.319 8 17.767 23.433 33.449 21.128-.399-.388-.776-.77-1.131-1.143-5.069-5.331-6.505-15.707-16.145-19.467-4.711-1.832-10.513-1.619-16.173-.518zM793.725 694.298c15.262 11.782 17.923 21.266 21.006 19.581 3.222-1.755 4.439-9.751-.257-15.367-3.254-3.891-5.346-9.393-9.657-15.477-4.135 2.545-8.597 6.246-11.092 11.263zM720.454 666.494c1.377.377 2.904.799 4.555 1.261 3.254-5.118 5.139-11.498 5.535-18.891.197-3.735-.008-7.155-.31-9.852-1.611.626-3.081 1.246-4.35 1.809.203 2.267.306 4.956.15 7.84-.315 5.823-1.711 12.424-5.58 17.833zM732.17 669.804c1.462.426 2.976.871 4.534 1.333 3.935-5.936 5.776-13.537 5.365-22.36-.255-5.441-1.299-10.124-2.06-12.914-1.478.369-2.925.784-4.325 1.221 1.613 5.991 4.704 21.765-3.514 32.72z" fill="#80D7B2"/><path d="M718.276 634.856c5.778 29.642-12.533 34.231-12.533 34.231s-27.286 3.357-110.378-27.759c-47.907-17.939-92.08-45.974-112.487-72.261-14.984-19.3-17.154-37.666 1.417-50.403 4.279-2.935 9.076-4.616 14.068-5.399 22.992-3.608 50.152 11.865 50.152 11.865 55.954 26.698 41.949 35.873 88.611 65.597 26.687 16.999 81.15 44.129 81.15 44.129z" fill="#0CAD69"/><path d="M498.363 513.265c.89 10.022 2.415 43.535-15.485 55.802-14.984-19.3-17.154-37.666 1.419-50.403 4.279-2.935 9.074-4.616 14.066-5.399zM714.82 643.356c-17.47-4.625-52.89-21.865-94.75-46.117-31.306-18.138-67.363-41.231-72.552-49.07-2.803-4.236-3.455-7.663-1.939-10.184 2.27-3.778 8.562-4.027 11.424-3.934.738.025 1.301.662 1.231 1.396-.065.668-.632 1.172-1.301 1.153-2.815-.084-7.724.285-9.171 2.699-1.204 2.002.359 5.163 1.881 7.464 4.184 6.322 34.342 26.624 71.705 48.273 32.174 18.64 73.798 40.477 94.125 45.858l-.653 2.462z" fill="#108E59"/><path d="M711.8 630.786c-2.336 15.459-6.676 29.456-15.681 40.061 0 0 7.373 5.572 14.311 1.856 5.299-2.837 15.942-26.82 12.395-39.834-4.323-2.491-8.078-3.41-11.025-2.083z" fill="#108E59"/><path d="M795.577 512.719c-6.203 7.938-14.762 12.379-21.555 16.92-16.339 10.926-49.49 17.834-46.999-19.804 2.496-37.633 30.966-22.383 10.019-88.483-8.94-28.203-15.098-86.338-15.098-86.338s46.796 32.784 74.485 113.639c2.159 6.299 3.791 12.048 4.97 17.303 5.356 23.872 1.326 37.63-5.822 46.763z" fill="#FB4C47"/><path d="M795.574 512.719c-10.152-18.127-1.732-36.046 5.822-46.763 5.355 23.872 1.325 37.63-5.822 46.763zM726.915 516.572c-.518 0-.983-.36-1.094-.887-.068-.321-1.641-7.98 1.482-18.162 2.87-9.348 10.431-22.648 30.163-32.919.552-.288 1.227-.073 1.512.475.287.55.072 1.227-.475 1.512-18.985 9.884-26.259 22.569-29.019 31.472-2.995 9.652-1.487 17.082-1.472 17.156.129.605-.259 1.2-.863 1.328-.08.017-.158.025-.234.025z" fill="#B63A37"/><path d="M743.917 475.561c-.152.015-.312-.002-.466-.053-.589-.198-.905-.833-.705-1.419 3.632-10.814 5.96-15.443 6.057-15.635.28-.552.953-.772 1.506-.491.552.28.773.953.493 1.505-.025.045-2.362 4.705-5.932 15.334-.146.432-.527.717-.953.759z" fill="#B63A37"/><path d="M745.183 470.636c-.618 0-1.12-.502-1.12-1.12 0-22.03-29.437-71.907-29.735-72.41-.316-.532-.141-1.221.391-1.536.533-.316 1.219-.139 1.537.392 1.227 2.069 30.047 50.914 30.047 73.554 0 .618-.5 1.12-1.12 1.12z" fill="#B63A37"/><path d="M724.346 414.025c-.233 0-.469-.072-.671-.223-3.809-2.847-13.448-5.365-13.545-5.389-.599-.155-.958-.767-.802-1.364.154-.601.766-.961 1.363-.805.413.107 10.164 2.652 14.327 5.763.494.371.597 1.073.226 1.569-.22.293-.557.449-.898.449z" fill="#B63A37"/><path d="M710.626 571.348c.183 1.99.354 4.068.598 5.746.458 3.17 1.181 4.905 2.757 1.89.35-.679.634-1.546.866-2.543 1.358-5.815.911-16.051 1.538-18.282.71-2.535 3.667-9.745 3.926-10.152-.134.3-1.467 4.709-1.621 7.429-.146 2.55 0 5.65 0 11.93 0 2.738.101 5.57.447 7.63v.006c.445 2.662 1.305 4.018 2.9 2.172.786-.909 1.288-2.505 1.615-4.394.86-4.905.552-11.831 1.004-14.098.609-3.039 3.076-7.95 3.233-8.258-.935 3.127-.935 2.819-1.454 6.927-.368 2.87-1.037 10.505-.328 13.927.301 1.476.866 2.172 1.82 1.364 1.49-1.261 2.524-3.11 3.255-5.225.821-2.373 1.255-5.087 1.531-7.687.521-4.922 2.512-7.956 2.512-7.956-1.105 5.331-1.71 10.487-1.383 13.15.227 1.883.917 2.518 2.218 1.086 2.537-2.788 5.099-12.007 5.985-15.474.03-.106.055-.213.08-.313.032-.107.051-.2.078-.29.118-.464.18-.728.18-.728l.006-.006c.736-2.889 1.4-5.777 2.374-8.364 1.445-3.844 3.592-7.027 7.725-8.558 9.376-3.486 6.497-21.318-6.645-22.389-3.829-.312-7.619.957-10.624 3.349-1.913 1.524-4.612 3.652-7.343 5.738l-.006.006c-.262.335-8.809 10.92-11.485 17.514-2.718 6.694-5.023 17.269-5.546 20.302-.526 3.034-.732 8.792-.213 14.551z" fill="#FAB893"/><path d="M504.045 521.514c6.242 8.139 14.853 12.694 21.688 17.351 16.44 11.204 49.795 18.285 47.289-20.309-2.511-38.589-31.155-22.95-10.079-90.732 8.994-28.919 10.079-86.552 10.079-86.552s-41.973 31.636-69.834 114.548c-2.172 6.457-3.814 12.352-4.998 17.743-5.389 24.479-1.334 38.586 5.855 47.951z" fill="#FB4C47"/><path d="M504.304 523.099c10.152-18.129 1.733-36.046-5.82-46.763-5.355 23.872-1.325 37.63 5.82 46.763zM572.963 526.952c.517 0 .983-.36 1.094-.887.068-.321 1.641-7.98-1.484-18.162-2.868-9.348-10.43-22.647-30.163-32.921-.55-.286-1.225-.071-1.512.477-.285.548-.072 1.225.477 1.512 18.984 9.882 26.259 22.569 29.02 31.472 2.992 9.65 1.486 17.082 1.471 17.156-.128.605.258 1.199.863 1.328.078.017.156.025.234.025z" fill="#B63A37"/><path d="M555.965 485.94c.154.016.312-.001.467-.053.586-.198.902-.833.706-1.419-3.634-10.813-5.962-15.443-6.059-15.635-.28-.551-.953-.772-1.506-.49-.552.279-.773.952-.493 1.506.023.044 2.362 4.703 5.934 15.333.144.431.525.717.951.758z" fill="#B63A37"/><path d="M554.696 481.015c.62 0 1.12-.502 1.12-1.12 0-22.029 29.439-71.907 29.736-72.409.317-.533.14-1.221-.392-1.537-.531-.316-1.219-.139-1.535.394-1.228 2.067-30.049 50.912-30.049 73.552 0 .618.502 1.12 1.12 1.12z" fill="#B63A37"/><path d="M575.534 424.405c.234 0 .468-.072.669-.224 3.81-2.847 13.448-5.363 13.545-5.388.599-.154.961-.767.805-1.366-.156-.599-.769-.958-1.366-.804-.413.106-10.163 2.653-14.327 5.764-.494.369-.595 1.073-.226 1.569.221.293.557.449.9.449z" fill="#B63A37"/><path d="M589.254 581.727c-.183 1.991-.352 4.07-.595 5.745-.461 3.17-1.183 4.907-2.758 1.892-.352-.68-.635-1.546-.867-2.544-1.356-5.816-.911-16.052-1.539-18.281-.709-2.537-3.667-9.745-3.923-10.152.131.301 1.464 4.709 1.618 7.429.146 2.548 0 5.65 0 11.93 0 2.739-.099 5.571-.445 7.63v.006c-.445 2.663-1.307 4.019-2.902 2.172-.784-.909-1.286-2.505-1.613-4.395-.86-4.905-.553-11.832-1.004-14.099-.611-3.039-3.077-7.949-3.235-8.256.935 3.127.935 2.819 1.457 6.927.365 2.868 1.036 10.504.327 13.927-.301 1.476-.868 2.172-1.822 1.364-1.488-1.263-2.524-3.11-3.252-5.225-.824-2.373-1.256-5.087-1.533-7.687-.521-4.924-2.511-7.957-2.511-7.957 1.105 5.333 1.708 10.488 1.381 13.149-.226 1.885-.917 2.518-2.218 1.086-2.537-2.786-5.098-12.006-5.983-15.471-.032-.107-.057-.215-.082-.314-.032-.109-.049-.202-.076-.289-.118-.464-.18-.729-.18-.729l-.008-.007c-.734-2.887-1.4-5.776-2.373-8.363-1.444-3.843-3.591-7.027-7.724-8.56-9.378-3.484-6.498-21.316 6.643-22.389 3.831-.311 7.621.957 10.626 3.35 1.913 1.525 4.61 3.653 7.341 5.739l.006.006c.264.333 8.811 10.92 11.485 17.514 2.72 6.695 5.025 17.269 5.546 20.302.527 3.032.734 8.793.213 14.55z" fill="#FAB893"/></svg>