<svg width="878" height="884" fill="none" xmlns="http://www.w3.org/2000/svg"><g opacity=".62"><path d="M381.202 732.408c-33.707 15.055-68.255 23.114-106.111 17.752-42.195-5.982-80.992-41.697-104.09-78.222-8.582-13.566-15.739-28.866-16.112-45.04-.85-37.364 31.981-43.453 60.538-39.062 16.097 2.467 31.209 9.335 46.15 16.139 24.807 11.305 53.283 15.918 75.97 32.267 7.614 5.503 13.524 12.302 22.187 16.124 13.475 5.951 28.533 8.255 42.317 13.583 11.771 4.574 25.126 12.448 26.092 25.63.975 13.52-11.681 22.907-22.959 28.968-7.981 4.314-15.951 8.289-23.982 11.861z" fill="url(#paint0_linear)"/><path d="M219.065 259.242c50.358-92.16 165.15-134.662 262.685-106.781 47.032 13.452 87.893 44.781 125.86 77.562 33.467 28.892 66.174 60.252 90.361 98.489 16.514 26.1 29.272 57.795 38.809 87.523 14.264 44.513 8.452 103.273-46.795 102.204-12.962-.25-24.469-4.526-36.834-8.133-10.003-2.926-19.409-.276-29.656-1.393-25.793-2.806-51.061-11.347-75.117-21.673-49.026-21.066-94.586-50.909-144.744-68.951-41.104-14.762-84.32-21.106-127.319-18.688-18.14 1.023-37.115 3.48-53.96-4.193-41.52-18.931-27.664-77.294-15.051-110.405 3.338-8.818 7.269-17.36 11.761-25.561z" fill="url(#paint1_linear)"/><path d="M665.036 246.787c9.992 8.448 48.471 30.858 47.104 2.014-.35-7.185-3.915-13.975-8.463-18.987-5.204-5.755-10.84-8.604-15.071-15.415-5.168-8.22-10.931-15.893-17.212-22.919-12.86-14.638-27.606-27.996-44.716-33.335-12-3.739-31.698-1.478-36.102 14.75-6.417 23.625 28.456 25.858 39.605 33.684 10.58 7.406 17.234 20.8 25.945 31.247 2.752 3.294 5.735 6.293 8.91 8.961z" fill="url(#paint2_linear)"/><path d="M490.222 228.667c20.683 11.23 36.863 28.897 55.983 42.772 31.831 23.096 73.376 25.784 109.072 41.058 36.398 15.585 64.897 41.437 79.733 80.222 19.163 50.062 25 110.582 15.609 163.74-10.344 58.514-41.63 98.801-89.567 127.242-47.909 28.424-102.161 43.543-156.948 49.196-5.287.55-10.572.989-15.886 1.334-119.353 7.677-281.505-27.736-331.971-161.649-.462-1.224-.909-2.448-1.358-3.69-5.282-14.939-8.873-30.457-10.695-46.222-6.591-55.88-1.814-118.26 12.894-171.86 9.889-36.085 34.516-67.542 61.2-90.487 37.491-32.234 85.315-42.685 133.203-49.074 35.46-4.73 75.488-8.032 110.246 4.496 9.77 3.553 19.292 7.873 28.485 12.922z" fill="url(#paint3_linear)"/></g><path d="M425.615 431.812c1.48 3.655 5.446 5.41 8.86 3.919l14.058-6.138c7.157-3.125 14.938-4.455 22.725-3.794 2.321.198 4.718-.242 6.964-1.417 5.951-3.114 8.759-10.619 6.494-17.352-2.659-7.904-10.949-11.816-18.046-8.718-1.922.84-3.552 2.104-4.834 3.651-5.149 6.208-11.432 11.239-18.662 14.396l-14.056 6.137c-3.414 1.49-4.982 5.661-3.503 9.316z" fill="#FB4C47"/><path d="M359.249 511.351c-2.86-1.266-6.096.147-7.227 3.155l-4.657 12.388c-2.371 6.306-6.087 11.927-10.905 16.363-1.437 1.322-2.565 3.071-3.202 5.166-1.687 5.552.843 11.777 5.85 14.393 5.878 3.072 12.775.266 15.126-5.987.637-1.694.872-3.46.753-5.18-.477-6.901.344-13.805 2.739-20.175l4.656-12.385c1.13-3.009-.272-6.473-3.133-7.738zM401.255 399.627c2.994 1.324 6.379-.154 7.563-3.302l4.873-12.962c2.481-6.599 6.371-12.482 11.412-17.123 1.503-1.384 2.684-3.214 3.35-5.407 1.766-5.809-.882-12.323-6.122-15.061-6.15-3.214-13.368-.278-15.828 6.265-.666 1.773-.912 3.621-.788 5.42.499 7.223-.36 14.446-2.865 21.113l-4.873 12.96c-1.183 3.148.284 6.773 3.278 8.097z" fill="#C63F3B"/><path d="M400.899 497.57c-3.413 1.49-4.982 5.661-3.502 9.316l6.092 15.051c3.101 7.662 4.525 15.948 4.07 24.196-.136 2.459.33 5.012 1.487 7.421 3.065 6.382 10.202 9.525 16.501 7.267 7.395-2.65 10.903-11.362 7.828-18.96-.833-2.058-2.061-3.815-3.547-5.209-5.965-5.598-10.845-12.375-13.978-20.115l-6.091-15.048c-1.479-3.655-5.446-5.41-8.86-3.919z" fill="#FB4C47"/><path d="M429.826 536.652c-5.965-5.597-10.845-12.374-13.978-20.115l-6.091-15.048c-1.48-3.655-5.446-5.41-8.861-3.919-3.414 1.491-4.982 5.661-3.502 9.317l6.091 15.048c3.133 7.74 8.013 14.517 13.978 20.115 1.486 1.395 2.713 3.151 3.547 5.21 1.981 4.895 1.226 10.249-1.536 14.15 2.004.298 4.079.126 6.071-.588 7.394-2.651 10.903-11.362 7.827-18.96-.833-2.058-2.06-3.815-3.546-5.21z" fill="#C63F3B"/><path d="M324.795 443.673c11.152-4.869 16.275-18.495 11.442-30.435-4.832-11.939-17.791-17.671-28.943-12.801-11.152 4.869-16.274 18.495-11.442 30.434 4.833 11.94 17.791 17.672 28.943 12.802z" fill="#FF8F8C"/><path d="M307.299 400.436c-2.156.942-4.084 2.214-5.762 3.735 9.259-.753 18.444 4.834 22.342 14.465 3.898 9.63 1.316 20.355-5.68 26.7 2.22-.181 4.444-.722 6.601-1.663 11.152-4.87 16.275-18.496 11.442-30.435-4.833-11.94-17.791-17.671-28.943-12.802z" fill="#FB4C47"/><path d="M410.564 521.451c36.414-15.9 53.141-60.392 37.361-99.378-15.78-38.985-58.092-57.7-94.506-41.801-36.414 15.9-53.141 60.392-37.361 99.378 15.78 38.985 58.092 57.7 94.506 41.801z" fill="#FB4C47"/><path d="M353.419 380.272c-2.085.91-4.102 1.918-6.055 3.01 34.866-11.296 73.322 7.435 88.199 44.188 14.877 36.753.859 78.397-31.306 96.367 2.118-.686 4.223-1.477 6.308-2.387 36.414-15.9 53.141-60.392 37.361-99.377-15.781-38.986-58.093-57.701-94.507-41.801z" fill="#C63F3B"/><path d="M402.755 430.275c7.397-3.23 10.794-12.267 7.589-20.186-3.205-7.919-11.8-11.721-19.197-8.491-7.396 3.229-10.794 12.267-7.589 20.186 3.206 7.919 11.8 11.72 19.197 8.491z" fill="#C63F3B"/><path d="M391.146 401.598c-2.23.974-4.094 2.479-5.526 4.319 5.253.521 10.121 4.039 12.36 9.57 2.239 5.531 1.253 11.605-2.063 15.867 2.267.225 4.606-.105 6.837-1.079 7.397-3.229 10.794-12.267 7.589-20.186-3.205-7.919-11.8-11.72-19.197-8.491zM373.515 498.434c5.007-2.186 7.307-8.304 5.137-13.665-2.17-5.361-7.988-7.934-12.995-5.748-5.007 2.186-7.307 8.304-5.137 13.665 2.17 5.361 7.988 7.934 12.995 5.748z" fill="#fff"/><path d="M453.396 496.865c6.828-2.982 9.964-11.324 7.005-18.634-2.959-7.31-10.892-10.819-17.72-7.838-6.828 2.982-9.964 11.324-7.005 18.634 2.959 7.31 10.892 10.819 17.72 7.838z" fill="#FB4C47"/><path d="M442.68 470.394c-2.252.984-4.1 2.553-5.463 4.474 4.621.676 8.838 3.864 10.821 8.762 1.983 4.899 1.225 10.258-1.543 14.16 2.275.332 4.648.06 6.901-.924 6.828-2.981 9.964-11.324 7.005-18.633-2.959-7.31-10.893-10.82-17.721-7.839zM338.359 469.91c1.48 3.655-.088 7.826-3.502 9.317l-14.058 6.138c-7.157 3.125-13.516 7.968-18.509 14.209-1.488 1.861-3.467 3.332-5.847 4.177-6.305 2.238-13.433-.929-16.481-7.321-3.577-7.503-.469-16.392 6.628-19.49 1.922-.84 3.932-1.165 5.894-1.034 7.872.522 15.73-.621 22.96-3.777l14.056-6.137c3.413-1.491 7.38.263 8.859 3.918z" fill="#C63F3B"/><path d="M363.09 404.152c3.414-1.491 4.982-5.662 3.503-9.317l-6.092-15.05c-3.102-7.662-4.525-15.948-4.07-24.196.136-2.459-.331-5.012-1.487-7.421-3.065-6.382-10.202-9.525-16.501-7.268-7.395 2.651-10.904 11.362-7.828 18.96.833 2.059 2.06 3.815 3.547 5.21 5.964 5.598 10.844 12.375 13.977 20.115l6.092 15.048c1.478 3.655 5.446 5.409 8.859 3.919z" fill="#FB4C47"/><path d="M354.944 348.168c-3.064-6.382-10.202-9.525-16.5-7.268-2.631.943-4.767 2.655-6.293 4.81 4.335.644 8.335 3.491 10.431 7.856 1.156 2.408 1.623 4.961 1.487 7.42-.455 8.249.968 16.534 4.07 24.196l6.092 15.051c1.479 3.655 5.446 5.409 8.86 3.919 3.414-1.491 4.982-5.662 3.503-9.317l-6.092-15.051c-3.102-7.662-4.525-15.947-4.07-24.195.135-2.459-.33-5.013-1.488-7.421zM468.079 398.7c-1.936.801-3.587 2.032-4.896 3.552-.232.269-.468.533-.704.797 4.903.789 9.309 4.413 11.037 9.861 1.478 4.659.547 9.636-2.133 13.264.268.023.537.043.806.071 2.317.242 4.721-.15 6.987-1.28 6.002-2.995 8.94-10.436 6.792-17.206-2.522-7.947-10.741-12.016-17.889-9.059z" fill="#C63F3B"/><g opacity=".63"><path d="M523.077 566.019c1.112 1.651 3.256 2.063 4.789.919l6.314-4.71c3.214-2.399 6.924-3.974 10.843-4.555 1.169-.173 2.308-.673 3.297-1.523 2.619-2.252 3.227-6.328 1.406-9.425-2.137-3.635-6.643-4.618-9.831-2.24-.863.644-1.537 1.466-2.011 2.389-1.9 3.702-4.484 6.95-7.731 9.373l-6.313 4.71c-1.533 1.144-1.875 3.41-.763 5.062z" fill="#FFC700"/><path d="M493.156 604.674c-1.546-.296-2.999.788-3.246 2.422l-1.014 6.731c-.517 3.426-1.77 6.668-3.691 9.446-.573.829-.949 1.834-1.046 2.955-.257 2.969 1.642 5.781 4.39 6.502 3.226.845 6.345-1.363 6.858-4.761.138-.92.071-1.829-.167-2.674-.954-3.39-1.266-6.933-.744-10.395l1.014-6.729c.246-1.634-.808-3.2-2.354-3.497zM502.309 543.971c1.619.311 3.139-.824 3.397-2.534l1.062-7.043c.54-3.585 1.852-6.978 3.862-9.885.599-.867.993-1.92 1.094-3.092.269-3.108-1.718-6.05-4.594-6.804-3.376-.885-6.64 1.426-7.176 4.982-.145.963-.074 1.914.174 2.798.999 3.548 1.325 7.255.78 10.877l-1.062 7.042c-.257 1.71.845 3.348 2.463 3.659z" fill="#D09700"/><path d="M512.317 592.919c-1.533 1.144-1.875 3.411-.763 5.063l4.578 6.801c2.331 3.463 3.897 7.434 4.53 11.605.188 1.244.684 2.464 1.507 3.532 2.18 2.828 6.036 3.561 8.916 1.697 3.382-2.189 4.21-6.95 1.899-10.384-.626-.93-1.416-1.664-2.296-2.186-3.532-2.097-6.65-4.909-9.005-8.407l-4.577-6.801c-1.112-1.652-3.256-2.064-4.789-.92z" fill="#FFC700"/><path d="M530.688 609.045c-3.532-2.097-6.65-4.909-9.005-8.407l-4.578-6.801c-1.111-1.652-3.255-2.064-4.789-.92-1.533 1.144-1.875 3.411-.763 5.063l4.578 6.801c2.354 3.498 5.473 6.31 9.005 8.407.88.522 1.67 1.256 2.296 2.186 1.489 2.212 1.673 4.974.712 7.245 1.022-.086 2.03-.415 2.941-1.004 3.381-2.189 4.21-6.95 1.899-10.384-.626-.93-1.416-1.663-2.296-2.186zM469.079 574.916c5.009-3.736 6.125-11.14 2.493-16.535-3.632-5.396-10.636-6.741-15.645-3.004-5.008 3.737-6.124 11.14-2.492 16.536 3.632 5.396 10.636 6.74 15.644 3.003z" fill="#D09700"/><path d="M455.928 555.377c-.969.722-1.79 1.583-2.461 2.539 4.5-1.46 9.624.255 12.553 4.607 2.93 4.352 2.768 10.01-.031 13.996 1.079-.35 2.122-.88 3.091-1.603 5.008-3.737 6.124-11.14 2.492-16.536-3.632-5.395-10.636-6.74-15.644-3.003z" fill="#FFC700"/><path d="M519.58 603.712c16.354-12.202 19.997-36.376 8.138-53.995-11.859-17.618-34.73-22.009-51.084-9.807-16.354 12.202-19.998 36.376-8.139 53.994 11.859 17.619 34.731 22.01 51.085 9.808z" fill="#FFC700"/><path d="M476.64 539.909c-.936.699-1.829 1.438-2.682 2.212 16.068-9.722 37.034-4.871 48.214 11.738 11.18 16.61 8.58 39.045-5.457 51.783.975-.59 1.934-1.232 2.871-1.931 16.354-12.201 19.998-36.376 8.138-53.994-11.859-17.619-34.73-22.01-51.084-9.808z" fill="#D09700"/><path d="M502.146 561.712c1.21-.902 1.479-2.69.602-3.993-.877-1.303-2.568-1.628-3.778-.725-1.209.902-1.479 2.69-.602 3.993.877 1.303 2.569 1.627 3.778.725zM498.862 596.557c2.248-1.678 2.75-5.003 1.119-7.425-1.631-2.423-4.776-3.027-7.025-1.349-2.249 1.678-2.75 5.002-1.12 7.425 1.631 2.423 4.777 3.027 7.026 1.349zM482.75 573.993c3.443-2.569 4.21-7.659 1.713-11.368-2.497-3.709-7.312-4.634-10.755-2.065-3.443 2.569-4.21 7.659-1.714 11.368 2.497 3.709 7.312 4.634 10.756 2.065z" fill="#fff"/><path d="M538.201 586.421c3.067-2.288 3.75-6.82 1.526-10.124-2.223-3.304-6.512-4.127-9.578-1.839-3.067 2.288-3.75 6.821-1.527 10.124 2.224 3.304 6.513 4.127 9.579 1.839z" fill="#FFC700"/><path d="M530.15 574.458c-1.012.755-1.762 1.755-2.236 2.874 2.355-.204 4.772.894 6.263 3.108 1.49 2.214 1.672 4.979.71 7.251 1.159-.1 2.304-.514 3.316-1.269 3.067-2.288 3.75-6.821 1.526-10.125-2.224-3.303-6.512-4.127-9.579-1.839zM478.516 586.429c1.111 1.652.77 3.919-.763 5.063l-6.314 4.71c-3.214 2.398-5.855 5.561-7.675 9.262-.542 1.103-1.368 2.07-2.457 2.77-2.886 1.856-6.74 1.109-8.912-1.726-2.55-3.327-1.937-8.13 1.25-10.508.863-.644 1.824-1.041 2.807-1.206 3.948-.661 7.715-2.151 10.962-4.574l6.313-4.71c1.533-1.144 3.677-.732 4.789.919z" fill="#D09700"/><path d="M483.902 550.702c1.533-1.144 1.875-3.41.763-5.062l-4.579-6.802c-2.33-3.462-3.896-7.433-4.529-11.605-.189-1.243-.685-2.464-1.508-3.531-2.179-2.828-6.036-3.562-8.916-1.697-3.381 2.189-4.21 6.95-1.899 10.384.626.93 1.416 1.663 2.296 2.186 3.532 2.096 6.65 4.909 9.005 8.407l4.578 6.801c1.111 1.651 3.256 2.063 4.789.919z" fill="#FFC700"/><path d="M474.047 523.703c-2.179-2.828-6.036-3.562-8.916-1.697-1.203.778-2.081 1.883-2.611 3.138 2.21-.186 4.485.767 5.975 2.701.823 1.068 1.319 2.288 1.507 3.531.634 4.172 2.199 8.143 4.53 11.605l4.578 6.802c1.112 1.652 3.256 2.064 4.79.92 1.533-1.144 1.875-3.411.763-5.062l-4.579-6.802c-2.33-3.463-3.896-7.434-4.529-11.605-.189-1.244-.685-2.464-1.508-3.531z" fill="#D09700"/></g><path d="M568.409 486.661c-2.127-.549-4.235.826-4.707 3.071l-1.943 9.248c-.99 4.707-2.989 9.094-5.882 12.778-.862 1.098-1.465 2.46-1.688 4.006-.593 4.097 1.827 8.168 5.592 9.412 4.421 1.46 8.935-1.326 9.916-5.995.266-1.264.244-2.532-.02-3.725-1.059-4.789-1.213-9.732-.214-14.488l1.944-9.246c.472-2.245-.87-4.511-2.998-5.061z" fill="#1DB776"/><path d="M554.979 425.105c1.52-.991 1.967-3.12 1-4.754l-3.986-6.729c-2.029-3.426-3.303-7.286-3.68-11.281-.112-1.191-.517-2.378-1.242-3.44-1.919-2.815-5.547-3.745-8.386-2.152-3.334 1.87-4.379 6.334-2.367 9.731.545.92 1.256 1.664 2.065 2.213 3.245 2.203 6.057 5.061 8.107 8.521l3.985 6.728c.968 1.634 2.985 2.155 4.504 1.163zM590.924 485.797c-1.59 1.038-2.058 3.265-1.046 4.975l4.171 7.042c2.123 3.585 3.456 7.624 3.85 11.805.118 1.246.542 2.488 1.3 3.6 2.009 2.945 5.805 3.919 8.776 2.252 3.488-1.957 4.582-6.629 2.477-10.184-.57-.963-1.315-1.741-2.161-2.315-3.395-2.306-6.339-5.296-8.484-8.917l-4.17-7.041c-1.013-1.709-3.123-2.254-4.713-1.217z" fill="#128E5A"/><path d="M547.25 450.941c.472-2.246-.87-4.512-2.998-5.061l-8.761-2.263c-4.46-1.152-8.639-3.369-12.175-6.519-1.054-.938-2.351-1.608-3.814-1.878-3.875-.718-7.661 1.761-8.752 5.73-1.281 4.659 1.444 9.509 5.867 10.652 1.198.309 2.393.313 3.512.059 4.492-1.019 9.149-1.076 13.655.088l8.759 2.263c2.127.549 4.235-.826 4.707-3.071z" fill="#1DB776"/><path d="M520.13 451.662c4.492-1.02 9.15-1.076 13.655.087l8.76 2.263c2.127.549 4.235-.825 4.707-3.071.472-2.246-.87-4.512-2.998-5.061l-8.76-2.263c-4.505-1.164-9.162-1.107-13.654-.088-1.12.254-2.314.25-3.512-.059-2.85-.736-4.992-3.012-5.815-5.783-.801.903-1.416 2.008-1.761 3.263-1.281 4.66 1.444 9.51 5.867 10.652 1.198.309 2.392.314 3.511.06zM596.726 431.728c-1.542 7.335 2.842 14.738 9.792 16.533 6.95 1.795 13.834-2.697 15.375-10.032 1.542-7.336-2.842-14.738-9.792-16.534-6.95-1.795-13.834 2.697-15.375 10.033z" fill="#128E5A"/><path d="M621.895 438.23c.299-1.419.373-2.839.252-4.222-2.751 4.926-8.312 7.57-13.918 6.122-5.606-1.448-9.54-6.545-10.044-12.311-.659 1.181-1.159 2.491-1.457 3.91-1.542 7.336 2.842 14.738 9.792 16.533 6.95 1.795 13.834-2.696 15.375-10.032z" fill="#1DB776"/><path d="M533.349 447.351c-5.035 23.954 9.281 48.123 31.973 53.985 22.693 5.861 45.171-8.805 50.205-32.758 5.034-23.953-9.281-48.123-31.974-53.984-22.693-5.862-45.17 8.804-50.204 32.757z" fill="#1DB776"/><path d="M615.535 468.578c.288-1.372.51-2.744.673-4.113-6.576 21.544-27.775 34.264-49.169 28.738-21.393-5.526-35.338-27.323-32.647-49.871-.399 1.308-.747 2.648-1.036 4.019-5.034 23.953 9.281 48.123 31.974 53.984 22.693 5.862 45.17-8.804 50.205-32.757z" fill="#128E5A"/><path d="M576.715 475.702c-1.022 4.865 1.886 9.775 6.495 10.965 4.61 1.191 9.175-1.788 10.198-6.654 1.023-4.865-1.885-9.775-6.495-10.965-4.609-1.191-9.175 1.788-10.198 6.654z" fill="#128E5A"/><path d="M593.417 480.012c.308-1.467.257-2.937-.088-4.309-1.985 2.459-5.181 3.663-8.401 2.831-3.219-.832-5.607-3.478-6.406-6.656-.857 1.062-1.489 2.355-1.798 3.823-1.022 4.865 1.886 9.775 6.495 10.965 4.61 1.191 9.175-1.788 10.198-6.654zM555.996 436.855c-.692 3.294 1.276 6.617 4.396 7.424 3.121.806 6.212-1.211 6.904-4.505.692-3.294-1.276-6.617-4.397-7.423-3.12-.806-6.211 1.21-6.903 4.504z" fill="#fff"/><path d="M530.057 477.608c-.944 4.492 1.741 9.025 5.996 10.124 4.256 1.099 8.471-1.651 9.415-6.143.944-4.492-1.741-9.024-5.996-10.123-4.256-1.1-8.471 1.651-9.415 6.142z" fill="#1DB776"/><path d="M545.472 481.588c.311-1.482.225-2.968-.179-4.334-1.843 2.087-4.675 3.08-7.527 2.344-2.852-.737-4.995-3.016-5.817-5.791-.908 1.028-1.577 2.318-1.888 3.8-.944 4.492 1.74 9.025 5.996 10.124 4.255 1.099 8.471-1.651 9.415-6.143zM580.471 429.266c-2.128-.549-3.47-2.815-2.998-5.061l1.944-9.247c.989-4.708.944-9.623-.181-14.345-.336-1.407-.334-2.924.082-4.421 1.102-3.965 4.895-6.431 8.769-5.702 4.548.857 7.486 5.568 6.504 10.236-.265 1.265-.79 2.391-1.503 3.332-2.859 3.777-4.968 8.135-5.967 12.891l-1.944 9.246c-.471 2.245-2.579 3.621-4.706 3.071z" fill="#128E5A"/><path d="M601.629 464.988c-.472 2.246.87 4.512 2.998 5.061l8.76 2.263c4.46 1.152 8.64 3.37 12.176 6.519 1.054.938 2.351 1.608 3.814 1.879 3.875.717 7.66-1.762 8.751-5.731 1.281-4.659-1.444-9.509-5.866-10.652-1.198-.309-2.393-.313-3.512-.059-4.492 1.019-9.15 1.076-13.655-.088l-8.76-2.263c-2.127-.549-4.234.826-4.706 3.071z" fill="#1DB776"/><path d="M629.375 480.708c3.876.717 7.661-1.762 8.752-5.731.456-1.657.403-3.338-.052-4.869-1.733 1.953-4.34 2.958-6.99 2.468-1.463-.271-2.76-.94-3.814-1.879-3.536-3.149-7.716-5.367-12.176-6.519l-8.76-2.263c-2.128-.549-4.235.826-4.707 3.072-.472 2.245.87 4.511 2.997 5.061l8.761 2.263c4.46 1.152 8.639 3.369 12.176 6.518 1.054.939 2.351 1.608 3.813 1.879zM569.695 519.187c.265-1.264.244-2.531-.02-3.724-.047-.211-.089-.423-.133-.634-1.949 2.227-5.021 3.222-8.05 2.221-2.591-.856-4.543-3.05-5.316-5.67-.098.129-.195.259-.295.387-.862 1.098-1.464 2.458-1.688 4.004-.591 4.095 1.827 8.164 5.591 9.407 4.419 1.46 8.93-1.325 9.911-5.991z" fill="#128E5A"/><defs><linearGradient id="paint0_linear" x1="152.184" y1="632.22" x2="200.397" y2="761.72" gradientUnits="userSpaceOnUse"><stop stop-color="#FFD8D8"/><stop offset="1" stop-color="#FFF8F8"/></linearGradient><linearGradient id="paint1_linear" x1="730.632" y1="309.233" x2="322.536" y2="103.24" gradientUnits="userSpaceOnUse"><stop stop-color="#FFF8F8"/><stop offset="1" stop-color="#FFCFCF"/></linearGradient><linearGradient id="paint2_linear" x1="713.056" y1="248.24" x2="567.99" y2="201.458" gradientUnits="userSpaceOnUse"><stop stop-color="#FFD7D7"/><stop offset="1" stop-color="#FFF9F9"/></linearGradient><linearGradient id="paint3_linear" x1="711.641" y1="663.097" x2="115.71" y2="389.834" gradientUnits="userSpaceOnUse"><stop stop-color="#FFCFCF"/><stop offset="1" stop-color="#FFF8F8"/></linearGradient></defs></svg>