<svg aria-hidden="true" style="position:absolute;width:0;height:0" xmlns="http://www.w3.org/2000/svg" overflow="hidden"><defs><symbol id="icon-overview" viewBox="0 0 35 32"><path fill="var(--color1, #000)" opacity=".62" d="M17.703 25.869c-1.191.532-2.411.816-3.748.627-1.49-.211-2.861-1.473-3.676-2.763-.303-.479-.556-1.02-.569-1.591-.03-1.32 1.13-1.535 2.138-1.38.569.087 1.102.33 1.63.57.876.399 1.882.562 2.683 1.14.269.194.478.434.784.57.476.21 1.008.292 1.495.48.416.162.887.44.922.905.034.478-.413.809-.811 1.023-.282.152-.563.293-.847.419zM11.976 9.156c1.779-3.255 5.833-4.756 9.278-3.771 1.661.475 3.104 1.582 4.445 2.739 1.182 1.02 2.337 2.128 3.192 3.479.583.922 1.034 2.041 1.371 3.091.504 1.572.299 3.648-1.653 3.61-.458-.009-.864-.16-1.301-.287-.353-.103-.686-.01-1.047-.049-.911-.099-1.803-.401-2.653-.765-1.732-.744-3.341-1.798-5.112-2.435-1.452-.521-2.978-.745-4.497-.66-.641.036-1.311.123-1.906-.148-1.466-.669-.977-2.73-.532-3.899.118-.311.257-.613.415-.903zM27.728 8.717c.353.298 1.712 1.09 1.664.071-.012-.254-.138-.494-.299-.671-.184-.203-.383-.304-.532-.544-.183-.29-.386-.561-.608-.809-.454-.517-.975-.989-1.579-1.177-.424-.132-1.12-.052-1.275.521-.227.834 1.005.913 1.399 1.19.374.262.609.735.916 1.104.097.116.203.222.315.316z"/><path fill="var(--color1, #000)" opacity=".62" d="M21.553 8.077c.731.397 1.302 1.021 1.977 1.511 1.124.816 2.592.911 3.852 1.45 1.286.55 2.292 1.464 2.816 2.833.677 1.768.883 3.906.551 5.783-.365 2.067-1.47 3.49-3.163 4.494s-3.608 1.538-5.543 1.738c-.187.019-.373.035-.561.047-4.216.271-9.943-.98-11.725-5.709-.016-.043-.032-.086-.048-.13-.187-.528-.313-1.076-.378-1.633-.233-1.974-.064-4.177.455-6.07.349-1.275 1.219-2.386 2.162-3.196 1.324-1.139 3.013-1.508 4.705-1.733 1.252-.167 2.666-.284 3.894.159.345.125.681.278 1.006.456z"/><path fill="var(--color2, #fb4c47)" d="M19.271 15.252c.052.129.192.191.313.138l.497-.217c.253-.11.528-.157.803-.134.082.007.167-.009.246-.05.21-.11.309-.375.229-.613-.094-.279-.387-.417-.637-.308-.068.03-.125.074-.171.129-.182.219-.404.397-.659.508l-.496.217c-.121.053-.176.2-.124.329z"/><path fill="var(--color3, #c63f3b)" d="M16.927 18.061c-.101-.045-.215.005-.255.111l-.165.438c-.084.223-.215.421-.385.578-.051.047-.091.108-.113.182-.06.196.03.416.207.508.208.108.451.009.534-.211.023-.06.031-.122.027-.183-.017-.244.012-.488.097-.713l.164-.437c.04-.106-.01-.229-.111-.273zm1.484-3.946c.106.047.225-.005.267-.117l.172-.458c.088-.233.225-.441.403-.605.053-.049.095-.114.118-.191.062-.205-.031-.435-.216-.532-.217-.114-.472-.01-.559.221-.024.063-.032.128-.028.191.018.255-.013.51-.101.746l-.172.458c-.042.111.01.239.116.286z"/><path fill="var(--color2, #fb4c47)" d="M18.398 17.574c-.121.053-.176.2-.124.329l.215.532c.11.271.16.563.144.855-.005.087.012.177.053.262.108.225.36.336.583.257.261-.094.385-.401.276-.67-.029-.073-.073-.135-.125-.184-.211-.198-.383-.437-.494-.71l-.215-.532c-.052-.129-.192-.191-.313-.138z"/><path fill="var(--color3, #c63f3b)" d="M19.42 18.955c-.211-.198-.383-.437-.494-.71l-.215-.532c-.052-.129-.192-.191-.313-.138s-.176.2-.124.329l.215.532c.111.273.283.513.494.71.052.049.096.111.125.184.07.173.043.362-.054.5.071.011.144.004.214-.021.261-.094.385-.401.276-.67-.029-.073-.073-.135-.125-.184z"/><path fill="var(--color4, #ff8f8c)" d="M15.71 15.671c.394-.172.575-.653.404-1.075s-.628-.624-1.022-.452-.575.653-.404 1.075.628.624 1.022.452z"/><path fill="var(--color2, #fb4c47)" d="M15.092 14.143c-.076.033-.144.078-.204.132.327-.027.651.171.789.511s.046.719-.201.943c.078-.006.157-.025.233-.059.394-.172.575-.653.404-1.075s-.628-.624-1.022-.452z"/><path fill="var(--color2, #fb4c47)" d="M18.74 18.418c1.286-.562 1.877-2.133 1.32-3.51s-2.052-2.038-3.338-1.476c-1.286.562-1.877 2.133-1.32 3.51s2.052 2.038 3.338 1.476z"/><path fill="var(--color3, #c63f3b)" d="M16.721 13.431c-.074.032-.145.068-.214.106 1.231-.399 2.59.263 3.115 1.561s.03 2.769-1.106 3.404c.075-.024.149-.052.223-.084 1.286-.562 1.877-2.133 1.32-3.51s-2.052-2.038-3.338-1.476z"/><path fill="var(--color3, #c63f3b)" d="M18.464 15.197c.261-.114.381-.433.268-.713s-.417-.414-.678-.3c-.261.114-.381.433-.268.713s.417.414.678.3z"/><path fill="var(--color5, #fff)" d="M18.054 14.184c-.079.034-.145.088-.195.153.186.018.357.143.437.338s.044.41-.073.56c.08.008.163-.004.241-.038.261-.114.381-.433.268-.713s-.417-.414-.678-.3zm-.623 3.421c.177-.077.258-.293.181-.483s-.282-.28-.459-.203c-.177.077-.258.293-.181.483s.282.28.459.203z"/><path fill="var(--color2, #fb4c47)" d="M20.252 17.549c.241-.105.352-.4.247-.658s-.385-.382-.626-.277c-.241.105-.352.4-.247.658s.385.382.626.277z"/><path fill="var(--color3, #c63f3b)" d="M19.874 16.614c-.08.035-.145.09-.193.158.163.024.312.136.382.309s.043.362-.055.5c.08.012.164.002.244-.033.241-.105.352-.4.247-.658s-.385-.382-.626-.277zm-3.685-.017c.052.129-.003.276-.124.329l-.497.217c-.253.11-.477.281-.654.502-.053.066-.122.118-.207.148-.223.079-.474-.033-.582-.259-.126-.265-.017-.579.234-.688.068-.03.139-.041.208-.037.278.018.556-.022.811-.133l.496-.217c.121-.053.261.009.313.138z"/><path fill="var(--color2, #fb4c47)" d="M17.063 14.275c.121-.053.176-.2.124-.329l-.215-.532c-.11-.271-.16-.563-.144-.855.005-.087-.012-.177-.053-.262-.108-.225-.36-.336-.583-.257-.261.094-.385.401-.277.67.029.073.073.135.125.184.211.198.383.437.494.71l.215.531c.052.129.192.191.313.138z"/><path fill="var(--color3, #c63f3b)" d="M16.775 12.297c-.108-.225-.36-.336-.583-.257-.093.033-.168.094-.222.17.153.023.294.123.368.277.041.085.057.175.053.262-.016.291.034.584.144.855l.215.532c.052.129.192.191.313.138s.176-.2.124-.329l-.215-.532c-.11-.271-.16-.563-.144-.855.005-.087-.012-.177-.053-.262zm3.996 1.785c-.068.028-.127.072-.173.125-.008.009-.017.019-.025.028.173.028.329.156.39.348.052.165.019.34-.075.469.009.001.019.002.028.002.082.009.167-.005.247-.045.212-.106.316-.369.24-.608-.089-.281-.379-.424-.632-.32z"/><path fill="var(--color6, #ffc700)" opacity=".63" d="M22.714 19.992c.039.058.115.073.169.032l.223-.166c.114-.085.245-.14.383-.161.041-.006.082-.024.116-.054.093-.08.114-.224.05-.333-.075-.128-.235-.163-.347-.079-.03.023-.054.052-.071.084-.067.131-.158.245-.273.331l-.223.166c-.054.04-.066.12-.027.179z"/><path fill="var(--color7, #d09700)" opacity=".63" d="M21.657 21.357c-.055-.01-.106.028-.115.086l-.036.238c-.018.121-.063.235-.13.334-.02.029-.034.065-.037.104-.009.105.058.204.155.23.114.03.224-.048.242-.168.005-.032.003-.065-.006-.094-.034-.12-.045-.245-.026-.367l.036-.238c.009-.058-.029-.113-.083-.123zm.323-2.144c.057.011.111-.029.12-.09l.038-.249c.019-.127.065-.246.136-.349.021-.031.035-.068.039-.109.009-.11-.061-.214-.162-.24-.119-.031-.235.05-.253.176-.005.034-.003.068.006.099.035.125.047.256.028.384l-.038.249c-.009.06.03.118.087.129z"/><path fill="var(--color6, #ffc700)" opacity=".63" d="M22.334 20.942c-.054.04-.066.12-.027.179l.162.24c.082.122.138.263.16.41.007.044.024.087.053.125.077.1.213.126.315.06.119-.077.149-.245.067-.367-.022-.033-.05-.059-.081-.077-.125-.074-.235-.173-.318-.297l-.162-.24c-.039-.058-.115-.073-.169-.032z"/><path fill="var(--color7, #d09700)" opacity=".63" d="M22.982 21.512c-.125-.074-.235-.173-.318-.297l-.162-.24c-.039-.058-.115-.073-.169-.032s-.066.12-.027.179l.162.24c.083.124.193.223.318.297.031.018.059.044.081.077.053.078.059.176.025.256.036-.003.072-.015.104-.035.119-.077.149-.245.067-.367-.022-.033-.05-.059-.081-.077zm-2.176-1.206c.177-.132.216-.393.088-.584s-.376-.238-.553-.106c-.177.132-.216.393-.088.584s.376.238.553.106z"/><path fill="var(--color6, #ffc700)" opacity=".63" d="M20.342 19.616c-.034.026-.063.056-.087.09.159-.052.34.009.443.163s.098.354-.001.494c.038-.012.075-.031.109-.057.177-.132.216-.393.088-.584s-.376-.238-.553-.106z"/><path fill="var(--color6, #ffc700)" opacity=".63" d="M22.59 21.323c.578-.431.706-1.285.287-1.907s-1.227-.777-1.804-.346-.706 1.285-.287 1.907c.419.622 1.227.777 1.804.346z"/><path fill="var(--color7, #d09700)" opacity=".63" d="M21.073 19.07c-.033.025-.065.051-.095.078.568-.343 1.308-.172 1.703.415s.303 1.379-.193 1.829c.034-.021.068-.044.101-.068.578-.431.706-1.285.287-1.907s-1.227-.777-1.804-.346z"/><path fill="var(--color5, #fff)" opacity=".63" d="M21.974 19.84c.043-.032.052-.095.021-.141s-.091-.058-.133-.026c-.043.032-.052.095-.021.141s.091.057.133.026zm-.116 1.23c.079-.059.097-.177.04-.262s-.169-.107-.248-.048-.097.177-.04.262c.058.086.169.107.248.048zm-.569-.797c.122-.091.149-.271.061-.402s-.258-.164-.38-.073c-.122.091-.149.271-.061.402s.258.164.38.073z"/><path fill="var(--color6, #ffc700)" opacity=".63" d="M23.248 20.712c.108-.081.132-.241.054-.358s-.23-.146-.338-.065c-.108.081-.132.241-.054.358s.23.146.338.065z"/><path fill="var(--color7, #d09700)" opacity=".63" d="M22.963 20.29c-.036.027-.062.062-.079.102.083-.007.169.032.221.11s.059.176.025.256c.041-.004.081-.018.117-.045.108-.081.132-.241.054-.358s-.23-.146-.338-.065zm-1.823.423c.039.058.027.138-.027.179l-.223.166c-.114.085-.207.196-.271.327-.019.039-.048.073-.087.098-.102.066-.238.039-.315-.061-.09-.117-.068-.287.044-.371.03-.023.064-.037.099-.043.139-.023.273-.076.387-.162l.223-.166c.054-.04.13-.026.169.032z"/><path fill="var(--color6, #ffc700)" opacity=".63" d="M21.33 19.451c.054-.04.066-.12.027-.179l-.162-.24c-.082-.122-.138-.263-.16-.41-.007-.044-.024-.087-.053-.125-.077-.1-.213-.126-.315-.06-.119.077-.149.245-.067.367.022.033.05.059.081.077.125.074.235.173.318.297l.162.24c.039.058.115.073.169.032z"/><path fill="var(--color7, #d09700)" opacity=".63" d="M20.982 18.497c-.077-.1-.213-.126-.315-.06-.043.027-.073.067-.092.111.078-.007.158.027.211.095.029.038.047.081.053.125.022.147.078.288.16.41l.162.24c.039.058.115.073.169.032s.066-.12.027-.179l-.162-.24c-.082-.122-.138-.263-.16-.41-.007-.044-.024-.087-.053-.125z"/><path fill="var(--color8, #1db776)" d="M24.315 17.189c-.075-.019-.15.029-.166.108l-.069.327c-.035.166-.106.321-.208.451-.03.039-.052.087-.06.142-.021.145.065.288.198.332.156.052.316-.047.35-.212.009-.045.009-.089-.001-.132-.037-.169-.043-.344-.008-.512l.069-.327c.017-.079-.031-.159-.106-.179z"/><path fill="var(--color9, #128e5a)" d="M23.84 15.015c.054-.035.069-.11.035-.168l-.141-.238c-.072-.121-.117-.257-.13-.398-.004-.042-.018-.084-.044-.121-.068-.099-.196-.132-.296-.076-.118.066-.155.224-.084.344.019.033.044.059.073.078.115.078.214.179.286.301l.141.238c.034.058.105.076.159.041zm1.27 2.143c-.056.037-.073.115-.037.176l.147.249c.075.127.122.269.136.417.004.044.019.088.046.127.071.104.205.138.31.08.123-.069.162-.234.087-.36-.02-.034-.046-.061-.076-.082-.12-.081-.224-.187-.3-.315l-.147-.249c-.036-.06-.11-.08-.166-.043z"/><path fill="var(--color8, #1db776)" d="M23.567 15.927c.017-.079-.031-.159-.106-.179l-.309-.08c-.158-.041-.305-.119-.43-.23-.037-.033-.083-.057-.135-.066-.137-.025-.271.062-.309.202-.045.165.051.336.207.376.042.011.085.011.124.002.159-.036.323-.038.482.003l.309.08c.075.019.15-.029.166-.108z"/><path fill="var(--color9, #128e5a)" d="M22.609 15.953c.159-.036.323-.038.482.003l.309.08c.075.019.15-.029.166-.108s-.031-.159-.106-.179l-.309-.08c-.159-.041-.324-.039-.482-.003-.04.009-.082.009-.124-.002-.101-.026-.176-.106-.205-.204-.028.032-.05.071-.062.115-.045.165.051.336.207.376.042.011.084.011.124.002zm2.706-.704c-.054.259.1.521.346.584s.489-.095.543-.354c.054-.259-.1-.521-.346-.584s-.489.095-.543.354z"/><path fill="var(--color8, #1db776)" d="M26.204 15.478c.011-.05.013-.1.009-.149-.097.174-.294.267-.492.216s-.337-.231-.355-.435c-.023.042-.041.088-.051.138-.054.259.1.521.346.584s.489-.095.543-.354z"/><path fill="var(--color8, #1db776)" d="M23.076 15.8c-.178.846.328 1.7 1.129 1.907s1.595-.311 1.773-1.157-.328-1.7-1.129-1.907c-.802-.207-1.595.311-1.773 1.157z"/><path fill="var(--color9, #128e5a)" d="M25.979 16.55c.01-.048.018-.097.024-.145-.232.761-.981 1.21-1.737 1.015s-1.248-.965-1.153-1.761c-.014.046-.026.094-.037.142-.178.846.328 1.7 1.129 1.907s1.595-.311 1.773-1.157z"/><path fill="var(--color9, #128e5a)" d="M24.608 16.802c-.036.172.067.345.229.387s.324-.063.36-.235c.036-.172-.067-.345-.229-.387s-.324.063-.36.235z"/><path fill="var(--color5, #fff)" d="M25.198 16.954c.011-.052.009-.104-.003-.152-.07.087-.183.129-.297.1s-.198-.123-.226-.235c-.03.038-.053.083-.064.135-.036.172.067.345.229.387s.324-.063.36-.235zm-1.322-1.524c-.024.116.045.234.155.262s.219-.043.244-.159-.045-.234-.155-.262c-.11-.028-.219.043-.244.159z"/><path fill="var(--color8, #1db776)" d="M22.96 16.869c-.033.159.061.319.212.358s.299-.058.333-.217-.061-.319-.212-.358c-.15-.039-.299.058-.333.217z"/><path fill="var(--color9, #128e5a)" d="M23.505 17.01c.011-.052.008-.105-.006-.153-.065.074-.165.109-.266.083s-.176-.107-.205-.205c-.032.036-.056.082-.067.134-.033.159.061.319.212.358s.299-.058.333-.217zm1.236-1.848c-.075-.019-.123-.099-.106-.179l.069-.327c.035-.166.033-.34-.006-.507-.012-.05-.012-.103.003-.156.039-.14.173-.227.31-.201.161.03.264.197.23.362-.009.045-.028.084-.053.118-.101.133-.175.287-.211.455l-.069.327c-.017.079-.091.128-.166.108z"/><path fill="var(--color8, #1db776)" d="M25.488 16.423c-.017.079.031.159.106.179l.309.08c.158.041.305.119.43.23.037.033.083.057.135.066.137.025.271-.062.309-.202.045-.165-.051-.336-.207-.376-.042-.011-.085-.011-.124-.002-.159.036-.323.038-.482-.003l-.309-.08c-.075-.019-.15.029-.166.108z"/><path fill="var(--color9, #128e5a)" d="M26.468 16.979c.137.025.271-.062.309-.202.016-.059.014-.118-.002-.172-.061.069-.153.104-.247.087-.052-.01-.097-.033-.135-.066-.125-.111-.273-.19-.43-.23l-.309-.08c-.075-.019-.15.029-.166.108s.031.159.106.179l.309.08c.158.041.305.119.43.23.037.033.083.057.135.066zm-2.108 1.359c.009-.045.009-.089-.001-.132-.002-.007-.003-.015-.005-.022-.069.079-.177.114-.284.078-.091-.03-.16-.108-.188-.2-.003.005-.007.009-.01.014-.03.039-.052.087-.06.141-.021.145.065.288.197.332.156.052.315-.047.35-.212z"/></symbol><symbol id="icon-hero" viewBox="0 0 42 32"><path fill="var(--color10, #03673d)" opacity=".67" d="M12.652 14.422l-.715.238.701-.441c-.006-.067-.013-.135-.021-.203l-.377.073.357-.221c-.082-.527-.264-1.188-.513-1.863l-1.391.537 1.329-.701c-.349-.907-.815-1.82-1.322-2.45l-.748.528.596-.707c-.461-.512-.947-.773-1.403-.571-.554.245-.713 1.433-.543 2.865l.374-.007-.366.073c.079.627.22 1.298.418 1.956l1.428-.482-1.364.69c.302.94.72 1.84 1.238 2.53l.563-.563-.457.699c.436.542.939.935 1.5 1.084 0 0 .794-1.334.715-3.063z"/><path fill="var(--color11, #04ad66)" opacity=".67" d="M12.02 17.485s.794-1.334.715-3.063l-.715.238.701-.441c-.006-.067-.013-.135-.021-.203l-.377.073.357-.221c-.082-.527-.264-1.188-.513-1.863l-1.391.537 1.329-.701c-.349-.907-.815-1.82-1.322-2.45l-.748.528.596-.707c-.461-.512-.947-.773-1.403-.571 0 0 2.076 4.949 2.751 8.833.013.004.027.008.04.012z"/><path fill="var(--color12, #10794d)" opacity=".67" d="M11.573 18.572l-.529.123.483-.262c-.05-.142-.109-.29-.18-.445-.147-.318-.357-.682-.6-1.034l-.476.362.335-.559c-.738-1-1.708-1.809-2.185-1.022-.196.323-.209.838-.074 1.417l1.082-.038-1.044.191c.108.395.282.813.51 1.217l.365-.164-.315.252c.241.409.538.8.881 1.133l.745-.813-.642.909c.451.411.975.719 1.55.839 0 0 .523-.734.092-2.108z"/><path fill="var(--color11, #04ad66)" opacity=".67" d="M11.439 20.67c.014.003.028.007.043.01 0 0 .523-.734.092-2.108l-.529.123.483-.262c-.05-.142-.109-.29-.18-.445-.147-.318-.357-.682-.6-1.034l-.476.362.335-.559c-.696-.943-1.597-1.715-2.098-1.141.401.541 2.091 2.883 2.931 5.053z"/><path fill="var(--color13, #007248)" opacity=".67" d="M9.945 20.083c-.295-.279-.822-.621-1.434-.936-.265.392-.561.834-.612.931-.007.017-.01.023-.007.014.001-.003.003-.008.007-.014.043-.102.25-.613.419-1.029-.367-.18-.757-.347-1.143-.484l-.21.995.097-1.034c-1.202-.408-2.322-.496-2.465.294-.039.218.037.46.201.714.461-.027 1.127-.07 1.127-.07l-.971.282c.356.439.941.9 1.62 1.322l.583-1.131-.476 1.196c.715.434 1.521.82 2.268 1.091.063-.279.11-.481.11-.481l.009.523c.144.05.285.096.422.136l.062-.241.04.271c.683.192 1.264.251 1.597.112 0 0 .265-1.037-1.243-2.462z"/><path fill="var(--color14, #096b42)" opacity=".67" d="M14.083 12.634c.72-1.774 1.705-2.144 2.107-2.107.667-.088.702 1.076.637 1.668h-1.01l1.01.198c-.018.948-.271 1.961-.395 2.349l-1.251-.241 1.251.417c-.316 1.194-.79 2.298-.988 2.7l-1.273-.593 1.207.724-.154.263-.351-.066.307.154c-.544 1.106-1.559 1.558-1.998 1.646-.369-.439-.476-1.28-.483-1.646l.659-.154h-.659c-.07-.632.146-1.727.263-2.195l.505.22-.483-.329.066-.22 1.076.329-.988-.615c.105-.615.615-1.822.856-2.349l.68.088-.593-.241z"/><path fill="var(--color15, #0ea867)" opacity=".67" d="M15.191 18.137c-.556 1.095-1.566 1.56-2.002 1.655.654-4.511 2.384-8.05 3.167-9.255.539.098.552 1.171.49 1.696l-1.001-.041 1.001.184c-.065 1.079-.272 2.043-.368 2.39l-1.348-.286 1.287.429c-.311 1.34-.783 2.37-.981 2.717l-1.246-.613 1.205.736-.163.286-.347-.082.306.184z"/><path fill="var(--color9, #128e5a)" opacity=".67" d="M12.517 26.096l-.026-.002.026.002c-.001.014-.012.025-.026.024s-.025-.011-.026-.025c-.101-1.698-.771-2.997-1.64-3.984-.856-.93-1.866-1.614-2.862-2.117l.003-.006c-.661-.329-1.229-.535-1.557-.655-.075-.027-.138-.05-.186-.069-.596-.198-1.144-.335-1.598-.43 0-.004.001-.008.001-.012.001-.007.001-.013.002-.02.141-.761 1.256-.675 2.453-.281l-.093.974c.001 0 .002.001.003.001l.203-.938c.384.132.772.294 1.138.468-.136.325-.297.712-.376.898.013.006.026.013.038.019.112-.174.344-.513.557-.821.617.311 1.148.649 1.445.924 1.52 1.406 1.254 2.429 1.254 2.429-.015.006-.03.012-.046.017.644.853 1.132 1.91 1.28 3.214.009-.23.019-.556.024-.962.01-.847-.004-2.041-.098-3.427-.188-2.772-.697-6.311-1.983-9.382-.006-.013.001-.029.014-.034s.029.001.034.014c1.289 3.079 1.799 6.624 1.987 9.399.094 1.387.108 2.583.098 3.431-.005.424-.016.762-.025.993-.005.116-.009.205-.013.265-.002.03-.003.053-.004.069 0 .005-.001.009-.001.013V26.095z"/><path fill="var(--color16, #f52d29)" opacity=".67" d="M13.435 24.737h-2.32s-.625 4.945 1.383 5.519c2.008.574.937-5.519.937-5.519z"/><path fill="var(--color17, #f80700)" opacity=".67" d="M13.843 24.737h-2.175s-.492 4.945 1.09 5.519c2.516.283 1.085-5.519 1.085-5.519z"/><path fill="var(--color18, #ff1f55)" opacity=".76" d="M14.336 1.583h-.75v2.953h.75V1.583z"/><path fill="var(--color19, #ffc702)" opacity=".76" d="M15.226 1.583h-.75v2.953h.75V1.583z"/><path fill="var(--color20, #3d99ee)" opacity=".76" d="M15.78 1.636l-.636.399 1.572 2.501.636-.399-1.572-2.501z"/><path fill="var(--color21, #6f2a1a)" opacity=".76" d="M21.635 5.187h-8.097c-.173 0-.338-.069-.46-.191s-.191-.288-.191-.46h9.399c0 .173-.069.338-.191.46s-.288.191-.46.191z"/><path fill="var(--color22, #bdd8f5)" opacity=".76" d="M21.789 1.693h-3.585v2.843h3.585V1.693z"/><path fill="var(--color2, #fb4c47)" opacity=".76" d="M21.549 1.972h-3.105v2.284h3.105V1.972z"/><path fill="var(--color6, #ffc700)" opacity=".76" d="M19.996 3.847c.405 0 .733-.328.733-.733s-.328-.733-.733-.733c-.405 0-.733.328-.733.733s.328.733.733.733z"/><path fill="var(--color8, #1db776)" opacity=".76" d="M20.881 4.256h-2.437V3.162c.421-.016 1.042.035 1.629.373.316.182.592.427.808.721z"/><path fill="var(--color23, #11915b)" opacity=".76" d="M21.549 2.754v1.502h-1.954c.125-.261.286-.504.478-.721.334-.375.809-.698 1.476-.781z"/><path fill="var(--color24, #592a3c)" opacity=".76" d="M14.788 5.752h-.584l.081-1.216h.423l.081 1.216zm6.181 0h-.584l.081-1.216h.423l.081 1.216z"/><path fill="var(--color25, #925c50)" opacity=".76" d="M33.258 3.898h-8.332V0h8.332v3.898zm-7.975-.357h7.618V.357h-7.618v3.184z"/><path fill="var(--color5, #fff)" opacity=".76" d="M32.901.357h-7.618v3.184h7.618V.357z"/><path fill="var(--color6, #ffc700)" opacity=".76" d="M26.977 2.712c.642-.15 1.04-.792.89-1.434s-.793-1.04-1.435-.89-1.04.792-.89 1.434c.15.642.793 1.04 1.435.89z"/><path fill="var(--color23, #11915b)" opacity=".76" d="M25.283 2.536l2.265-1.011c.18-.081.379-.11.576-.086s.382.101.537.224l2.393 1.879h-5.771V2.537z"/><path fill="var(--color8, #1db776)" opacity=".76" d="M29.237 2.115l1.706-.564c.182-.06.378-.071.566-.031s.362.129.504.258l.888.805v.958h-1.847l-1.817-1.426z"/><path fill="var(--color26, #fa5752)" opacity=".7298" d="M20.846 9.396c-.078-.002-.145.058-.164.14-.12.009-.258.013-.409.003-.084-.005-.164-.014-.239-.025 0-.014.001-.029.001-.043 0-.071-.005-.14-.015-.208.038-.029.086-.06.143-.086.1-.046.194-.062.266-.067.035.081.117.128.195.107.088-.023.138-.123.112-.223s-.118-.162-.206-.139c-.08.021-.129.106-.117.196-.063.036-.157.075-.273.078-.058.002-.108-.006-.148-.016-.026-.106-.063-.207-.11-.302.05-.045.109-.094.179-.14.1-.068.197-.116.282-.151.055.065.144.087.212.047.078-.045.101-.155.049-.244s-.157-.125-.235-.079c-.068.04-.094.127-.066.208-.073.057-.163.117-.271.171-.073.037-.144.065-.207.086-.052-.088-.113-.169-.181-.243.026-.096.071-.208.146-.32.071-.105.15-.181.217-.235.074.046.166.039.219-.022.06-.069.046-.179-.031-.248s-.188-.068-.248 0c-.053.061-.049.154.006.222-.043.072-.109.161-.205.246-.106.094-.212.15-.294.183-.092-.071-.193-.131-.3-.179.016-.043.036-.087.063-.13.022-.034.045-.064.069-.09.082.034.173.009.215-.061.046-.078.013-.185-.076-.238s-.197-.032-.243.047c-.041.069-.019.16.046.216-.014.036-.03.074-.05.113-.023.044-.047.085-.073.123-.011-.004-.022-.009-.033-.013-.128-.048-.264-.079-.407-.089-.023-.063-.044-.134-.058-.211-.029-.157-.024-.294-.01-.397.084-.016.146-.082.146-.161 0-.091-.083-.165-.186-.165s-.186.074-.186.165c0 .081.065.148.151.162.019.101.031.243.002.408-.013.072-.031.138-.053.198-.136.008-.267.034-.391.077-.017-.028-.033-.056-.046-.091-.027-.068-.039-.131-.044-.184.08-.042.121-.13.093-.208-.031-.086-.134-.126-.231-.091s-.149.134-.118.219c.027.074.107.114.191.101.024.05.048.109.066.175.01.035.017.069.023.103-.112.045-.218.103-.315.173-.051-.037-.103-.08-.155-.131-.119-.116-.198-.235-.25-.331.058-.064.068-.156.019-.219-.055-.072-.166-.08-.247-.017s-.102.173-.047.245c.049.064.141.077.218.036.075.068.172.174.248.328.034.07.059.138.075.202-.016.014-.031.029-.046.044-.076.076-.143.161-.201.252-.034-.01-.069-.022-.106-.037-.118-.048-.209-.109-.275-.162.028-.082.001-.171-.069-.21-.079-.044-.184-.006-.233.085s-.025.2.055.243c.07.039.159.014.213-.054.08.028.18.073.284.147.031.022.059.045.085.067-.082.148-.139.312-.166.486-.071.006-.147.009-.229.006-.117-.004-.222-.017-.314-.035-.002-.091-.063-.167-.145-.176-.09-.009-.172.066-.182.169s.054.194.144.203c.08.008.154-.05.176-.136.095.002.201.01.315.03.079.014.153.031.221.051-.003.04-.005.079-.005.12 0 .096.009.19.026.281-.078.052-.186.111-.323.153-.12.036-.229.049-.315.051-.031-.081-.108-.131-.186-.116-.089.017-.145.114-.126.215s.107.17.196.152c.077-.015.129-.089.13-.174.088-.029.193-.056.311-.074.136-.02.259-.023.362-.019.041.126.099.244.171.352-.034.027-.071.053-.113.078-.081.047-.159.077-.226.096-.046-.073-.131-.108-.204-.078-.084.034-.121.14-.082.235.024.06.072.102.126.117.032.009.065.008.096-.005.009-.004.018-.008.026-.014.061-.041.087-.126.061-.207.064-.033.138-.066.224-.093.055-.017.108-.03.157-.039.045.059.095.114.148.165.005.005.01.01.015.014-.036.081-.09.179-.172.279-.08.098-.163.169-.233.219-.07-.05-.162-.049-.219.007-.064.064-.058.176.014.249s.183.081.247.017c.056-.056.059-.147.011-.218.055-.072.127-.154.219-.234.099-.086.196-.15.281-.197.112.08.236.145.369.192-.005.05-.014.104-.029.161-.032.124-.08.223-.123.296-.085-.017-.169.022-.198.097-.033.085.018.184.114.221s.2-.002.232-.087c.029-.074-.006-.159-.079-.204.02-.088.053-.192.104-.304.025-.055.052-.104.079-.15.102.028.208.045.318.049.018.086.032.183.039.289.01.157.002.296-.013.411-.083.016-.145.082-.145.161 0 .091.083.165.186.165s.186-.074.186-.165c0-.079-.062-.145-.145-.161-.014-.117-.022-.256-.014-.411.006-.105.017-.201.032-.288.114-.004.226-.022.332-.052.009.016.018.032.027.049.058.111.089.215.105.299-.074.043-.111.127-.085.202.031.086.133.127.23.093s.15-.133.12-.218c-.027-.076-.111-.117-.197-.102-.04-.068-.085-.172-.101-.304-.002-.016-.003-.032-.004-.048.118-.041.23-.097.332-.166.066.054.136.119.205.195.106.118.184.234.239.333-.057.064-.067.155-.018.218.055.072.166.08.247.017s.103-.172.047-.245c-.048-.062-.137-.077-.213-.039-.082-.083-.172-.189-.259-.318-.056-.084-.103-.165-.141-.241.041-.034.081-.069.118-.107.061-.062.118-.129.167-.201.092.026.198.063.31.12.108.054.198.114.271.17-.028.081-.001.169.067.208.079.045.184.009.235-.08s.028-.199-.05-.244c-.069-.04-.158-.017-.213.049-.081-.031-.18-.078-.282-.15-.106-.075-.186-.155-.244-.225.039-.074.072-.152.099-.233.044.002.09.005.139.013.124.019.227.054.307.089-.007.086.042.166.119.185.088.023.18-.04.205-.14s-.025-.199-.113-.222c-.077-.02-.158.026-.193.106-.084-.007-.192-.026-.311-.072-.045-.018-.086-.037-.124-.058.019-.075.032-.152.039-.231.076-.006.158-.01.243-.01.151 0 .288.01.408.027.014.083.078.147.156.149.091.003.166-.079.169-.182s-.068-.189-.159-.192z"/><path fill="var(--color26, #fa5752)" opacity=".837" d="M7.204 5.31c-.119-.003-.222.089-.252.216-.185.015-.396.019-.628.005-.13-.008-.252-.022-.367-.039.001-.022.001-.045.001-.067 0-.109-.008-.217-.022-.322.058-.045.132-.093.22-.133.154-.071.298-.096.408-.104.054.125.179.197.299.166.135-.036.212-.189.172-.344s-.181-.251-.316-.215c-.123.032-.198.163-.18.303-.097.056-.241.116-.42.12-.088.002-.166-.01-.228-.025-.04-.163-.097-.319-.17-.467.077-.07.168-.145.274-.216.154-.104.303-.179.434-.233.085.101.221.134.326.073.12-.07.155-.239.076-.377s-.241-.193-.361-.122c-.105.061-.144.197-.101.322-.112.088-.25.181-.416.264-.113.057-.221.1-.318.132-.08-.135-.173-.261-.278-.376.04-.148.108-.321.224-.494.109-.162.23-.28.333-.363.113.071.256.06.337-.033.092-.106.071-.277-.047-.382s-.289-.105-.38 0c-.082.093-.075.237.009.342-.066.111-.167.249-.315.38-.163.145-.327.231-.451.283-.142-.11-.296-.203-.461-.277.024-.067.056-.135.097-.201.033-.053.069-.099.106-.139.126.052.266.014.33-.094.071-.121.019-.285-.116-.367s-.303-.049-.374.072c-.062.107-.029.246.071.334-.021.056-.046.114-.077.174-.035.068-.072.131-.112.19-.017-.007-.034-.013-.05-.019-.197-.074-.406-.121-.625-.137-.036-.098-.067-.206-.089-.325-.045-.243-.036-.454-.016-.613.128-.025.225-.127.225-.249 0-.141-.128-.255-.285-.255s-.285.114-.285.255c0 .124.1.228.231.25.029.156.047.376.003.63-.02.112-.048.214-.082.306-.209.012-.411.053-.601.119-.027-.043-.05-.087-.071-.14-.042-.104-.06-.202-.068-.283.123-.065.187-.201.143-.321-.048-.132-.206-.195-.354-.141s-.229.206-.181.339c.041.114.165.177.293.156.037.078.073.168.102.27.015.054.026.107.035.159-.173.069-.335.159-.484.268-.078-.057-.158-.124-.237-.202-.182-.179-.304-.364-.384-.511.088-.099.104-.241.03-.338-.085-.112-.255-.123-.38-.026s-.157.266-.072.378c.075.099.216.119.334.056.115.104.265.269.381.506.053.108.09.214.116.312-.024.022-.048.045-.071.068-.116.118-.22.248-.309.39-.052-.015-.107-.034-.162-.056-.181-.074-.322-.168-.423-.25.043-.127.001-.265-.106-.324-.122-.068-.282-.009-.358.131s-.038.308.084.376c.107.06.244.022.327-.083.123.043.277.112.436.226.047.034.091.069.131.104-.126.229-.213.482-.255.751-.109.009-.226.014-.351.01-.179-.006-.341-.027-.482-.055-.003-.141-.096-.258-.222-.272-.138-.015-.264.102-.28.26s.083.299.221.314c.123.013.236-.078.271-.21.145.003.308.016.485.047.122.021.235.048.34.079-.005.061-.007.123-.007.185 0 .148.014.293.041.434-.12.08-.286.172-.496.236-.185.056-.351.075-.484.079C.442 6.055.324 5.977.204 6c-.137.027-.223.175-.193.332s.165.262.302.235c.118-.023.199-.137.199-.269.136-.045.296-.087.478-.114.21-.031.398-.036.556-.029.064.194.152.376.262.543-.052.041-.11.082-.174.121-.124.073-.244.119-.347.148-.07-.113-.201-.166-.314-.12-.129.053-.186.216-.127.363.037.093.111.158.193.18.048.013.1.012.148-.008.014-.006.028-.013.04-.022.094-.063.134-.194.094-.319.098-.051.212-.102.344-.144.085-.027.165-.046.242-.061.069.091.145.176.227.255.008.007.015.015.023.022-.055.125-.139.277-.264.431-.123.151-.251.261-.359.338-.108-.077-.249-.076-.336.011-.099.099-.089.271.021.385s.281.125.38.026c.086-.086.09-.227.017-.337.085-.112.195-.238.336-.362.151-.133.301-.232.431-.305.172.124.363.224.566.296-.008.077-.022.161-.044.249-.049.191-.122.345-.189.457-.13-.026-.259.034-.304.15-.05.131.028.284.175.342s.307-.002.357-.134c.044-.114-.01-.245-.121-.315.031-.136.081-.297.16-.469.039-.084.08-.161.122-.231.157.043.32.069.488.076.028.133.05.283.061.446.016.243.003.458-.02.635-.128.025-.223.127-.223.249 0 .141.128.255.285.255s.285-.114.285-.255c0-.121-.095-.223-.222-.249-.021-.181-.033-.396-.021-.635.008-.161.027-.311.05-.445.176-.007.347-.034.51-.08.014.024.028.05.041.076.088.172.136.332.162.461-.114.067-.171.196-.131.312.047.133.205.197.354.143s.231-.205.184-.337c-.041-.118-.171-.181-.303-.157-.061-.106-.131-.265-.156-.469-.003-.025-.005-.05-.007-.074.182-.064.353-.151.51-.257.102.084.209.183.315.302.163.182.282.362.368.514-.087.099-.102.239-.028.337.085.112.255.123.38.026s.158-.266.073-.378c-.073-.096-.21-.118-.327-.06-.125-.128-.264-.291-.398-.491-.087-.129-.158-.255-.217-.372.063-.052.124-.107.181-.165.094-.096.181-.199.257-.31.141.04.303.098.476.186.166.084.305.176.416.263-.042.125-.002.26.103.321.121.07.282.014.36-.124s.043-.307-.078-.377c-.106-.061-.242-.026-.327.076-.125-.048-.276-.121-.433-.232-.163-.116-.286-.24-.375-.347.06-.114.111-.234.152-.359.068.002.139.008.213.02.19.029.349.084.471.138-.01.133.064.256.182.286.135.035.276-.062.315-.216s-.038-.308-.173-.343c-.119-.031-.243.04-.297.163-.13-.011-.296-.04-.477-.111-.069-.027-.133-.057-.191-.089.029-.116.049-.235.06-.357.117-.01.242-.016.373-.016.232-.001.442.016.627.041.022.128.12.226.239.23.139.004.256-.122.26-.281s-.105-.292-.244-.296z"/><path fill="var(--color26, #fa5752)" opacity=".75" d="M41.233 2.468c-.071-.002-.133.054-.151.131-.111.009-.237.012-.376.003-.078-.005-.151-.013-.219-.024v-.041c0-.066-.004-.131-.013-.195.035-.027.079-.056.132-.081.092-.043.178-.058.244-.063.032.076.107.12.179.1.08-.022.127-.115.103-.208s-.108-.152-.189-.13c-.073.02-.118.099-.108.184-.058.034-.144.07-.251.073-.053.001-.099-.006-.136-.015-.024-.099-.058-.194-.101-.283.046-.043.1-.088.164-.131.092-.063.181-.109.259-.141.051.061.132.081.195.044.072-.043.092-.145.045-.229s-.144-.117-.216-.074c-.063.037-.086.119-.06.195-.067.053-.15.11-.249.16-.067.034-.132.06-.19.08-.048-.082-.104-.158-.166-.228.024-.09.065-.194.134-.299.065-.098.138-.17.199-.22.067.043.153.036.201-.02.055-.064.043-.168-.028-.232s-.173-.064-.227 0c-.048.057-.045.144.006.208-.04.067-.1.151-.188.23-.097.088-.195.14-.27.171-.085-.067-.177-.123-.276-.168.015-.041.033-.082.058-.122.02-.032.041-.06.063-.085.075.031.159.009.197-.057.043-.073.012-.173-.069-.222s-.181-.03-.224.044c-.037.065-.017.149.043.202-.013.034-.028.069-.046.105-.02.041-.043.08-.067.115l-.03-.012c-.118-.045-.243-.074-.374-.083-.021-.059-.04-.125-.053-.197-.027-.147-.022-.275-.009-.372.077-.015.134-.077.134-.151 0-.085-.076-.155-.171-.155s-.171.069-.171.155c0 .075.06.138.138.152.017.095.028.228.002.382-.012.068-.029.13-.049.185-.125.007-.246.032-.359.072-.016-.026-.03-.053-.043-.085-.025-.063-.036-.123-.04-.172.074-.039.112-.122.085-.195-.028-.08-.123-.118-.212-.085s-.137.125-.108.205c.025.069.099.107.175.095.022.047.044.102.061.164.009.033.016.065.021.096-.103.042-.2.097-.289.162-.047-.035-.095-.075-.142-.122-.109-.109-.182-.22-.229-.31.053-.06.062-.146.018-.205-.051-.068-.152-.075-.227-.016s-.094.162-.043.229c.045.06.129.072.2.034.069.063.158.163.228.307.032.066.054.13.069.189-.014.013-.029.027-.042.042-.07.071-.132.151-.185.236-.031-.009-.064-.02-.097-.034-.108-.045-.192-.102-.253-.151.026-.077.001-.161-.064-.197-.073-.041-.169-.006-.214.079s-.023.187.05.228c.064.036.146.013.196-.051.074.026.166.068.261.137.028.021.054.042.078.063-.075.139-.128.292-.153.455-.065.006-.135.008-.21.006-.107-.003-.204-.016-.288-.033-.002-.085-.058-.157-.133-.165-.083-.009-.158.062-.168.158s.049.181.132.19c.074.008.141-.047.162-.127.087.002.184.01.29.028.073.013.141.029.203.048-.003.037-.004.074-.004.112 0 .09.008.178.024.263-.072.049-.171.104-.297.143-.11.034-.21.046-.289.048-.028-.076-.099-.123-.171-.109-.082.016-.134.106-.116.201s.099.159.18.142c.071-.014.119-.083.119-.163.081-.027.177-.052.286-.069.125-.019.238-.022.332-.018.038.118.091.228.157.329-.031.025-.066.05-.104.073-.074.044-.146.072-.208.09-.042-.069-.12-.101-.188-.073-.077.032-.111.131-.076.22.022.056.066.096.115.109.029.008.06.007.088-.005.009-.004.017-.008.024-.013.056-.038.08-.118.056-.193.059-.031.127-.062.206-.087.051-.016.099-.028.144-.037.041.055.087.107.136.154.005.005.009.009.014.013-.033.076-.083.168-.158.261-.074.091-.15.158-.214.205-.065-.047-.149-.046-.201.007-.059.06-.054.164.013.233s.168.076.227.016c.051-.052.054-.138.01-.204.051-.068.117-.144.201-.219.091-.081.18-.141.258-.185.103.075.217.136.339.18-.005.047-.013.098-.027.151-.029.116-.073.209-.113.277-.078-.016-.155.021-.182.091-.03.08.017.172.105.207s.183-.001.213-.081c.026-.069-.006-.148-.072-.191.019-.082.048-.18.096-.285.023-.051.048-.098.073-.14.094.026.191.042.292.046.017.081.03.171.036.27.01.147.002.277-.012.385-.077.015-.134.077-.134.151 0 .085.076.155.171.155s.171-.069.171-.155c0-.074-.057-.135-.133-.151-.013-.11-.02-.24-.013-.385.005-.098.016-.188.03-.27.105-.004.207-.021.305-.048.008.015.017.03.024.046.053.104.082.201.097.279-.068.04-.102.119-.078.189.028.08.123.119.212.087s.138-.124.11-.204c-.025-.071-.102-.11-.181-.095-.036-.064-.078-.161-.093-.284-.002-.015-.004-.03-.004-.045.109-.039.211-.091.305-.156.061.051.125.111.188.183.098.11.169.219.22.312-.052.06-.061.145-.017.204.051.068.153.075.227.016s.094-.161.044-.229c-.044-.058-.126-.072-.195-.036-.075-.078-.158-.176-.238-.298-.052-.078-.094-.154-.13-.226.038-.031.074-.065.108-.1.057-.058.108-.121.154-.188.084.024.182.059.285.112.099.051.182.107.249.159-.025.076-.001.158.061.194.072.042.169.009.216-.075s.026-.186-.047-.229c-.063-.037-.145-.016-.196.046-.074-.029-.165-.073-.259-.141-.097-.07-.171-.146-.224-.211.036-.069.066-.142.091-.218.04.001.083.005.127.012.114.018.209.051.282.084-.006.081.038.155.109.173.08.021.165-.037.188-.131s-.023-.187-.103-.208c-.071-.019-.145.024-.178.099-.078-.007-.177-.024-.285-.067-.041-.016-.079-.035-.114-.054.017-.07.03-.142.036-.216.07-.006.145-.01.223-.01.139 0 .264.01.375.025.013.078.072.137.143.139.083.002.153-.074.156-.171s-.063-.177-.146-.179z"/><path fill="var(--color26, #fa5752)" opacity=".92" d="M46.056 16.453c-.162-.005-.301.122-.34.296-.25.02-.535.027-.848.006-.174-.012-.34-.03-.495-.053.001-.03.001-.061.001-.092 0-.149-.011-.296-.03-.44.079-.062.178-.127.298-.182.207-.097.401-.132.551-.142.073.171.242.27.403.227.182-.049.286-.259.232-.47s-.244-.343-.426-.294c-.166.045-.267.223-.243.414-.131.076-.326.159-.567.165-.119.003-.223-.013-.307-.034-.054-.223-.13-.437-.229-.639.104-.096.227-.198.37-.296.208-.143.409-.245.585-.318.115.138.298.184.44.1.163-.096.208-.328.102-.516s-.324-.264-.487-.167c-.141.084-.195.269-.136.44-.151.12-.337.247-.561.361-.152.077-.297.136-.429.181-.108-.185-.233-.357-.375-.514.054-.202.146-.439.303-.675.147-.222.31-.383.448-.497.153.097.345.082.455-.046.124-.145.096-.379-.064-.523s-.389-.144-.513.001c-.11.128-.101.325.013.468-.09.152-.225.34-.424.519-.22.198-.44.316-.608.387-.192-.15-.4-.278-.623-.378.032-.092.075-.184.131-.275.045-.072.094-.135.143-.191.169.071.359.02.445-.128.096-.165.026-.39-.157-.502s-.408-.068-.504.098c-.084.146-.04.337.096.457-.028.077-.063.157-.104.238-.047.094-.097.18-.151.259-.023-.009-.045-.018-.068-.027-.265-.102-.548-.166-.843-.188-.048-.134-.091-.282-.12-.445-.06-.332-.049-.622-.021-.839.173-.034.303-.174.303-.341 0-.193-.172-.349-.385-.349s-.385.156-.385.349c0 .17.134.312.312.342.039.214.064.514.005.861-.026.153-.065.292-.111.418-.283.016-.554.072-.811.162-.035-.058-.068-.119-.097-.191-.056-.143-.081-.276-.091-.388.166-.089.251-.275.193-.439-.065-.181-.279-.267-.478-.192s-.31.282-.245.463c.056.156.223.241.396.214.05.107.099.229.137.369.02.074.035.146.047.217-.233.095-.452.218-.652.366-.106-.078-.214-.169-.321-.276-.246-.245-.41-.497-.517-.699.119-.135.14-.329.04-.463-.115-.153-.344-.169-.513-.036s-.212.365-.098.517c.102.135.292.163.452.076.155.143.357.368.514.692.072.148.121.292.157.427-.032.03-.065.062-.096.094-.157.161-.297.34-.417.533-.071-.021-.144-.046-.219-.077-.244-.101-.433-.229-.571-.341.058-.174.001-.362-.144-.444-.164-.093-.381-.013-.483.179s-.052.421.113.514c.145.081.329.029.441-.114.166.059.374.154.588.309.064.046.122.094.177.142-.169.313-.288.66-.344 1.027-.146.013-.304.019-.474.014-.242-.008-.46-.037-.651-.075-.004-.192-.13-.353-.3-.371-.187-.02-.357.139-.379.356s.112.409.298.429c.166.018.318-.107.366-.287.196.004.415.022.654.064.165.029.318.066.459.107-.007.084-.01.168-.01.253 0 .203.018.401.054.593-.162.11-.385.235-.67.322-.249.077-.474.103-.653.109-.064-.171-.224-.278-.386-.246-.184.037-.301.24-.261.454s.223.358.407.322c.16-.032.268-.188.269-.368.183-.061.4-.118.645-.156.282-.043.536-.049.75-.04.085.265.206.515.354.743-.07.057-.148.113-.236.165-.168.1-.329.163-.469.203-.094-.155-.271-.228-.424-.164-.174.072-.251.295-.171.497.05.127.15.216.261.246.065.018.134.016.199-.011.019-.008.037-.018.054-.03.127-.086.181-.265.127-.436.132-.07.287-.139.464-.196.115-.037.224-.063.326-.083.094.124.197.241.307.348.01.01.021.021.031.03-.075.171-.187.379-.357.589-.166.206-.339.356-.484.462-.145-.106-.336-.104-.454.015-.134.135-.121.371.029.526s.379.171.512.036c.116-.118.122-.311.023-.461.114-.153.263-.325.453-.495.205-.182.406-.318.582-.417.233.17.489.307.764.405-.011.106-.029.22-.06.34-.066.262-.165.471-.254.626-.177-.036-.351.046-.41.205-.067.18.039.389.237.468s.413-.003.481-.183c.059-.156-.013-.335-.164-.43.042-.186.11-.406.216-.642.052-.115.108-.22.164-.316.212.059.432.094.659.104.037.183.067.387.082.61.022.332.004.626-.027.869-.173.034-.301.174-.301.341 0 .193.172.349.385.349s.385-.156.385-.349c0-.166-.128-.305-.3-.34-.029-.248-.044-.541-.028-.869.011-.221.036-.425.067-.609.238-.009.468-.047.688-.109.019.033.037.068.056.103.12.235.184.455.219.631-.153.091-.231.269-.176.427.063.181.276.269.476.196s.312-.28.249-.461c-.056-.161-.231-.248-.409-.215-.082-.144-.177-.362-.21-.642-.004-.035-.008-.069-.009-.102.245-.087.476-.206.688-.351.137.114.281.251.424.413.221.249.381.495.497.703-.117.135-.138.328-.039.46.115.153.344.169.513.036s.212-.364.098-.517c-.099-.132-.284-.162-.441-.082-.169-.176-.357-.398-.537-.672-.117-.177-.213-.348-.293-.509.086-.071.167-.146.245-.226.127-.131.243-.272.346-.424.19.054.409.134.642.254.224.115.411.241.562.359-.057.171-.003.356.139.439.163.096.38.02.486-.17s.058-.42-.104-.516c-.143-.084-.328-.036-.442.104-.168-.066-.372-.165-.584-.318-.219-.158-.386-.328-.506-.475.081-.156.15-.32.205-.491.091.003.188.012.287.027.257.04.471.114.636.189-.014.183.086.35.246.392.182.048.372-.084.426-.295s-.052-.421-.234-.469c-.16-.042-.326.055-.4.223-.175-.015-.399-.054-.644-.151-.093-.037-.179-.078-.257-.122.039-.158.067-.321.081-.488.158-.013.326-.021.504-.022.313-.001.597.022.846.056.03.176.162.31.323.315.188.005.345-.167.351-.385s-.141-.399-.329-.405z"/><path fill="var(--color27, #ac6352)" d="M31.92 11.245s2.764 1.172 6.308-.138l-1.914-4.343-2.835-.069-1.559 4.549z"/><path fill="var(--color28, #984b39)" d="M37.064 8.467c-1.114 1.261-2.923 1.793-4.821 1.834l-.324.945s2.764 1.172 6.308-.138l-1.163-2.64z"/><path fill="var(--color29, #925d51)" d="M10.844 30.04h27.958c.184 0 .334.149.334.334 0 .184-.149.334-.334.334H10.844c-.184 0-.334-.149-.334-.334 0-.184.149-.334.334-.334z"/><path fill="var(--color30, #f5c827)" d="M24.848 15.514c-.032-.005-.064-.007-.097-.007H17.47c-.503 0-.909 0-.909 1.846v9.894c0-.249.128-.179.33-.069.159.086.362.197.585.197h7.275c.07 0 .138-.011.203-.028h7.127c.309 0 .593-.11.813-.196.281-.109.459-.179.459.069v-9.864c0-1.84-.565-1.84-1.263-1.84h-7.242z"/><path fill="var(--color31, #dcb21d)" opacity=".699997" d="M17.146 20.66v6.568c0-.472.368.135.822.135h6.533c.331 0 .616-.322.746-.314v.179c0-.09.013-.14.038-.164.025.023.038.074.038.164v-.179c.129-.006.411.314.738.314h6.471c.45 0 .814-.607.814-.135V16.713c0-.105-.001-.204-.003-.298L17.147 20.66z"/><path fill="var(--color32, #ebafb2)" d="M17.872 25.541c0 .667-.381 1.207-.851 1.207h-1.873c-.47 0-.851-.54-.851-1.207v-4.345c0-.667.381-1.207.851-1.207h1.873c.47 0 .851.54.851 1.207v4.345z"/><path fill="var(--color33, #caa41e)" d="M18.651 26.023c0 .725-.553 1.313-1.235 1.313h-2.717c-.682 0-1.235-.588-1.235-1.313v-4.726c0-.725.553-1.313 1.235-1.313h2.717c.682 0 1.235.588 1.235 1.313v4.726zm19.067.011c0 .727-.545 1.317-1.218 1.317h-2.679c-.673 0-1.218-.59-1.218-1.317v-4.741c0-.727.545-1.317 1.218-1.317H36.5c.673 0 1.218.59 1.218 1.317v4.741z"/><path fill="var(--color29, #925d51)" d="M15.479 31.583c0 .23-.15.417-.336.417s-.336-.187-.336-.417v-1.442c0-.23.15-.417.336-.417s.336.187.336.417v1.442zm20.86-.075c0 .23-.15.417-.336.417s-.336-.187-.336-.417v-1.442c0-.23.15-.417.336-.417s.336.187.336.417v1.442z"/><path fill="var(--color30, #f5c827)" d="M36.901 19.984h-.942c-.473 0-.856.541-.856 1.208v6.038H15.969v-6.038c0-.667-.383-1.208-.856-1.208h-.942c-.473 0-.856.541-.856 1.208v8.272c0 .349.106.663.273.883.156.236.378.385.626.385l22.687-.06c.473 0 .856-.541.856-1.208v-8.272c0-.667-.383-1.208-.856-1.208z"/><path fill="var(--color5, #fff)" d="M20.845 20.619h-3.484c-.133 0-.24.125-.24.28v4.065c0 .155.107.28.24.28h3.484c.133 0 .24-.125.24-.28v-4.065c0-.155-.107-.28-.24-.28zm13.484.441l-3.169-.553c-.121-.021-.24.086-.267.238l-.701 4.013c-.027.153.049.293.17.315l3.169.553c.12.021.24-.086.267-.238l.701-4.013c.027-.153-.049-.293-.17-.315z"/><path fill="var(--color34, #ffe792)" d="M33.969 28.152c.643 0 1.165-.582 1.165-1.3v-1.17c0-.718-.522-1.3-1.165-1.3h-8.997c-.065-.026-.132-.039-.202-.039h-7.996c-.458 0-.829.588-.829 1.313v1.182c0 .725.371 1.313.829 1.313h17.195z"/><path fill="var(--color35, #ff504a)" d="M22.768 13.557c-.119-.01-.231-.064-.312-.152-.213-.229-.519-.761-.081-1.707.815-1.761 3.796-1.497 4.507-.217.506.91 1.009 1.091.738 1.365-.262.264-3.367.831-4.851.711z"/><path fill="var(--color5, #fff)" d="M28.022 24.137c-.003 0-.007.001-.01.001-.645.094-1.299.18-1.954.231-.038.003-.075.006-.113.008-.694.049-1.389.057-2.078-.011-.226-.022-.451-.053-.674-.094-.498-.091-.834-.562-.753-1.062.076-.469.126-.914.158-1.332.005-.062.01-.123.014-.184.033-.488.044-.937.047-1.345 0-.035 0-.069.001-.103V20.2v-.069-.046-.094V19.689c0-.311.001-.59.014-.835 0-.011.001-.022.002-.033.003-.051.005-.101.008-.151.002-.048.005-.096.006-.143.005-.132.009-.26.011-.382.001-.102.001-.201 0-.294-.002-.103-.006-.2-.011-.29-.002-.03-.004-.06-.007-.092-.004-.048-.008-.097-.012-.148-.002-.031-.005-.062-.008-.094-.001-.014-.002-.028-.004-.042 0-.003-.001-.007-.001-.01-.002-.02-.004-.039-.005-.059s-.004-.039-.006-.058c-.003-.034-.006-.069-.01-.104-.016-.163-.035-.334-.054-.509-.006-.055-.012-.111-.018-.167-.01-.087-.02-.174-.029-.261-.007-.056-.013-.112-.019-.169-.096-.845-.187-1.655-.154-1.912.056-.445 2.21-1.619 2.21-1.619l1.293-.041s1.815.731 2.15 1.172c.002.002.003.004.005.006.076.104.124.248.151.427.024.157.033.34.031.545-.001.146-.007.304-.017.471-.01.177-.024.365-.038.562-.004.057-.009.115-.013.174-.005.06-.009.12-.014.181-.003.039-.006.079-.009.119-.008.105-.016.212-.023.321-.002.035-.005.07-.007.106-.002.022-.003.045-.004.067s-.003.046-.004.069c-.001.021-.003.042-.003.064-.002.023-.003.046-.004.069-.002.043-.004.085-.006.128-.002.035-.003.071-.005.107-.001.006-.001.013-.001.019l-.003.069V16.97c-.001.03-.002.061-.003.091-.001.037-.002.073-.003.109 0 .017-.001.034-.001.051 0 .015-.001.031-.001.046v.023c0 .021-.001.042-.001.064V17.523c0 .103.001.211.003.323.001.046.002.093.003.141.001.05.002.101.004.153.003.109.007.219.011.332 0 .017.001.033.002.049 0 .007 0 .013.001.02.001.037.003.074.005.111.002.054.005.108.007.162.002.059.007.121.012.187.006.082.015.169.024.261.002.022.005.043.007.065.004.035.008.071.013.108.003.023.005.046.008.069.002.015.004.029.006.044.007.055.015.112.023.17.001.006.002.013.003.019.004.029.009.059.013.089.008.057.017.115.026.174.003.017.005.033.008.05.016.101.033.204.05.309.003.018.006.037.01.056.007.041.014.083.022.125.025.147.052.297.081.449.033.176.067.356.103.537.029.149.059.298.09.448.071.35.145.699.218 1.037.114.525-.24 1.039-.771 1.116z"/><path fill="var(--color8, #1db776)" opacity=".56" d="M28.171 13.887c-.945.202-1.821.26-2.513.26-.126 0-.245-.002-.358-.005-1.069-.031-1.765-.186-1.794-.193l.05-.223.05-.223c.014.003.696.153 1.719.182.691.019 1.646-.015 2.69-.233.002.002.003.004.005.006.076.104.124.248.151.427zm.031.546c-.001.146-.007.304-.017.471-.924.196-1.785.254-2.479.254-.172 0-.333-.004-.483-.009-1.069-.042-1.762-.204-1.791-.211l.105-.444c.007.002.689.16 1.716.199.746.029 1.802-.003 2.948-.26zm-.055 1.032c-.004.057-.009.115-.013.174-.005.06-.009.12-.014.181-.003.039-.006.079-.009.119-.87.176-1.684.23-2.355.23-.219 0-.422-.006-.607-.015-1.068-.053-1.76-.221-1.789-.228l.11-.443c.007.002.687.167 1.714.216.749.036 1.81.015 2.963-.233zm-.073 1.037c-.001.021-.002.042-.003.064-.002.023-.003.046-.004.069-.002.043-.004.085-.006.128-.002.035-.003.071-.005.107 0 .006-.001.013-.001.019l-.003.069v.012c-.824.159-1.596.21-2.245.21-.267 0-.512-.008-.732-.022-1.067-.063-1.757-.239-1.786-.246l.114-.442c.006.002.179.045.477.096s.723.108 1.234.138c.748.044 1.807.033 2.96-.203zm-4.74.959l-.059.22.059-.22zm4.712.392c-.002-.112-.003-.22-.003-.323-1.171.231-2.245.232-3 .18-1.021-.07-1.696-.247-1.709-.25l-.118.441c.029.008.717.19 1.783.264.254.018.542.03.857.03.641 0 1.393-.049 2.192-.201-.001-.048-.002-.095-.003-.141zm.043 1.156c-.791.151-1.539.201-2.183.201-.364 0-.695-.016-.982-.039-1.065-.085-1.752-.274-1.781-.282l.061-.22.061-.22c.011.003.685.188 1.706.268.774.061 1.885.07 3.094-.168.001.037.003.074.005.111.002.054.005.108.007.162.002.059.006.121.012.187zm.124 1c-.815.162-1.589.217-2.258.217-.414 0-.787-.021-1.106-.049-1.065-.095-1.75-.292-1.778-.3l.127-.438c.007.002.68.194 1.704.285.805.071 1.976.09 3.246-.167.007.055.015.112.023.17.001.006.002.013.003.019.004.029.009.059.013.089.008.057.017.115.026.174zm.17.991c-.855.183-1.672.244-2.379.244-.463 0-.88-.026-1.23-.061-1.064-.106-1.747-.309-1.776-.318l.132-.437c.007.002.678.201 1.701.302.852.084 2.113.113 3.471-.179.025.147.052.297.081.449zm.192.984c-.903.209-1.771.278-2.524.278-.513 0-.972-.032-1.353-.074-1.063-.117-1.744-.327-1.773-.335l.068-.218.068-.218c.011.003.679.208 1.699.319.903.098 2.269.14 3.725-.2.029.149.059.298.09.448z"/><path fill="var(--color2, #fb4c47)" d="M25.098 23.523c.044-1.881-.278-4.071-.276-5.953.002-1.687.126-3.363.124-5.05-.403.03-.576.099-.576.099s-.385.328-1.637.737c-1.181.385-.962 4.747-.89 7.189s.043 3.99 2.365 4.287c.218.028.432.052.642.073.003-.558.234-.822.247-1.382z"/><path fill="var(--color36, #b63a37)" d="M22.579 18.562c-.025 0-.047-.017-.053-.043-.006-.029.012-.058.042-.064s.727-.165.967-1c.008-.029.038-.045.067-.037s.045.038.037.067c-.259.899-1.016 1.069-1.048 1.076-.004.001-.008.001-.011.001zm2.027 4.591c-.022 0-.041-.018-.043-.04-.187-3.369-.336-6.662-.105-9.913.002-.024.022-.041.046-.04s.041.022.04.046c-.23 3.246-.082 6.536.105 9.902.001.024-.017.044-.04.045h-.002z"/><path fill="var(--color2, #fb4c47)" d="M29.128 15.065c.056-1.738-.781-2.197-2.452-2.447-.006-.001-.013-.002-.019-.003-.027.287-.017.579.002.865.03.458.083.914.102 1.374.077 1.916.265 3.218.111 5.733-.116 1.89.186 2.883.239 4.315.948-.145 1.695-.531 2.154-1.314.862-1.47-.192-6.784-.137-8.523z"/><path fill="var(--color36, #b63a37)" d="M28.932 18.504c-.004 0-.008 0-.012-.001-.011-.003-1.122-.275-1.31-1.891-.003-.03.018-.057.048-.06s.057.018.06.048c.179 1.54 1.216 1.795 1.226 1.798.029.007.047.036.041.065-.006.025-.028.042-.053.042zm-1.694 4.34c-.021 0-.039-.015-.042-.036-.078-.476-.048-1.752-.019-2.986.022-.939.043-1.825.019-2.36-.083-1.808-.33-4.334-.332-4.359-.002-.023.015-.044.038-.047s.044.015.047.038c.002.025.25 2.553.332 4.364.024.537.004 1.425-.019 2.366-.029 1.23-.059 2.502.018 2.97.004.023-.012.045-.035.049-.002 0-.005.001-.007.001z"/><path fill="var(--color37, #002014)" d="M25.719 8.631l-.822.298s-.246.34-.57.27c-.13-.028-.271-.122-.415-.33-.501-.728.707-1.736 1.433-1.566.356.083.453.404.458.71.006.318-.086.618-.086.618z"/><path fill="var(--color38, #ffd339)" d="M25.719 8.631l-.822.298s-.246.34-.57.27c0-.377.529-1.066 1.477-1.186.006.318-.086.618-.086.618z"/><path fill="var(--color38, #ffd339)" d="M25.705 7.178c-.015 0-.031.002-.048.005-.043.008-.07.029-.087.065-.074.16.082.54.193.765.069-.249.151-.666.035-.798-.022-.025-.053-.038-.093-.038zm.071 1.023c-.019 0-.036-.01-.045-.026-.039-.071-.381-.697-.255-.97.03-.066.086-.108.16-.123.127-.025.2.022.238.065.202.228-.023.938-.05 1.018-.006.019-.024.033-.044.035h-.005z"/><path fill="var(--color38, #ffd339)" d="M26.4 7.431c-.005 0-.01 0-.015.001-.174.023-.384.392-.496.626.231-.097.598-.283.647-.452.011-.038.004-.072-.023-.106-.036-.046-.073-.069-.113-.069zm-.609.773c-.014 0-.027-.006-.037-.016-.014-.015-.018-.037-.01-.056.032-.078.326-.762.629-.803.058-.008.144.004.223.107.047.06.061.128.041.198-.083.289-.751.539-.827.567-.006.002-.012.003-.018.003z"/><path fill="var(--color37, #002014)" d="M24.266 9.306c-.179-.027-.381-.122-.508-.387-.299-.624.416-1.15.424-1.155.015-.011.035-.007.046.007s.007.035-.007.046c-.007.005-.678.5-.403 1.074.246.512.787.332.81.324.017-.006.036.003.042.02s-.003.036-.02.042c-.003.001-.178.059-.382.029zm2.38.077s.321 1.346-.125 2.218c-.445.871-.893 1.109-.253 1.38s1.367-.245 1.855.023c.589.324-.072-2.393-.366-3.543-.302-1.177-1.733-1.308-1.733-1.308l.622 1.231z"/><path fill="var(--color37, #002014)" d="M27.494 10.351s.573-1.312-.501-1.93c-1.074-.618-2.159-.151-2.448.56s.154 1.179.154 1.179l2.796.191z"/><path fill="var(--color39, #fbb990)" d="M25.653 13.121c.31.086.434-.051.529-.154l.064-.556.037-.324.008-.048-.143-.016-1.052-.303-.142.668-.068.317c.135.128.315.291.766.416z"/><path fill="var(--color40, #181818)" d="M26.246 12.412c-.326.147-.969.08-1.291-.023-.001 0-.002-.001-.003-.001l.145-.667 1.052.303.143.016-.008.048-.037.324z"/><path fill="var(--color41, #fb9476)" d="M27.105 10.359s.625-.182.502.37c-.135.608-.632.435-.718.396l.216-.766z"/><path fill="var(--color5, #fff)" d="M26.656 11.368c-.035.231.125.447.357.482s.447-.125.482-.357c.029-.197-.083-.383-.26-.455 0 0-.001.001-.001.002-.03.008-.036.031-.039.056.157.056.258.217.232.388-.029.194-.211.329-.405.3s-.328-.211-.299-.405c.013-.088.057-.163.12-.217.016-.014.034-.026.052-.037-.016-.015-.032-.032-.046-.052-.017.01-.033.022-.048.035-.075.064-.129.154-.145.26z"/><path fill="var(--color42, #fa7764)" d="M27.175 10.944c-.001 0-.002 0-.004-.001-.018-.005-.029-.023-.024-.041.069-.268.267-.361.275-.364.017-.008.037 0 .045.017s0 .037-.017.045c-.007.003-.177.085-.238.32-.004.017-.021.028-.038.025z"/><path fill="var(--color42, #fa7764)" d="M27.398 10.832c-.01-.001-.019-.007-.024-.016-.001-.002-.043-.068-.102-.069-.019 0-.034-.015-.034-.034s.016-.034.034-.034c.097.001.157.097.16.101.01.016.005.037-.011.047-.007.004-.015.006-.023.005z"/><path fill="var(--color43, #ffc29c)" d="M27.447 10.283c-.039.219-.099.433-.173.633-.034.091-.07.178-.109.263-.275.595-.671 1.023-.987 1.06-.5.059-1.068-.186-1.347-.838-.045-.107-.093-.235-.116-.387-.003-.021-.006-.043-.009-.065-.082-.678.09-1.644.09-1.644.41-.612 1.292-.449 1.803-.365s1.025.339.847 1.343z"/><path fill="var(--color41, #fb9476)" d="M26.04 11.889c-.109-.016-.173-.065-.176-.068-.015-.011-.017-.033-.006-.048s.033-.017.047-.006c.001.001.059.044.154.055.098.012.163-.011.164-.011.018-.006.037.003.043.021s-.003.037-.02.043c-.003.001-.08.028-.195.014-.004 0-.008-.001-.012-.002z"/><path fill="var(--color44, #108a57)" d="M24.135 18.394c-.022 0-.042-.014-.049-.036-.074-.227-.125-.483-.127-.494-.005-.028.013-.055.041-.061s.055.013.061.041c.001.003.052.261.124.482.009.027-.006.056-.033.065-.005.002-.011.003-.016.003zm.275-.092c-.022 0-.042-.014-.049-.035-.077-.226-.131-.481-.133-.492-.006-.028.012-.055.04-.061s.055.012.061.04c.001.003.055.26.13.48.009.027-.005.056-.032.065-.006.002-.011.003-.017.003zm.276-.092c-.021 0-.041-.013-.049-.034-.08-.225-.137-.479-.14-.49-.006-.028.011-.055.039-.062s.055.011.062.039c.001.003.059.259.136.478.01.027-.005.056-.031.066-.006.002-.012.003-.017.003zm.275-.093c-.021 0-.041-.013-.048-.034-.083-.224-.143-.477-.146-.488-.007-.028.01-.055.038-.062s.055.01.062.038c.001.003.062.258.142.476.01.027-.004.056-.03.066-.006.002-.012.003-.018.003zm.275-.092c-.021 0-.04-.013-.048-.033-.086-.223-.15-.475-.152-.486-.007-.028.01-.056.037-.063s.056.01.063.037c.001.002.066.257.149.474.01.027-.003.056-.03.067-.006.002-.012.003-.018.003zm.275-.092c-.02 0-.04-.012-.048-.032-.088-.221-.156-.473-.159-.484-.007-.027.009-.056.037-.063s.056.009.063.037c.001.003.069.257.155.472.011.026-.002.056-.029.067-.006.002-.013.004-.019.004zm.275-.093c-.02 0-.039-.012-.048-.032-.091-.22-.162-.471-.165-.482-.008-.027.008-.056.036-.064s.056.008.064.036c.001.003.072.256.161.47.011.026-.002.056-.028.067-.006.003-.013.004-.02.004z"/><path fill="var(--color45, #0cad69)" d="M27.269 12.348c-.01.134-.035.269-.081.394-.012.032-.025.063-.039.094-.074.156-.186.294-.35.394 0 0-.8.34-1.743-.077-.054-.024-.108-.05-.162-.079-.048-.025-.095-.052-.143-.082-.41-.251-.572-.589-.616-.911-.004-.029-.007-.057-.009-.086-.017-.227.019-.441.063-.604.003-.011.006-.021.009-.032.047-.166.099-.272.099-.272s.212-.092.49-.134c.106-.016.221-.025.338-.019.133.007.268.033.393.09.894.408 1.347.59 1.606.24 0 0 .045.13.086.326.006.028.011.057.017.087.015.083.029.175.038.272.012.127.016.262.005.397z"/><path fill="var(--color46, #108e59)" d="M27.226 11.68c-.012.018-.025.037-.04.056-.113.143-.333.308-.746.308-.025 0-.051-.001-.078-.002-.401-.019-.713-.184-1.015-.344-.36-.191-.701-.371-1.153-.276l-.006-.029-.006-.029.015-.003c.465-.093.811.091 1.178.284.296.157.603.319.99.337.351.017.611-.078.774-.281.029-.037.052-.073.071-.109.006.028.011.057.017.087zm-.038 1.062c-.012.032-.025.063-.039.094-.15.086-.329.145-.537.176-.118.018-.245.027-.381.027-.177 0-.367-.015-.571-.045-.611-.09-1.134-.288-1.139-.29l.021-.055c.005.002.523.197 1.128.287.481.071 1.105.086 1.518-.194z"/><path fill="var(--color45, #0cad69)" d="M25.774 17.458l-1.812.592s-.024-.106-.061-.285c-.008-.04-.017-.084-.027-.131-.026-.128-.055-.28-.086-.449-.008-.043-.016-.087-.024-.132-.025-.142-.051-.294-.076-.453-.007-.044-.014-.088-.021-.133-.022-.148-.044-.301-.064-.457-.006-.045-.011-.09-.017-.136-.019-.154-.035-.309-.049-.462l-.012-.138c-.013-.16-.022-.318-.026-.471-.001-.047-.002-.093-.003-.139-.002-.171.002-.334.014-.485.004-.049.009-.097.015-.144.004-.034.009-.066.014-.098.024-.149.056-.284.096-.407.016-.052.034-.101.053-.148.335-.843.994-1.009.994-1.009.488.048.703.57.703.57-.102.098-.176.231-.227.392-.013.042-.025.085-.035.13-.027.121-.044.253-.051.394-.002.044-.004.088-.005.134-.002.132.002.27.013.411.003.044.007.089.011.133.013.136.03.275.051.415.007.045.014.089.021.133.023.139.048.278.076.415l.027.132c.03.141.062.28.095.413.011.044.021.087.032.129.036.144.073.28.109.408.012.044.024.086.036.128.044.152.085.288.12.4.015.046.028.088.04.126.045.14.074.221.074.221z"/><path fill="var(--color46, #108e59)" d="M25.159 13.335c-.013.042-.025.085-.035.13-.321-.04-.903-.076-1.488.065.016-.052.034-.101.053-.148.291-.063.57-.084.8-.086.272-.003.506.018.67.039zm-.086.524c-.002.044-.004.088-.005.134-.383-.016-.984-.001-1.557.186.004-.049.009-.097.015-.144.38-.117.758-.161 1.055-.175.185-.009.353-.007.492-.001zm.019.678c-.409.007-1.022.058-1.592.265-.001-.047-.002-.094-.003-.139.419-.147.848-.211 1.176-.239.149-.013.287-.018.408-.021.003.044.007.089.011.133zm.071.549c-.422.028-1.05.108-1.625.326l-.012-.138c.578-.214 1.195-.293 1.616-.321.007.044.014.089.021.133zm.104.547c-.429.049-1.076.153-1.663.377-.006-.045-.011-.09-.017-.136.59-.221 1.225-.324 1.653-.373l.027.132zm.127.542c-.43.068-1.101.199-1.706.425-.007-.044-.014-.088-.021-.133.603-.222 1.264-.352 1.694-.42.011.044.021.087.032.129zm.146.535c-.425.087-1.123.247-1.752.474-.008-.043-.016-.087-.024-.132.626-.224 1.313-.383 1.739-.47.012.044.024.086.036.128zm.16.527c-.412.104-1.141.298-1.799.528-.008-.04-.017-.084-.027-.131.655-.228 1.374-.419 1.786-.523.015.046.028.088.04.126z"/><path fill="var(--color9, #128e5a)" d="M25.055 13.153c-.013-.001-.027-.002-.042-.005-.044-.008-.084-.034-.121-.074-.312-.336-.392-1.662-.392-1.662s.117-.289.285-.458c.106-.016.221-.025.338-.019.024.249.108 1.043.205 1.262.112.251.098.976-.274.956z"/><path fill="var(--color46, #108e59)" d="M27.269 12.348c-.455.353-1.449.15-2.356-.117-.31-.091-.568-.134-.779-.149-.004-.029-.007-.057-.009-.086.394.025.923.136 1.577.284.971.22 1.413-.152 1.562-.329.012.127.016.262.005.396z"/><path fill="var(--color40, #181818)" d="M26.611 10.551c-.015.096.016.18.069.189s.109-.063.124-.158c.006-.038.005-.074-.002-.104.095.019.136-.036.136-.036-.063-.001-.144-.027-.182-.041-.013-.005-.022-.008-.022-.008-.053-.008-.109.062-.124.158z"/><path fill="var(--color40, #181818)" d="M26.735 10.392s.008.003.022.008c-.007-.004-.014-.007-.022-.008z"/><path fill="var(--color47, #fd9b7e)" d="M27.274 10.916c-.034.091-.07.178-.109.263-.043 0-.089-.003-.137-.009-.213-.03-.375-.123-.363-.208s.194-.129.407-.099c.076.011.145.029.203.053zm-1.56-.121c-.012.086-.196.13-.411.1s-.379-.124-.367-.21c.012-.086.196-.13.411-.1s.379.124.367.21z"/><path fill="var(--color39, #fbb990)" d="M24.827 10.254c.012-.081-.023-.161-.089-.209-.164-.119-.383-.187-.492.03-.202.402.165.942.482.87l.099-.691z"/><path fill="var(--color41, #fb9476)" d="M24.893 10.918c-.006.006-.012.011-.018.016-.018.015-.037.028-.056.039-.035.02-.07.033-.104.041-.003-.021-.006-.043-.009-.065.024-.006.049-.014.073-.027.02-.009.04-.021.059-.036.008-.006.015-.012.022-.019.012-.012.029-.009.038.005s.007.035-.005.046zm-.307-.253c-.017-.002-.029-.017-.029-.034.007-.272-.166-.417-.167-.418-.014-.012-.017-.033-.005-.048s.033-.017.048-.005c.008.007.2.166.192.472 0 .019-.016.034-.035.033h-.004z"/><path fill="var(--color41, #fb9476)" d="M24.37 10.475c-.008-.001-.015-.005-.021-.011-.012-.014-.011-.035.003-.048.004-.003.099-.085.206-.056.018.005.029.023.024.042s-.024.029-.042.024c-.072-.019-.144.041-.144.042-.008.007-.018.009-.027.008zm1.993.438zm-.17.172c-.014-.002-.026-.012-.029-.028s.006-.03.02-.036c.083-.04.164-.09.178-.112-.012-.062-.057-.307-.074-.397-.003-.018.009-.036.027-.039s.036.009.04.027c.017.093.066.352.075.403.003.018.013.071-.217.181-.006.003-.013.004-.02.003z"/><path fill="var(--color40, #181818)" d="M25.762 10.424c-.014.096-.068.168-.122.16s-.086-.092-.072-.188c.005-.038.017-.072.032-.099-.097-.01-.12-.074-.12-.074.061.018.145.016.186.014.014-.001.023-.002.023-.002.054.008.086.091.072.188z"/><path fill="var(--color40, #181818)" d="M25.69 10.236s-.009.001-.023.002c.008-.002.015-.003.023-.002z"/><path fill="var(--color48, #111)" d="M27.101 10.397c-.019-.04-.045-.08-.072-.116s-.059-.069-.092-.098c-.033-.029-.07-.053-.107-.073-.037-.021-.078-.032-.117-.042l-.004-.001c-.043-.011-.068-.054-.057-.097s.054-.068.097-.057c.005.001.01.003.014.005.05.024.098.049.139.084.042.033.079.071.11.112s.058.084.08.129.04.091.052.14c.003.012-.004.024-.016.027-.01.003-.021-.002-.025-.012l-.001-.002zm-1.827-.29c.034-.047.072-.087.114-.126s.088-.072.138-.102c.05-.03.104-.054.162-.071.057-.019.118-.026.18-.03.044-.003.082.03.085.074s-.03.082-.074.085h-.013l-.005-.001c-.047-.005-.096-.009-.144-.001-.049.006-.098.017-.145.036s-.094.041-.139.069c-.044.028-.087.06-.124.096l-.001.001c-.009.008-.023.008-.031-.001s-.008-.02-.002-.028z"/><path fill="var(--color37, #002014)" d="M25.236 9.229s.629.858 2.098.816c.79-.023.104-1.257-1.074-1.326s-1.024.51-1.024.51z"/><path fill="var(--color40, #181818)" d="M27.337 9.911s.088.655-.063 1.005c0 0 .284-.586.195-.956s-.132-.049-.132-.049z"/><path fill="var(--color37, #002014)" d="M25.63 9.231s-.7 1.194-.529 2.157c.171.964.421 1.731-.269 1.803-.684.071-1.137-.197-1.749.045-.006.003-.013.005-.019.008-.016.007-.03.011-.044.012-.106.014-.126-.125-.087-.361.014-.084.036-.179.064-.284.129-.488.394-1.187.682-1.858.226-.527.467-1.038.666-1.416.073-.138.14-.258.2-.356.632-1.037 2.04-.745 2.04-.745l-.955.995z"/><path fill="var(--color37, #002014)" d="M24.387 9.382c-.006.012-.363.668-.709 1.371-.282.574-.556 1.18-.627 1.494-.031.135-.047.257-.055.364-.023.345.051.55.086.625-.006.003-.013.005-.019.008-.016.007-.03.011-.044.012-.027-.061-.07-.18-.087-.361-.015-.167-.008-.387.054-.663.16-.708 1.294-2.793 1.342-2.882.003-.007.009-.011.015-.014.009-.004.02-.004.029.001.016.009.022.028.013.044z"/><path fill="var(--color43, #ffc29c)" opacity=".399994" d="M26.461 10.047s-.763-.232-.98.607c-.217.839.535 1.215 1.012 1.123s.791-1.588-.032-1.73z"/><path fill="var(--color5, #fff)" d="M25.7 9.958c-.285 0-.517.232-.517.517s.232.517.517.517.517-.232.517-.517c0-.285-.232-.517-.517-.517zm0 1.106c-.325 0-.589-.264-.589-.589s.264-.589.589-.589.589.264.589.589c0 .325-.264.589-.589.589zm1.304-.842c-.285 0-.517.232-.517.517s.232.517.517.517c.285 0 .517-.232.517-.517s-.232-.517-.517-.517zm0 1.106c-.325 0-.589-.264-.589-.589s.264-.589.589-.589.589.264.589.589c0 .325-.264.589-.589.589z"/><path fill="var(--color5, #fff)" d="M26.449 10.587c-.063-.097-.178-.056-.183-.054l-.024-.067c.06-.022.193-.033.267.082l-.06.039z"/><path fill="var(--color46, #108e59)" d="M27.385 24.107c-.165.118-.389.471-.779.595-2.214.704-4.28-.663-4.28-.663-.123-.606-.047-1.295.157-1.547-.064-.09-.022-.197-.022-.197l-.975-1.807c.024.015 1.529.967 2.645 1.641.322.194.611.365.822.484.323.181.736.199 1.14.144.788-.109 1.544-.497 1.544-.497s1.885-1.112 2.361-1.073c.37.03-.969 2.07-2.615 2.921z"/><path fill="var(--color5, #fff)" d="M23.215 25.936s-.119.022-.313.062c-.055.011-.116.024-.182.038-.088.019-.184.039-.287.062-.059.013-.119.027-.182.041-.776.177-1.804.446-2.218.709-.029.018-.057.037-.084.055-.631.424-.76.79-.877.716-.122-.077-.149-.395.05-.604.138-.145.234-.356.42-.584.05-.062.107-.125.172-.188.29-.279.753-.568 1.012-.789.017-.014.032-.028.047-.042.213-.197.296-.601.685-.724.19-.06.418-.037.637.021.039.01.078.022.116.034.057.018.113.038.167.059.074.029.145.06.209.09.062.029.118.057.166.082.117.061.189.107.189.107l.271.855z"/><path fill="var(--color49, #80d7b2)" d="M22.096 24.709c-.23.301-.759.876-1.37.745.017-.014.032-.028.047-.042.213-.197.296-.601.685-.724.19-.06.418-.037.637.021zm-2.147 2.193c-.631.424-.76.79-.877.716-.122-.077-.149-.395.05-.604.138-.145.235-.356.42-.584.156.111.322.268.407.471zm2.953-.904c-.055.011-.116.024-.182.038-.115-.21-.172-.465-.169-.757.002-.147.019-.281.038-.387.062.029.118.057.166.082-.014.089-.025.194-.026.308-.003.23.035.493.173.716zm-.523-1.196c-.054-.021-.11-.041-.167-.059-.037.108-.09.289-.114.503-.039.346.014.649.153.893.062-.014.123-.028.182-.041-.295-.452-.133-1.064-.054-1.296z"/><path fill="var(--color45, #0cad69)" d="M32.522 22.654c-.831 1.015-2.7 2.053-4.698 2.656-.694.209-1.29.366-1.798.484-.4.093-.747.161-1.044.211-1.148.193-1.57.112-1.57.112s-.708-.228-.405-1.378c0 0 1.343-.309 2.383-.823.212-.105.412-.218.585-.339.041-.028.081-.057.121-.087.967-.708 1.794-1.67 3.973-2.54 0 0 1.14-.692 2.056-.382.137.046.266.113.383.205.664.522.576 1.197.015 1.882z"/><path fill="var(--color46, #108e59)" d="M28.451 24.999l-.433.059-2.628-1.143c.212-.105.412-.218.585-.339.04-.028.081-.057.121-.087l2.356 1.509zm-2.426.795c-.4.093-.747.161-1.044.211-.836-.227-1.838-.651-1.838-.651l.065-.519 2.817.959zm6.496-3.14c-.686-.922-.55-1.694-.397-2.087.137.046.266.113.383.205.664.522.576 1.197.014 1.882z"/><path fill="var(--color46, #108e59)" d="M23.12 25.082c.699-.137 2.136-.724 3.845-1.569 1.278-.633 2.755-1.448 2.98-1.743.121-.159.156-.292.102-.395-.08-.154-.326-.18-.439-.184-.029-.001-.053.023-.052.052.001.026.022.048.048.049.111.004.303.031.354.13.042.082-.027.202-.093.289-.181.238-1.419.958-2.944 1.713-1.313.65-3.006 1.402-3.82 1.561l.019.098z"/><path fill="var(--color46, #108e59)" d="M23.271 24.596c.052.614.187 1.176.513 1.616 0 0-.304.2-.568.036-.201-.125-.558-1.096-.385-1.598.176-.087.326-.113.439-.053z"/><path fill="var(--color5, #fff)" d="M28.084 26.183s.117.03.308.082c.054.015.115.032.18.05.086.024.181.051.282.081.058.017.117.034.179.053.763.227 1.771.563 2.167.852.028.02.055.04.081.061.602.464.706.838.828.772.127-.069.175-.384-.01-.606-.128-.153-.211-.37-.381-.61-.046-.065-.098-.131-.16-.199-.271-.298-.714-.616-.958-.854-.016-.015-.031-.03-.045-.045-.2-.21-.256-.619-.636-.767-.186-.072-.414-.064-.637-.02-.04.008-.079.017-.118.026-.058.015-.115.031-.171.048-.076.024-.149.05-.215.076-.064.025-.121.049-.171.071-.121.053-.196.094-.196.094l-.326.835z"/><path fill="var(--color49, #80d7b2)" d="M29.281 25.032c.21.315.7.923 1.318.833-.016-.015-.031-.03-.045-.045-.2-.21-.256-.619-.636-.767-.186-.072-.414-.064-.637-.02zm1.999 2.329c.601.464.706.838.828.772.127-.069.175-.384-.01-.606-.128-.153-.211-.37-.381-.61-.163.1-.339.246-.437.444zm-2.888-1.095c.054.015.114.032.18.05.128-.202.203-.453.218-.744.008-.147 0-.282-.012-.388-.064.025-.121.049-.171.071.008.089.012.195.006.309-.012.229-.067.49-.22.703zm.462.13c.058.017.117.034.179.053.155-.234.228-.533.211-.881-.01-.214-.051-.399-.081-.509-.058.015-.115.031-.17.048.064.236.185.858-.138 1.289z"/><path fill="var(--color45, #0cad69)" d="M28.306 25.019c.228 1.168-.494 1.349-.494 1.349s-1.075.132-4.35-1.094c-1.888-.707-3.629-1.812-4.433-2.848-.59-.761-.676-1.484.056-1.986.169-.116.358-.182.554-.213.906-.142 1.976.468 1.976.468 2.205 1.052 1.653 1.414 3.492 2.585 1.052.67 3.198 1.739 3.198 1.739z"/><path fill="var(--color46, #108e59)" d="M19.64 20.227c.035.395.095 1.716-.61 2.199-.59-.761-.676-1.484.056-1.986.169-.116.358-.182.554-.213zm8.53 5.127c-.688-.182-2.084-.862-3.734-1.817-1.234-.715-2.655-1.625-2.859-1.934-.11-.167-.136-.302-.076-.401.089-.149.337-.159.45-.155.029.001.051.026.049.055-.003.026-.025.046-.051.045-.111-.003-.304.011-.361.106-.047.079.014.203.074.294.165.249 1.353 1.049 2.826 1.902 1.268.735 2.908 1.595 3.709 1.807l-.026.097z"/><path fill="var(--color46, #108e59)" d="M28.051 24.859c-.092.609-.263 1.161-.618 1.579 0 0 .291.22.564.073.209-.112.628-1.057.488-1.57-.17-.098-.318-.134-.434-.082z"/><path fill="var(--color2, #fb4c47)" d="M31.353 20.206c-.244.313-.582.488-.849.667-.644.431-1.95.703-1.852-.78s1.22-.882.395-3.487c-.352-1.111-.595-3.402-.595-3.402s1.844 1.292 2.935 4.478c.085.248.149.475.196.682.211.941.052 1.483-.229 1.843z"/><path fill="var(--color36, #b63a37)" d="M31.353 20.206c-.4-.714-.068-1.421.229-1.843.211.941.052 1.483-.229 1.843zm-2.706.152c-.02 0-.039-.014-.043-.035-.003-.013-.065-.314.058-.716.113-.368.411-.893 1.189-1.297.022-.011.048-.003.06.019s.003.048-.019.06c-.748.39-1.035.889-1.144 1.24-.118.38-.059.673-.058.676.005.024-.01.047-.034.052-.003.001-.006.001-.009.001z"/><path fill="var(--color36, #b63a37)" d="M29.317 18.741c-.006.001-.012 0-.018-.002-.023-.008-.036-.033-.028-.056.143-.426.235-.609.239-.616.011-.022.038-.03.059-.019s.03.038.019.059c-.001.002-.093.185-.234.604-.006.017-.021.028-.038.03z"/><path fill="var(--color36, #b63a37)" d="M29.367 18.547c-.024 0-.044-.02-.044-.044 0-.868-1.16-2.834-1.172-2.854-.012-.021-.006-.048.015-.061s.048-.005.061.015c.048.082 1.184 2.006 1.184 2.899 0 .024-.02.044-.044.044z"/><path fill="var(--color36, #b63a37)" d="M28.546 16.316c-.009 0-.018-.003-.026-.009-.15-.112-.53-.211-.534-.212-.024-.006-.038-.03-.032-.054s.03-.038.054-.032c.016.004.401.105.565.227.019.015.024.042.009.062-.009.012-.022.018-.035.018z"/><path fill="var(--color50, #fab893)" d="M28.005 22.516c.007.078.014.16.024.226.018.125.047.193.109.074.014-.027.025-.061.034-.1.054-.229.036-.633.061-.72.028-.1.145-.384.155-.4-.005.012-.058.186-.064.293-.006.101 0 .223 0 .47 0 .108.004.22.018.301.018.105.051.158.114.086.031-.036.051-.099.064-.173.034-.193.022-.466.04-.556.024-.12.121-.313.127-.325-.037.123-.037.111-.057.273-.015.113-.041.414-.013.549.012.058.034.086.072.054.059-.05.099-.123.128-.206.032-.094.049-.2.06-.303.021-.194.099-.314.099-.314-.044.21-.067.413-.055.518.009.074.036.099.087.043.1-.11.201-.473.236-.61l.003-.012c.001-.004.002-.008.003-.011.005-.018.007-.029.007-.029.029-.114.055-.228.094-.33.057-.151.142-.277.304-.337.369-.137.256-.84-.262-.882-.151-.012-.3.038-.419.132-.075.06-.182.144-.289.226-.01.013-.347.43-.453.69-.107.264-.198.681-.219.8s-.029.346-.008.573z"/><path fill="var(--color2, #fb4c47)" d="M19.864 20.552c.246.321.585.5.855.684.648.442 1.962.721 1.864-.8s-1.228-.904-.397-3.576c.354-1.14.397-3.411.397-3.411s-1.654 1.247-2.752 4.514c-.086.254-.15.487-.197.699-.212.965-.053 1.521.231 1.89z"/><path fill="var(--color36, #b63a37)" d="M19.874 20.615c.4-.714.068-1.421-.229-1.843-.211.941-.052 1.483.229 1.843zm2.706.152c.02 0 .039-.014.043-.035.003-.013.065-.314-.058-.716-.113-.368-.411-.892-1.189-1.297-.022-.011-.048-.003-.06.019s-.003.048.019.06c.748.389 1.035.889 1.144 1.24.118.38.059.673.058.676-.005.024.01.047.034.052.003.001.006.001.009.001z"/><path fill="var(--color36, #b63a37)" d="M21.91 19.15c.006.001.012 0 .018-.002.023-.008.036-.033.028-.056-.143-.426-.235-.609-.239-.616-.011-.022-.038-.03-.059-.019s-.03.038-.019.059c.001.002.093.185.234.604.006.017.021.028.037.03z"/><path fill="var(--color36, #b63a37)" d="M21.86 18.956c.024 0 .044-.02.044-.044 0-.868 1.16-2.834 1.172-2.854.012-.021.006-.048-.015-.061s-.048-.005-.061.016c-.048.081-1.184 2.006-1.184 2.899 0 .024.02.044.044.044z"/><path fill="var(--color36, #b63a37)" d="M22.681 16.725c.009 0 .018-.003.026-.009.15-.112.53-.211.534-.212.024-.006.038-.03.032-.054s-.03-.038-.054-.032c-.016.004-.401.105-.565.227-.019.015-.023.042-.009.062.009.012.022.018.035.018z"/><path fill="var(--color50, #fab893)" d="M23.222 22.925c-.007.078-.014.16-.023.226-.018.125-.047.193-.109.075-.014-.027-.025-.061-.034-.1-.053-.229-.036-.633-.061-.72-.028-.1-.145-.384-.155-.4.005.012.058.186.064.293.006.1 0 .223 0 .47 0 .108-.004.22-.018.301-.018.105-.052.158-.114.086-.031-.036-.051-.099-.064-.173-.034-.193-.022-.466-.04-.556-.024-.12-.121-.313-.128-.325.037.123.037.111.057.273.014.113.041.414.013.549-.012.058-.034.086-.072.054-.059-.05-.099-.123-.128-.206-.032-.094-.049-.2-.06-.303-.021-.194-.099-.314-.099-.314.044.21.067.413.054.518-.009.074-.036.099-.087.043-.1-.11-.201-.473-.236-.61l-.003-.012c-.001-.004-.002-.008-.003-.011-.005-.018-.007-.029-.007-.029-.029-.114-.055-.228-.094-.33-.057-.151-.142-.277-.304-.337-.37-.137-.256-.84.262-.882.151-.012.3.038.419.132.075.06.182.144.289.226.01.013.347.43.453.69.107.264.198.681.219.8s.029.347.008.573z"/></symbol><symbol id="icon-pagelogo" viewBox="0 0 32 32"><path fill="var(--color2, #fb4c47)" d="M22.817 16c0 .533.432.966.966.966h2.197c1.118 0 2.223.256 3.221.76.298.15.639.226 1.001.201.957-.064 1.734-.843 1.795-1.8.072-1.124-.819-2.058-1.928-2.058-.3 0-.585.069-.838.191-1.017.491-2.122.775-3.252.775h-2.196c-.533 0-.966.432-.966.966zM9.729 22.27c-.312-.312-.817-.312-1.129 0l-1.284 1.284c-.654.654-1.449 1.15-2.327 1.439-.262.086-.506.242-.703.467-.522.597-.521 1.506.003 2.102.615.699 1.682.725 2.33.076.176-.176.302-.382.378-.602.308-.882.788-1.693 1.448-2.354l1.284-1.284c.312-.312.312-.817 0-1.129zm11.582-11.581c.326.326.855.326 1.182 0l1.344-1.344c.684-.684 1.517-1.203 2.435-1.506.274-.09.529-.253.735-.489.547-.625.545-1.576-.003-2.199-.644-.732-1.76-.758-2.438-.08-.184.184-.316.4-.396.63-.322.923-.824 1.772-1.515 2.463l-1.343 1.344c-.326.326-.326.855 0 1.182z"/><path fill="var(--color51, #ffa2a1)" d="M15.999 22.816c-.533 0-.966.432-.966.966v2.197c0 1.118-.256 2.223-.76 3.221-.15.298-.225.639-.201 1.001.064.957.843 1.734 1.8 1.795 1.124.072 2.058-.819 2.058-1.928 0-.3-.069-.585-.191-.838-.491-1.017-.775-2.122-.775-3.252v-2.196c0-.533-.432-.966-.966-.966z"/><path fill="var(--color2, #fb4c47)" d="M17.741 29.23c-.491-1.017-.775-2.122-.775-3.252v-2.196c0-.533-.432-.966-.966-.966s-.966.432-.966.966v2.196c0 1.13.284 2.234.775 3.252.122.253.191.538.191.838 0 .714-.388 1.338-.964 1.672.25.145.535.236.838.256 1.124.072 2.058-.819 2.058-1.928 0-.3-.069-.585-.191-.838z"/><path fill="var(--color52, #ff807e)" d="M8.792 12.011c1.742 0 3.155-1.412 3.155-3.155s-1.412-3.155-3.155-3.155c-1.742 0-3.155 1.413-3.155 3.155s1.413 3.155 3.155 3.155z"/><path fill="var(--color2, #fb4c47)" d="M8.791 5.701c-.337 0-.661.053-.966.151 1.27.408 2.189 1.598 2.189 3.004s-.919 2.596-2.189 3.004c.304.098.629.151.966.151 1.742 0 3.155-1.412 3.155-3.155s-1.413-3.155-3.155-3.155z"/><path fill="var(--color53, #ffbfbe)" d="M16 26.302c5.689 0 10.302-4.612 10.302-10.302S21.69 5.698 16 5.698C10.311 5.698 5.698 10.31 5.698 16S10.31 26.302 16 26.302z"/><path fill="var(--color54, #ffa2a2)" d="M16.001 5.698c-.326 0-.648.016-.966.045 5.237.487 9.336 4.893 9.336 10.256s-4.099 9.769-9.336 10.256c.318.03.64.045.966.045 5.69 0 10.302-4.612 10.302-10.302S21.691 5.696 16.001 5.696z"/><path fill="var(--color51, #ffa2a1)" d="M19.862 14.571c1.156 0 2.093-.937 2.093-2.092s-.937-2.093-2.093-2.093-2.093.937-2.093 2.093.937 2.092 2.093 2.092z"/><path fill="var(--color52, #ff807e)" d="M19.864 10.386c-.349 0-.677.086-.966.236.669.349 1.127 1.049 1.127 1.856s-.457 1.507-1.127 1.856c.289.151.617.236.966.236 1.156 0 2.093-.937 2.093-2.092s-.937-2.093-2.093-2.093zm-7.547 11.055c.782 0 1.416-.634 1.416-1.416s-.634-1.416-1.416-1.416c-.782 0-1.416.634-1.416 1.416s.634 1.416 1.416 1.416z"/><path fill="var(--color2, #fb4c47)" d="M23.008 25.572c1.067 0 1.932-.865 1.932-1.932s-.865-1.932-1.932-1.932-1.932.865-1.932 1.932.865 1.932 1.932 1.932z"/><path fill="var(--color52, #ff807e)" d="M23.008 21.709c-.352 0-.682.095-.966.259.577.334.966.958.966 1.673s-.389 1.338-.966 1.673c.284.164.614.259.966.259 1.067 0 1.932-.865 1.932-1.932s-.865-1.932-1.932-1.932z"/><path fill="var(--color2, #fb4c47)" d="M9.183 16c0 .533-.432.966-.966.966H6.021c-1.118 0-2.223.256-3.221.76-.298.15-.639.226-1.001.201-.958-.064-1.734-.843-1.795-1.8-.072-1.124.819-2.058 1.928-2.058.3 0 .585.069.838.191 1.017.491 2.122.775 3.252.775h2.196c.533 0 .966.432.966.966z"/><path fill="var(--color51, #ffa2a1)" d="M15.999 9.183c.533 0 .966-.432.966-.966V6.021c0-1.118.256-2.223.76-3.221.15-.298.226-.639.201-1.001-.064-.958-.843-1.734-1.8-1.795-1.124-.072-2.058.819-2.058 1.928 0 .3.069.585.191.838.491 1.017.775 2.122.775 3.252v2.196c0 .533.432.966.966.966z"/><path fill="var(--color2, #fb4c47)" d="M17.927 1.799c-.064-.958-.843-1.734-1.8-1.795-.4-.026-.776.071-1.094.256.541.315.919.884.963 1.539.024.361-.051.703-.201 1.001-.504.998-.76 2.103-.76 3.221v2.196c0 .533.432.966.966.966s.966-.432.966-.966V6.021c0-1.118.256-2.223.76-3.221.15-.298.226-.639.201-1.001z"/><path fill="var(--color52, #ff807e)" d="M30.07 14.069c-.3 0-.584.069-.838.191-.045.022-.09.042-.135.063.615.352 1.018 1.033.969 1.803-.042.659-.423 1.233-.968 1.547.035.017.07.033.104.051.297.15.639.225 1 .201.957-.064 1.733-.842 1.794-1.799.072-1.124-.818-2.057-1.926-2.057z"/></symbol></defs></svg>